<?xml version="1.0" encoding="UTF-8"?> <svg xmlns="http://www.w3.org/2000/svg" xmlns:xlink="http://www.w3.org/1999/xlink" id="EDGE" viewBox="0 0 900 900"><defs><style>.cls-1{fill:url(#Dégradé_sans_nom_15);}.cls-2{opacity:0.35;fill:url(#Dégradé_sans_nom_16);}.cls-2,.cls-4{isolation:isolate;}.cls-3{fill:url(#Dégradé_sans_nom_17);}.cls-4{opacity:0.41;fill:url(#Dégradé_sans_nom_18);}.cls-5{fill:url(#Dégradé_sans_nom_19);}.cls-6{fill:url(#Dégradé_sans_nom_20);}</style><linearGradient id="Dégradé_sans_nom_15" x1="211.17" y1="240.83" x2="837.87" y2="240.83" gradientTransform="matrix(1, 0, 0, -1, -4.63, 863.08)" gradientUnits="userSpaceOnUse"><stop offset="0" stop-color="#0c59a4"></stop><stop offset="1" stop-color="#114a8b"></stop></linearGradient><radialGradient id="Dégradé_sans_nom_16" cx="557.25" cy="230.17" r="335.25" gradientTransform="matrix(1, 0, 0, -0.95, -4.63, 845.92)" gradientUnits="userSpaceOnUse"><stop offset="0.72" stop-opacity="0"></stop><stop offset="0.95" stop-opacity="0.53"></stop><stop offset="1"></stop></radialGradient><linearGradient id="Dégradé_sans_nom_17" x1="541.69" y1="512.5" x2="150.16" y2="86.04" gradientTransform="matrix(1, 0, 0, -1, -4.63, 863.08)" gradientUnits="userSpaceOnUse"><stop offset="0" stop-color="#1b9de2"></stop><stop offset="0.16" stop-color="#1595df"></stop><stop offset="0.67" stop-color="#0680d7"></stop><stop offset="1" stop-color="#0078d4"></stop></linearGradient><radialGradient id="Dégradé_sans_nom_18" cx="299.09" cy="600.55" r="503.48" gradientTransform="matrix(0.15, -0.99, -0.8, -0.12, 683.71, 1067.66)" gradientUnits="userSpaceOnUse"><stop offset="0.76" stop-opacity="0"></stop><stop offset="0.95" stop-opacity="0.5"></stop><stop offset="1"></stop></radialGradient><radialGradient id="Dégradé_sans_nom_19" cx="253.38" cy="309.45" r="711.53" gradientTransform="matrix(-0.04, 1, 2.13, 0.08, -558.09, -111.61)" gradientUnits="userSpaceOnUse"><stop offset="0" stop-color="#35c1f1"></stop><stop offset="0.11" stop-color="#34c1ed"></stop><stop offset="0.23" stop-color="#2fc2df"></stop><stop offset="0.31" stop-color="#2bc3d2"></stop><stop offset="0.67" stop-color="#36c752"></stop></radialGradient><radialGradient id="Dégradé_sans_nom_20" cx="588.33" cy="710.33" r="342.14" gradientTransform="matrix(0.28, 0.96, 0.78, -0.23, 125.05, -129.34)" gradientUnits="userSpaceOnUse"><stop offset="0" stop-color="#66eb6e"></stop><stop offset="1" stop-color="#66eb6e" stop-opacity="0"></stop></radialGradient></defs><title>Plan de travail 1</title><g id="EDGE-2" data-name="EDGE"><path class="cls-1" d="M812.24,669.7a339.91,339.91,0,0,1-37,16.6A357.9,357.9,0,0,1,649,709c-166.3,0-311.2-114.4-311.2-261.2a110.52,110.52,0,0,1,57.8-96c-150.4,6.3-189.1,163.1-189.1,254.9,0,259.7,239.3,286,290.9,286,27.8,0,69.7-8.1,94.9-16l4.6-1.5A451.24,451.24,0,0,0,831,689.6a14.06,14.06,0,0,0-4.3-19.4A14.24,14.24,0,0,0,812.24,669.7Z"></path><path class="cls-2" d="M812.24,669.7a339.91,339.91,0,0,1-37,16.6A357.9,357.9,0,0,1,649,709c-166.3,0-311.2-114.4-311.2-261.2a110.52,110.52,0,0,1,57.8-96c-150.4,6.3-189.1,163.1-189.1,254.9,0,259.7,239.3,286,290.9,286,27.8,0,69.7-8.1,94.9-16l4.6-1.5A451.24,451.24,0,0,0,831,689.6a14.06,14.06,0,0,0-4.3-19.4A14.24,14.24,0,0,0,812.24,669.7Z"></path><path class="cls-3" d="M371.64,848.6a278.79,278.79,0,0,1-79.9-75C199.34,647,227,469.5,353.64,377.2a282.72,282.72,0,0,1,41.9-25.3c11-5.2,29.7-14.5,54.6-14.1a113.91,113.91,0,0,1,90.3,45.7,112.6,112.6,0,0,1,22.4,65.6c0-.7,86-279.8-281.2-279.8C127.24,169.2.34,315.6.34,444.1a456.26,456.26,0,0,0,42.6,196.8C139.84,847.6,376,949,592.64,876.8a265.58,265.58,0,0,1-220.7-28.1Z"></path><path class="cls-4" d="M371.64,848.6a278.79,278.79,0,0,1-79.9-75C199.34,647,227,469.5,353.64,377.2a282.72,282.72,0,0,1,41.9-25.3c11-5.2,29.7-14.5,54.6-14.1a113.91,113.91,0,0,1,90.3,45.7,112.6,112.6,0,0,1,22.4,65.6c0-.7,86-279.8-281.2-279.8C127.24,169.2.34,315.6.34,444.1a456.26,456.26,0,0,0,42.6,196.8C139.84,847.6,376,949,592.64,876.8a265.58,265.58,0,0,1-220.7-28.1Z"></path><path class="cls-5" d="M535.44,523.2c-2.8,3.7-11.6,8.8-11.6,19.9,0,9.2,6,18,16.6,25.4,50.5,35.2,145.8,30.5,146.1,30.5a209.52,209.52,0,0,0,106.4-29.3,215.86,215.86,0,0,0,107-185.9c.9-78.8-28.1-131.1-39.9-154.3C785.54,83.8,624.74,0,449.94,0,203.84,0,3.44,197.6,0,443.6c1.7-128.4,129.3-232.2,281.2-232.2,12.3,0,82.5,1.2,147.6,35.4,57.4,30.2,87.5,66.6,108.4,102.7,21.7,37.5,25.6,84.9,25.6,103.8S553.24,500.1,535.44,523.2Z"></path><path class="cls-6" d="M535.44,523.2c-2.8,3.7-11.6,8.8-11.6,19.9,0,9.2,6,18,16.6,25.4,50.5,35.2,145.8,30.5,146.1,30.5a209.52,209.52,0,0,0,106.4-29.3,215.86,215.86,0,0,0,107-185.9c.9-78.8-28.1-131.1-39.9-154.3C785.54,83.8,624.74,0,449.94,0,203.84,0,3.44,197.6,0,443.6c1.7-128.4,129.3-232.2,281.2-232.2,12.3,0,82.5,1.2,147.6,35.4,57.4,30.2,87.5,66.6,108.4,102.7,21.7,37.5,25.6,84.9,25.6,103.8S553.24,500.1,535.44,523.2Z"></path></g></svg> 