<svg width="221" height="228" viewBox="0 0 221 228" fill="none" xmlns="http://www.w3.org/2000/svg">
  <g clip-path="url(#clip0)">
    <path d="M4.89799 174.02L87.48 222.012C88.4573 222.514 89.5395 222.777 90.6381 222.78C91.7366 222.782 92.8202 222.525 93.8 222.028L219.28 149.572C221.03 148.572 221.03 146.93 219.28 145.91L136.698 97.9171C135.722 97.4224 134.643 97.1646 133.548 97.1646C132.453 97.1646 131.374 97.4224 130.398 97.9171L4.91299 170.357C3.16299 171.378 3.14699 173.015 4.89799 174.02Z" fill="#AABAFD"/>
    <path d="M102.484 178.897C102.268 178.971 102.081 179.11 101.949 179.296C101.816 179.481 101.745 179.703 101.745 179.931C101.745 180.159 101.816 180.381 101.949 180.567C102.081 180.752 102.268 180.891 102.484 180.965L122.841 192.795C123.394 193.077 124.005 193.225 124.625 193.226C125.246 193.227 125.857 193.081 126.411 192.801L166.525 169.641C166.741 169.567 166.928 169.428 167.06 169.243C167.193 169.057 167.264 168.835 167.264 168.607C167.264 168.379 167.193 168.157 167.06 167.972C166.928 167.786 166.741 167.647 166.525 167.573L146.169 155.743C145.616 155.461 145.005 155.314 144.385 155.313C143.764 155.312 143.153 155.457 142.599 155.737L102.484 178.897Z" fill="#2E4277"/>
    <path d="M3.604 172.205L3.62 177.036C3.65838 177.426 3.79871 177.799 4.0269 178.118C4.25509 178.436 4.56311 178.689 4.92 178.851L87.495 226.842C88.4746 227.338 89.5571 227.596 90.655 227.596C91.7529 227.596 92.8354 227.338 93.815 226.842L219.296 154.402C219.66 154.24 219.974 153.983 220.205 153.658C220.436 153.333 220.576 152.952 220.609 152.555L220.593 147.74C220.557 148.135 220.417 148.512 220.186 148.834C219.955 149.156 219.642 149.411 219.28 149.571L93.799 222.028C92.8192 222.525 91.7356 222.782 90.6371 222.78C89.5385 222.777 88.4563 222.514 87.479 222.012L4.896 174.02C4.53733 173.862 4.22802 173.609 4.00064 173.29C3.77326 172.971 3.63624 172.596 3.604 172.205Z" fill="#798FFE"/>
    <path d="M130.15 2.35897C131.899 1.34897 133.321 2.15897 133.326 4.16897L133.55 92.451C133.491 93.5464 133.175 94.6125 132.626 95.5626C132.078 96.5127 131.313 97.3201 130.394 97.919L6.72098 169.313C4.97198 170.323 3.54998 169.5 3.54498 167.503L3.32098 79.219C3.37872 78.1235 3.69474 77.0573 4.24323 76.1074C4.79173 75.1574 5.55715 74.3506 6.47698 73.753L130.15 2.35897Z" fill="#1B2A4F"/>
    <path d="M0 77.3L0.227 165.578C0.187698 165.967 0.252543 166.36 0.414899 166.716C0.577255 167.072 0.83129 167.378 1.151 167.604L4.463 169.53C4.14331 169.304 3.88961 168.996 3.72793 168.64C3.56625 168.283 3.50242 167.89 3.543 167.5L3.317 79.226C3.37751 78.1291 3.69503 77.0618 4.24395 76.1103C4.79286 75.1587 5.55779 74.3495 6.477 73.748L130.15 2.361C130.473 2.12974 130.851 1.9871 131.246 1.94727C131.642 1.90745 132.04 1.97182 132.403 2.134L129.086 0.204996C128.723 0.0429224 128.325 -0.0213995 127.929 0.018424C127.534 0.0582475 127.156 0.200829 126.833 0.431996L3.163 71.836C2.24208 72.4326 1.47541 73.2387 0.925679 74.1883C0.375943 75.138 0.0587401 76.2043 0 77.3V77.3Z" fill="#384E85"/>
    <path d="M7.78497 78.146L7.99997 163.431L129.086 93.531L128.871 8.245L7.78497 78.146Z" fill="#384E85"/>
    <path d="M7.78497 78.146L7.82097 92.446L128.906 22.548L128.87 8.24805L7.78497 78.146Z" fill="#AABAFD"/>
    <path d="M108.906 25.166C110.073 24.492 111.022 25.01 111.026 26.351C110.988 27.0822 110.777 27.794 110.411 28.4282C110.045 29.0624 109.534 29.601 108.92 30C107.773 30.662 106.82 30.121 106.82 28.78C106.858 28.0557 107.066 27.3506 107.429 26.7225C107.792 26.0943 108.298 25.5609 108.906 25.166V25.166Z" fill="white"/>
    <path d="M115.648 21.2729C116.795 20.6109 117.748 21.1279 117.748 22.4729C117.71 23.2002 117.501 23.9081 117.138 24.5395C116.775 25.1709 116.268 25.7078 115.659 26.1069C114.492 26.7809 113.543 26.2399 113.539 24.8989C113.578 24.1706 113.789 23.462 114.156 22.8315C114.523 22.2011 115.034 21.6668 115.648 21.2729V21.2729Z" fill="white"/>
    <path d="M122.371 17.391C123.538 16.717 124.487 17.235 124.491 18.576C124.453 19.3072 124.242 20.019 123.876 20.6531C123.51 21.2873 122.999 21.8259 122.385 22.225C121.218 22.899 120.269 22.358 120.265 21.017C120.304 20.2889 120.515 19.5805 120.881 18.95C121.247 18.3196 121.758 17.7852 122.371 17.391V17.391Z" fill="white"/>
    <path d="M30.221 168.095L22.294 172.701L18.88 170.73L26.806 166.124L30.221 168.095Z" fill="#384E85"/>
    <path d="M115.508 118.531L107.571 123.144L104.153 121.177L112.09 116.564L115.508 118.531Z" fill="#384E85"/>
    <path d="M136.831 106.141L128.894 110.754L125.479 108.782L133.416 104.169L136.831 106.141Z" fill="#384E85"/>
    <path d="M122.605 134.985L114.679 139.591L107.631 135.522L115.557 130.916L122.605 134.985Z" fill="#384E85"/>
    <path d="M161.7 132.855L153.763 137.468L146.704 133.392L154.641 128.779L161.7 132.855Z" fill="#384E85"/>
    <path d="M172.367 126.658L164.432 131.27L148.484 122.064L156.421 117.451L172.367 126.658Z" fill="#384E85"/>
    <path d="M145.718 111.271L131.083 119.771L124.024 115.696L138.659 107.191L145.718 111.271Z" fill="#384E85"/>
    <path d="M128.364 121.357L120.427 125.97L113.368 121.895L121.305 117.282L128.364 121.357Z" fill="#384E85"/>
    <path d="M154.593 116.396L135.99 127.207L128.942 123.137L147.542 112.326L154.593 116.396Z" fill="#384E85"/>
    <path d="M133.272 128.787L125.335 133.4L118.287 129.331L126.224 124.715L133.272 128.787Z" fill="#384E85"/>
    <path d="M142.158 133.917L134.221 138.53L127.162 134.458L135.099 129.845L142.158 133.917Z" fill="#384E85"/>
    <path d="M117.698 127.554L109.761 132.167L102.705 128.091L110.642 123.478L117.698 127.554Z" fill="#384E85"/>
    <path d="M104.846 124.73L96.92 129.336L93.502 127.369L101.428 122.763L104.846 124.73Z" fill="#384E85"/>
    <path d="M94.187 130.922L86.249 135.535L82.834 133.564L90.772 128.955L94.187 130.922Z" fill="#384E85"/>
    <path d="M99.514 158.7L91.577 163.314L84.518 159.238L92.456 154.624L99.514 158.7Z" fill="#384E85"/>
    <path d="M83.521 137.122L75.595 141.728L72.18 139.757L80.107 135.147L83.521 137.122Z" fill="#384E85"/>
    <path d="M96.376 139.945L88.45 144.551L81.389 140.476L89.315 135.87L96.376 139.945Z" fill="#384E85"/>
    <path d="M72.865 143.313L64.928 147.926L61.513 145.955L69.45 141.342L72.865 143.313Z" fill="#384E85"/>
    <path d="M85.721 146.139L77.784 150.752L70.725 146.677L78.662 142.064L85.721 146.139Z" fill="#384E85"/>
    <path d="M101.284 147.377L93.357 151.984L86.309 147.914L94.235 143.308L101.284 147.377Z" fill="#384E85"/>
    <path d="M62.209 149.506L54.272 154.12L50.857 152.149L58.795 147.535L62.209 149.506Z" fill="#384E85"/>
    <path d="M75.064 152.33L67.127 156.943L60.069 152.868L68.006 148.255L75.064 152.33Z" fill="#384E85"/>
    <path d="M110.173 152.508L102.243 157.114L95.184 153.039L103.111 148.428L110.173 152.508Z" fill="#384E85"/>
    <path d="M90.627 153.571L82.69 158.184L75.642 154.113L83.579 149.5L90.627 153.571Z" fill="#384E85"/>
    <path d="M51.543 155.705L43.606 160.318L40.191 158.347L48.128 153.734L51.543 155.705Z" fill="#384E85"/>
    <path d="M64.398 158.53L56.461 163.143L49.402 159.068L57.339 154.455L64.398 158.53Z" fill="#384E85"/>
    <path d="M79.973 159.757L72.035 164.374L64.987 160.305L72.924 155.692L79.973 159.757Z" fill="#384E85"/>
    <path d="M53.739 164.722L45.802 169.335L38.747 165.259L46.684 160.646L53.739 164.722Z" fill="#384E85"/>
    <path d="M88.859 164.892L80.921 169.5L73.862 165.425L81.799 160.812L88.859 164.892Z" fill="#384E85"/>
    <path d="M69.305 165.96L61.368 170.573L54.32 166.504L62.257 161.891L69.305 165.96Z" fill="#384E85"/>
    <path d="M78.192 171.092L70.255 175.705L63.196 171.629L71.131 167.015L78.192 171.092Z" fill="#384E85"/>
    <path d="M119.513 157.373L79.144 180.834L72.085 176.758L112.455 153.297L119.513 157.373Z" fill="#384E85"/>
    <path d="M67.536 177.278L59.599 181.891L52.54 177.816L60.477 173.203L67.536 177.278Z" fill="#384E85"/>
    <path d="M58.65 172.152L40.057 182.957L33.011 178.888L51.602 168.083L58.65 172.152Z" fill="#384E85"/>
    <path d="M56.871 183.481L48.945 188.087L41.885 184.012L49.815 179.406L56.871 183.481Z" fill="#384E85"/>
    <path d="M76.427 182.414L57.827 193.219L50.768 189.144L69.364 178.338L76.427 182.414Z" fill="#384E85"/>
    <path d="M40.888 161.897L32.95 166.509L29.536 164.538L37.47 159.925L40.888 161.897Z" fill="#384E85"/>
    <path d="M126.162 112.339L118.225 116.952L114.81 114.981L122.747 110.368L126.162 112.339Z" fill="#384E85"/>
    <path d="M107.043 133.746L99.106 138.359L92.046 134.283L99.983 129.67L107.043 133.746Z" fill="#384E85"/>
    <path d="M129.722 151.439L121.785 156.052L114.726 151.976L122.663 147.363L129.722 151.439Z" fill="#384E85"/>
    <path d="M120.837 146.308L112.9 150.921L105.84 146.846L113.782 142.236L120.837 146.308Z" fill="#384E85"/>
    <path d="M111.949 141.177L104.011 145.792L96.963 141.723L104.9 137.11L111.949 141.177Z" fill="#384E85"/>
    <path d="M151.045 139.048L143.108 143.661L136.049 139.585L143.986 134.972L151.045 139.048Z" fill="#384E85"/>
    <path d="M140.379 145.247L132.453 149.853L125.394 145.777L133.32 141.171L140.379 145.247Z" fill="#384E85"/>
    <path d="M43.076 170.919L31.176 177.832L24.122 173.756L36.022 166.843L43.076 170.919Z" fill="#384E85"/>
  </g>
  <defs>
    <clipPath id="clip0">
      <rect width="220.609" height="227.596" fill="white" />
    </clipPath>
  </defs>
</svg>

