<?xml version="1.0" encoding="utf-8"?>
<!-- Generator: Adobe Illustrator 19.0.0, SVG Export Plug-In . SVG Version: 6.00 Build 0)  -->
<svg version="1.1" id="Layer_1" xmlns="http://www.w3.org/2000/svg" xmlns:xlink="http://www.w3.org/1999/xlink" x="0px" y="0px"
	 viewBox="0 0 500 500" style="enable-background:new 0 0 500 500;" xml:space="preserve">
<style type="text/css">
	.st0{fill:url(#XMLID_18_);}
	.st1{fill:url(#XMLID_19_);}
</style>
<g id="XMLID_1_">
	
		<linearGradient id="XMLID_18_" gradientUnits="userSpaceOnUse" x1="-0.1279" y1="-0.5206" x2="1.2979" y2="-0.5206" gradientTransform="matrix(0 248.101 -206.7185 0 111.9388 105.1902)">
		<stop  offset="0" style="stop-color:#FF1B2D"/>
		<stop  offset="0.3" style="stop-color:#FF1B2D"/>
		<stop  offset="0.4381" style="stop-color:#FA1A2C"/>
		<stop  offset="0.5939" style="stop-color:#ED1528"/>
		<stop  offset="0.7581" style="stop-color:#D60E21"/>
		<stop  offset="0.9272" style="stop-color:#B70519"/>
		<stop  offset="1" style="stop-color:#A70014"/>
	</linearGradient>
	<path id="XMLID_3_" class="st0" d="M190,352.8c-20.2-23.8-33.2-59-34.1-98.5v-8.6c0.9-39.5,14-74.7,34.1-98.5
		C216.2,113.3,254.7,98,298.2,98c26.8,0,52,1.9,73.4,16.1c-32.1-28.9-74.4-46.5-120.9-46.6H250C149.2,67.5,67.5,149.2,67.5,250
		c0,97.8,77,177.8,173.8,182.4c2.9,0.1,5.8,0.1,8.7,0.1c46.8,0,89.4-17.5,121.6-46.5c-21.4,14.3-45.2,14.8-72,14.8
		C256.3,401,216.1,386.9,190,352.8z"/>
	
		<linearGradient id="XMLID_19_" gradientUnits="userSpaceOnUse" x1="-0.1155" y1="-0.8067" x2="1.3102" y2="-0.8067" gradientTransform="matrix(0 219.4332 -167.8309 0 175.8454 119.6554)">
		<stop  offset="0" style="stop-color:#9C0000"/>
		<stop  offset="0.7" style="stop-color:#FF4B4B"/>
		<stop  offset="1" style="stop-color:#FF4B4B"/>
	</linearGradient>
	<path id="XMLID_4_" class="st1" d="M190,147.2c16.7-19.8,38.4-31.7,62-31.7c53.2,0,96.2,60.2,96.2,134.6
		c0,74.4-43.1,134.6-96.2,134.6c-23.7,0-45.2-12-62-31.7c26.2,33.9,65.2,55.6,108.5,55.6c26.7,0,51.8-8.1,73.1-22.4
		C409,352.7,432.5,304,432.5,250S409,147.3,371.6,114c-21.4-14.3-46.3-22.4-73.1-22.4C255,91.6,216.1,113.1,190,147.2z"/>
</g>
</svg>
