<svg xmlns="http://www.w3.org/2000/svg" width="29.682" height="31.786" viewBox="0 0 29.682 31.786">
  <g id="DECENTRALIZED" transform="translate(0 0)">
    <g id="lines" transform="translate(1.159 1.504)">
      <line id="Line-4" x2="6.299" transform="translate(15.1 22.763)" fill="none" stroke="rgba(69,78,224,0.5)" stroke-linecap="square" stroke-width="0.5"/>
      <line id="Line" y1="6.535" x2="1.732" transform="translate(19.627 22.724)" fill="none" stroke="rgba(69,78,224,0.5)" stroke-linecap="square" stroke-width="0.5"/>
      <line id="Line-2" x2="5.118" y2="2.047" transform="translate(21.398 22.763)" fill="none" stroke="rgba(69,78,224,0.5)" stroke-linecap="square" stroke-width="0.5"/>
      <line id="Line-3" x1="2.716" y2="6.574" transform="translate(21.398 16.189)" fill="none" stroke="rgba(69,78,224,0.5)" stroke-linecap="square" stroke-width="0.5"/>
      <line id="Line-3-2" data-name="Line-3" x1="6.102" y2="2.716" transform="translate(21.398 20.047)" fill="none" stroke="rgba(69,78,224,0.5)" stroke-linecap="square" stroke-width="0.5"/>
      <line id="Line-2-2" data-name="Line" x2="1.694" y2="5.49" transform="translate(3.953 13.305)" fill="none" stroke="rgba(69,78,224,0.5)" stroke-linecap="square" stroke-width="0.5"/>
      <line id="Line-2-3" data-name="Line-2" x1="5.375" y1="1.221" transform="translate(0.227 17.542)" fill="none" stroke="rgba(69,78,224,0.5)" stroke-linecap="square" stroke-width="0.5"/>
      <line id="Line-3-3" data-name="Line-3" x1="0.68" y1="4.945" transform="translate(5.602 18.763)" fill="none" stroke="rgba(69,78,224,0.5)" stroke-linecap="square" stroke-width="0.5"/>
      <line id="Line-3-4" data-name="Line-3" x1="8.671" y2="4.857" transform="translate(5.602 13.906)" fill="none" stroke="rgba(69,78,224,0.5)" stroke-linecap="square" stroke-width="0.5"/>
      <line id="Line-3-5" data-name="Line-3" x2="7.086" y2="8.818" transform="translate(14.312 13.945)" fill="none" stroke="rgba(69,78,224,0.5)" stroke-linecap="square" stroke-width="0.5"/>
      <line id="Line-3-6" data-name="Line-3" y1="3.637" x2="5.602" transform="translate(0 18.763)" fill="none" stroke="rgba(69,78,224,0.5)" stroke-linecap="square" stroke-width="0.5"/>
      <line id="Line-3-7" data-name="Line" x1="4.537" y1="3.526" transform="translate(19.328 6.192)" fill="none" stroke="rgba(69,78,224,0.5)" stroke-linecap="square" stroke-width="0.5"/>
      <line id="Line-2-4" data-name="Line-2" y1="2.082" x2="5.103" transform="translate(19.383 4.11)" fill="none" stroke="rgba(69,78,224,0.5)" stroke-linecap="square" stroke-width="0.5"/>
      <line id="Line-3-8" data-name="Line-3" y1="2.084" x2="10.11" transform="translate(9.273 6.193)" fill="none" stroke="rgba(69,78,224,0.5)" stroke-linecap="square" stroke-width="0.5"/>
      <line id="Line-3-9" data-name="Line-3" x1="1.496" y2="6.85" transform="translate(9.746 1.427)" fill="none" stroke="rgba(69,78,224,0.5)" stroke-linecap="square" stroke-width="0.5"/>
      <line id="Line-3-10" data-name="Line-3" x2="4.567" y2="5.669" transform="translate(9.746 8.276)" fill="none" stroke="rgba(69,78,224,0.5)" stroke-linecap="square" stroke-width="0.5"/>
      <line id="Line-3-11" data-name="Line-3" x2="6.377" y2="3.228" transform="translate(3.368 4.97)" fill="none" stroke="rgba(69,78,224,0.5)" stroke-linecap="square" stroke-width="0.5"/>
      <line id="Line-3-12" data-name="Line-3" y1="5.039" x2="1.89" transform="translate(7.856 8.198)" fill="none" stroke="rgba(69,78,224,0.5)" stroke-linecap="square" stroke-width="0.5"/>
      <line id="Line-3-13" data-name="Line-3" y1="7.713" x2="5.111" transform="translate(14.273 6.193)" fill="none" stroke="rgba(69,78,224,0.5)" stroke-linecap="square" stroke-width="0.5"/>
      <line id="Line-3-14" data-name="Line-3" x1="2.502" y2="6.193" transform="translate(19.383)" fill="none" stroke="rgba(69,78,224,0.5)" stroke-linecap="square" stroke-width="0.5"/>
    </g>
    <g id="steps" transform="translate(0 0)">
      <ellipse id="Oval" cx="1.024" cy="1.024" rx="1.024" ry="1.024" transform="translate(15.117 23.204)" fill="#454ee0"/>
      <ellipse id="Oval-2" data-name="Oval" cx="1.024" cy="1.024" rx="1.024" ry="1.024" transform="translate(24.25 16.669)" fill="#454ee0"/>
      <ellipse id="Oval-3" data-name="Oval" cx="1.024" cy="1.024" rx="1.024" ry="1.024" transform="translate(27.635 20.449)" fill="#454ee0"/>
      <ellipse id="Oval-4" data-name="Oval" cx="1.024" cy="1.024" rx="1.024" ry="1.024" transform="translate(26.612 25.251)" fill="#454ee0"/>
      <ellipse id="Oval-5" data-name="Oval" cx="1.024" cy="1.024" rx="1.024" ry="1.024" transform="translate(19.762 29.739)" fill="#454ee0"/>
      <ellipse id="Oval-6" data-name="Oval" cx="1.024" cy="1.024" rx="1.024" ry="1.024" transform="translate(21.494 23.204)" fill="#454ee0"/>
      <ellipse id="Oval-7" data-name="Oval" cx="1.024" cy="1.024" rx="1.024" ry="1.024" transform="translate(8.572 26.023) rotate(171)" fill="#454ee0"/>
      <ellipse id="Oval-8" data-name="Oval" cx="1.024" cy="1.024" rx="1.024" ry="1.024" transform="translate(2.342 24.833) rotate(171)" fill="#454ee0"/>
      <ellipse id="Oval-9" data-name="Oval" cx="1.024" cy="1.024" rx="1.024" ry="1.024" transform="translate(2.602 19.929) rotate(171)" fill="#454ee0"/>
      <ellipse id="Oval-10" data-name="Oval" cx="1.024" cy="1.024" rx="1.024" ry="1.024" transform="translate(6.243 15.621) rotate(171)" fill="#454ee0"/>
      <ellipse id="Oval-11" data-name="Oval" cx="1.024" cy="1.024" rx="1.024" ry="1.024" transform="translate(16.603 16.26) rotate(171)" fill="#454ee0"/>
      <ellipse id="Oval-12" data-name="Oval" cx="1.024" cy="1.024" rx="1.024" ry="1.024" transform="translate(7.977 21.15) rotate(171)" fill="#454ee0"/>
      <circle id="Oval-13" data-name="Oval" cx="1.024" cy="1.024" r="1.024" transform="matrix(0.719, -0.695, 0.695, 0.719, 10.914, 2.945)" fill="#454ee0"/>
      <circle id="Oval-14" data-name="Oval" cx="1.024" cy="1.024" r="1.024" transform="matrix(0.719, -0.695, 0.695, 0.719, 9.418, 9.716)" fill="#454ee0"/>
      <circle id="Oval-15" data-name="Oval" cx="1.024" cy="1.024" r="1.024" transform="matrix(0.719, -0.695, 0.695, 0.719, 3.04, 6.409)" fill="#454ee0"/>
      <circle id="Oval-16" data-name="Oval" cx="1.024" cy="1.024" r="1.024" transform="matrix(0.719, -0.695, 0.695, 0.719, 21.542, 1.422)" fill="#454ee0"/>
      <circle id="Oval-17" data-name="Oval" cx="1.024" cy="1.024" r="1.024" transform="matrix(0.719, -0.695, 0.695, 0.719, 24.142, 5.588)" fill="#454ee0"/>
      <circle id="Oval-18" data-name="Oval" cx="1.024" cy="1.024" r="1.024" transform="matrix(0.719, -0.695, 0.695, 0.719, 7.528, 14.755)" fill="#454ee0"/>
      <circle id="Oval-19" data-name="Oval" cx="1.024" cy="1.024" r="1.024" transform="matrix(0.719, -0.695, 0.695, 0.719, 23.631, 11.206)" fill="#454ee0"/>
      <circle id="Oval-20" data-name="Oval" cx="1.024" cy="1.024" r="1.024" transform="matrix(0.719, -0.695, 0.695, 0.719, 19.039, 7.67)" fill="#454ee0"/>
    </g>
  </g>
</svg>
