<svg xmlns="http://www.w3.org/2000/svg" width="225.388" height="227.596" viewBox="0 0 225.388 227.596">
  <g id="B-Notebook" transform="translate(-93.993 -246.247)">
    <g id="iconfinder-webbrowseronlaptop-4417111_116624_1_" data-name="iconfinder-webbrowseronlaptop-4417111_116624 (1)" transform="translate(93.993 246.247)">
      <g id="Grupo_1918" data-name="Grupo 1918" transform="translate(0)">
        <g id="Grupo_1908" data-name="Grupo 1908" transform="translate(0)">
          <g id="Grupo_1907" data-name="Grupo 1907">
            <g id="Grupo_1906" data-name="Grupo 1906">
              <g id="Grupo_1900" data-name="Grupo 1900" transform="translate(0 96.409)">
                <g id="Grupo_1897" data-name="Grupo 1897" transform="translate(0.017)">
                  <path id="Caminho_2794" data-name="Caminho 2794" d="M222.29,97.592l-84.371,47.619a7.292,7.292,0,0,1-6.457.016L3.262,73.333c-1.788-1-1.788-2.621,0-3.634L87.633,22.08a7.308,7.308,0,0,1,6.441,0l128.2,71.877C224.061,94.971,224.078,96.595,222.29,97.592Z" transform="translate(-1.921 -21.333)" fill="#b7c5fd"/>
                </g>
                <g id="Grupo_1898" data-name="Grupo 1898" transform="translate(52.126 55.831)">
                  <path id="Caminho_2795" data-name="Caminho 2795" d="M79.337,56.707c1.017.57,1.011,1.5,0,2.069L58.364,70.614a4.168,4.168,0,0,1-3.678.006L13.354,47.445c-1.017-.57-1.011-1.5,0-2.069L34.328,33.538a4.168,4.168,0,0,1,3.678-.006Z" transform="translate(-12.594 -33.108)" fill="#9aadfd"/>
                </g>
                <g id="Grupo_1899" data-name="Grupo 1899" transform="translate(0 50.184)">
                  <path id="Caminho_2796" data-name="Caminho 2796" d="M223.627,56.191l-.017,6.561a2.217,2.217,0,0,1-1.325,1.8l-84.371,47.619a7.345,7.345,0,0,1-6.457,0L3.258,40.294a2.208,2.208,0,0,1-1.341-1.833l.017-6.545a2.207,2.207,0,0,0,1.341,1.817l128.2,71.893a7.292,7.292,0,0,0,6.457-.016L222.3,57.992A2.164,2.164,0,0,0,223.627,56.191Z" transform="translate(-1.917 -31.917)" fill="#9aadfd"/>
                </g>
              </g>
              <g id="Grupo_1905" data-name="Grupo 1905" transform="translate(88.945)">
                <g id="Grupo_1901" data-name="Grupo 1901" transform="translate(0 1.91)">
                  <path id="Caminho_2797" data-name="Caminho 2797" d="M149.961,72.675a6.865,6.865,0,0,1,3.224,5.424l-.229,87.6c-.006,1.982-1.459,2.8-3.245,1.8L23.36,96.65a6.883,6.883,0,0,1-3.224-5.424l.229-87.6c.006-1.994,1.459-2.8,3.245-1.8Z" transform="translate(-20.136 -1.403)" fill="#9aadfd"/>
                </g>
                <g id="Grupo_1902" data-name="Grupo 1902" transform="translate(63.751 41.087)">
                  <path id="Caminho_2798" data-name="Caminho 2798" d="M35.968,10.032A5.892,5.892,0,0,1,38.742,14.7c0,1.71-1.242,2.415-2.792,1.545a5.886,5.886,0,0,1-2.756-4.657C33.2,9.877,34.435,9.173,35.968,10.032Z" transform="translate(-33.193 -9.665)" fill="#4466fb"/>
                </g>
                <g id="Grupo_1903" data-name="Grupo 1903" transform="translate(1.172)">
                  <path id="Caminho_2799" data-name="Caminho 2799" d="M155.647,77.7l-.232,87.593a2.169,2.169,0,0,1-.944,2.01l-3.389,1.914a2.168,2.168,0,0,0,.944-2.01l.232-87.593a6.917,6.917,0,0,0-3.229-5.435L22.677,3.343a2.383,2.383,0,0,0-2.3-.225L23.764,1.2a2.384,2.384,0,0,1,2.3.225l126.353,70.85A6.864,6.864,0,0,1,155.647,77.7Z" transform="translate(-20.376 -1)" fill="#b7c5fd"/>
                </g>
                <g id="Grupo_1904" data-name="Grupo 1904" transform="translate(4.56 16.712)">
                  <path id="Caminho_2800" data-name="Caminho 2800" d="M145,73.884l-.22,76.09L21.07,80.614l.22-76.09Z" transform="translate(-21.07 -4.525)" fill="#fff"/>
                </g>
              </g>
            </g>
          </g>
        </g>
        <g id="Grupo_1917" data-name="Grupo 1917" transform="translate(104.431 31.461)">
          <g id="Grupo_1915" data-name="Grupo 1915" transform="translate(0)">
            <g id="Grupo_1909" data-name="Grupo 1909" transform="translate(38.23 49.796)">
              <path id="Caminho_2801" data-name="Caminho 2801" d="M90.278,51.291l-.013,4.533L31.138,22.671l.013-4.533Z" transform="translate(-31.138 -18.137)" fill="#6bb5fb"/>
            </g>
            <g id="Grupo_1913" data-name="Grupo 1913" transform="translate(0.109)">
              <g id="Grupo_1910" data-name="Grupo 1910" transform="translate(38.062 69.728)">
                <path id="Caminho_2802" data-name="Caminho 2802" d="M90.266,55.495l-.013,4.533L31.126,26.874l.013-4.533Z" transform="translate(-31.126 -22.341)" fill="#6bb5fb"/>
              </g>
              <g id="Grupo_1911" data-name="Grupo 1911" transform="translate(38.092 59.798)">
                <path id="Caminho_2803" data-name="Caminho 2803" d="M90.272,53.4l-.013,4.461L31.132,24.708l.013-4.461Z" transform="translate(-31.132 -20.247)" fill="#6bb5fb"/>
              </g>
              <g id="Grupo_1912" data-name="Grupo 1912">
                <path id="Caminho_2804" data-name="Caminho 2804" d="M120.684,62.192l-.055,19L23.33,26.632l.055-19Z" transform="translate(-23.33 -7.635)" fill="#4466fb"/>
              </g>
            </g>
            <g id="Grupo_1914" data-name="Grupo 1914" transform="translate(0 28.393)">
              <path id="Caminho_2805" data-name="Caminho 2805" d="M54.78,31.231,54.709,55.7l-31.4-17.607.071-24.465Z" transform="translate(-23.308 -13.623)" fill="#798ffe"/>
            </g>
          </g>
        </g>
      </g>
      <g id="Grupo_1965" data-name="Grupo 1965" transform="translate(47.988 102.203)">
        <g id="Grupo_1919" data-name="Grupo 1919" transform="translate(73.644 41.361)">
          <path id="Caminho_2807" data-name="Caminho 2807" d="M42.311,35.9l-7.229,4.08-8.251-4.627,7.229-4.08Z" transform="translate(-26.831 -31.278)" fill="#384e85"/>
        </g>
        <g id="Grupo_1920" data-name="Grupo 1920" transform="translate(64.525 46.508)">
          <path id="Caminho_2808" data-name="Caminho 2808" d="M40.444,36.99l-7.229,4.08-8.251-4.627,7.229-4.08Z" transform="translate(-24.963 -32.363)" fill="#384e85"/>
        </g>
        <g id="Grupo_1943" data-name="Grupo 1943" transform="translate(0)">
          <g id="Grupo_1921" data-name="Grupo 1921" transform="translate(36.453)">
            <path id="Caminho_2809" data-name="Caminho 2809" d="M34.717,27.181l-7.253,4.093-8.251-4.627,7.253-4.093Z" transform="translate(-19.213 -22.555)" fill="#384e85"/>
          </g>
          <g id="Grupo_1922" data-name="Grupo 1922" transform="translate(47.534 6.213)">
            <path id="Caminho_2810" data-name="Caminho 2810" d="M36.987,28.492l-7.253,4.093-8.251-4.627,7.253-4.093Z" transform="translate(-21.483 -23.865)" fill="#384e85"/>
          </g>
          <g id="Grupo_1923" data-name="Grupo 1923" transform="translate(27.334 5.147)">
            <path id="Caminho_2811" data-name="Caminho 2811" d="M36.963,30.574l-7.253,4.094L17.345,27.734,24.6,23.64Z" transform="translate(-17.345 -23.64)" fill="#384e85"/>
          </g>
          <g id="Grupo_1924" data-name="Grupo 1924" transform="translate(58.616 12.427)">
            <path id="Caminho_2812" data-name="Caminho 2812" d="M39.257,29.8,32,33.9l-8.251-4.627,7.253-4.093Z" transform="translate(-23.753 -25.176)" fill="#384e85"/>
          </g>
          <g id="Grupo_1925" data-name="Grupo 1925" transform="translate(42.529 13.667)">
            <path id="Caminho_2813" data-name="Caminho 2813" d="M35.962,30.064l-7.253,4.093-8.251-4.627,7.253-4.094Z" transform="translate(-20.458 -25.437)" fill="#384e85"/>
          </g>
          <g id="Grupo_1926" data-name="Grupo 1926" transform="translate(9.119 15.441)">
            <path id="Caminho_2814" data-name="Caminho 2814" d="M29.1,30.438l-7.229,4.08-8.251-4.627,7.229-4.08Z" transform="translate(-13.614 -25.811)" fill="#384e85"/>
          </g>
          <g id="Grupo_1927" data-name="Grupo 1927" transform="translate(18.238 10.294)">
            <path id="Caminho_2815" data-name="Caminho 2815" d="M42.044,35.566l-7.229,4.08L15.482,28.806l7.229-4.08Z" transform="translate(-15.482 -24.726)" fill="#384e85"/>
          </g>
          <g id="Grupo_1928" data-name="Grupo 1928" transform="translate(69.697 18.64)">
            <path id="Caminho_2816" data-name="Caminho 2816" d="M41.527,31.113l-7.253,4.093-8.251-4.627,7.253-4.093Z" transform="translate(-26.022 -26.486)" fill="#384e85"/>
          </g>
          <g id="Grupo_1929" data-name="Grupo 1929" transform="translate(53.61 19.88)">
            <path id="Caminho_2817" data-name="Caminho 2817" d="M38.232,31.374l-7.253,4.093-8.251-4.627,7.253-4.093Z" transform="translate(-22.727 -26.748)" fill="#384e85"/>
          </g>
          <g id="Grupo_1930" data-name="Grupo 1930" transform="translate(20.2 21.654)">
            <path id="Caminho_2818" data-name="Caminho 2818" d="M31.365,31.748l-7.229,4.08L15.884,31.2l7.229-4.08Z" transform="translate(-15.884 -27.122)" fill="#384e85"/>
          </g>
          <g id="Grupo_1931" data-name="Grupo 1931" transform="translate(40.401 22.721)">
            <path id="Caminho_2819" data-name="Caminho 2819" d="M35.5,31.973l-7.229,4.08-8.251-4.627,7.229-4.08Z" transform="translate(-20.022 -27.347)" fill="#384e85"/>
          </g>
          <g id="Grupo_1932" data-name="Grupo 1932" transform="translate(80.778 24.854)">
            <path id="Caminho_2820" data-name="Caminho 2820" d="M43.8,32.423l-7.253,4.093L28.292,31.89,35.545,27.8Z" transform="translate(-28.292 -27.796)" fill="#384e85"/>
          </g>
          <g id="Grupo_1933" data-name="Grupo 1933" transform="translate(64.691 26.094)">
            <path id="Caminho_2821" data-name="Caminho 2821" d="M40.5,32.685l-7.253,4.093L25,32.151l7.253-4.093Z" transform="translate(-24.997 -28.058)" fill="#384e85"/>
          </g>
          <g id="Grupo_1934" data-name="Grupo 1934" transform="translate(0 20.587)">
            <path id="Caminho_2822" data-name="Caminho 2822" d="M38.308,37.737l-7.229,4.08L11.747,30.977l7.229-4.08Z" transform="translate(-11.747 -26.897)" fill="#384e85"/>
          </g>
          <g id="Grupo_1935" data-name="Grupo 1935" transform="translate(31.282 27.867)">
            <path id="Caminho_2823" data-name="Caminho 2823" d="M33.635,33.059l-7.229,4.08-8.251-4.627,7.229-4.08Z" transform="translate(-18.154 -28.432)" fill="#384e85"/>
          </g>
          <g id="Grupo_1936" data-name="Grupo 1936" transform="translate(51.482 28.934)">
            <path id="Caminho_2824" data-name="Caminho 2824" d="M37.772,33.284l-7.229,4.08-8.251-4.627,7.229-4.08Z" transform="translate(-22.291 -28.657)" fill="#384e85"/>
          </g>
          <g id="Grupo_1937" data-name="Grupo 1937" transform="translate(91.859 31.067)">
            <path id="Caminho_2825" data-name="Caminho 2825" d="M46.066,33.734l-7.253,4.093L30.562,33.2l7.253-4.094Z" transform="translate(-30.562 -29.107)" fill="#384e85"/>
          </g>
          <g id="Grupo_1938" data-name="Grupo 1938" transform="translate(75.796 32.321)">
            <path id="Caminho_2826" data-name="Caminho 2826" d="M42.752,33.985,35.5,38.078l-8.228-4.613,7.253-4.093Z" transform="translate(-27.272 -29.371)" fill="#384e85"/>
          </g>
          <g id="Grupo_1939" data-name="Grupo 1939" transform="translate(42.363 34.081)">
            <path id="Caminho_2827" data-name="Caminho 2827" d="M35.9,34.369l-7.229,4.08-8.251-4.627,7.229-4.08Z" transform="translate(-20.424 -29.742)" fill="#384e85"/>
          </g>
          <g id="Grupo_1940" data-name="Grupo 1940" transform="translate(62.563 35.148)">
            <path id="Caminho_2828" data-name="Caminho 2828" d="M40.042,34.594l-7.229,4.08-8.251-4.627,7.229-4.08Z" transform="translate(-24.561 -29.967)" fill="#384e85"/>
          </g>
          <g id="Grupo_1941" data-name="Grupo 1941" transform="translate(53.444 40.294)">
            <path id="Caminho_2829" data-name="Caminho 2829" d="M38.174,35.68l-7.229,4.08-8.251-4.627,7.229-4.08Z" transform="translate(-22.693 -31.053)" fill="#384e85"/>
          </g>
          <g id="Grupo_1942" data-name="Grupo 1942" transform="translate(22.162 33.014)">
            <path id="Caminho_2830" data-name="Caminho 2830" d="M65.486,53.051l-7.229,4.08L16.286,33.6l7.229-4.08Z" transform="translate(-16.286 -29.517)" fill="#384e85"/>
          </g>
        </g>
        <g id="Grupo_1944" data-name="Grupo 1944" transform="translate(88.65 70.295)">
          <path id="Caminho_2831" data-name="Caminho 2831" d="M45.385,42.007l-7.229,4.08L29.9,41.46l7.229-4.08Z" transform="translate(-29.904 -37.38)" fill="#384e85"/>
        </g>
        <g id="Grupo_1945" data-name="Grupo 1945" transform="translate(77.568 64.082)">
          <path id="Caminho_2832" data-name="Caminho 2832" d="M43.115,40.7l-7.229,4.08L27.635,40.15l7.229-4.08Z" transform="translate(-27.635 -36.07)" fill="#384e85"/>
        </g>
        <g id="Grupo_1946" data-name="Grupo 1946" transform="translate(66.487 57.868)">
          <path id="Caminho_2833" data-name="Caminho 2833" d="M40.845,39.386l-7.229,4.08-8.251-4.627,7.229-4.08Z" transform="translate(-25.365 -34.759)" fill="#384e85"/>
        </g>
        <g id="Grupo_1947" data-name="Grupo 1947" transform="translate(75.606 52.721)">
          <path id="Caminho_2834" data-name="Caminho 2834" d="M42.713,38.3l-7.229,4.08-8.251-4.627,7.229-4.08Z" transform="translate(-27.233 -33.674)" fill="#384e85"/>
        </g>
        <g id="Grupo_1948" data-name="Grupo 1948" transform="translate(84.726 47.574)">
          <path id="Caminho_2835" data-name="Caminho 2835" d="M44.581,37.215,37.352,41.3,29.1,36.668l7.229-4.08Z" transform="translate(-29.101 -32.588)" fill="#384e85"/>
        </g>
        <g id="Grupo_1949" data-name="Grupo 1949" transform="translate(97.959 44.748)">
          <path id="Caminho_2836" data-name="Caminho 2836" d="M47.315,36.619l-7.253,4.093-8.251-4.627,7.253-4.093Z" transform="translate(-31.811 -31.992)" fill="#384e85"/>
        </g>
        <g id="Grupo_1950" data-name="Grupo 1950" transform="translate(102.94 37.281)">
          <path id="Caminho_2837" data-name="Caminho 2837" d="M48.336,35.044l-7.253,4.093-8.251-4.627,7.253-4.093Z" transform="translate(-32.831 -30.417)" fill="#384e85"/>
        </g>
        <g id="Grupo_1951" data-name="Grupo 1951" transform="translate(136.208 55.934)">
          <path id="Caminho_2838" data-name="Caminho 2838" d="M55.126,38.965l-7.253,4.093-8.228-4.613L46.9,34.351Z" transform="translate(-39.645 -34.351)" fill="#384e85"/>
        </g>
        <g id="Grupo_1952" data-name="Grupo 1952" transform="translate(131.202 63.388)">
          <path id="Caminho_2839" data-name="Caminho 2839" d="M61.092,44.457,53.839,48.55,38.62,40.017l7.253-4.093Z" transform="translate(-38.62 -35.923)" fill="#384e85"/>
        </g>
        <g id="Grupo_1953" data-name="Grupo 1953" transform="translate(97.769 65.148)">
          <path id="Caminho_2840" data-name="Caminho 2840" d="M47.253,40.921,40.024,45l-8.251-4.627L39,36.295Z" transform="translate(-31.772 -36.295)" fill="#384e85"/>
        </g>
        <g id="Grupo_1954" data-name="Grupo 1954" transform="translate(117.993 66.228)">
          <path id="Caminho_2841" data-name="Caminho 2841" d="M62.476,47.362l-7.229,4.08L35.915,40.6l7.229-4.08Z" transform="translate(-35.915 -36.522)" fill="#384e85"/>
        </g>
        <g id="Grupo_1955" data-name="Grupo 1955" transform="translate(106.888 60.001)">
          <path id="Caminho_2842" data-name="Caminho 2842" d="M49.121,39.836l-7.229,4.08L33.64,39.289l7.229-4.08Z" transform="translate(-33.64 -35.209)" fill="#384e85"/>
        </g>
        <g id="Grupo_1956" data-name="Grupo 1956" transform="translate(120.121 57.175)">
          <path id="Caminho_2843" data-name="Caminho 2843" d="M51.855,39.24,44.6,43.333,36.35,38.706,43.6,34.613Z" transform="translate(-36.35 -34.613)" fill="#384e85"/>
        </g>
        <g id="Grupo_1957" data-name="Grupo 1957" transform="translate(125.103 49.708)">
          <path id="Caminho_2844" data-name="Caminho 2844" d="M52.875,37.665l-7.253,4.093-8.251-4.627,7.253-4.093Z" transform="translate(-37.371 -33.038)" fill="#384e85"/>
        </g>
        <g id="Grupo_1958" data-name="Grupo 1958" transform="translate(95.807 53.788)">
          <path id="Caminho_2845" data-name="Caminho 2845" d="M46.851,38.525l-7.229,4.08L31.37,37.979,38.6,33.9Z" transform="translate(-31.37 -33.899)" fill="#384e85"/>
        </g>
        <g id="Grupo_1959" data-name="Grupo 1959" transform="translate(109.04 50.961)">
          <path id="Caminho_2846" data-name="Caminho 2846" d="M49.585,37.929l-7.253,4.093L34.081,37.4,41.334,33.3Z" transform="translate(-34.081 -33.302)" fill="#384e85"/>
        </g>
        <g id="Grupo_1960" data-name="Grupo 1960" transform="translate(114.021 43.494)">
          <path id="Caminho_2847" data-name="Caminho 2847" d="M50.605,36.354l-7.253,4.093L35.1,35.821l7.253-4.093Z" transform="translate(-35.101 -31.728)" fill="#384e85"/>
        </g>
        <g id="Grupo_1961" data-name="Grupo 1961" transform="translate(147.289 62.148)">
          <path id="Caminho_2848" data-name="Caminho 2848" d="M57.419,40.288l-7.253,4.093-8.251-4.627,7.253-4.093Z" transform="translate(-41.915 -35.662)" fill="#384e85"/>
        </g>
        <g id="Grupo_1962" data-name="Grupo 1962" transform="translate(86.878 38.534)">
          <path id="Caminho_2849" data-name="Caminho 2849" d="M45.046,35.308,37.793,39.4l-8.251-4.627,7.253-4.093Z" transform="translate(-29.541 -30.682)" fill="#384e85"/>
        </g>
        <g id="Grupo_1963" data-name="Grupo 1963" transform="translate(99.755 76.522)">
          <path id="Caminho_2850" data-name="Caminho 2850" d="M47.636,43.307l-7.229,4.08-8.228-4.613,7.229-4.08Z" transform="translate(-32.179 -38.693)" fill="#384e85"/>
        </g>
        <g id="Grupo_1964" data-name="Grupo 1964" transform="translate(110.836 77.588)">
          <path id="Caminho_2851" data-name="Caminho 2851" d="M59.048,43.545,42.7,52.772l-8.251-4.627L50.8,38.918Z" transform="translate(-34.449 -38.918)" fill="#384e85"/>
        </g>
      </g>
    </g>
    <path id="Caminho_502" data-name="Caminho 502" d="M135.624,162.447,11.445,93.238V15.621L135.624,84.83Z" transform="translate(176.31 246.796)" fill="#364171"/>
    <path id="Caminho_3005" data-name="Caminho 3005" d="M3.511,4.066c1.939,0,3.512-.914,3.514-2.035S5.456,0,3.517.005,0,.919,0,2.041,1.572,4.069,3.511,4.066Z" transform="translate(262.163 376.62) rotate(-120)" fill="#6bb5fb"/>
    <path id="Caminho_3006" data-name="Caminho 3006" d="M3.511,4.066c1.939,0,3.512-.914,3.514-2.035S5.456,0,3.517.005,0,.919,0,2.041,1.572,4.069,3.511,4.066Z" transform="translate(252.943 371.766) rotate(-120)" fill="#6bb5fb"/>
    <path id="Caminho_3007" data-name="Caminho 3007" d="M3.511,4.066c1.939,0,3.512-.914,3.514-2.035S5.456,0,3.517.005,0,.919,0,2.041,1.572,4.069,3.511,4.066Z" transform="translate(243.723 366.911) rotate(-120)" fill="#6bb5fb"/>
    <path id="Caminho_3008" data-name="Caminho 3008" d="M3.511,4.066c1.939,0,3.512-.914,3.514-2.035S5.456,0,3.517.005,0,.919,0,2.041,1.572,4.069,3.511,4.066Z" transform="translate(234.505 362.056) rotate(-120)" fill="#ea1d76"/>
    <path id="Caminho_547" data-name="Caminho 547" d="M36.938,157.954,11.445,66.668,59.877,93.381V171L36.938,157.954Z" transform="translate(252.058 238.245)" fill="#e6e6fc" opacity="0.25"/>
  </g>
</svg>
