<svg xmlns="http://www.w3.org/2000/svg" width="224.627" height="227.596" viewBox="0 0 224.627 227.596">
  <g id="A-Notebook" transform="translate(-93.993 -246.247)">
    <g id="iconfinder-webbrowseronlaptop-4417111_116624_1_" data-name="iconfinder-webbrowseronlaptop-4417111_116624 (1)" transform="translate(93.992 246.247)">
      <g id="Grupo_1918" data-name="Grupo 1918" transform="translate(0 0)">
        <g id="Grupo_1908" data-name="Grupo 1908">
          <g id="Grupo_1907" data-name="Grupo 1907">
            <g id="Grupo_1906" data-name="Grupo 1906">
              <g id="Grupo_1900" data-name="Grupo 1900" transform="translate(3.658 96.409)">
                <g id="Grupo_1897" data-name="Grupo 1897" transform="translate(0)">
                  <path id="Caminho_2794" data-name="Caminho 2794" d="M3.249,97.592l84.086,47.619a7.245,7.245,0,0,0,6.435.016L221.537,73.333c1.782-1,1.782-2.621,0-3.634L137.45,22.08a7.262,7.262,0,0,0-6.419,0L3.266,93.958C1.483,94.971,1.467,96.595,3.249,97.592Z" transform="translate(-1.921 -21.333)" fill="#b7c5fd"/>
                </g>
                <g id="Grupo_1898" data-name="Grupo 1898" transform="translate(101.744 55.831)">
                  <path id="Caminho_2795" data-name="Caminho 2795" d="M13.352,56.707c-1.013.57-1.007,1.5,0,2.069l20.9,11.838a4.141,4.141,0,0,0,3.665.006L79.112,47.445c1.013-.57,1.007-1.5,0-2.069l-20.9-11.838a4.141,4.141,0,0,0-3.665-.006Z" transform="translate(-12.594 -33.108)" fill="#9aadfd"/>
                </g>
                <g id="Grupo_1899" data-name="Grupo 1899" transform="translate(0.008 50.184)">
                  <path id="Caminho_2796" data-name="Caminho 2796" d="M1.917,56.191l.017,6.561a2.217,2.217,0,0,0,1.32,1.8L87.34,112.171a7.3,7.3,0,0,0,6.435,0L221.541,40.294a2.207,2.207,0,0,0,1.337-1.833l-.016-6.545a2.207,2.207,0,0,1-1.337,1.817L93.759,105.627a7.245,7.245,0,0,1-6.435-.016L3.237,57.992A2.164,2.164,0,0,1,1.917,56.191Z" transform="translate(-1.917 -31.917)" fill="#9aadfd"/>
                </g>
              </g>
              <g id="Grupo_1905" data-name="Grupo 1905">
                <g id="Grupo_1901" data-name="Grupo 1901" transform="translate(3.382 1.91)">
                  <path id="Caminho_2797" data-name="Caminho 2797" d="M23.349,72.675A6.869,6.869,0,0,0,20.136,78.1l.228,87.6c.006,1.982,1.454,2.8,3.234,1.8L149.523,96.65a6.887,6.887,0,0,0,3.213-5.424l-.228-87.6c-.006-1.994-1.454-2.8-3.234-1.8Z" transform="translate(-20.136 -1.403)" fill="#9aadfd"/>
                </g>
                <g id="Grupo_1902" data-name="Grupo 1902" transform="translate(66.917 41.087)">
                  <path id="Caminho_2798" data-name="Caminho 2798" d="M35.958,10.032A5.9,5.9,0,0,0,33.193,14.7c0,1.71,1.238,2.415,2.783,1.545a5.889,5.889,0,0,0,2.747-4.657C38.718,9.877,37.485,9.173,35.958,10.032Z" transform="translate(-33.193 -9.665)" fill="#4466fb"/>
                </g>
                <g id="Grupo_1903" data-name="Grupo 1903" transform="translate(0)">
                  <path id="Caminho_2799" data-name="Caminho 2799" d="M20.376,77.7l.231,87.593a2.171,2.171,0,0,0,.941,2.01l3.377,1.914a2.171,2.171,0,0,1-.941-2.01l-.231-87.593a6.921,6.921,0,0,1,3.218-5.435L152.9,3.343a2.368,2.368,0,0,1,2.294-.225L151.812,1.2a2.369,2.369,0,0,0-2.294.225L23.593,72.278A6.868,6.868,0,0,0,20.376,77.7Z" transform="translate(-20.376 -1)" fill="#b7c5fd"/>
                </g>
                <g id="Grupo_1904" data-name="Grupo 1904" transform="translate(7.927 16.712)">
                  <path id="Caminho_2800" data-name="Caminho 2800" d="M21.07,73.884l.219,76.09L144.58,80.614l-.219-76.09Z" transform="translate(-21.07 -4.525)" fill="#fff"/>
                </g>
              </g>
            </g>
          </g>
        </g>
        <g id="Grupo_1917" data-name="Grupo 1917" transform="translate(23.415 31.461)">
          <g id="Grupo_1915" data-name="Grupo 1915">
            <g id="Grupo_1909" data-name="Grupo 1909" transform="translate(0.093 49.796)">
              <path id="Caminho_2801" data-name="Caminho 2801" d="M31.138,51.291l.013,4.533L90.078,22.671l-.013-4.533Z" transform="translate(-31.138 -18.137)" fill="#6bb5fb"/>
            </g>
            <g id="Grupo_1913" data-name="Grupo 1913" transform="translate(0)">
              <g id="Grupo_1910" data-name="Grupo 1910" transform="translate(0.151 69.728)">
                <path id="Caminho_2802" data-name="Caminho 2802" d="M31.126,55.495l.013,4.533L90.066,26.874l-.013-4.533Z" transform="translate(-31.126 -22.341)" fill="#6bb5fb"/>
              </g>
              <g id="Grupo_1911" data-name="Grupo 1911" transform="translate(0.122 59.798)">
                <path id="Caminho_2803" data-name="Caminho 2803" d="M31.132,53.4l.013,4.461L90.072,24.708l-.013-4.461Z" transform="translate(-31.132 -20.247)" fill="#6bb5fb"/>
              </g>
              <g id="Grupo_1912" data-name="Grupo 1912">
                <path id="Caminho_2804" data-name="Caminho 2804" d="M23.33,62.192l.055,19,96.97-54.557-.055-19Z" transform="translate(-23.33 -7.635)" fill="#4466fb"/>
              </g>
            </g>
            <g id="Grupo_1914" data-name="Grupo 1914" transform="translate(65.767 28.393)">
              <path id="Caminho_2805" data-name="Caminho 2805" d="M23.308,31.231,23.379,55.7l31.3-17.607L54.6,13.623Z" transform="translate(-23.308 -13.623)" fill="#798ffe"/>
            </g>
          </g>
        </g>
      </g>
      <g id="Grupo_1965" data-name="Grupo 1965" transform="translate(14.558 102.203)">
        <g id="Grupo_1919" data-name="Grupo 1919" transform="translate(73.419 41.361)">
          <path id="Caminho_2807" data-name="Caminho 2807" d="M26.831,35.9l7.2,4.08,8.224-4.627-7.2-4.08Z" transform="translate(-26.831 -31.278)" fill="#384e85"/>
        </g>
        <g id="Grupo_1920" data-name="Grupo 1920" transform="translate(82.508 46.508)">
          <path id="Caminho_2808" data-name="Caminho 2808" d="M24.963,36.99l7.2,4.08,8.224-4.627-7.2-4.08Z" transform="translate(-24.963 -32.363)" fill="#384e85"/>
        </g>
        <g id="Grupo_1943" data-name="Grupo 1943" transform="translate(55.242)">
          <g id="Grupo_1921" data-name="Grupo 1921" transform="translate(55.219)">
            <path id="Caminho_2809" data-name="Caminho 2809" d="M19.213,27.181l7.228,4.093,8.224-4.627-7.228-4.093Z" transform="translate(-19.213 -22.555)" fill="#384e85"/>
          </g>
          <g id="Grupo_1922" data-name="Grupo 1922" transform="translate(44.175 6.213)">
            <path id="Caminho_2810" data-name="Caminho 2810" d="M21.483,28.492l7.228,4.093,8.224-4.627-7.228-4.093Z" transform="translate(-21.483 -23.865)" fill="#384e85"/>
          </g>
          <g id="Grupo_1923" data-name="Grupo 1923" transform="translate(60.207 5.147)">
            <path id="Caminho_2811" data-name="Caminho 2811" d="M17.345,30.574l7.228,4.094L36.9,27.734,29.669,23.64Z" transform="translate(-17.345 -23.64)" fill="#384e85"/>
          </g>
          <g id="Grupo_1924" data-name="Grupo 1924" transform="translate(33.131 12.427)">
            <path id="Caminho_2812" data-name="Caminho 2812" d="M23.753,29.8,30.981,33.9,39.2,29.269l-7.228-4.093Z" transform="translate(-23.753 -25.176)" fill="#384e85"/>
          </g>
          <g id="Grupo_1925" data-name="Grupo 1925" transform="translate(49.163 13.667)">
            <path id="Caminho_2813" data-name="Caminho 2813" d="M20.458,30.064l7.228,4.093,8.224-4.627-7.228-4.094Z" transform="translate(-20.458 -25.437)" fill="#384e85"/>
          </g>
          <g id="Grupo_1926" data-name="Grupo 1926" transform="translate(82.484 15.441)">
            <path id="Caminho_2814" data-name="Caminho 2814" d="M13.614,30.438l7.2,4.08,8.224-4.627-7.2-4.08Z" transform="translate(-13.614 -25.811)" fill="#384e85"/>
          </g>
          <g id="Grupo_1927" data-name="Grupo 1927" transform="translate(62.352 10.294)">
            <path id="Caminho_2815" data-name="Caminho 2815" d="M15.482,35.566l7.2,4.08,19.267-10.84-7.2-4.08Z" transform="translate(-15.482 -24.726)" fill="#384e85"/>
          </g>
          <g id="Grupo_1928" data-name="Grupo 1928" transform="translate(22.087 18.64)">
            <path id="Caminho_2816" data-name="Caminho 2816" d="M26.022,31.113l7.228,4.093,8.224-4.627-7.228-4.093Z" transform="translate(-26.022 -26.486)" fill="#384e85"/>
          </g>
          <g id="Grupo_1929" data-name="Grupo 1929" transform="translate(38.12 19.88)">
            <path id="Caminho_2817" data-name="Caminho 2817" d="M22.727,31.374l7.228,4.093,8.224-4.627-7.228-4.093Z" transform="translate(-22.727 -26.748)" fill="#384e85"/>
          </g>
          <g id="Grupo_1930" data-name="Grupo 1930" transform="translate(71.44 21.654)">
            <path id="Caminho_2818" data-name="Caminho 2818" d="M15.884,31.748l7.2,4.08L31.312,31.2l-7.2-4.08Z" transform="translate(-15.884 -27.122)" fill="#384e85"/>
          </g>
          <g id="Grupo_1931" data-name="Grupo 1931" transform="translate(51.308 22.721)">
            <path id="Caminho_2819" data-name="Caminho 2819" d="M20.022,31.973l7.2,4.08,8.224-4.627-7.2-4.08Z" transform="translate(-20.022 -27.347)" fill="#384e85"/>
          </g>
          <g id="Grupo_1932" data-name="Grupo 1932" transform="translate(11.044 24.854)">
            <path id="Caminho_2820" data-name="Caminho 2820" d="M28.292,32.423l7.228,4.093,8.224-4.627L36.516,27.8Z" transform="translate(-28.292 -27.796)" fill="#384e85"/>
          </g>
          <g id="Grupo_1933" data-name="Grupo 1933" transform="translate(27.076 26.094)">
            <path id="Caminho_2821" data-name="Caminho 2821" d="M25,32.685l7.228,4.093,8.224-4.627-7.228-4.093Z" transform="translate(-24.997 -28.058)" fill="#384e85"/>
          </g>
          <g id="Grupo_1934" data-name="Grupo 1934" transform="translate(80.528 20.587)">
            <path id="Caminho_2822" data-name="Caminho 2822" d="M11.747,37.737l7.2,4.08,19.267-10.84-7.2-4.08Z" transform="translate(-11.747 -26.897)" fill="#384e85"/>
          </g>
          <g id="Grupo_1935" data-name="Grupo 1935" transform="translate(60.396 27.867)">
            <path id="Caminho_2823" data-name="Caminho 2823" d="M18.154,33.059l7.2,4.08,8.224-4.627-7.2-4.08Z" transform="translate(-18.154 -28.432)" fill="#384e85"/>
          </g>
          <g id="Grupo_1936" data-name="Grupo 1936" transform="translate(40.264 28.934)">
            <path id="Caminho_2824" data-name="Caminho 2824" d="M22.291,33.284l7.2,4.08,8.224-4.627-7.2-4.08Z" transform="translate(-22.291 -28.657)" fill="#384e85"/>
          </g>
          <g id="Grupo_1937" data-name="Grupo 1937" transform="translate(0 31.067)">
            <path id="Caminho_2825" data-name="Caminho 2825" d="M30.562,33.734l7.228,4.093L46.014,33.2l-7.228-4.094Z" transform="translate(-30.562 -29.107)" fill="#384e85"/>
          </g>
          <g id="Grupo_1938" data-name="Grupo 1938" transform="translate(16.032 32.321)">
            <path id="Caminho_2826" data-name="Caminho 2826" d="M27.272,33.985,34.5,38.078l8.2-4.613-7.228-4.093Z" transform="translate(-27.272 -29.371)" fill="#384e85"/>
          </g>
          <g id="Grupo_1939" data-name="Grupo 1939" transform="translate(49.353 34.081)">
            <path id="Caminho_2827" data-name="Caminho 2827" d="M20.424,34.369l7.2,4.08,8.224-4.627-7.2-4.08Z" transform="translate(-20.424 -29.742)" fill="#384e85"/>
          </g>
          <g id="Grupo_1940" data-name="Grupo 1940" transform="translate(29.22 35.148)">
            <path id="Caminho_2828" data-name="Caminho 2828" d="M24.561,34.594l7.2,4.08,8.224-4.627-7.2-4.08Z" transform="translate(-24.561 -29.967)" fill="#384e85"/>
          </g>
          <g id="Grupo_1941" data-name="Grupo 1941" transform="translate(38.309 40.294)">
            <path id="Caminho_2829" data-name="Caminho 2829" d="M22.693,35.68l7.2,4.08,8.224-4.627-7.2-4.08Z" transform="translate(-22.693 -31.053)" fill="#384e85"/>
          </g>
          <g id="Grupo_1942" data-name="Grupo 1942" transform="translate(35.879 33.014)">
            <path id="Caminho_2830" data-name="Caminho 2830" d="M16.286,53.051l7.2,4.08L65.32,33.6l-7.2-4.08Z" transform="translate(-16.286 -29.517)" fill="#384e85"/>
          </g>
        </g>
        <g id="Grupo_1944" data-name="Grupo 1944" transform="translate(58.465 70.295)">
          <path id="Caminho_2831" data-name="Caminho 2831" d="M29.9,42.007l7.2,4.08,8.224-4.627-7.2-4.08Z" transform="translate(-29.904 -37.38)" fill="#384e85"/>
        </g>
        <g id="Grupo_1945" data-name="Grupo 1945" transform="translate(69.508 64.082)">
          <path id="Caminho_2832" data-name="Caminho 2832" d="M27.635,40.7l7.2,4.08,8.224-4.627-7.2-4.08Z" transform="translate(-27.635 -36.07)" fill="#384e85"/>
        </g>
        <g id="Grupo_1946" data-name="Grupo 1946" transform="translate(80.552 57.868)">
          <path id="Caminho_2833" data-name="Caminho 2833" d="M25.365,39.386l7.2,4.08,8.224-4.627-7.2-4.08Z" transform="translate(-25.365 -34.759)" fill="#384e85"/>
        </g>
        <g id="Grupo_1947" data-name="Grupo 1947" transform="translate(71.464 52.721)">
          <path id="Caminho_2834" data-name="Caminho 2834" d="M27.233,38.3l7.2,4.08,8.224-4.627-7.2-4.08Z" transform="translate(-27.233 -33.674)" fill="#384e85"/>
        </g>
        <g id="Grupo_1948" data-name="Grupo 1948" transform="translate(62.375 47.574)">
          <path id="Caminho_2835" data-name="Caminho 2835" d="M29.1,37.215l7.2,4.08,8.224-4.627-7.2-4.08Z" transform="translate(-29.101 -32.588)" fill="#384e85"/>
        </g>
        <g id="Grupo_1949" data-name="Grupo 1949" transform="translate(49.163 44.748)">
          <path id="Caminho_2836" data-name="Caminho 2836" d="M31.811,36.619l7.228,4.093,8.224-4.627-7.228-4.093Z" transform="translate(-31.811 -31.992)" fill="#384e85"/>
        </g>
        <g id="Grupo_1950" data-name="Grupo 1950" transform="translate(44.199 37.281)">
          <path id="Caminho_2837" data-name="Caminho 2837" d="M32.831,35.044l7.228,4.093,8.224-4.627-7.228-4.093Z" transform="translate(-32.831 -30.417)" fill="#384e85"/>
        </g>
        <g id="Grupo_1951" data-name="Grupo 1951" transform="translate(11.067 55.934)">
          <path id="Caminho_2838" data-name="Caminho 2838" d="M39.645,38.965l7.228,4.093,8.2-4.613-7.228-4.094Z" transform="translate(-39.645 -34.351)" fill="#384e85"/>
        </g>
        <g id="Grupo_1952" data-name="Grupo 1952" transform="translate(9.088 63.388)">
          <path id="Caminho_2839" data-name="Caminho 2839" d="M38.62,44.457l7.228,4.093,15.167-8.533-7.228-4.093Z" transform="translate(-38.62 -35.923)" fill="#384e85"/>
        </g>
        <g id="Grupo_1953" data-name="Grupo 1953" transform="translate(49.376 65.148)">
          <path id="Caminho_2840" data-name="Caminho 2840" d="M31.772,40.921l7.2,4.08L47.2,40.375,40,36.295Z" transform="translate(-31.772 -36.295)" fill="#384e85"/>
        </g>
        <g id="Grupo_1954" data-name="Grupo 1954" transform="translate(18.177 66.228)">
          <path id="Caminho_2841" data-name="Caminho 2841" d="M35.915,47.362l7.2,4.08L62.387,40.6l-7.2-4.08Z" transform="translate(-35.915 -36.522)" fill="#384e85"/>
        </g>
        <g id="Grupo_1955" data-name="Grupo 1955" transform="translate(40.288 60.001)">
          <path id="Caminho_2842" data-name="Caminho 2842" d="M33.64,39.836l7.2,4.08,8.223-4.627-7.2-4.08Z" transform="translate(-33.64 -35.209)" fill="#384e85"/>
        </g>
        <g id="Grupo_1956" data-name="Grupo 1956" transform="translate(27.076 57.175)">
          <path id="Caminho_2843" data-name="Caminho 2843" d="M36.35,39.24l7.228,4.094L51.8,38.706l-7.228-4.093Z" transform="translate(-36.35 -34.613)" fill="#384e85"/>
        </g>
        <g id="Grupo_1957" data-name="Grupo 1957" transform="translate(22.111 49.708)">
          <path id="Caminho_2844" data-name="Caminho 2844" d="M37.371,37.665,44.6,41.758l8.224-4.627-7.228-4.093Z" transform="translate(-37.371 -33.038)" fill="#384e85"/>
        </g>
        <g id="Grupo_1958" data-name="Grupo 1958" transform="translate(51.332 53.788)">
          <path id="Caminho_2845" data-name="Caminho 2845" d="M31.37,38.525l7.2,4.08L46.8,37.979l-7.2-4.08Z" transform="translate(-31.37 -33.899)" fill="#384e85"/>
        </g>
        <g id="Grupo_1959" data-name="Grupo 1959" transform="translate(38.12 50.961)">
          <path id="Caminho_2846" data-name="Caminho 2846" d="M34.081,37.929l7.228,4.093L49.533,37.4,42.3,33.3Z" transform="translate(-34.081 -33.302)" fill="#384e85"/>
        </g>
        <g id="Grupo_1960" data-name="Grupo 1960" transform="translate(33.155 43.494)">
          <path id="Caminho_2847" data-name="Caminho 2847" d="M35.1,36.354l7.228,4.093,8.224-4.627-7.228-4.093Z" transform="translate(-35.101 -31.728)" fill="#384e85"/>
        </g>
        <g id="Grupo_1961" data-name="Grupo 1961" transform="translate(0 62.148)">
          <path id="Caminho_2848" data-name="Caminho 2848" d="M41.915,40.288l7.228,4.093,8.224-4.627-7.228-4.093Z" transform="translate(-41.915 -35.662)" fill="#384e85"/>
        </g>
        <g id="Grupo_1962" data-name="Grupo 1962" transform="translate(60.207 38.534)">
          <path id="Caminho_2849" data-name="Caminho 2849" d="M29.541,35.308,36.77,39.4l8.224-4.627-7.228-4.093Z" transform="translate(-29.541 -30.682)" fill="#384e85"/>
        </g>
        <g id="Grupo_1963" data-name="Grupo 1963" transform="translate(47.421 76.522)">
          <path id="Caminho_2850" data-name="Caminho 2850" d="M32.179,43.307l7.2,4.08,8.2-4.613-7.2-4.08Z" transform="translate(-32.179 -38.693)" fill="#384e85"/>
        </g>
        <g id="Grupo_1964" data-name="Grupo 1964" transform="translate(27.265 77.588)">
          <path id="Caminho_2851" data-name="Caminho 2851" d="M34.449,43.545l16.293,9.227,8.224-4.627L42.672,38.918Z" transform="translate(-34.449 -38.918)" fill="#384e85"/>
        </g>
      </g>
    </g>
    <path id="Caminho_502" data-name="Caminho 502" d="M11.445,162.447,135.2,93.238V15.621L11.445,84.83Z" transform="translate(89.969 246.796)" fill="#364171"/>
    <ellipse id="Elipse_21" data-name="Elipse 21" cx="3.508" cy="2.025" rx="3.508" ry="2.025" transform="translate(147.504 374.585) rotate(-60)" fill="#6bb5fb"/>
    <ellipse id="Elipse_22" data-name="Elipse 22" cx="3.508" cy="2.025" rx="3.508" ry="2.025" transform="translate(156.692 369.73) rotate(-60)" fill="#6bb5fb"/>
    <ellipse id="Elipse_23" data-name="Elipse 23" cx="3.508" cy="2.025" rx="3.508" ry="2.025" transform="translate(165.881 364.876) rotate(-60)" fill="#6bb5fb"/>
    <ellipse id="Elipse_24" data-name="Elipse 24" cx="3.508" cy="2.025" rx="3.508" ry="2.025" transform="translate(175.068 360.02) rotate(-60)" fill="#ea1d76"/>
    <path id="Caminho_547" data-name="Caminho 547" d="M34.306,157.954,59.713,66.668,11.445,93.381V171l22.861-13.045Z" transform="translate(89.969 238.245)" fill="#e6e6fc" opacity="0.25"/>
  </g>
</svg>
