<svg id="A-SDP" xmlns="http://www.w3.org/2000/svg" width="14.353" height="7.375" viewBox="0 0 14.353 7.375">
  <g id="Grupo_2064" data-name="Grupo 2064" transform="translate(9.088 0.506)">
    <g id="Grupo_2060" data-name="Grupo 2060" transform="translate(0)">
      <g id="Grupo_2059" data-name="Grupo 2059">
        <g id="Grupo_2056" data-name="Grupo 2056" transform="translate(0 0.239)">
          <path id="Caminho_2919" data-name="Caminho 2919" d="M22.95,32.676a1.583,1.583,0,0,0-.132,1.04c.2,1.471-.378,2.716-2.1,2.172l-.069-.021-.069-.059a5.366,5.366,0,0,1-2.084-4.619A2.683,2.683,0,0,0,18.369,30l-.14-.362.939-.231.155.159a1.756,1.756,0,0,0,.353.285.99.99,0,0,0,.789.126l.2-.074.2.306a2.878,2.878,0,0,0,.787.791A.925.925,0,0,0,22,31.13l.152.021.937,1.327Z" transform="translate(-18.229 -29.407)" fill="#b7c5fd"/>
        </g>
        <g id="Grupo_2057" data-name="Grupo 2057" transform="translate(0.003)">
          <path id="Caminho_2920" data-name="Caminho 2920" d="M23.5,31.806l-.936-1.327-.154-.02a.969.969,0,0,1-.355-.129,2.9,2.9,0,0,1-.785-.791l-.2-.307-.2.076h0a1,1,0,0,1-.785-.129,1.68,1.68,0,0,1-.355-.284l-.154-.16-.939.233-.4.237.936-.23.155.159a1.756,1.756,0,0,0,.353.285.99.99,0,0,0,.789.126l.2-.074.2.306a2.878,2.878,0,0,0,.787.791.925.925,0,0,0,.355.131l.152.021.937,1.327-.14.2a1.583,1.583,0,0,0-.132,1.04,2.1,2.1,0,0,1-.625,2.11l.371-.217a2.064,2.064,0,0,0,.658-2.132A1.606,1.606,0,0,1,23.36,32Z" transform="translate(-18.238 -28.735)" fill="#d9ddf6"/>
        </g>
        <g id="Grupo_2058" data-name="Grupo 2058" transform="translate(0.403 0.665)">
          <path id="Caminho_2921" data-name="Caminho 2921" d="M21.406,31.138a3.359,3.359,0,0,0,.983.991,1.27,1.27,0,0,0,.465.171l.576.817a1.788,1.788,0,0,0-.169,1.255c.158,1.186-.251,2.412-1.87,1.9A4.712,4.712,0,0,1,19.539,32.2a3.053,3.053,0,0,0-.161-1.448l.579-.143a2.183,2.183,0,0,0,.465.372A1.151,1.151,0,0,0,21.406,31.138Z" transform="translate(-19.378 -30.607)" fill="#3955d1"/>
        </g>
      </g>
    </g>
    <g id="Grupo_2063" data-name="Grupo 2063" transform="translate(1.546 2.239)">
      <g id="Grupo_2061" data-name="Grupo 2061" transform="translate(0 0.703)">
        <path id="Caminho_2922" data-name="Caminho 2922" d="M24.055,37.744a.5.5,0,0,1,.223.389l0,1.076c0,.142-.1.2-.224.127l-1.2-.7a.5.5,0,0,1-.223-.388l0-1.076c0-.144.1-.2.224-.128Zm-.526.569c.064,0,.108-.044.108-.13a.405.405,0,0,0-.182-.319c-.1-.059-.183-.013-.183.106a.407.407,0,0,0,.107.255v.314l.15.087v-.314" transform="translate(-22.63 -37.013)" fill="#fff"/>
      </g>
      <g id="Grupo_2062" data-name="Grupo 2062" transform="translate(0.229)">
        <path id="Caminho_2923" data-name="Caminho 2923" d="M23.886,35.12l.015.009a1.369,1.369,0,0,1,.576,1.054v.284l-.195-.114V36.07a.933.933,0,0,0-.389-.719l-.011-.007a.289.289,0,0,0-.281-.032.283.283,0,0,0-.123.264v.309l-.2-.114v-.309a.418.418,0,0,1,.183-.392A.43.43,0,0,1,23.886,35.12Z" transform="translate(-23.283 -35.036)" fill="#fff"/>
      </g>
    </g>
  </g>
  <g id="Grupo_2095" data-name="Grupo 2095" transform="translate(4.548 0.15)">
    <g id="Grupo_2084" data-name="Grupo 2084" transform="translate(0)">
      <path id="Caminho_2932" data-name="Caminho 2932" d="M31.908,24.035l-3.236-1.877a.305.305,0,0,0-.309-.03l-.433.253a.305.305,0,0,1,.309.03l3.236,1.877a.962.962,0,0,1,.434.755L31.9,28.777a.307.307,0,0,1-.127.281l.433-.253a.307.307,0,0,0,.127-.281l.011-3.734A.962.962,0,0,0,31.908,24.035Z" transform="translate(-27.792 -22.099)" fill="#d9ddf6"/>
      <g id="Grupo_2077" data-name="Grupo 2077" transform="translate(0 0.253)">
        <path id="Caminho_2933" data-name="Caminho 2933" d="M32.836,24.746a.962.962,0,0,1,.434.755l-.011,3.734c0,.278-.2.39-.436.251L29.587,27.61a.962.962,0,0,1-.434-.755l.011-3.734c0-.278.2-.39.436-.251Z" transform="translate(-29.153 -22.81)" fill="#b7c5fd"/>
      </g>
      <g id="Grupo_2083" data-name="Grupo 2083" transform="translate(0.367 0.946)">
        <g id="Grupo_2078" data-name="Grupo 2078">
          <path id="Caminho_2934" data-name="Caminho 2934" d="M30.224,25.029l-.026-.015L30.19,27.9l.026.015a.9.9,0,0,1,.407.708v.032l2.5,1.452V30.08c0-.26.185-.365.41-.235l.027.016.008-2.89-.027-.016a.9.9,0,0,1-.407-.708v-.032l-2.5-1.452v.032C30.633,25.054,30.45,25.159,30.224,25.029Zm.019,2.845.008-2.767a.274.274,0,0,0,.436-.25l2.4,1.39a1.04,1.04,0,0,0,.433.754l-.008,2.767a.273.273,0,0,0-.435.249l-2.4-1.39a1.038,1.038,0,0,0-.434-.753" transform="translate(-30.19 -24.762)" fill="#9aadfd"/>
        </g>
        <g id="Grupo_2079" data-name="Grupo 2079" transform="translate(1.431 3.066)">
          <path id="Caminho_2935" data-name="Caminho 2935" d="M31.244,33.39v.147l1.579.916v-.147Z" transform="translate(-31.243 -33.39)" fill="#9aadfd"/>
        </g>
        <g id="Grupo_2080" data-name="Grupo 2080" transform="translate(0.371 1.613)">
          <path id="Caminho_2936" data-name="Caminho 2936" d="M31.237,29.3v.147l2.641,1.532v-.147Z" transform="translate(-31.237 -29.302)" fill="#9aadfd"/>
        </g>
        <g id="Grupo_2081" data-name="Grupo 2081" transform="translate(0.37 2.031)">
          <path id="Caminho_2937" data-name="Caminho 2937" d="M31.241,30.479v.147l2.641,1.532v-.147Z" transform="translate(-31.24 -30.479)" fill="#9aadfd"/>
        </g>
        <g id="Grupo_2082" data-name="Grupo 2082" transform="translate(0.425 0.701)">
          <path id="Caminho_2938" data-name="Caminho 2938" d="M31.374,26.736v.309l2.538,1.472v-.309Z" transform="translate(-31.373 -26.736)" fill="#384e85"/>
        </g>
      </g>
    </g>
    <g id="Grupo_2094" data-name="Grupo 2094" transform="translate(0.522 4.382)">
      <g id="Grupo_2088" data-name="Grupo 2088" transform="translate(0.292 1.06)">
        <g id="Grupo_2087" data-name="Grupo 2087" transform="translate(0)">
          <g id="Grupo_2085" data-name="Grupo 2085" transform="translate(0.356)">
            <path id="Caminho_2939" data-name="Caminho 2939" d="M35.643,41.452l-.1.262-.091.053.1-.262Z" transform="translate(-34.926 -40.018)" fill="#384e85"/>
            <path id="Caminho_2940" data-name="Caminho 2940" d="M36.739,39.274l.091-.053-.267.747-.091.053Z" transform="translate(-36.472 -38.58)" fill="#384e85"/>
            <path id="Caminho_2941" data-name="Caminho 2941" d="M34.806,37.417l.473.274.383,1.455-.091.053-.383-1.455-.473-.274Z" transform="translate(-34.682 -37.417)" fill="#384e85"/>
          </g>
          <g id="Grupo_2086" data-name="Grupo 2086" transform="translate(0 0.053)">
            <path id="Caminho_2942" data-name="Caminho 2942" d="M35.361,37.567l-.388,1.008.262.008.094.372.267-.747.263,1.054.1-.262.262.3-.383-1.455Z" transform="translate(-34.972 -37.567)" fill="#1b2a4f"/>
          </g>
        </g>
      </g>
      <g id="Grupo_2093" data-name="Grupo 2093" transform="translate(0 0)">
        <g id="Grupo_2092" data-name="Grupo 2092" transform="translate(0 0)">
          <g id="Grupo_2089" data-name="Grupo 2089" transform="translate(0.473 0.136)">
            <path id="Caminho_2943" data-name="Caminho 2943" d="M35.608,36.064a.467.467,0,0,1-.194.429l-.158.092a.467.467,0,0,0,.194-.429A1.473,1.473,0,0,0,34.785,35a.469.469,0,0,0-.474-.046l.158-.092a.469.469,0,0,1,.474.046A1.473,1.473,0,0,1,35.608,36.064Z" transform="translate(-34.311 -34.815)" fill="#6bb5fb"/>
          </g>
          <g id="Grupo_2090" data-name="Grupo 2090">
            <path id="Caminho_3003" data-name="Caminho 3003" d="M.944,1.091c.521,0,.943-.242.942-.543S1.463,0,.942,0,0,.242,0,.543.423,1.09.944,1.091Z" transform="translate(0.948 2.179) rotate(-120.162)" fill="#4466fb"/>
          </g>
          <g id="Grupo_2091" data-name="Grupo 2091" transform="translate(0.547 0.639)">
            <path id="Caminho_2944" data-name="Caminho 2944" d="M36.063,36.233l-.114.2-.254-.1.194.333-.109.248.26-.032.247.294-.043-.317.184-.1-.254-.189Z" transform="translate(-35.695 -36.233)" fill="#fff"/>
          </g>
        </g>
      </g>
    </g>
  </g>
  <g id="Grupo_2151" data-name="Grupo 2151" transform="translate(0)">
    <g id="Grupo_2084-2" data-name="Grupo 2084" transform="translate(0)">
      <path id="Caminho_2932-2" data-name="Caminho 2932" d="M31.908,24.035l-3.236-1.877a.305.305,0,0,0-.309-.03l-.433.253a.305.305,0,0,1,.309.03l3.236,1.877a.962.962,0,0,1,.434.755L31.9,28.777a.307.307,0,0,1-.127.281l.433-.253a.307.307,0,0,0,.127-.281l.011-3.734A.962.962,0,0,0,31.908,24.035Z" transform="translate(-27.792 -22.099)" fill="#d9ddf6"/>
      <path id="Caminho_2933-2" data-name="Caminho 2933" d="M32.836,24.746a.962.962,0,0,1,.434.755l-.011,3.734c0,.278-.2.39-.436.251L29.587,27.61a.962.962,0,0,1-.434-.755l.011-3.734c0-.278.2-.39.436-.251Z" transform="translate(-29.153 -22.557)" fill="#b7c5fd"/>
    </g>
    <g id="Grupo_2090-2" data-name="Grupo 2090" transform="translate(0.153 1.957)">
      <path id="Caminho_2943-2" data-name="Caminho 2943" d="M36.5,36.927a.79.79,0,0,1-.328.726l-.267.156a.79.79,0,0,0,.328-.726,2.492,2.492,0,0,0-1.124-1.958.793.793,0,0,0-.8-.078l.267-.156a.793.793,0,0,1,.8.078A2.492,2.492,0,0,1,36.5,36.927Z" transform="translate(-33.511 -34.586)" fill="#6bb5fb"/>
      <path id="Caminho_3004" data-name="Caminho 3004" d="M1.6,1.844c.881,0,1.595-.41,1.594-.919S2.475,0,1.594,0,0,.41,0,.919.716,1.843,1.6,1.844Z" transform="translate(1.603 3.686) rotate(-120.162)" fill="#4466fb"/>
    </g>
    <g id="Grupo_2152" data-name="Grupo 2152" transform="matrix(0.985, 0.174, -0.174, 0.985, 1.164, 3.335)">
      <path id="Caminho_1967" data-name="Caminho 1967" d="M.923,0,0,.236l1.127.889Z" transform="translate(0 0)" fill="#fff"/>
    </g>
  </g>
</svg>
