<svg xmlns="http://www.w3.org/2000/svg" width="14.422" height="7.375" viewBox="0 0 14.422 7.375">
  <g id="B-SDP" transform="translate(0)">
    <g id="Security" transform="translate(0 0.505)">
      <g id="Grupo_2060" data-name="Grupo 2060" transform="translate(0)">
        <g id="Grupo_2059" data-name="Grupo 2059">
          <g id="Grupo_2056" data-name="Grupo 2056" transform="translate(0.406 0.239)">
            <path id="Caminho_2919" data-name="Caminho 2919" d="M18.369,32.676a1.577,1.577,0,0,1,.133,1.04c-.2,1.471.38,2.716,2.114,2.172l.069-.021.069-.059a5.356,5.356,0,0,0,2.093-4.619A2.672,2.672,0,0,1,22.971,30l.14-.362-.943-.231-.156.159a1.762,1.762,0,0,1-.354.285,1,1,0,0,1-.793.126l-.2-.074-.2.306a2.884,2.884,0,0,1-.79.791.932.932,0,0,1-.357.131l-.153.021-.941,1.327Z" transform="translate(-18.229 -29.407)" fill="#b7c5fd"/>
          </g>
          <g id="Grupo_2057" data-name="Grupo 2057">
            <path id="Caminho_2920" data-name="Caminho 2920" d="M18.238,31.806l.94-1.327.154-.02a.977.977,0,0,0,.357-.129,2.9,2.9,0,0,0,.788-.791l.2-.307.2.076h0a1,1,0,0,0,.788-.129,1.686,1.686,0,0,0,.357-.284l.154-.16.943.233.4.237-.94-.23-.156.159a1.762,1.762,0,0,1-.354.285,1,1,0,0,1-.793.126l-.2-.074-.2.306a2.884,2.884,0,0,1-.79.791.932.932,0,0,1-.357.131l-.153.021-.941,1.327.14.2a1.577,1.577,0,0,1,.133,1.04,2.092,2.092,0,0,0,.628,2.11l-.373-.217a2.059,2.059,0,0,1-.661-2.132A1.6,1.6,0,0,0,18.378,32Z" transform="translate(-18.238 -28.735)" fill="#d9ddf6"/>
          </g>
          <g id="Grupo_2058" data-name="Grupo 2058" transform="translate(0.813 0.665)">
            <path id="Caminho_2921" data-name="Caminho 2921" d="M21.411,31.138a3.366,3.366,0,0,1-.988.991,1.279,1.279,0,0,1-.467.171l-.578.817a1.782,1.782,0,0,1,.17,1.255c-.158,1.186.252,2.412,1.878,1.9A4.7,4.7,0,0,0,23.286,32.2a3.041,3.041,0,0,1,.162-1.448l-.581-.143a2.191,2.191,0,0,1-.467.372A1.161,1.161,0,0,1,21.411,31.138Z" transform="translate(-19.378 -30.607)" fill="#3955d1"/>
          </g>
        </g>
      </g>
      <g id="Grupo_2063" data-name="Grupo 2063" transform="translate(2.081 2.239)">
        <g id="Grupo_2061" data-name="Grupo 2061" transform="translate(0 0.703)">
          <path id="Caminho_2922" data-name="Caminho 2922" d="M22.854,37.744a.494.494,0,0,0-.224.389l0,1.076c0,.142.1.2.225.127l1.2-.7a.5.5,0,0,0,.224-.388l0-1.076c0-.144-.1-.2-.225-.128Zm.529.569c-.064,0-.109-.044-.109-.13a.4.4,0,0,1,.183-.319c.1-.059.184-.013.184.106a.406.406,0,0,1-.108.255v.314l-.15.087v-.314" transform="translate(-22.63 -37.013)" fill="#fff"/>
        </g>
        <g id="Grupo_2062" data-name="Grupo 2062" transform="translate(0.225)">
          <path id="Caminho_2923" data-name="Caminho 2923" d="M23.877,35.12l-.015.009a1.367,1.367,0,0,0-.578,1.054v.284l.2-.114V36.07a.932.932,0,0,1,.391-.719l.011-.007a.291.291,0,0,1,.282-.032.282.282,0,0,1,.123.264v.309l.2-.114v-.309a.417.417,0,0,0-.184-.392A.434.434,0,0,0,23.877,35.12Z" transform="translate(-23.283 -35.036)" fill="#fff"/>
        </g>
      </g>
    </g>
    <g id="Certified" transform="translate(5.281 0.15)">
      <g id="Grupo_2084" data-name="Grupo 2084">
        <path id="Caminho_2932" data-name="Caminho 2932" d="M28.366,24.035l3.251-1.877a.308.308,0,0,1,.311-.03l.435.253a.308.308,0,0,0-.311.03L28.8,24.288a.961.961,0,0,0-.436.755l.011,3.734a.307.307,0,0,0,.128.281l-.435-.253a.307.307,0,0,1-.128-.281l-.011-3.734A.961.961,0,0,1,28.366,24.035Z" transform="translate(-27.93 -22.099)" fill="#d9ddf6"/>
        <g id="Grupo_2077" data-name="Grupo 2077" transform="translate(0.435 0.253)">
          <path id="Caminho_2933" data-name="Caminho 2933" d="M29.589,24.746a.961.961,0,0,0-.436.755l.011,3.734c0,.278.2.39.438.251l3.251-1.877a.961.961,0,0,0,.436-.755l-.011-3.734c0-.278-.2-.39-.438-.251Z" transform="translate(-29.153 -22.81)" fill="#b7c5fd"/>
        </g>
        <g id="Grupo_2083" data-name="Grupo 2083" transform="translate(0.803 0.946)">
          <g id="Grupo_2078" data-name="Grupo 2078">
            <path id="Caminho_2934" data-name="Caminho 2934" d="M33.553,25.029l.027-.015.008,2.89-.027.015a.9.9,0,0,0-.409.708v.032l-2.515,1.452V30.08c0-.26-.185-.365-.412-.235l-.028.016-.008-2.89.028-.016a.9.9,0,0,0,.409-.708v-.032l2.515-1.452v.032C33.142,25.054,33.327,25.159,33.553,25.029Zm-.02,2.845-.008-2.767a.275.275,0,0,1-.438-.25l-2.408,1.39a1.039,1.039,0,0,1-.435.754l.008,2.767a.274.274,0,0,1,.437.249l2.408-1.39a1.037,1.037,0,0,1,.436-.753" transform="translate(-30.19 -24.762)" fill="#9aadfd"/>
          </g>
          <g id="Grupo_2079" data-name="Grupo 2079" transform="translate(0.374 3.066)">
            <path id="Caminho_2935" data-name="Caminho 2935" d="M32.83,33.39v.147l-1.586.916v-.147Z" transform="translate(-31.243 -33.39)" fill="#9aadfd"/>
          </g>
          <g id="Grupo_2080" data-name="Grupo 2080" transform="translate(0.372 1.613)">
            <path id="Caminho_2936" data-name="Caminho 2936" d="M33.89,29.3v.147l-2.653,1.532v-.147Z" transform="translate(-31.237 -29.302)" fill="#9aadfd"/>
          </g>
          <g id="Grupo_2081" data-name="Grupo 2081" transform="translate(0.373 2.031)">
            <path id="Caminho_2937" data-name="Caminho 2937" d="M33.893,30.479v.147l-2.653,1.532v-.147Z" transform="translate(-31.24 -30.479)" fill="#9aadfd"/>
          </g>
          <g id="Grupo_2082" data-name="Grupo 2082" transform="translate(0.421 0.701)">
            <path id="Caminho_2938" data-name="Caminho 2938" d="M33.923,26.736v.309l-2.55,1.472v-.309Z" transform="translate(-31.373 -26.736)" fill="#384e85"/>
          </g>
        </g>
      </g>
      <g id="Grupo_2094" data-name="Grupo 2094" transform="translate(2.148 4.381)">
        <g id="Grupo_2088" data-name="Grupo 2088" transform="translate(0.262 1.062)">
          <g id="Grupo_2087" data-name="Grupo 2087">
            <g id="Grupo_2085" data-name="Grupo 2085">
              <path id="Caminho_2939" data-name="Caminho 2939" d="M35.455,41.452l.1.262.092.053-.1-.262Z" transform="translate(-35.192 -40.018)" fill="#384e85"/>
              <path id="Caminho_2940" data-name="Caminho 2940" d="M36.563,39.274l-.092-.053.268.747.092.053Z" transform="translate(-35.847 -38.58)" fill="#384e85"/>
              <path id="Caminho_2941" data-name="Caminho 2941" d="M35.575,37.417l-.475.274-.385,1.455.092.053.385-1.455.475-.274Z" transform="translate(-34.715 -37.417)" fill="#384e85"/>
            </g>
            <g id="Grupo_2086" data-name="Grupo 2086" transform="translate(0.092 0.053)">
              <path id="Caminho_2942" data-name="Caminho 2942" d="M35.832,37.567l.39,1.008-.263.008-.094.372-.268-.747-.264,1.054-.1-.262-.263.3.385-1.455Z" transform="translate(-34.972 -37.567)" fill="#1b2a4f"/>
            </g>
          </g>
        </g>
        <g id="Grupo_2093" data-name="Grupo 2093" transform="translate(0 0)">
          <g id="Grupo_2092" data-name="Grupo 2092" transform="translate(0 0)">
            <g id="Grupo_2089" data-name="Grupo 2089" transform="translate(0.119 0.138)">
              <path id="Caminho_2943" data-name="Caminho 2943" d="M34.311,36.064a.466.466,0,0,0,.195.429l.159.092a.466.466,0,0,1-.195-.429A1.472,1.472,0,0,1,35.138,35a.472.472,0,0,1,.476-.046l-.159-.092a.473.473,0,0,0-.476.046A1.472,1.472,0,0,0,34.311,36.064Z" transform="translate(-34.311 -34.815)" fill="#6bb5fb"/>
            </g>
            <g id="Grupo_2090" data-name="Grupo 2090">
              <ellipse id="Elipse_81" data-name="Elipse 81" cx="0.945" cy="0.547" rx="0.945" ry="0.547" transform="translate(0 1.633) rotate(-59.838)" fill="#4466fb"/>
            </g>
            <g id="Grupo_2091" data-name="Grupo 2091" transform="translate(0.611 0.641)">
              <path id="Caminho_2944" data-name="Caminho 2944" d="M36.063,36.233l.115.2.255-.1-.2.333.109.248-.261-.032-.248.294.043-.317-.185-.1.255-.189Z" transform="translate(-35.695 -36.233)" fill="#fff"/>
            </g>
          </g>
        </g>
      </g>
    </g>
    <g id="Media" transform="translate(9.852 0)">
      <g id="Grupo_2151" data-name="Grupo 2151" transform="translate(0 0)">
        <g id="Grupo_2084-2" data-name="Grupo 2084" transform="translate(0)">
          <path id="Caminho_2932-2" data-name="Caminho 2932" d="M28.366,24.035l3.251-1.877a.308.308,0,0,1,.311-.03l.435.253a.308.308,0,0,0-.311.03L28.8,24.288a.961.961,0,0,0-.436.755l.011,3.734a.307.307,0,0,0,.128.281l-.435-.253a.307.307,0,0,1-.128-.281l-.011-3.734A.961.961,0,0,1,28.366,24.035Z" transform="translate(-27.93 -22.099)" fill="#d9ddf6"/>
          <path id="Caminho_2933-2" data-name="Caminho 2933" d="M29.589,24.746a.961.961,0,0,0-.436.755l.011,3.734c0,.278.2.39.438.251l3.25-1.877a.961.961,0,0,0,.436-.755l-.011-3.734c0-.278-.2-.39-.438-.251Z" transform="translate(-28.719 -22.557)" fill="#b7c5fd"/>
        </g>
        <g id="Grupo_2090-2" data-name="Grupo 2090" transform="translate(1.207 1.954)">
          <path id="Caminho_2943-2" data-name="Caminho 2943" d="M34.311,36.927a.789.789,0,0,0,.329.726l.269.156a.789.789,0,0,1-.329-.726,2.49,2.49,0,0,1,1.129-1.958.8.8,0,0,1,.806-.078l-.269-.156a.8.8,0,0,0-.806.078A2.49,2.49,0,0,0,34.311,36.927Z" transform="translate(-34.11 -34.582)" fill="#6bb5fb"/>
          <ellipse id="Elipse_81-2" data-name="Elipse 81" cx="1.597" cy="0.925" rx="1.597" ry="0.925" transform="translate(0 2.762) rotate(-59.838)" fill="#4466fb"/>
        </g>
      </g>
      <g id="Grupo_2152" data-name="Grupo 2152" transform="translate(3.596 4.443) rotate(170)">
        <path id="Caminho_1967" data-name="Caminho 1967" d="M.927,1.126,0,.889,1.131,0Z" transform="translate(0 0)" fill="#fff"/>
      </g>
    </g>
  </g>
</svg>
