<svg id="Signaling_Server" data-name="Signaling Server" xmlns="http://www.w3.org/2000/svg" width="15.918" height="15.441" viewBox="0 0 15.918 15.441">
  <g id="Grupo_2066" data-name="Grupo 2066" transform="translate(0 3.528)">
    <g id="Grupo_1970" data-name="Grupo 1970" transform="translate(0 2.191)">
      <g id="Grupo_1966" data-name="Grupo 1966" transform="translate(0.008)">
        <path id="Caminho_2852" data-name="Caminho 2852" d="M7.452,32.082l7.811-4.539,8.1,4.675L15.55,36.758Z" transform="translate(-7.452 -27.543)" fill="#d9ddf6"/>
      </g>
      <g id="Grupo_1969" data-name="Grupo 1969" transform="translate(0 4.539)">
        <g id="Grupo_1967" data-name="Grupo 1967" transform="translate(8.098 0.136)">
          <path id="Caminho_2853" data-name="Caminho 2853" d="M25.316,42.4l7.811-4.539-.008.507-7.811,4.539Z" transform="translate(-25.307 -37.862)" fill="#aabafd"/>
        </g>
        <g id="Grupo_1968" data-name="Grupo 1968">
          <path id="Caminho_2854" data-name="Caminho 2854" d="M15.54,42.237l-.008.507-8.1-4.675.008-.507Z" transform="translate(-7.434 -37.562)" fill="#b7c5fd"/>
        </g>
      </g>
    </g>
    <g id="Grupo_2065" data-name="Grupo 2065" transform="translate(1.772 0)">
      <g id="Grupo_2055" data-name="Grupo 2055">
        <g id="Grupo_2054" data-name="Grupo 2054">
          <g id="Grupo_1986" data-name="Grupo 1986">
            <g id="Grupo_1971" data-name="Grupo 1971" transform="translate(6.051 0.106)">
              <path id="Caminho_2855" data-name="Caminho 2855" d="M24.7,78.6l6.322-3.575-.006,6.954L24.944,85.5Z" transform="translate(-24.7 -75.021)" fill="#1b2a4f"/>
            </g>
            <g id="Grupo_1984" data-name="Grupo 1984" transform="translate(9.743 4.269)">
              <g id="Grupo_1977" data-name="Grupo 1977">
                <g id="Grupo_1972" data-name="Grupo 1972" transform="translate(0.006 1.995)">
                  <path id="Caminho_2856" data-name="Caminho 2856" d="M32.863,37.689v.289l2-1.157v-.289Z" transform="translate(-32.863 -36.532)" fill="#384e85"/>
                </g>
                <g id="Grupo_1973" data-name="Grupo 1973">
                  <path id="Caminho_2857" data-name="Caminho 2857" d="M32.85,33.286v.289l2-1.157v-.289Z" transform="translate(-32.85 -32.129)" fill="#384e85"/>
                </g>
                <g id="Grupo_1974" data-name="Grupo 1974" transform="translate(0.001 0.499)">
                  <path id="Caminho_2858" data-name="Caminho 2858" d="M32.853,34.387v.289l2-1.157v-.289Z" transform="translate(-32.853 -33.229)" fill="#384e85"/>
                </g>
                <g id="Grupo_1975" data-name="Grupo 1975" transform="translate(0.003 0.997)">
                  <path id="Caminho_2859" data-name="Caminho 2859" d="M32.856,35.488v.289l2-1.157V34.33Z" transform="translate(-32.856 -34.33)" fill="#384e85"/>
                </g>
                <g id="Grupo_1976" data-name="Grupo 1976" transform="translate(0.004 1.496)">
                  <path id="Caminho_2860" data-name="Caminho 2860" d="M32.86,36.588v.289l2-1.157v-.289Z" transform="translate(-32.86 -35.431)" fill="#384e85"/>
                </g>
              </g>
            </g>
            <g id="Grupo_1985" data-name="Grupo 1985">
              <path id="Caminho_2866" data-name="Caminho 2866" d="M17.647,78.373l-.007,7-6.295-3.634.006-6.954Z" transform="translate(-11.346 -74.788)" fill="#2e4277"/>
            </g>
          </g>
          <g id="Grupo_2038" data-name="Grupo 2038" transform="translate(0.251 0.78)">
            <g id="Grupo_2029" data-name="Grupo 2029">
              <g id="Grupo_2026" data-name="Grupo 2026" transform="translate(5.535 3.195)">
                <path id="Caminho_2894" data-name="Caminho 2894" d="M24.12,31.634l.26-.151-.006,1.411-.26.151Z" transform="translate(-24.114 -31.483)" fill="#4466fb"/>
              </g>
              <g id="Grupo_2027" data-name="Grupo 2027" transform="translate(0.006)">
                <path id="Caminho_2895" data-name="Caminho 2895" d="M11.911,24.581l.26-.151,5.535,3.2-.26.151Z" transform="translate(-11.911 -24.43)" fill="#b7c5fd"/>
              </g>
              <g id="Grupo_2028" data-name="Grupo 2028" transform="translate(0 0.151)">
                <path id="Caminho_2896" data-name="Caminho 2896" d="M17.439,27.959l-.006,1.411-5.535-3.2.006-1.411Z" transform="translate(-11.899 -24.763)" fill="#b7c5fd"/>
                <path id="Caminho_2897" data-name="Caminho 2897" d="M17.439,27.959l-.006,1.411-5.535-3.2.006-1.411Z" transform="translate(-11.899 -24.763)" fill="#6bb5fb"/>
              </g>
            </g>
            <g id="Grupo_2037" data-name="Grupo 2037" transform="translate(0.362 0.74)">
              <g id="Grupo_2030" data-name="Grupo 2030">
                <path id="Caminho_2898" data-name="Caminho 2898" d="M13.087,26.287v.193l-.388-.224v-.193Z" transform="translate(-12.699 -26.063)" fill="#384e85"/>
              </g>
              <g id="Grupo_2031" data-name="Grupo 2031" transform="translate(0.564 0.325)">
                <path id="Caminho_2899" data-name="Caminho 2899" d="M14.33,27V27.2l-.387-.223v-.193Z" transform="translate(-13.942 -26.781)" fill="#384e85"/>
              </g>
              <g id="Grupo_2032" data-name="Grupo 2032" transform="translate(4.281 2.472)">
                <path id="Caminho_2900" data-name="Caminho 2900" d="M22.536,31.743v.193l-.388-.224v-.193Z" transform="translate(-22.148 -31.519)" fill="#384e85"/>
              </g>
              <g id="Grupo_2033" data-name="Grupo 2033" transform="translate(4.49 3.122)">
                <ellipse id="Elipse_75" data-name="Elipse 75" cx="0.06" cy="0.103" rx="0.06" ry="0.103" transform="translate(0 0.06) rotate(-30.162)" fill="#fff"/>
              </g>
              <g id="Grupo_2034" data-name="Grupo 2034" transform="translate(4.272 3.004)">
                <path id="Caminho_2901" data-name="Caminho 2901" d="M22.2,32.7a.161.161,0,0,1,.073.127c0,.046-.033.066-.074.042a.16.16,0,0,1-.072-.126C22.128,32.7,22.161,32.679,22.2,32.7Z" transform="translate(-22.128 -32.693)" fill="#fff"/>
              </g>
              <g id="Grupo_2035" data-name="Grupo 2035" transform="translate(3.992 2.835)">
                <ellipse id="Elipse_76" data-name="Elipse 76" cx="0.06" cy="0.103" rx="0.06" ry="0.103" transform="translate(0 0.06) rotate(-30.162)" fill="#fff"/>
              </g>
              <g id="Grupo_2036" data-name="Grupo 2036" transform="translate(3.743 2.691)">
                <ellipse id="Elipse_77" data-name="Elipse 77" cx="0.06" cy="0.103" rx="0.06" ry="0.103" transform="translate(0 0.06) rotate(-30.162)" fill="#fff"/>
              </g>
            </g>
            <path id="Caminho_2902" data-name="Caminho 2902" d="M12.282,25.379l-.033-.019,0,1.038v.013l5.19,3,.033.019,0-1.038v-.013Zm5.141,3.97-5.134-2.964,0-.948L17.426,28.4Z" transform="translate(-12.087 -24.938)" fill="#4466fb"/>
          </g>
          <g id="Grupo_2051" data-name="Grupo 2051" transform="translate(0.251 2.901)">
            <g id="Grupo_2042" data-name="Grupo 2042">
              <g id="Grupo_2039" data-name="Grupo 2039" transform="translate(5.535 3.195)">
                <path id="Caminho_2903" data-name="Caminho 2903" d="M24.12,36.315l.26-.151-.006,1.411-.26.151Z" transform="translate(-24.114 -36.164)" fill="#4466fb"/>
              </g>
              <g id="Grupo_2040" data-name="Grupo 2040" transform="translate(0.006)">
                <path id="Caminho_2904" data-name="Caminho 2904" d="M11.911,29.262l.26-.151,5.535,3.2-.26.151Z" transform="translate(-11.911 -29.111)" fill="#b7c5fd"/>
              </g>
              <g id="Grupo_2041" data-name="Grupo 2041" transform="translate(0 0.151)">
                <path id="Caminho_2905" data-name="Caminho 2905" d="M17.439,32.64l-.006,1.411-5.535-3.2.006-1.411Z" transform="translate(-11.899 -29.444)" fill="#b7c5fd"/>
                <path id="Caminho_2906" data-name="Caminho 2906" d="M17.439,32.64l-.006,1.411-5.535-3.2.006-1.411Z" transform="translate(-11.899 -29.444)" fill="#6bb5fb"/>
              </g>
            </g>
            <g id="Grupo_2050" data-name="Grupo 2050" transform="translate(0.362 0.74)">
              <g id="Grupo_2043" data-name="Grupo 2043">
                <path id="Caminho_2907" data-name="Caminho 2907" d="M13.087,30.968v.193l-.388-.224v-.193Z" transform="translate(-12.699 -30.744)" fill="#384e85"/>
              </g>
              <g id="Grupo_2044" data-name="Grupo 2044" transform="translate(0.564 0.325)">
                <path id="Caminho_2908" data-name="Caminho 2908" d="M14.33,31.686v.193l-.387-.223v-.193Z" transform="translate(-13.942 -31.463)" fill="#384e85"/>
              </g>
              <g id="Grupo_2045" data-name="Grupo 2045" transform="translate(4.281 2.472)">
                <path id="Caminho_2909" data-name="Caminho 2909" d="M22.536,36.424v.193l-.388-.224V36.2Z" transform="translate(-22.148 -36.2)" fill="#384e85"/>
              </g>
              <g id="Grupo_2046" data-name="Grupo 2046" transform="translate(4.49 3.122)">
                <ellipse id="Elipse_78" data-name="Elipse 78" cx="0.06" cy="0.103" rx="0.06" ry="0.103" transform="translate(0 0.06) rotate(-30.162)" fill="#fff"/>
              </g>
              <g id="Grupo_2047" data-name="Grupo 2047" transform="translate(4.272 3.004)">
                <path id="Caminho_2910" data-name="Caminho 2910" d="M22.2,37.384a.161.161,0,0,1,.073.127c0,.046-.033.066-.074.042a.16.16,0,0,1-.072-.126C22.128,37.38,22.161,37.36,22.2,37.384Z" transform="translate(-22.128 -37.374)" fill="#fff"/>
              </g>
              <g id="Grupo_2048" data-name="Grupo 2048" transform="translate(3.992 2.835)">
                <ellipse id="Elipse_79" data-name="Elipse 79" cx="0.06" cy="0.103" rx="0.06" ry="0.103" transform="translate(0 0.06) rotate(-30.162)" fill="#fff"/>
              </g>
              <g id="Grupo_2049" data-name="Grupo 2049" transform="translate(3.743 2.691)">
                <ellipse id="Elipse_80" data-name="Elipse 80" cx="0.06" cy="0.103" rx="0.06" ry="0.103" transform="translate(0 0.06) rotate(-30.162)" fill="#fff"/>
              </g>
            </g>
            <path id="Caminho_2911" data-name="Caminho 2911" d="M12.282,30.06l-.033-.019,0,1.038v.013l5.19,3,.033.019,0-1.038v-.013Zm5.141,3.97-5.134-2.964,0-.948,5.134,2.964Z" transform="translate(-12.087 -29.619)" fill="#4466fb"/>
          </g>
          <g id="Grupo_2053" data-name="Grupo 2053" transform="translate(0.582 5.062)">
            <g id="Grupo_2052" data-name="Grupo 2052">
              <path id="Caminho_2912" data-name="Caminho 2912" d="M22.954,39.831v.877l0,.812-.361-.211V40.5l0-.881Z" transform="translate(-18.077 -37.019)" fill="#1b2a4f"/>
              <path id="Caminho_2913" data-name="Caminho 2913" d="M14.295,34.828l.361.211,0,.881v.808l-.365-.211,0-.808Z" transform="translate(-13.536 -34.398)" fill="#1b2a4f"/>
              <path id="Caminho_2914" data-name="Caminho 2914" d="M16.122,35.888l.191.11,0,.876v.812l-.191-.11-.174-.1,0-.808,0-.881Z" transform="translate(-14.442 -34.922)" fill="#1b2a4f"/>
              <path id="Caminho_2915" data-name="Caminho 2915" d="M19.27,37.7l.365.211,0,.881V39.6l-.365-.211v-.808Z" transform="translate(-16.26 -35.97)" fill="#1b2a4f"/>
              <path id="Caminho_2916" data-name="Caminho 2916" d="M21.1,38.759l.195.114v.876l0,.812-.195-.114-.166-.1v-.808l0-.881Z" transform="translate(-17.171 -36.495)" fill="#1b2a4f"/>
              <path id="Caminho_2917" data-name="Caminho 2917" d="M17.614,36.745l.361.211v.876l0,.812-.361-.211v-.807Z" transform="translate(-15.353 -35.446)" fill="#1b2a4f"/>
              <path id="Caminho_2918" data-name="Caminho 2918" d="M12.634,33.879l.365.207,0,.881v.807l-.365-.207,0-.812Z" transform="translate(-12.63 -33.879)" fill="#1b2a4f"/>
            </g>
          </g>
        </g>
      </g>
      <g id="Grupo_2064" data-name="Grupo 2064" transform="translate(3.214 2.826)">
        <g id="Grupo_2060" data-name="Grupo 2060">
          <g id="Grupo_2059" data-name="Grupo 2059">
            <g id="Grupo_2056" data-name="Grupo 2056" transform="translate(0 0.305)">
              <path id="Caminho_2919" data-name="Caminho 2919" d="M24.319,33.575a2,2,0,0,0-.17,1.326c.252,1.876-.488,3.464-2.714,2.77l-.088-.026-.088-.075a6.808,6.808,0,0,1-2.688-5.89,3.385,3.385,0,0,0-.16-1.516l-.18-.462,1.211-.295.2.2a2.26,2.26,0,0,0,.455.363,1.29,1.29,0,0,0,1.018.16l.255-.095.252.39a3.689,3.689,0,0,0,1.015,1.008,1.2,1.2,0,0,0,.458.167l.2.026L24.5,33.323Z" transform="translate(-18.229 -29.407)" fill="#b7c5fd"/>
            </g>
            <g id="Grupo_2057" data-name="Grupo 2057" transform="translate(0.004)">
              <path id="Caminho_2920" data-name="Caminho 2920" d="M25.025,32.651l-1.207-1.693-.2-.026a1.26,1.26,0,0,1-.458-.165,3.715,3.715,0,0,1-1.012-1.009l-.254-.391-.254.1-.006,0a1.3,1.3,0,0,1-1.012-.165,2.163,2.163,0,0,1-.458-.362l-.2-.2-1.211.3-.519.3,1.208-.294.2.2a2.26,2.26,0,0,0,.455.363,1.29,1.29,0,0,0,1.018.16l.255-.095.252.39a3.689,3.689,0,0,0,1.015,1.008,1.2,1.2,0,0,0,.458.167l.2.026L24.5,32.955l-.18.252a2,2,0,0,0-.17,1.326,2.657,2.657,0,0,1-.807,2.69l.479-.277a2.615,2.615,0,0,0,.849-2.718,2.028,2.028,0,0,1,.171-1.326Z" transform="translate(-18.238 -28.735)" fill="#d9ddf6"/>
            </g>
            <g id="Grupo_2058" data-name="Grupo 2058" transform="translate(0.52 0.848)">
              <path id="Caminho_2921" data-name="Caminho 2921" d="M21.994,31.284a4.3,4.3,0,0,0,1.268,1.264,1.65,1.65,0,0,0,.6.218l.743,1.042a2.259,2.259,0,0,0-.218,1.6c.2,1.512-.324,3.076-2.411,2.427a5.978,5.978,0,0,1-2.39-5.2,3.853,3.853,0,0,0-.208-1.846l.746-.182a2.811,2.811,0,0,0,.6.475A1.5,1.5,0,0,0,21.994,31.284Z" transform="translate(-19.378 -30.607)" fill="#3955d1"/>
            </g>
          </g>
        </g>
        <g id="Grupo_2063" data-name="Grupo 2063" transform="translate(1.994 2.855)">
          <g id="Grupo_2061" data-name="Grupo 2061" transform="translate(0 0.896)">
            <path id="Caminho_2922" data-name="Caminho 2922" d="M24.468,37.945a.629.629,0,0,1,.287.5l0,1.373c0,.18-.13.254-.289.162l-1.545-.892a.631.631,0,0,1-.287-.495l0-1.373c0-.183.13-.256.289-.163Zm-.679.725c.083,0,.139-.056.14-.165a.515.515,0,0,0-.235-.407c-.13-.075-.236-.016-.236.135a.516.516,0,0,0,.138.326v.4l.193.111v-.4" transform="translate(-22.63 -37.013)" fill="#fff"/>
          </g>
          <g id="Grupo_2062" data-name="Grupo 2062" transform="translate(0.296)">
            <path id="Caminho_2923" data-name="Caminho 2923" d="M24.061,35.143l.02.012a1.74,1.74,0,0,1,.743,1.344v.362l-.251-.145v-.362a1.186,1.186,0,0,0-.5-.916l-.014-.009a.376.376,0,0,0-.362-.041.359.359,0,0,0-.158.337v.393l-.252-.146V35.58a.531.531,0,0,1,.236-.5A.56.56,0,0,1,24.061,35.143Z" transform="translate(-23.283 -35.036)" fill="#fff"/>
          </g>
        </g>
      </g>
    </g>
  </g>
  <g id="Grupo_2067" data-name="Grupo 2067" transform="translate(1.779 0)">
    <path id="Caminho_2924" data-name="Caminho 2924" d="M11.36,4.528,17.432,1l6.295,3.634L17.655,8.163Z" transform="translate(-11.36 -1)" fill="#384e85"/>
  </g>
  <g id="Grupo_2068" data-name="Grupo 2068" transform="translate(3.546 1.023)">
    <path id="Caminho_2925" data-name="Caminho 2925" d="M23.927,5.588a.242.242,0,0,1,0,.458L20.085,8.28a.871.871,0,0,1-.791,0l-3.87-2.234a.242.242,0,0,1,0-.458l3.845-2.234a.871.871,0,0,1,.791,0Z" transform="translate(-15.26 -3.259)" fill="#1b2a4f"/>
  </g>
</svg>
