<svg xmlns="http://www.w3.org/2000/svg" width="166.584" height="161.596" viewBox="0 0 166.584 161.596">
  <g id="Signaling_Server" data-name="Signaling Server" transform="translate(0 -66)">
    <g id="Grupo_2066" data-name="Grupo 2066" transform="translate(0 36.927)">
      <g id="Grupo_1970" data-name="Grupo 1970" transform="translate(0 88.928)">
        <g id="Grupo_1966" data-name="Grupo 1966" transform="translate(0.087)">
          <path id="Caminho_2852" data-name="Caminho 2852" d="M7.452,75.049,89.2,27.543l84.75,48.93L92.2,123.979Z" transform="translate(-7.452 -27.543)" fill="#d9ddf6"/>
        </g>
        <g id="Grupo_1969" data-name="Grupo 1969" transform="translate(0 47.506)">
          <g id="Grupo_1967" data-name="Grupo 1967" transform="translate(84.75 1.424)">
            <path id="Caminho_2853" data-name="Caminho 2853" d="M25.395,85.369l81.747-47.506-.087,5.3L25.307,90.673Z" transform="translate(-25.307 -37.862)" fill="#aabafd"/>
          </g>
          <g id="Grupo_1968" data-name="Grupo 1968">
            <path id="Caminho_2854" data-name="Caminho 2854" d="M92.271,86.492l-.087,5.3L7.434,42.866l.087-5.3Z" transform="translate(-7.434 -37.562)" fill="#b7c5fd"/>
          </g>
        </g>
      </g>
      <g id="Grupo_2065" data-name="Grupo 2065" transform="translate(18.549)">
        <g id="Grupo_2055" data-name="Grupo 2055">
          <g id="Grupo_2054" data-name="Grupo 2054">
            <g id="Grupo_1986" data-name="Grupo 1986">
              <g id="Grupo_1971" data-name="Grupo 1971" transform="translate(63.323 1.107)">
                <path id="Caminho_2855" data-name="Caminho 2855" d="M24.7,112.434,90.865,75.021,90.8,147.8,27.254,184.722Z" transform="translate(-24.7 -9.021)" fill="#1b2a4f"/>
              </g>
              <g id="Grupo_1984" data-name="Grupo 1984" transform="translate(101.966 18.729)">
                <g id="Grupo_1977" data-name="Grupo 1977" transform="translate(0 91.943)">
                  <g id="Grupo_1972" data-name="Grupo 1972" transform="translate(0.059 20.877)">
                    <path id="Caminho_2856" data-name="Caminho 2856" d="M32.863,48.645l.009,3.02,20.98-12.113-.009-3.02Z" transform="translate(-32.863 -36.532)" fill="#384e85"/>
                  </g>
                  <g id="Grupo_1973" data-name="Grupo 1973">
                    <path id="Caminho_2857" data-name="Caminho 2857" d="M32.85,44.242l.009,3.02,20.98-12.113-.009-3.02Z" transform="translate(-32.85 -32.129)" fill="#384e85"/>
                  </g>
                  <g id="Grupo_1974" data-name="Grupo 1974" transform="translate(0.015 5.219)">
                    <path id="Caminho_2858" data-name="Caminho 2858" d="M32.853,45.342l.009,3.02,20.98-12.113-.009-3.02Z" transform="translate(-32.853 -33.229)" fill="#384e85"/>
                  </g>
                  <g id="Grupo_1975" data-name="Grupo 1975" transform="translate(0.03 10.439)">
                    <path id="Caminho_2859" data-name="Caminho 2859" d="M32.856,46.443l.009,3.02L53.845,37.35l-.009-3.02Z" transform="translate(-32.856 -34.33)" fill="#384e85"/>
                  </g>
                  <g id="Grupo_1976" data-name="Grupo 1976" transform="translate(0.044 15.658)">
                    <path id="Caminho_2860" data-name="Caminho 2860" d="M32.86,47.544l.009,3.02,20.98-12.113-.009-3.02Z" transform="translate(-32.86 -35.431)" fill="#384e85"/>
                  </g>
                </g>
              </g>
              <g id="Grupo_1985" data-name="Grupo 1985">
                <path id="Caminho_2866" data-name="Caminho 2866" d="M77.29,112.308,77.222,185.6,11.346,147.562l.068-72.774Z" transform="translate(-11.346 -8.788)" fill="#2e4277"/>
              </g>
            </g>
            <g id="Grupo_2038" data-name="Grupo 2038" transform="translate(2.622 74.167)">
              <g id="Grupo_2029" data-name="Grupo 2029">
                <g id="Grupo_2026" data-name="Grupo 2026" transform="translate(57.922 33.441)">
                  <path id="Caminho_2894" data-name="Caminho 2894" d="M24.172,33.064l2.721-1.581-.058,14.763-2.721,1.581Z" transform="translate(-24.114 -31.483)" fill="#4466fb"/>
                </g>
                <g id="Grupo_2027" data-name="Grupo 2027" transform="translate(0.058)">
                  <path id="Caminho_2895" data-name="Caminho 2895" d="M11.911,26.011l2.721-1.581L72.554,57.871l-2.721,1.581Z" transform="translate(-11.911 -24.43)" fill="#b7c5fd"/>
                </g>
                <g id="Grupo_2028" data-name="Grupo 2028" transform="translate(0 1.581)">
                  <path id="Caminho_2896" data-name="Caminho 2896" d="M69.879,58.2l-.058,14.763L11.9,39.527l.058-14.763Z" transform="translate(-11.899 -24.763)" fill="#b7c5fd"/>
                  <path id="Caminho_2897" data-name="Caminho 2897" d="M69.879,58.2l-.058,14.763L11.9,39.527l.058-14.763Z" transform="translate(-11.899 -24.763)" fill="#6bb5fb"/>
                </g>
              </g>
              <g id="Grupo_2037" data-name="Grupo 2037" transform="translate(3.793 7.745)">
                <g id="Grupo_2030" data-name="Grupo 2030">
                  <path id="Caminho_2898" data-name="Caminho 2898" d="M16.763,28.405l-.008,2.017L12.7,28.08l.008-2.017Z" transform="translate(-12.699 -26.063)" fill="#384e85"/>
                </g>
                <g id="Grupo_2031" data-name="Grupo 2031" transform="translate(5.898 3.405)">
                  <path id="Caminho_2899" data-name="Caminho 2899" d="M18,29.118l-.008,2.017L13.942,28.8l.008-2.017Z" transform="translate(-13.942 -26.781)" fill="#384e85"/>
                </g>
                <g id="Grupo_2032" data-name="Grupo 2032" transform="translate(44.806 25.869)">
                  <path id="Caminho_2900" data-name="Caminho 2900" d="M26.213,33.861,26.2,35.878l-4.057-2.342.008-2.017Z" transform="translate(-22.148 -31.519)" fill="#384e85"/>
                </g>
                <g id="Grupo_2033" data-name="Grupo 2033" transform="translate(46.993 32.675)">
                  <ellipse id="Elipse_75" data-name="Elipse 75" cx="0.626" cy="1.081" rx="0.626" ry="1.081" transform="translate(0 0.629) rotate(-30.162)" fill="#fff"/>
                </g>
                <g id="Grupo_2034" data-name="Grupo 2034" transform="translate(44.71 31.434)">
                  <path id="Caminho_2901" data-name="Caminho 2901" d="M22.89,32.8a1.68,1.68,0,0,1,.764,1.324c0,.484-.341.686-.769.438a1.678,1.678,0,0,1-.757-1.32C22.129,32.755,22.469,32.553,22.89,32.8Z" transform="translate(-22.128 -32.693)" fill="#fff"/>
                </g>
                <g id="Grupo_2035" data-name="Grupo 2035" transform="translate(41.783 29.666)">
                  <ellipse id="Elipse_76" data-name="Elipse 76" cx="0.626" cy="1.081" rx="0.626" ry="1.081" transform="translate(0 0.629) rotate(-30.162)" fill="#fff"/>
                </g>
                <g id="Grupo_2036" data-name="Grupo 2036" transform="translate(39.173 28.16)">
                  <ellipse id="Elipse_77" data-name="Elipse 77" cx="0.626" cy="1.081" rx="0.626" ry="1.081" transform="translate(0 0.629) rotate(-30.162)" fill="#fff"/>
                </g>
              </g>
              <path id="Caminho_2902" data-name="Caminho 2902" d="M12.638,25.56l-.349-.2-.043,10.861,0,.132L66.555,67.709l.349.2.043-10.861,0-.132Zm53.8,41.547L12.714,36.088l.041-9.926L66.479,57.181Z" transform="translate(-10.607 -20.951)" fill="#4466fb"/>
            </g>
            <g id="Grupo_2051" data-name="Grupo 2051" transform="translate(2.622 96.363)">
              <g id="Grupo_2042" data-name="Grupo 2042">
                <g id="Grupo_2039" data-name="Grupo 2039" transform="translate(57.922 33.441)">
                  <path id="Caminho_2903" data-name="Caminho 2903" d="M24.172,37.745l2.721-1.581-.058,14.763-2.721,1.581Z" transform="translate(-24.114 -36.164)" fill="#4466fb"/>
                </g>
                <g id="Grupo_2040" data-name="Grupo 2040" transform="translate(0.058)">
                  <path id="Caminho_2904" data-name="Caminho 2904" d="M11.911,30.692l2.721-1.581L72.554,62.552l-2.721,1.581Z" transform="translate(-11.911 -29.111)" fill="#b7c5fd"/>
                </g>
                <g id="Grupo_2041" data-name="Grupo 2041" transform="translate(0 1.581)">
                  <path id="Caminho_2905" data-name="Caminho 2905" d="M69.879,62.886l-.058,14.763L11.9,44.208l.058-14.763Z" transform="translate(-11.899 -29.444)" fill="#b7c5fd"/>
                  <path id="Caminho_2906" data-name="Caminho 2906" d="M69.879,62.886l-.058,14.763L11.9,44.208l.058-14.763Z" transform="translate(-11.899 -29.444)" fill="#6bb5fb"/>
                </g>
              </g>
              <g id="Grupo_2050" data-name="Grupo 2050" transform="translate(3.793 7.745)">
                <g id="Grupo_2043" data-name="Grupo 2043">
                  <path id="Caminho_2907" data-name="Caminho 2907" d="M16.763,33.086,16.755,35.1,12.7,32.762l.008-2.017Z" transform="translate(-12.699 -30.744)" fill="#384e85"/>
                </g>
                <g id="Grupo_2044" data-name="Grupo 2044" transform="translate(5.898 3.405)">
                  <path id="Caminho_2908" data-name="Caminho 2908" d="M18,33.8l-.008,2.017L13.942,33.48l.008-2.017Z" transform="translate(-13.942 -31.463)" fill="#384e85"/>
                </g>
                <g id="Grupo_2045" data-name="Grupo 2045" transform="translate(44.806 25.869)">
                  <path id="Caminho_2909" data-name="Caminho 2909" d="M26.213,38.542,26.2,40.559l-4.057-2.342.008-2.017Z" transform="translate(-22.148 -36.2)" fill="#384e85"/>
                </g>
                <g id="Grupo_2046" data-name="Grupo 2046" transform="translate(46.993 32.675)">
                  <ellipse id="Elipse_78" data-name="Elipse 78" cx="0.626" cy="1.081" rx="0.626" ry="1.081" transform="translate(0 0.629) rotate(-30.162)" fill="#fff"/>
                </g>
                <g id="Grupo_2047" data-name="Grupo 2047" transform="translate(44.71 31.434)">
                  <path id="Caminho_2910" data-name="Caminho 2910" d="M22.89,37.477a1.68,1.68,0,0,1,.764,1.324c0,.484-.341.686-.769.439a1.678,1.678,0,0,1-.757-1.32C22.129,37.436,22.469,37.234,22.89,37.477Z" transform="translate(-22.128 -37.374)" fill="#fff"/>
                </g>
                <g id="Grupo_2048" data-name="Grupo 2048" transform="translate(41.782 29.666)">
                  <ellipse id="Elipse_79" data-name="Elipse 79" cx="0.626" cy="1.081" rx="0.626" ry="1.081" transform="translate(0 0.629) rotate(-30.162)" fill="#fff"/>
                </g>
                <g id="Grupo_2049" data-name="Grupo 2049" transform="translate(39.173 28.16)">
                  <ellipse id="Elipse_80" data-name="Elipse 80" cx="0.626" cy="1.081" rx="0.626" ry="1.081" transform="translate(0 0.629) rotate(-30.162)" fill="#fff"/>
                </g>
              </g>
              <path id="Caminho_2911" data-name="Caminho 2911" d="M12.638,30.241l-.349-.2L12.246,40.9l0,.132L66.555,72.39l.349.2.043-10.861,0-.132Zm53.8,41.547L12.714,40.77l.041-9.926L66.479,61.862Z" transform="translate(-10.607 -25.632)" fill="#4466fb"/>
            </g>
            <g id="Grupo_2053" data-name="Grupo 2053" transform="translate(6.089 118.971)">
              <g id="Grupo_2052" data-name="Grupo 2052">
                <path id="Caminho_2912" data-name="Caminho 2912" d="M26.411,41.828V51l-.043,8.493-3.78-2.208V48.835l.043-9.215Z" transform="translate(24.634 -12.399)" fill="#1b2a4f"/>
                <path id="Caminho_2913" data-name="Caminho 2913" d="M14.372,34.828l3.78,2.208-.042,9.215V54.7l-3.822-2.208.042-8.451Z" transform="translate(-6.43 -30.327)" fill="#1b2a4f"/>
                <path id="Caminho_2914" data-name="Caminho 2914" d="M17.812,36.848l2,1.147-.042,9.173v8.493l-2-1.146-1.826-1.062L15.986,45l.043-9.215Z" transform="translate(-0.231 -26.741)" fill="#1b2a4f"/>
                <path id="Caminho_2915" data-name="Caminho 2915" d="M19.309,37.7l3.822,2.208-.043,9.215v8.451l-3.822-2.208V46.918Z" transform="translate(12.201 -19.57)" fill="#1b2a4f"/>
                <path id="Caminho_2916" data-name="Caminho 2916" d="M22.716,39.681l2.039,1.189v9.173l-.043,8.493-2.039-1.189-1.741-1.019V47.877l.042-9.215Z" transform="translate(18.434 -15.984)" fill="#1b2a4f"/>
                <path id="Caminho_2917" data-name="Caminho 2917" d="M17.652,36.745l3.78,2.208v9.173l-.042,8.493-3.78-2.208V45.96Z" transform="translate(6.002 -23.155)" fill="#1b2a4f"/>
                <path id="Caminho_2918" data-name="Caminho 2918" d="M12.672,33.879l3.822,2.166-.042,9.215v8.451L12.63,51.545l.042-8.493Z" transform="translate(-12.63 -33.879)" fill="#1b2a4f"/>
              </g>
            </g>
          </g>
        </g>
        <g id="Grupo_2064" data-name="Grupo 2064" transform="translate(33.639 95.579)">
          <g id="Grupo_2060" data-name="Grupo 2060">
            <g id="Grupo_2059" data-name="Grupo 2059">
              <g id="Grupo_2056" data-name="Grupo 2056" transform="translate(0 3.189)">
                <path id="Caminho_2919" data-name="Caminho 2919" d="M81.959,73.025c-.034.034-3.049,4.557-1.782,13.877,2.638,19.633-5.105,36.251-28.4,28.987l-.925-.274-.925-.788C26.658,95.193,19.051,69.7,21.792,53.186c1.3-7.881-1.679-15.8-1.679-15.864l-1.884-4.831,12.678-3.084L33,31.532a23.653,23.653,0,0,0,4.763,3.8c5.928,3.392,10.622,1.679,10.656,1.679l2.673-.994L53.726,40.1c.034.034,4.728,7.161,10.622,10.553a12.583,12.583,0,0,0,4.8,1.747l2.056.274L83.844,70.386Z" transform="translate(-18.229 -29.407)" fill="#b7c5fd"/>
              </g>
              <g id="Grupo_2057" data-name="Grupo 2057" transform="translate(0.041)">
                <path id="Caminho_2920" data-name="Caminho 2920" d="M89.271,69.715,76.639,52l-2.076-.272A13.183,13.183,0,0,1,69.771,50c-5.879-3.415-10.555-10.517-10.594-10.555l-2.658-4.094L53.86,36.36l-.058.019c-.582.174-5.064,1.475-10.594-1.727a22.634,22.634,0,0,1-4.793-3.784l-2.076-2.134-12.67,3.1L18.238,35l12.637-3.074,2.09,2.124a23.653,23.653,0,0,0,4.763,3.8c5.928,3.392,10.622,1.679,10.656,1.679l2.673-.994,2.638,4.077c.034.034,4.728,7.161,10.622,10.553a12.583,12.583,0,0,0,4.8,1.747l2.056.274L83.812,72.9l-1.885,2.638c-.034.034-3.049,4.557-1.782,13.877,1.646,12.247-.751,23.318-8.441,28.153l5.013-2.9c8.052-4.7,10.575-15.95,8.887-28.446-1.242-9.313,1.766-13.835,1.785-13.874Z" transform="translate(-18.238 -28.735)" fill="#d9ddf6"/>
              </g>
              <g id="Grupo_2058" data-name="Grupo 2058" transform="translate(5.445 8.878)">
                <path id="Caminho_2921" data-name="Caminho 2921" d="M46.761,37.687c.285.443,5.693,8.855,13.272,13.231a17.268,17.268,0,0,0,6.278,2.277l7.774,10.9c-.191.265-3.825,5.306-2.281,16.749,2.127,15.829-3.392,32.191-25.237,25.4C24.755,87.834,19.347,65.163,21.556,51.838c1.6-9.626-1.99-18.839-2.179-19.324l7.811-1.907a29.416,29.416,0,0,0,6.275,4.97C41.044,39.954,46.475,37.8,46.761,37.687Z" transform="translate(-19.378 -30.607)" fill="#3955d1"/>
              </g>
            </g>
          </g>
          <g id="Grupo_2063" data-name="Grupo 2063" transform="translate(20.869 29.876)">
            <g id="Grupo_2061" data-name="Grupo 2061" transform="translate(0 9.378)">
              <path id="Caminho_2922" data-name="Caminho 2922" d="M41.863,46.765a6.587,6.587,0,0,1,3.008,5.194L44.83,66.324c-.005,1.888-1.357,2.659-3.027,1.694L25.638,58.685a6.607,6.607,0,0,1-3.008-5.178l.041-14.365c.005-1.919,1.357-2.674,3.027-1.71Zm-7.105,7.588c.863.049,1.459-.584,1.462-1.73a5.4,5.4,0,0,0-2.457-4.256c-1.361-.785-2.469-.169-2.473,1.409a5.4,5.4,0,0,0,1.448,3.41l-.012,4.195,2.021,1.167.012-4.195" transform="translate(-22.63 -37.013)" fill="#fff"/>
            </g>
            <g id="Grupo_2062" data-name="Grupo 2062" transform="translate(3.095)">
              <path id="Caminho_2923" data-name="Caminho 2923" d="M31.425,36.165l.208.123c4.3,2.62,7.787,8.946,7.773,14.069l-.011,3.792-2.627-1.517.011-3.792a12.411,12.411,0,0,0-5.249-9.589l-.151-.089a3.938,3.938,0,0,0-3.788-.433,3.76,3.76,0,0,0-1.656,3.525l-.012,4.117-2.64-1.524.012-4.117c.007-2.508.876-4.363,2.471-5.225C27.3,34.693,29.317,34.948,31.425,36.165Z" transform="translate(-23.283 -35.036)" fill="#fff"/>
            </g>
          </g>
        </g>
      </g>
    </g>
    <g id="Grupo_2067" data-name="Grupo 2067" transform="translate(18.617 66)">
      <path id="Caminho_2924" data-name="Caminho 2924" d="M11.36,37.927,74.9,1l65.876,38.034L77.236,75.961Z" transform="translate(-11.36 -1)" fill="#384e85"/>
    </g>
    <g id="Grupo_2068" data-name="Grupo 2068" transform="translate(37.109 76.709)">
      <path id="Caminho_2925" data-name="Caminho 2925" d="M105.968,27.633c2.293,1.324,2.3,3.469.025,4.792L65.759,55.807a9.116,9.116,0,0,1-8.274,0l-40.5-23.382c-2.293-1.324-2.3-3.47-.027-4.793L57.2,4.251a9.119,9.119,0,0,1,8.275,0Z" transform="translate(-15.26 -3.259)" fill="#1b2a4f"/>
    </g>
  </g>
</svg>
