<svg xmlns="http://www.w3.org/2000/svg" width="539.734" height="577.995" viewBox="0 0 539.734 577.995">
  <g id="DECENTRALIZED" transform="translate(-0.128 -0.617)">
    <line id="Line-4" x2="114.533" transform="translate(295.764 441.888)" fill="none" stroke="#3955d1" stroke-linecap="square" stroke-width="5"/>
    <line id="Line" y1="118.828" x2="31.497" transform="translate(378.084 441.172)" fill="none" stroke="#3955d1" stroke-linecap="square" stroke-width="5"/>
    <line id="Line-2" x2="93.058" y2="37.223" transform="translate(410.297 441.888)" fill="none" stroke="#3955d1" stroke-linecap="square" stroke-width="5"/>
    <line id="Line-3" x1="49.392" y2="119.544" transform="translate(410.297 322.344)" fill="none" stroke="#3955d1" stroke-linecap="square" stroke-width="5"/>
    <line id="Line-3-2" data-name="Line-3" x1="110.954" y2="49.392" transform="translate(410.297 392.496)" fill="none" stroke="#3955d1" stroke-linecap="square" stroke-width="5"/>
    <line id="Line-2-2" data-name="Line" x2="30.807" y2="99.836" transform="translate(93.069 269.908)" fill="none" stroke="#3955d1" stroke-linecap="square" stroke-width="5"/>
    <line id="Line-2-3" data-name="Line-2" x1="97.735" y1="22.208" transform="translate(25.321 346.942)" fill="none" stroke="#3955d1" stroke-linecap="square" stroke-width="5"/>
    <line id="Line-3-3" data-name="Line-3" x1="12.361" y1="89.918" transform="translate(123.056 369.15)" fill="none" stroke="#3955d1" stroke-linecap="square" stroke-width="5"/>
    <line id="Line-3-4" data-name="Line-3" x1="157.675" y2="88.324" transform="translate(123.056 280.826)" fill="none" stroke="#3955d1" stroke-linecap="square" stroke-width="5"/>
    <line id="Line-3-5" data-name="Line-3" x2="128.85" y2="160.346" transform="translate(281.447 281.542)" fill="none" stroke="#3955d1" stroke-linecap="square" stroke-width="5"/>
    <line id="Line-3-6" data-name="Line-3" y1="66.141" x2="101.86" transform="translate(21.196 369.15)" fill="none" stroke="#3955d1" stroke-linecap="square" stroke-width="5"/>
    <line id="Line-3-7" data-name="Line" x1="82.5" y1="64.111" transform="translate(372.648 140.552)" fill="none" stroke="#3955d1" stroke-linecap="square" stroke-width="5"/>
    <line id="Line-2-4" data-name="Line-2" y1="37.867" x2="92.799" transform="translate(373.66 102.703)" fill="none" stroke="#3955d1" stroke-linecap="square" stroke-width="5"/>
    <line id="Line-3-8" data-name="Line-3" y1="37.892" x2="183.84" transform="translate(189.821 140.57)" fill="none" stroke="#3955d1" stroke-linecap="square" stroke-width="5"/>
    <line id="Line-3-9" data-name="Line-3" x1="27.202" y2="124.555" transform="translate(198.411 53.908)" fill="none" stroke="#3955d1" stroke-linecap="square" stroke-width="5"/>
    <line id="Line-3-10" data-name="Line-3" x2="83.036" y2="103.08" transform="translate(198.411 178.462)" fill="none" stroke="#3955d1" stroke-linecap="square" stroke-width="5"/>
    <line id="Line-3-11" data-name="Line-3" x2="115.965" y2="58.698" transform="translate(82.446 118.332)" fill="none" stroke="#3955d1" stroke-linecap="square" stroke-width="5"/>
    <line id="Line-3-12" data-name="Line-3" y1="91.626" x2="34.36" transform="translate(164.051 177.031)" fill="none" stroke="#3955d1" stroke-linecap="square" stroke-width="5"/>
    <line id="Line-3-13" data-name="Line-3" y1="140.256" x2="92.929" transform="translate(280.731 140.57)" fill="none" stroke="#3955d1" stroke-linecap="square" stroke-width="5"/>
    <line id="Line-3-14" data-name="Line-3" x1="45.504" y2="112.606" transform="translate(373.66 27.964)" fill="none" stroke="#3955d1" stroke-linecap="square" stroke-width="5"/>
    <circle id="Oval" cx="18.612" cy="18.612" r="18.612" transform="translate(275.005 422.561)" fill="#454ee0"/>
    <circle id="Oval-2" data-name="Oval" cx="18.612" cy="18.612" r="18.612" transform="translate(441.077 303.733)" fill="#454ee0"/>
    <circle id="Oval-3" data-name="Oval" cx="18.612" cy="18.612" r="18.612" transform="translate(502.639 372.453)" fill="#3955d1"/>
    <circle id="Oval-4" data-name="Oval" cx="18.612" cy="18.612" r="18.612" transform="translate(484.027 459.784)" fill="#454ee0"/>
    <circle id="Oval-5" data-name="Oval" cx="18.612" cy="18.612" r="18.612" transform="translate(359.473 541.389)" fill="#454ee0"/>
    <circle id="Oval-6" data-name="Oval" cx="18.612" cy="18.612" r="18.612" transform="translate(390.969 422.561)" fill="#3955d1"/>
    <circle id="Oval-7" data-name="Oval" cx="18.612" cy="18.612" r="18.612" transform="translate(155.998 473.822) rotate(171)" fill="#454ee0"/>
    <circle id="Oval-8" data-name="Oval" cx="18.612" cy="18.612" r="18.612" transform="translate(42.716 452.175) rotate(171)" fill="#454ee0"/>
    <circle id="Oval-9" data-name="Oval" cx="18.612" cy="18.612" r="18.612" transform="translate(47.437 363.007) rotate(171)" fill="#3955d1"/>
    <circle id="Oval-10" data-name="Oval" cx="18.612" cy="18.612" r="18.612" transform="translate(113.648 284.662) rotate(171)" fill="#454ee0"/>
    <circle id="Oval-11" data-name="Oval" cx="18.612" cy="18.612" r="18.612" transform="translate(302.027 296.296) rotate(171)" fill="#3955d1"/>
    <circle id="Oval-12" data-name="Oval" cx="18.612" cy="18.612" r="18.612" transform="translate(145.172 385.215) rotate(171)" fill="#3955d1"/>
    <circle id="Oval-13" data-name="Oval" cx="18.612" cy="18.612" r="18.612" transform="matrix(0.719, -0.695, 0.695, 0.719, 198.58, 54.164)" fill="#454ee0"/>
    <circle id="Oval-14" data-name="Oval" cx="18.612" cy="18.612" r="18.612" transform="matrix(0.719, -0.695, 0.695, 0.719, 171.378, 177.287)" fill="#454ee0"/>
    <circle id="Oval-15" data-name="Oval" cx="18.612" cy="18.612" r="18.612" transform="matrix(0.719, -0.695, 0.695, 0.719, 55.413, 117.158)" fill="#454ee0"/>
    <circle id="Oval-16" data-name="Oval" cx="18.612" cy="18.612" r="18.612" transform="matrix(0.719, -0.695, 0.695, 0.719, 391.853, 26.475)" fill="#454ee0"/>
    <circle id="Oval-17" data-name="Oval" cx="18.612" cy="18.612" r="18.612" transform="matrix(0.719, -0.695, 0.695, 0.719, 439.13, 102.224)" fill="#454ee0"/>
    <circle id="Oval-18" data-name="Oval" cx="18.612" cy="18.612" r="18.612" transform="matrix(0.719, -0.695, 0.695, 0.719, 137.019, 268.914)" fill="#454ee0"/>
    <circle id="Oval-19" data-name="Oval" cx="18.612" cy="18.612" r="18.612" transform="matrix(0.719, -0.695, 0.695, 0.719, 429.829, 204.379)" fill="#454ee0"/>
    <circle id="Oval-20" data-name="Oval" cx="18.612" cy="18.612" r="18.612" transform="matrix(0.719, -0.695, 0.695, 0.719, 346.332, 140.092)" fill="#454ee0"/>
  </g>
</svg>
