<svg id="B-SDP" xmlns="http://www.w3.org/2000/svg" width="150.928" height="77.184" viewBox="0 0 150.928 77.184">
  <g id="Security" transform="translate(0 5.29)">
    <g id="Grupo_2060" data-name="Grupo 2060" transform="translate(0)">
      <g id="Grupo_2059" data-name="Grupo 2059">
        <g id="Grupo_2056" data-name="Grupo 2056" transform="translate(4.251 2.501)">
          <path id="Caminho_2919" data-name="Caminho 2919" d="M19.7,63.612c.027.027,2.375,3.574,1.387,10.882-2.054,15.4,3.976,28.428,22.12,22.732l.72-.215.72-.618C62.762,81,68.685,61.006,66.551,48.055c-1.014-6.18,1.307-12.387,1.307-12.441l1.467-3.789-9.872-2.418-1.628,1.666a18.442,18.442,0,0,1-3.709,2.983c-4.616,2.66-8.271,1.317-8.3,1.317l-2.081-.779-2.054,3.2c-.027.027-3.682,5.616-8.272,8.276a9.756,9.756,0,0,1-3.735,1.37l-1.6.215L18.229,61.544Z" transform="translate(-18.229 -29.407)" fill="#b7c5fd"/>
        </g>
        <g id="Grupo_2057" data-name="Grupo 2057">
          <path id="Caminho_2920" data-name="Caminho 2920" d="M18.238,60.872l9.837-13.893,1.617-.213a10.219,10.219,0,0,0,3.732-1.354c4.578-2.678,8.22-8.247,8.25-8.278l2.07-3.211,2.07.791.045.015a10.523,10.523,0,0,0,8.25-1.354,17.645,17.645,0,0,0,3.732-2.967l1.617-1.674,9.867,2.435,4.229,2.477-9.841-2.411L62.086,32.9a18.441,18.441,0,0,1-3.709,2.983c-4.616,2.66-8.271,1.317-8.3,1.317L48,36.421l-2.054,3.2c-.027.027-3.682,5.616-8.272,8.276a9.755,9.755,0,0,1-3.735,1.37l-1.6.215L22.489,63.372l1.468,2.069c.027.027,2.375,3.574,1.387,10.882-1.281,9.6.585,18.286,6.574,22.078l-3.9-2.273c-6.271-3.682-8.235-12.508-6.92-22.307.967-7.3-1.375-10.849-1.39-10.88Z" transform="translate(-18.238 -28.735)" fill="#d9ddf6"/>
        </g>
        <g id="Grupo_2058" data-name="Grupo 2058" transform="translate(8.505 6.962)">
          <path id="Caminho_2921" data-name="Caminho 2921" d="M40.655,36.159c-.222.347-4.433,6.944-10.335,10.376a13.387,13.387,0,0,1-4.889,1.786l-6.054,8.552c.149.208,2.978,4.161,1.776,13.134C19.5,82.42,23.8,95.251,40.807,89.923,57.793,75.485,62,57.706,60.283,47.256A31.826,31.826,0,0,1,61.98,32.1l-6.082-1.5a22.932,22.932,0,0,1-4.887,3.9C45.108,37.937,40.878,36.248,40.655,36.159Z" transform="translate(-19.378 -30.607)" fill="#3955d1"/>
        </g>
      </g>
    </g>
    <g id="Grupo_2063" data-name="Grupo 2063" transform="translate(21.777 23.429)">
      <g id="Grupo_2061" data-name="Grupo 2061" transform="translate(0 7.354)">
        <path id="Caminho_2922" data-name="Caminho 2922" d="M24.973,44.661a5.173,5.173,0,0,0-2.342,4.073L22.662,60c0,1.481,1.057,2.085,2.357,1.329l12.588-7.319a5.189,5.189,0,0,0,2.342-4.061l-.032-11.265c0-1.505-1.057-2.1-2.357-1.341Zm5.533,5.951c-.672.038-1.136-.458-1.139-1.356a4.237,4.237,0,0,1,1.913-3.338c1.06-.616,1.923-.133,1.926,1.105A4.247,4.247,0,0,1,32.079,49.7l.009,3.29-1.574.915-.009-3.29" transform="translate(-22.63 -37.013)" fill="#fff"/>
      </g>
      <g id="Grupo_2062" data-name="Grupo 2062" transform="translate(2.355)">
        <path id="Caminho_2923" data-name="Caminho 2923" d="M29.5,35.921l-.162.1a14.307,14.307,0,0,0-6.053,11.033l.008,2.974,2.046-1.189-.008-2.974a9.75,9.75,0,0,1,4.087-7.52l.117-.07a3.048,3.048,0,0,1,2.95-.339,2.956,2.956,0,0,1,1.29,2.764l.009,3.229,2.056-1.2L35.829,39.5c-.006-1.966-.682-3.421-1.924-4.1C32.713,34.767,31.139,34.967,29.5,35.921Z" transform="translate(-23.283 -35.036)" fill="#fff"/>
      </g>
    </g>
  </g>
  <g id="Certified" transform="translate(55.27 1.568)">
    <g id="Grupo_2084" data-name="Grupo 2084">
      <path id="Caminho_2932" data-name="Caminho 2932" d="M32.488,42.365l34.018-19.64a3.222,3.222,0,0,1,3.25-.317L74.3,25.05a3.222,3.222,0,0,0-3.25.317L37.036,45.008a10.056,10.056,0,0,0-4.558,7.906l.111,39.077a3.212,3.212,0,0,0,1.337,2.943l-4.548-2.643a3.212,3.212,0,0,1-1.337-2.943L27.93,50.271A10.056,10.056,0,0,1,32.488,42.365Z" transform="translate(-27.93 -22.099)" fill="#d9ddf6"/>
      <g id="Grupo_2077" data-name="Grupo 2077" transform="translate(4.548 2.643)">
        <path id="Caminho_2933" data-name="Caminho 2933" d="M33.711,43.076a10.056,10.056,0,0,0-4.558,7.906l.111,39.077c.008,2.911,2.064,4.083,4.588,2.626l34.018-19.64a10.056,10.056,0,0,0,4.558-7.906l-.111-39.077c-.008-2.911-2.064-4.083-4.588-2.626Z" transform="translate(-29.153 -22.81)" fill="#b7c5fd"/>
      </g>
      <g id="Grupo_2083" data-name="Grupo 2083" transform="translate(8.402 9.904)">
        <g id="Grupo_2078" data-name="Grupo 2078">
          <path id="Caminho_2934" data-name="Caminho 2934" d="M65.392,27.549l.278-.161.086,30.249-.278.161A9.445,9.445,0,0,0,61.2,65.212v.331l-26.324,15.2V80.41c-.008-2.722-1.94-3.823-4.309-2.455l-.288.166L30.19,47.873l.288-.166a9.446,9.446,0,0,0,4.281-7.415v-.331l26.324-15.2v.331C61.091,27.815,63.023,28.917,65.392,27.549Zm-.2,29.776-.082-28.959c-2.452,1.25-4.436.119-4.588-2.614L35.316,40.3a10.874,10.874,0,0,1-4.548,7.889l.082,28.959c2.452-1.261,4.425-.125,4.577,2.608l25.2-14.55a10.852,10.852,0,0,1,4.558-7.883" transform="translate(-30.19 -24.762)" fill="#9aadfd"/>
        </g>
        <g id="Grupo_2079" data-name="Grupo 2079" transform="translate(3.918 32.082)">
          <path id="Caminho_2935" data-name="Caminho 2935" d="M47.845,33.39l.006,1.541-16.6,9.585-.006-1.541Z" transform="translate(-31.243 -33.39)" fill="#9aadfd"/>
        </g>
        <g id="Grupo_2080" data-name="Grupo 2080" transform="translate(3.893 16.879)">
          <path id="Caminho_2936" data-name="Caminho 2936" d="M59,29.3l.006,1.541L31.243,46.873l-.006-1.541Z" transform="translate(-31.237 -29.302)" fill="#9aadfd"/>
        </g>
        <g id="Grupo_2081" data-name="Grupo 2081" transform="translate(3.906 21.258)">
          <path id="Caminho_2937" data-name="Caminho 2937" d="M59.006,30.479l.006,1.541L31.246,48.051,31.24,46.51Z" transform="translate(-31.24 -30.479)" fill="#9aadfd"/>
        </g>
        <g id="Grupo_2082" data-name="Grupo 2082" transform="translate(4.401 7.338)">
          <path id="Caminho_2938" data-name="Caminho 2938" d="M58.058,26.736l.009,3.231L31.383,45.373l-.009-3.231Z" transform="translate(-31.373 -26.736)" fill="#384e85"/>
        </g>
      </g>
    </g>
    <g id="Grupo_2094" data-name="Grupo 2094" transform="translate(22.48 45.845)">
      <g id="Grupo_2088" data-name="Grupo 2088" transform="translate(2.747 11.115)">
        <g id="Grupo_2087" data-name="Grupo 2087">
          <g id="Grupo_2085" data-name="Grupo 2085">
            <path id="Caminho_2939" data-name="Caminho 2939" d="M35.455,41.452l1.016,2.739.958.556-1.016-2.739Z" transform="translate(-32.701 -26.451)" fill="#384e85"/>
            <path id="Caminho_2940" data-name="Caminho 2940" d="M37.429,39.777l-.958-.557,2.807,7.818.958.557Z" transform="translate(-29.938 -32.515)" fill="#384e85"/>
            <path id="Caminho_2941" data-name="Caminho 2941" d="M43.714,37.417l-4.971,2.87L34.715,55.516l.958.556L39.7,40.844l4.971-2.87Z" transform="translate(-34.715 -37.417)" fill="#384e85"/>
          </g>
          <g id="Grupo_2086" data-name="Grupo 2086" transform="translate(0.958 0.557)">
            <path id="Caminho_2942" data-name="Caminho 2942" d="M43.972,37.567l4.083,10.546L45.3,48.2l-.988,3.9-2.807-7.818L38.743,55.307l-1.016-2.739-2.755,3.1L39,40.437Z" transform="translate(-34.972 -37.567)" fill="#1b2a4f"/>
          </g>
        </g>
      </g>
      <g id="Grupo_2093" data-name="Grupo 2093" transform="translate(0 0)">
        <g id="Grupo_2092" data-name="Grupo 2092">
          <g id="Grupo_2089" data-name="Grupo 2089" transform="translate(1.247 1.439)">
            <path id="Caminho_2943" data-name="Caminho 2943" d="M34.311,47.886c0,2.2.778,3.759,2.039,4.49l1.662.966c-1.261-.731-2.039-2.286-2.039-4.49a15.406,15.406,0,0,1,6.988-12.114c1.944-1.119,3.712-1.226,4.985-.483l-1.662-.966c-1.273-.742-3.04-.636-4.985.483A15.406,15.406,0,0,0,34.311,47.886Z" transform="translate(-34.311 -34.815)" fill="#6bb5fb"/>
          </g>
          <g id="Grupo_2090" data-name="Grupo 2090">
            <ellipse id="Elipse_81" data-name="Elipse 81" cx="9.885" cy="5.725" rx="9.885" ry="5.725" transform="translate(0 17.092) rotate(-59.838)" fill="#4466fb"/>
          </g>
          <g id="Grupo_2091" data-name="Grupo 2091" transform="translate(6.393 6.711)">
            <path id="Caminho_2944" data-name="Caminho 2944" d="M39.541,36.233l1.2,2.086,2.668-1.1L41.369,40.7l1.141,2.6-2.731-.334-2.6,3.074.449-3.314L35.7,41.675l2.666-1.982Z" transform="translate(-35.695 -36.233)" fill="#fff"/>
          </g>
        </g>
      </g>
    </g>
  </g>
  <g id="Media" transform="translate(103.106 0)">
    <g id="Grupo_2151" data-name="Grupo 2151" transform="translate(0 0)">
      <g id="Grupo_2084-2" data-name="Grupo 2084" transform="translate(0 0)">
        <path id="Caminho_2932-2" data-name="Caminho 2932" d="M32.488,42.365l34.018-19.64a3.222,3.222,0,0,1,3.25-.317L74.3,25.05a3.222,3.222,0,0,0-3.25.317L37.036,45.008a10.056,10.056,0,0,0-4.558,7.906l.111,39.077a3.212,3.212,0,0,0,1.337,2.943l-4.548-2.643a3.212,3.212,0,0,1-1.337-2.943L27.93,50.271A10.056,10.056,0,0,1,32.488,42.365Z" transform="translate(-27.93 -22.099)" fill="#d9ddf6"/>
        <path id="Caminho_2933-2" data-name="Caminho 2933" d="M33.711,43.076a10.056,10.056,0,0,0-4.558,7.906l.111,39.077c.008,2.911,2.064,4.083,4.588,2.626l34.018-19.64a10.056,10.056,0,0,0,4.558-7.906l-.111-39.077c-.008-2.911-2.064-4.083-4.588-2.626Z" transform="translate(-24.605 -20.167)" fill="#b7c5fd"/>
      </g>
      <g id="Grupo_2090-2" data-name="Grupo 2090" transform="translate(12.628 20.449)">
        <path id="Caminho_2943-2" data-name="Caminho 2943" d="M34.311,56.922c0,3.727,1.315,6.358,3.448,7.593l2.81,1.634c-2.133-1.236-3.448-3.866-3.448-7.593-.02-7.533,5.261-16.7,11.819-20.488,3.288-1.893,6.278-2.073,8.43-.817l-2.81-1.634c-2.152-1.255-5.142-1.076-8.43.817C39.573,40.221,34.291,49.389,34.311,56.922Z" transform="translate(-32.202 -32.381)" fill="#6bb5fb"/>
        <ellipse id="Elipse_81-2" data-name="Elipse 81" cx="16.717" cy="9.683" rx="16.717" ry="9.683" transform="translate(0 28.908) rotate(-59.838)" fill="#4466fb"/>
      </g>
    </g>
    <g id="Grupo_2152" data-name="Grupo 2152" transform="translate(37.636 46.493) rotate(170)">
      <path id="Caminho_1967" data-name="Caminho 1967" d="M9.7,11.78,0,9.3,11.838,0Z" transform="translate(0 0)" fill="#fff"/>
    </g>
  </g>
</svg>
