<svg id="A-SDP" xmlns="http://www.w3.org/2000/svg" width="150.208" height="77.184" viewBox="0 0 150.208 77.184">
  <g id="Grupo_2064" data-name="Grupo 2064" transform="translate(95.107 5.29)">
    <g id="Grupo_2060" data-name="Grupo 2060" transform="translate(0)">
      <g id="Grupo_2059" data-name="Grupo 2059">
        <g id="Grupo_2056" data-name="Grupo 2056" transform="translate(0 2.501)">
          <path id="Caminho_2919" data-name="Caminho 2919" d="M67.637,63.612c-.026.027-2.364,3.574-1.381,10.882,2.045,15.4-3.958,28.428-22.021,22.732l-.717-.215-.717-.618C24.764,81,18.867,61.006,20.992,48.055c1.009-6.18-1.3-12.387-1.3-12.441l-1.461-3.789,9.829-2.418,1.62,1.666a18.374,18.374,0,0,0,3.692,2.983c4.6,2.66,8.235,1.317,8.261,1.317l2.072-.779,2.045,3.2c.027.027,3.666,5.616,8.235,8.276a9.685,9.685,0,0,0,3.719,1.37l1.594.215,9.8,13.892Z" transform="translate(-18.229 -29.407)" fill="#b7c5fd"/>
        </g>
        <g id="Grupo_2057" data-name="Grupo 2057" transform="translate(0.031)">
          <path id="Caminho_2920" data-name="Caminho 2920" d="M73.308,60.872,63.515,46.979l-1.61-.213a10.145,10.145,0,0,1-3.716-1.354c-4.558-2.678-8.183-8.247-8.214-8.278l-2.061-3.211-2.061.791-.045.015A10.435,10.435,0,0,1,37.6,33.376a17.579,17.579,0,0,1-3.716-2.967l-1.609-1.674-9.823,2.435-4.21,2.477,9.8-2.411,1.62,1.666a18.374,18.374,0,0,0,3.692,2.983c4.6,2.66,8.235,1.317,8.261,1.317l2.072-.779,2.045,3.2c.027.027,3.666,5.616,8.235,8.276a9.685,9.685,0,0,0,3.719,1.37l1.594.215,9.8,13.892-1.461,2.069c-.026.027-2.364,3.574-1.381,10.882,1.276,9.6-.583,18.286-6.544,22.078l3.887-2.273c6.243-3.682,8.2-12.508,6.89-22.307-.963-7.3,1.369-10.849,1.384-10.88Z" transform="translate(-18.238 -28.735)" fill="#d9ddf6"/>
        </g>
        <g id="Grupo_2058" data-name="Grupo 2058" transform="translate(4.221 6.962)">
          <path id="Caminho_2921" data-name="Caminho 2921" d="M40.608,36.159c.221.347,4.414,6.944,10.289,10.376a13.29,13.29,0,0,0,4.867,1.786l6.027,8.552c-.148.208-2.965,4.161-1.768,13.134,1.649,12.413-2.63,25.244-19.566,19.916-16.91-14.438-21.1-32.217-19.39-42.666A31.955,31.955,0,0,0,19.378,32.1l6.055-1.5a22.846,22.846,0,0,0,4.865,3.9C36.175,37.937,40.386,36.248,40.608,36.159Z" transform="translate(-19.378 -30.607)" fill="#3955d1"/>
        </g>
      </g>
    </g>
    <g id="Grupo_2063" data-name="Grupo 2063" transform="translate(16.179 23.429)">
      <g id="Grupo_2061" data-name="Grupo 2061" transform="translate(0 7.354)">
        <path id="Caminho_2922" data-name="Caminho 2922" d="M37.541,44.661a5.178,5.178,0,0,1,2.332,4.073L39.842,60c0,1.481-1.052,2.085-2.347,1.329L24.962,54.008a5.193,5.193,0,0,1-2.332-4.061l.032-11.265c0-1.505,1.052-2.1,2.347-1.341Zm-5.509,5.951c.669.038,1.131-.458,1.134-1.356a4.24,4.24,0,0,0-1.9-3.338c-1.055-.616-1.914-.133-1.917,1.105A4.257,4.257,0,0,0,30.466,49.7l-.009,3.29,1.567.915.009-3.29" transform="translate(-22.63 -37.013)" fill="#fff"/>
      </g>
      <g id="Grupo_2062" data-name="Grupo 2062" transform="translate(2.399)">
        <path id="Caminho_2923" data-name="Caminho 2923" d="M29.595,35.921l.161.1a14.323,14.323,0,0,1,6.026,11.033l-.008,2.974-2.037-1.189.008-2.974a9.762,9.762,0,0,0-4.069-7.52l-.117-.07a3.023,3.023,0,0,0-2.937-.339A2.96,2.96,0,0,0,25.339,40.7l-.009,3.229-2.047-1.2.009-3.229c.006-1.966.679-3.421,1.915-4.1C26.394,34.767,27.961,34.967,29.595,35.921Z" transform="translate(-23.283 -35.036)" fill="#fff"/>
      </g>
    </g>
  </g>
  <g id="Grupo_2095" data-name="Grupo 2095" transform="translate(47.6 1.569)">
    <g id="Grupo_2084" data-name="Grupo 2084" transform="translate(0)">
      <path id="Caminho_2932" data-name="Caminho 2932" d="M69.56,42.365,35.693,22.725a3.2,3.2,0,0,0-3.236-.317L27.93,25.05a3.2,3.2,0,0,1,3.236.317l33.866,19.64a10.065,10.065,0,0,1,4.538,7.906l-.11,39.077a3.217,3.217,0,0,1-1.331,2.943l4.527-2.643a3.217,3.217,0,0,0,1.331-2.943l.11-39.077A10.065,10.065,0,0,0,69.56,42.365Z" transform="translate(-26.489 -22.099)" fill="#d9ddf6"/>
      <g id="Grupo_2077" data-name="Grupo 2077" transform="translate(0 2.643)">
        <path id="Caminho_2933" data-name="Caminho 2933" d="M67.7,43.076a10.065,10.065,0,0,1,4.538,7.906l-.11,39.077c-.008,2.911-2.055,4.083-4.567,2.626L33.691,73.045a10.065,10.065,0,0,1-4.538-7.906l.11-39.077c.008-2.911,2.055-4.083,4.567-2.626Z" transform="translate(-29.153 -22.81)" fill="#b7c5fd"/>
      </g>
      <g id="Grupo_2083" data-name="Grupo 2083" transform="translate(3.837 9.904)">
        <g id="Grupo_2078" data-name="Grupo 2078">
          <path id="Caminho_2934" data-name="Caminho 2934" d="M30.552,27.549l-.277-.161L30.19,57.637l.277.161a9.454,9.454,0,0,1,4.262,7.414v.331l26.207,15.2V80.41c.008-2.722,1.931-3.823,4.29-2.455l.287.166L65.6,47.873l-.287-.166a9.454,9.454,0,0,1-4.262-7.415v-.331l-26.207-15.2v.331C34.834,27.815,32.91,28.917,30.552,27.549Zm.2,29.776.082-28.959c2.441,1.25,4.416.119,4.567-2.614L60.494,40.3a10.884,10.884,0,0,0,4.527,7.889L64.94,77.149c-2.441-1.261-4.406-.125-4.557,2.608l-25.09-14.55a10.862,10.862,0,0,0-4.538-7.883" transform="translate(-30.19 -24.762)" fill="#9aadfd"/>
        </g>
        <g id="Grupo_2079" data-name="Grupo 2079" transform="translate(14.973 32.082)">
          <path id="Caminho_2935" data-name="Caminho 2935" d="M31.249,33.39l-.006,1.541,16.528,9.585.006-1.541Z" transform="translate(-31.243 -33.39)" fill="#9aadfd"/>
        </g>
        <g id="Grupo_2080" data-name="Grupo 2080" transform="translate(3.883 16.879)">
          <path id="Caminho_2936" data-name="Caminho 2936" d="M31.243,29.3l-.006,1.541L58.879,46.873l.006-1.541Z" transform="translate(-31.237 -29.302)" fill="#9aadfd"/>
        </g>
        <g id="Grupo_2081" data-name="Grupo 2081" transform="translate(3.871 21.258)">
          <path id="Caminho_2937" data-name="Caminho 2937" d="M31.246,30.479,31.24,32.02,58.883,48.051l.006-1.541Z" transform="translate(-31.24 -30.479)" fill="#9aadfd"/>
        </g>
        <g id="Grupo_2082" data-name="Grupo 2082" transform="translate(4.451 7.338)">
          <path id="Caminho_2938" data-name="Caminho 2938" d="M31.383,26.736l-.009,3.231L57.94,45.373l.009-3.231Z" transform="translate(-31.373 -26.736)" fill="#384e85"/>
        </g>
      </g>
    </g>
    <g id="Grupo_2094" data-name="Grupo 2094" transform="translate(5.461 45.864)">
      <g id="Grupo_2088" data-name="Grupo 2088" transform="translate(3.055 11.096)">
        <g id="Grupo_2087" data-name="Grupo 2087" transform="translate(0)">
          <g id="Grupo_2085" data-name="Grupo 2085" transform="translate(3.726)">
            <path id="Caminho_2939" data-name="Caminho 2939" d="M37.42,41.452,36.409,44.19l-.953.556,1.011-2.739Z" transform="translate(-29.91 -26.451)" fill="#384e85"/>
            <path id="Caminho_2940" data-name="Caminho 2940" d="M39.266,39.777l.953-.557-2.794,7.818-.953.557Z" transform="translate(-36.472 -32.515)" fill="#384e85"/>
            <path id="Caminho_2941" data-name="Caminho 2941" d="M35.668,37.417l4.949,2.87,4.011,15.229-.953.556L39.664,40.844l-4.949-2.87Z" transform="translate(-34.376 -37.417)" fill="#384e85"/>
          </g>
          <g id="Grupo_2086" data-name="Grupo 2086" transform="translate(0 0.557)">
            <path id="Caminho_2942" data-name="Caminho 2942" d="M39.037,37.567,34.972,48.113l2.742.083.984,3.9,2.794-7.818,2.751,11.034,1.011-2.739L48,55.666,43.986,40.437Z" transform="translate(-34.972 -37.567)" fill="#1b2a4f"/>
          </g>
        </g>
      </g>
      <g id="Grupo_2093" data-name="Grupo 2093" transform="translate(0 0)">
        <g id="Grupo_2092" data-name="Grupo 2092">
          <g id="Grupo_2089" data-name="Grupo 2089" transform="translate(4.952 1.42)">
            <path id="Caminho_2943" data-name="Caminho 2943" d="M47.885,47.886c0,2.2-.774,3.759-2.03,4.49l-1.654.966c1.255-.731,2.03-2.286,2.03-4.49a15.42,15.42,0,0,0-6.957-12.114c-1.936-1.119-3.7-1.226-4.963-.483l1.654-.966c1.267-.742,3.027-.636,4.963.483A15.42,15.42,0,0,1,47.885,47.886Z" transform="translate(-34.311 -34.815)" fill="#6bb5fb"/>
          </g>
          <g id="Grupo_2090" data-name="Grupo 2090">
            <path id="Caminho_3003" data-name="Caminho 3003" d="M9.884,11.413c5.453.011,9.868-2.536,9.862-5.687S15.315.011,9.862,0-.006,2.536,0,5.687,4.432,11.4,9.884,11.413Z" transform="translate(9.922 22.808) rotate(-120.162)" fill="#4466fb"/>
          </g>
          <g id="Grupo_2091" data-name="Grupo 2091" transform="translate(5.721 6.692)">
            <path id="Caminho_2944" data-name="Caminho 2944" d="M39.548,36.233l-1.2,2.086-2.657-1.1L37.728,40.7l-1.136,2.6,2.719-.334L41.9,46.04l-.447-3.314,1.928-1.05-2.654-1.982Z" transform="translate(-35.695 -36.233)" fill="#fff"/>
          </g>
        </g>
      </g>
    </g>
  </g>
  <g id="Grupo_2151" data-name="Grupo 2151" transform="translate(0)">
    <g id="Grupo_2084-2" data-name="Grupo 2084" transform="translate(0)">
      <path id="Caminho_2932-2" data-name="Caminho 2932" d="M69.56,42.365,35.693,22.725a3.2,3.2,0,0,0-3.236-.317L27.93,25.05a3.2,3.2,0,0,1,3.236.317l33.866,19.64a10.065,10.065,0,0,1,4.538,7.906l-.11,39.077a3.217,3.217,0,0,1-1.331,2.943l4.527-2.643a3.217,3.217,0,0,0,1.331-2.943l.11-39.077A10.065,10.065,0,0,0,69.56,42.365Z" transform="translate(-26.488 -22.099)" fill="#d9ddf6"/>
      <path id="Caminho_2933-2" data-name="Caminho 2933" d="M67.7,43.076a10.065,10.065,0,0,1,4.538,7.906l-.11,39.077c-.008,2.911-2.055,4.083-4.567,2.626L33.691,73.045a10.065,10.065,0,0,1-4.538-7.906l.11-39.077c.008-2.911,2.055-4.083,4.567-2.626Z" transform="translate(-29.153 -20.167)" fill="#b7c5fd"/>
    </g>
    <g id="Grupo_2090-2" data-name="Grupo 2090" transform="translate(1.606 20.481)">
      <path id="Caminho_2943-2" data-name="Caminho 2943" d="M57.268,56.922c0,3.727-1.31,6.358-3.433,7.593l-2.8,1.634c2.123-1.236,3.433-3.866,3.433-7.593.02-7.533-5.238-16.7-11.766-20.488-3.274-1.893-6.25-2.073-8.393-.817l2.8-1.634c2.143-1.255,5.119-1.076,8.393.817C52.03,40.221,57.288,49.389,57.268,56.922Z" transform="translate(-25.936 -32.413)" fill="#6bb5fb"/>
      <path id="Caminho_3004" data-name="Caminho 3004" d="M16.717,19.3c9.222.018,16.69-4.289,16.68-9.619S25.9.018,16.68,0-.01,4.289,0,9.619,7.495,19.284,16.717,19.3Z" transform="translate(16.78 38.574) rotate(-120.162)" fill="#4466fb"/>
    </g>
    <g id="Grupo_2152" data-name="Grupo 2152" transform="matrix(0.985, 0.174, -0.174, 0.985, 12.178, 34.899)">
      <path id="Caminho_1967" data-name="Caminho 1967" d="M9.659,0,0,2.474,11.794,11.78Z" transform="translate(0 0)" fill="#fff"/>
    </g>
  </g>
</svg>
