<svg version="1.1" xmlns="http://www.w3.org/2000/svg" xmlns:xlink="http://www.w3.org/1999/xlink" x="0px" y="0px"
	 viewBox="0 0 113.39 113.39" style="enable-background:new 0 0 113.39 113.39;" xml:space="preserve">
<style type="text/css">
	.st0{fill:#FFFFFF;}
	.st1{fill:#0082BA;}
	.st2{fill:#00354E;}
	.st3{fill:#F39207;}
	.st4{fill:#D94C2C;}
	.st5{fill:#B32663;}
	.st6{fill:#3B1251;}
	.st7{fill:#67B6DA;}
	.st8{fill:#009FE3;}
	.st9{fill:#0BBBEF;}
</style>
<g id="Blanc_soutient">
</g>
<g id="Scoring">
	<g>
		<path class="st1" d="M30.9,66.86c-0.9-3-1.39-6.18-1.39-9.48H13.92H5.16l0.01,3.03l9.34,4.6l0.01,0
			c3.59,22.8,23.07,40.22,46.56,40.22c7.05,0,13.73-1.57,19.73-4.38l-0.3-0.54c-4.15,1.68-8.66,2.61-13.4,2.61
			C47.33,102.9,31.27,86.82,30.9,66.86z"/>
		<path class="st2" d="M30.9,66.86c0.37,19.97,16.43,36.04,36.21,36.04c4.73,0,9.25-0.93,13.4-2.61l-7.15-12.78
			c-3.66,1.48-7.66,2.3-11.84,2.3C47.09,89.82,34.9,80.15,30.9,66.86z"/>
		<path class="st5" d="M52.04,23.71c3.29,0,6.48,0.43,9.53,1.22c5.52,0.01,10.72,1.44,15.25,3.94l7.37-13.18v0l4.32-7.72l-2.55-1.5
			l-8.53,6.04l0,0.01c-5.1-1.91-10.61-2.96-16.36-2.96c-24.68,0-44.93,19.23-46.98,43.72h0.89C19.02,36.32,34.07,23.71,52.04,23.71z
			"/>
		<path class="st6" d="M61.51,24.93c0.02,0,0.04,0,0.06,0c-3.05-0.8-6.24-1.22-9.53-1.22c-17.97,0-33.02,12.61-37.05,29.58h14.78
			C31.75,37.3,45.2,24.93,61.51,24.93z"/>
		<path class="st3" d="M108.23,57.39c0-16.45-8.19-30.95-20.66-39.56l-0.4,0.72c8.76,6.71,14.42,17.35,14.42,29.34
			c0,12.34-6.01,23.25-15.21,29.91c-2.59,3.24-5.79,5.96-9.41,7.99l7.39,13.2v0l4.43,7.92l2.53-1.53l-0.81-10.63
			C101.31,85.99,108.23,72.51,108.23,57.39z"/>
		<path class="st4" d="M93.51,57.37c0,7.74-2.68,14.85-7.15,20.43c9.2-6.66,15.21-17.57,15.21-29.91c0-11.99-5.66-22.63-14.42-29.34
			l-6.98,12.48C88.25,36.92,93.51,46.52,93.51,57.37z"/>
	</g>
</g>
</svg>
