<svg width="259" height="144" viewBox="0 0 259 144" fill="none" xmlns="http://www.w3.org/2000/svg">
  <g clip-path="url(#clip0)">
    <g style="mix-blend-mode:multiply">
      <path fill-rule="evenodd" clip-rule="evenodd"
        d="M184.113 132.726H141.933C141.26 132.726 140.709 132.175 140.709 131.502V93.4696C140.709 92.7966 141.26 92.2457 141.933 92.2457H184.113C184.787 92.2457 185.337 92.7966 185.337 93.4696V131.502C185.337 132.175 184.787 132.726 184.113 132.726Z"
        fill="#EAECED" />
    </g>
    <path fill-rule="evenodd" clip-rule="evenodd"
      d="M239.593 106.156H195.867C195.169 106.156 194.598 105.585 194.598 104.887V65.4607C194.598 64.7628 195.169 64.1918 195.867 64.1918H239.593C240.29 64.1918 240.862 64.7628 240.862 65.4607V104.887C240.862 105.585 240.29 106.156 239.593 106.156Z"
      fill="#EAECED" />
    <path fill-rule="evenodd" clip-rule="evenodd"
      d="M199.211 102.834H241.405C242.078 102.834 242.629 102.283 242.629 101.61V63.5651C242.629 62.892 242.078 62.3408 241.405 62.3408H199.211C198.538 62.3408 197.987 62.892 197.987 63.5651V101.61C197.987 102.283 198.538 102.834 199.211 102.834Z"
      fill="#DDDDDD" />
    <path fill-rule="evenodd" clip-rule="evenodd"
      d="M235.138 96.5646C235.138 96.5646 236.641 94.8991 235.697 92.4017C235.12 90.8741 234.522 90.0085 234.522 90.0085L231.457 90.9741C231.457 90.9741 233.529 93.2899 232.157 95.2373"
      fill="#D99E5F" />
    <mask id="mask0" mask-type="alpha" maskUnits="userSpaceOnUse" x="197" y="62" width="46" height="41">
      <path
        d="M199.212 62.3406C198.538 62.3406 197.987 62.8919 197.987 63.5654V101.609C197.987 102.283 198.538 102.834 199.212 102.834H241.405C242.078 102.834 242.629 102.283 242.629 101.609V63.5654C242.629 62.8919 242.078 62.3406 241.405 62.3406"
        fill="white" />
    </mask>
    <g mask="url(#mask0)">
      <path fill-rule="evenodd" clip-rule="evenodd"
        d="M196.666 79.4774C196.895 80.577 197.555 82.6454 198.971 85.0449C200.284 87.2717 204.137 90.538 211.475 88.6897L211.898 88.5536L211.496 86.6041C211.492 86.4537 211.095 84.7054 211.095 84.7054C211.095 84.7054 206.373 86.6868 203.008 84.7642C199.642 82.842 198.314 79.8837 198.066 79.2405"
        fill="#D99E5F" />
    </g>
    <mask id="mask1" mask-type="alpha" maskUnits="userSpaceOnUse" x="197" y="62" width="46" height="41">
      <path
        d="M199.212 62.3406C198.538 62.3406 197.987 62.8919 197.987 63.5654V101.609C197.987 102.283 198.538 102.834 199.212 102.834H241.405C242.078 102.834 242.629 102.283 242.629 101.609V63.5654C242.629 62.8919 242.078 62.3406 241.405 62.3406H199.212Z"
        fill="white" />
    </mask>
    <g mask="url(#mask1)">
      <path fill-rule="evenodd" clip-rule="evenodd"
        d="M197.502 77.8566C197.462 77.7326 196.587 76.1075 196.246 75.8974C195.906 75.6873 195.554 75.2987 195.549 75.7104C195.544 76.1222 196.238 76.5839 196.163 77.0633C196.095 77.5007 195.082 76.8167 194.745 76.3318C194.408 75.8474 194.079 75.1424 193.573 74.9852C193.067 74.8281 193.436 75.6062 193.619 76.3222C193.802 77.0381 193.852 77.7028 194.97 78.4893C195.847 79.1061 197.173 79.7939 197.386 80.3182C197.599 80.8422 198.178 79.5183 198.178 79.5183L197.502 77.8566Z"
        fill="#D99E5F" />
    </g>
    <mask id="mask2" mask-type="alpha" maskUnits="userSpaceOnUse" x="197" y="62" width="46" height="41">
      <path
        d="M199.212 62.3406C198.538 62.3406 197.987 62.8919 197.987 63.5654V101.609C197.987 102.283 198.538 102.834 199.212 102.834H241.405C242.078 102.834 242.629 102.283 242.629 101.609V63.5654C242.629 62.8919 242.078 62.3406 241.405 62.3406H199.212Z"
        fill="white" />
    </mask>
    <g mask="url(#mask2)">
      <path fill-rule="evenodd" clip-rule="evenodd"
        d="M217.996 81.6237C217.996 81.6237 211.299 85.0371 206.891 85.2375L206.791 91.7499C206.791 91.7499 212.702 91.0482 216.209 88.2432L217.996 81.6237Z"
        fill="#6DAFB2" />
    </g>
    <mask id="mask3" mask-type="alpha" maskUnits="userSpaceOnUse" x="197" y="62" width="46" height="41">
      <path
        d="M199.212 62.3406C198.538 62.3406 197.987 62.8919 197.987 63.5654V101.609C197.987 102.283 198.538 102.834 199.212 102.834H241.405C242.078 102.834 242.629 102.283 242.629 101.609V63.5654C242.629 62.8919 242.078 62.3406 241.405 62.3406"
        fill="white" />
    </mask>
    <g mask="url(#mask3)">
      <path fill-rule="evenodd" clip-rule="evenodd"
        d="M216.212 76.1158C216.212 76.1158 216.234 78.6699 215.58 80.1018C215.58 80.1018 219.328 79.7636 225.678 77.8233C227.52 77.2607 216.212 76.1158 216.212 76.1158Z"
        fill="#C27E00" />
    </g>
    <mask id="mask4" mask-type="alpha" maskUnits="userSpaceOnUse" x="197" y="62" width="46" height="41">
      <path
        d="M199.212 62.3406C198.538 62.3406 197.987 62.8919 197.987 63.5654V101.609C197.987 102.283 198.538 102.834 199.212 102.834H241.405C242.078 102.834 242.629 102.283 242.629 101.609V63.5654C242.629 62.8919 242.078 62.3406 241.405 62.3406"
        fill="white" />
    </mask>
    <g mask="url(#mask4)">
      <path fill-rule="evenodd" clip-rule="evenodd"
        d="M215.343 69.8578C215.261 70.0217 214.567 72.6951 214.567 72.6951L213.024 72.8808L213.906 73.9862C213.906 73.9862 213.576 76.4462 214.957 77.3563C216.337 78.2659 217.836 77.8525 218.375 78.463C219.418 79.6461 218.713 82.2985 218.713 82.2985L221.065 81.7355C221.065 81.7355 220.304 77.7067 220.389 77.4206C220.622 76.6382 221.814 77.3113 222.956 76.2815C224.06 75.2862 225.864 73.2539 223.79 69.4313C221.714 65.6088 216.758 67.0255 215.343 69.8578Z"
        fill="#D99E5F" />
    </g>
    <mask id="mask5" mask-type="alpha" maskUnits="userSpaceOnUse" x="197" y="62" width="46" height="41">
      <path
        d="M199.212 62.3406C198.538 62.3406 197.987 62.8919 197.987 63.5654V101.609C197.987 102.283 198.538 102.834 199.212 102.834H241.405C242.078 102.834 242.629 102.283 242.629 101.609V63.5654C242.629 62.8919 242.078 62.3406 241.405 62.3406"
        fill="white" />
    </mask>
    <g mask="url(#mask5)">
      <path fill-rule="evenodd" clip-rule="evenodd"
        d="M216.17 72.9088L216.095 72.8995C216.005 72.8886 215.941 72.8062 215.952 72.7168L216.014 72.2176C216.025 72.1285 216.107 72.0643 216.196 72.0752L216.272 72.0844C216.361 72.0954 216.425 72.1777 216.415 72.2672L216.353 72.7663C216.342 72.8558 216.26 72.9197 216.17 72.9088Z"
        fill="#191D2F" />
      <path fill-rule="evenodd" clip-rule="evenodd"
        d="M215.253 75.5734C215.085 75.5734 214.899 75.5268 214.706 75.4041C214.613 75.3453 214.585 75.2221 214.645 75.1289C214.703 75.036 214.828 75.0091 214.919 75.0671C215.35 75.3415 215.656 75.0075 215.669 74.9936C215.743 74.9117 215.869 74.9054 215.95 74.9785C216.032 75.0524 216.039 75.1785 215.965 75.26C215.842 75.3973 215.58 75.5734 215.253 75.5734Z"
        fill="#C22000" />
      <mask id="mask6" mask-type="alpha" maskUnits="userSpaceOnUse" x="197" y="62" width="46" height="41">
        <path
          d="M199.212 62.3406C198.538 62.3406 197.987 62.8919 197.987 63.5654V101.609C197.987 102.283 198.538 102.834 199.212 102.834H241.405C242.078 102.834 242.629 102.283 242.629 101.609V63.5654C242.629 62.8919 242.078 62.3406 241.405 62.3406"
          fill="white" />
      </mask>
      <g mask="url(#mask6)">
        <path fill-rule="evenodd" clip-rule="evenodd"
          d="M227.09 89.4891C227.09 89.4891 226.719 93.9507 229.441 108.623L209.945 105.575C209.945 105.575 212.469 94.6217 214.005 89.6458"
          fill="#6DAFB2" />
      </g>
      <mask id="mask7" mask-type="alpha" maskUnits="userSpaceOnUse" x="197" y="62" width="46" height="41">
        <path
          d="M199.212 62.3406C198.538 62.3406 197.987 62.8919 197.987 63.5654V101.609C197.987 102.283 198.538 102.834 199.212 102.834H241.405C242.078 102.834 242.629 102.283 242.629 101.609V63.5654C242.629 62.8919 242.078 62.3406 241.405 62.3406H199.212Z"
          fill="white" />
      </mask>
      <g mask="url(#mask7)">
        <path fill-rule="evenodd" clip-rule="evenodd"
          d="M220.65 79.3598L220.751 80.0112L218.947 80.3117L218.864 79.5267L220.65 79.3598Z" fill="#CB7A2D" />
      </g>
      <path fill-rule="evenodd" clip-rule="evenodd"
        d="M216.064 68.5549L220.123 74.3051C219.96 74.616 219.942 75.5412 218.544 79.9276L231.965 78.5558C231.965 78.5558 230.469 66.4739 222.871 66.0171C218.062 65.7281 216.064 68.5549 216.064 68.5549Z"
        fill="#FFC900" />
      <mask id="mask8" mask-type="alpha" maskUnits="userSpaceOnUse" x="197" y="62" width="46" height="41">
        <path
          d="M199.212 62.3406C198.538 62.3406 197.987 62.8919 197.987 63.5654V101.609C197.987 102.283 198.538 102.834 199.212 102.834H241.405C242.078 102.834 242.629 102.283 242.629 101.609V63.5654C242.629 62.8919 242.078 62.3406 241.405 62.3406H199.212Z"
          fill="white" />
      </mask>
      <g mask="url(#mask8)">
        <path fill-rule="evenodd" clip-rule="evenodd"
          d="M226.546 102.077C226.546 102.077 225.832 102.847 225.575 103.304C225.294 103.804 225.746 105.112 226.489 105.587C227.232 106.061 229.176 104.571 228.857 104.16C228.537 103.749 227.532 104.149 227.52 103.767C227.508 103.384 227.573 102.99 227.573 102.99L226.546 102.077Z"
          fill="#D99E5F" />
      </g>
      <mask id="mask9" mask-type="alpha" maskUnits="userSpaceOnUse" x="197" y="62" width="46" height="41">
        <path
          d="M199.212 62.3406C198.538 62.3406 197.987 62.8919 197.987 63.5654V101.609C197.987 102.283 198.538 102.834 199.212 102.834H241.405C242.078 102.834 242.629 102.283 242.629 101.609V63.5654C242.629 62.8919 242.078 62.3406 241.405 62.3406H199.212Z"
          fill="white" />
      </mask>
      <g mask="url(#mask9)">
        <path fill-rule="evenodd" clip-rule="evenodd"
          d="M235.151 96.5515C235.151 96.5515 231.732 100.673 227.88 102.841C227.757 102.91 227.649 102.996 227.535 103.067L226.402 102.243C226.402 102.243 230.542 97.8048 232.37 94.899L235.151 96.5515Z"
          fill="#D99E5F" />
      </g>
      <path fill-rule="evenodd" clip-rule="evenodd"
        d="M217.975 81.6306C218.338 82.2138 219.566 82.0314 220.517 81.8814C221.357 81.7487 221.786 80.7726 221.876 80.5416C223.46 80.5601 225.268 80.9983 227.83 82.2323C229.335 82.9562 232.539 84.1356 235.545 88.6438C237.9 92.1765 237.434 96.2179 237.434 96.2179L231.027 94.6075C231.027 94.6075 231.137 89.9463 227.018 89.8093C227.018 89.8093 225.493 90.7479 224.792 90.4807C224.742 90.4622 224.662 90.3975 224.557 90.2971C224.176 90.5589 223.904 90.742 223.904 90.742L213.972 89.7795C213.972 89.7795 216.115 84.9128 217.541 82.2373C217.613 82.1033 217.775 81.8508 217.972 81.6373"
        fill="#6DAFB2" />
      <mask id="mask10" mask-type="alpha" maskUnits="userSpaceOnUse" x="197" y="62" width="46" height="41">
        <path
          d="M199.212 62.3406C198.538 62.3406 197.987 62.8919 197.987 63.5654V101.609C197.987 102.283 198.538 102.834 199.212 102.834H241.405C242.078 102.834 242.629 102.283 242.629 101.609V63.5654C242.629 62.8919 242.078 62.3406 241.405 62.3406H199.212Z"
          fill="white" />
      </mask>
      <g mask="url(#mask10)">
        <path fill-rule="evenodd" clip-rule="evenodd"
          d="M221.638 80.5288C221.638 80.5288 221.001 81.6741 219.762 81.9573C218.783 82.1808 218.561 81.5128 218.561 81.5128L217.927 81.6527C217.927 81.6527 218.149 82.5136 218.989 82.7653C219.828 83.017 220.345 82.8115 221.288 82.1254C221.731 81.8031 222.364 80.554 222.364 80.554L221.638 80.5288Z"
          fill="#1D888C" />
      </g>
      <mask id="mask11" mask-type="alpha" maskUnits="userSpaceOnUse" x="197" y="62" width="46" height="41">
        <path
          d="M199.212 62.3406C198.538 62.3406 197.987 62.8919 197.987 63.5654V101.609C197.987 102.283 198.538 102.834 199.212 102.834H241.405C242.078 102.834 242.629 102.283 242.629 101.609V63.5654C242.629 62.8919 242.078 62.3406 241.405 62.3406"
          fill="white" />
      </mask>
      <g mask="url(#mask11)">
        <path fill-rule="evenodd" clip-rule="evenodd"
          d="M237.463 95.2619L230.982 93.9372L231.027 94.6073L237.434 96.2178C237.434 96.2178 237.527 95.4855 237.463 95.2619Z"
          fill="#1D888C" />
      </g>
      <mask id="mask12" mask-type="alpha" maskUnits="userSpaceOnUse" x="197" y="62" width="46" height="41">
        <path
          d="M199.212 62.3406C198.538 62.3406 197.987 62.8919 197.987 63.5654V101.609C197.987 102.283 198.538 102.834 199.212 102.834H241.405C242.078 102.834 242.629 102.283 242.629 101.609V63.5654C242.629 62.8919 242.078 62.3406 241.405 62.3406H199.212Z"
          fill="white" />
      </mask>
      <g mask="url(#mask12)">
        <path fill-rule="evenodd" clip-rule="evenodd"
          d="M206.891 85.2374L206.791 91.7497L207.55 91.6227L207.502 85.1898L206.891 85.2374Z" fill="#1D888C" />
      </g>
    </g>
    <path fill-rule="evenodd" clip-rule="evenodd"
      d="M61.7631 75.008H17.2903C16.5807 75.008 16 74.4274 16 73.7177V33.6179C16 32.9078 16.5807 32.3276 17.2903 32.3276H61.7631C62.4728 32.3276 63.0538 32.9078 63.0538 33.6179V73.7177C63.0538 74.4274 62.4728 75.008 61.7631 75.008Z"
      fill="#EAECED" />
    <path fill-rule="evenodd" clip-rule="evenodd"
      d="M64.9453 71.3906H20.8968C20.1939 71.3906 19.6187 70.8154 19.6187 70.1125V30.3954C19.6187 29.692 20.1939 29.1172 20.8968 29.1172H64.9453C65.6482 29.1172 66.2234 29.692 66.2234 30.3954V70.1125C66.2234 70.8154 65.6482 71.3906 64.9453 71.3906Z"
      fill="#1D888C" />
    <path fill-rule="evenodd" clip-rule="evenodd"
      d="M49.6201 62.2662L50.6868 67.2061L45.5217 68.7224L45.3532 63.2768L49.6201 62.2662Z" fill="#A46300" />
    <mask id="mask13" mask-type="alpha" maskUnits="userSpaceOnUse" x="19" y="26" width="46" height="46">
      <path
        d="M19.7042 26.6601C19.642 26.6601 19.5802 26.6647 19.5201 26.6727V71.3783C19.5802 71.3867 19.642 71.3909 19.7042 71.3909H64.4287V26.6601"
        fill="white" />
    </mask>
    <g mask="url(#mask13)">
      <path fill-rule="evenodd" clip-rule="evenodd"
        d="M48.4893 40.2802C48.575 40.4781 49.2443 42.9074 49.2443 42.9074L51.043 43.223L49.938 44.4645C49.938 44.4645 50.4283 47.4737 48.7511 48.4535C47.073 49.4337 44.9848 49.2816 44.3143 49.9639C43.0147 51.2861 42.8341 54.0705 42.8341 54.0705L39.3699 52.5533C39.3699 52.5533 40.89 49.3282 40.8081 48.9871C40.5846 48.0539 40.4228 48.6152 39.148 47.3346C37.9157 46.0968 35.928 43.5977 38.6052 39.2437C41.2824 34.8901 47.0079 36.8669 48.4893 40.2802Z"
        fill="#A46300" />
      <path fill-rule="evenodd" clip-rule="evenodd"
        d="M47.5362 43.1952L47.6181 43.1595C47.7152 43.1171 47.7597 43.0032 47.7177 42.9066L47.4816 42.3642C47.4396 42.2676 47.3257 42.2226 47.2286 42.265L47.1467 42.3003C47.0496 42.3428 47.0047 42.4566 47.0471 42.5537L47.2828 43.0957C47.3253 43.1927 47.4396 43.2377 47.5362 43.1952Z"
        fill="#191D2F" />
    </g>
    <mask id="mask14" mask-type="alpha" maskUnits="userSpaceOnUse" x="19" y="26" width="46" height="46">
      <path
        d="M19.7042 26.6601C19.642 26.6601 19.5802 26.6647 19.5201 26.6727V71.3783C19.5802 71.3867 19.642 71.3909 19.7042 71.3909H64.4287V26.6601H19.7042Z"
        fill="white" />
    </mask>
    <g mask="url(#mask14)">
      <path fill-rule="evenodd" clip-rule="evenodd"
        d="M42.0785 43.1714C42.0785 43.1714 42.7949 46.1806 44.1646 46.1255C45.5347 46.0709 50.048 44.9966 50.048 44.9966C50.048 44.9966 50.3097 46.5209 50.3009 47.841C50.2959 48.6339 50.3912 49.57 48.5594 49.6548C46.9657 49.7284 44.6969 49.5015 44.6969 49.5015C44.6969 49.5015 41.471 48.9254 41.289 47.4566C41.1075 45.9877 41.6109 44.4911 41.5483 43.5235L42.0785 43.1714Z"
        fill="#272B3C" />
    </g>
    <mask id="mask15" mask-type="alpha" maskUnits="userSpaceOnUse" x="19" y="26" width="46" height="46">
      <path
        d="M19.7042 26.6601C19.642 26.6601 19.5802 26.6647 19.5201 26.6727V71.3783C19.5802 71.3867 19.642 71.3909 19.7042 71.3909H64.4287V26.6601"
        fill="white" />
    </mask>
    <g mask="url(#mask15)">
      <path fill-rule="evenodd" clip-rule="evenodd"
        d="M48.9936 46.6976C48.5999 46.6976 48.2961 46.4715 48.16 46.3026C48.0961 46.2241 48.1087 46.1085 48.1873 46.0451C48.2667 45.9812 48.381 45.9938 48.4444 46.0716C48.4835 46.119 48.8415 46.5236 49.3848 46.2194C49.473 46.1694 49.5847 46.2014 49.6339 46.2896C49.6839 46.3778 49.652 46.4896 49.5637 46.5392C49.3608 46.653 49.1684 46.6976 48.9936 46.6976Z"
        fill="black" />
      <path fill-rule="evenodd" clip-rule="evenodd"
        d="M50.3185 43.9663L48.5198 43.6512C48.5198 43.6512 47.8505 41.2215 47.7648 41.0236C46.4795 38.0628 42.0007 36.1838 39.0886 38.58C41.9217 35.1641 47.077 37.1035 48.4715 40.3165C48.5576 40.5144 49.2269 42.9441 49.2269 42.9441L51.0256 43.2592"
        fill="#AA6B0E" />
      <path fill-rule="evenodd" clip-rule="evenodd"
        d="M42.3034 44.061C42.3034 44.061 41.5131 41.1838 41.5942 40.5221C41.7198 39.4948 42.4064 38.3986 43.8382 38.2217C45.2701 38.0444 46.7482 38.2406 46.7482 38.2406C46.7482 38.2406 47.8389 37.3474 47.0932 36.4281C46.3474 35.5092 45.3747 35.3134 43.6 35.7857C41.8253 36.2579 37.9792 37.8713 37.1914 39.17C36.7292 39.9322 35.5289 43.1052 38.8851 47.2412L42.3034 44.061Z"
        fill="#272B3C" />
      <path fill-rule="evenodd" clip-rule="evenodd"
        d="M43.6002 37.0908C41.8254 37.5634 37.9794 39.1768 37.1916 40.4751C37.0206 40.757 36.7491 41.3696 36.6441 42.2376C36.4563 40.5873 36.9361 39.4281 37.1916 39.0067C37.9794 37.7084 41.8254 36.0946 43.6002 35.6223C45.3749 35.1501 46.3471 35.3459 47.0929 36.2651C47.5454 36.8223 47.3223 37.3697 47.0765 37.7147C46.3328 36.8122 45.3623 36.6219 43.6002 37.0908Z"
        fill="#303444" />
    </g>
    <mask id="mask16" mask-type="alpha" maskUnits="userSpaceOnUse" x="19" y="26" width="46" height="46">
      <path
        d="M19.7042 26.6601C19.642 26.6601 19.5802 26.6647 19.5201 26.6727V71.3783C19.5802 71.3867 19.642 71.3909 19.7042 71.3909H64.4287V26.6601"
        fill="white" />
    </mask>
    <g mask="url(#mask16)">
      <path fill-rule="evenodd" clip-rule="evenodd"
        d="M42.7992 44.5226C42.6131 44.0398 41.5803 42.3344 40.8711 43.2441C40.1619 44.1533 40.6425 45.4847 41.6694 45.6104C42.6963 45.7364 42.7992 44.5226 42.7992 44.5226Z"
        fill="#A46300" />
      <mask id="mask17" mask-type="alpha" maskUnits="userSpaceOnUse" x="19" y="26" width="46" height="46">
        <path
          d="M19.7042 26.6601C19.642 26.6601 19.5802 26.6647 19.5201 26.6727V71.3783C19.5802 71.3867 19.642 71.3909 19.7042 71.3909H64.4287V26.6601H19.7042Z"
          fill="white" />
      </mask>
      <g mask="url(#mask17)">
        <path fill-rule="evenodd" clip-rule="evenodd"
          d="M29.5883 76.582L29.7367 63.1825V59.8423C29.7367 59.8423 30.182 55.4996 31.4072 54.3857C32.6319 53.2723 39.2758 51.9455 39.2758 51.9455C41.101 53.0274 42.3379 53.5601 42.6724 53.5601C42.8967 53.5601 43.2101 52.493 43.2101 52.493C43.2101 52.493 46.2168 54.0517 47.776 55.7223C49.3347 57.3924 50.3368 62.0691 50.3368 62.0691L45.7714 63.5169C45.7714 63.5169 45.2891 69.3441 46.5138 75.914L29.5883 76.582Z"
          fill="#C9B8A4" />
      </g>
      <mask id="mask18" mask-type="alpha" maskUnits="userSpaceOnUse" x="19" y="26" width="46" height="46">
        <path
          d="M19.7042 26.6601C19.642 26.6601 19.5802 26.6647 19.5201 26.6727V71.3783C19.5802 71.3867 19.642 71.3909 19.7042 71.3909H64.4287V26.6601H19.7042Z"
          fill="white" />
      </mask>
      <g mask="url(#mask18)">
        <path fill-rule="evenodd" clip-rule="evenodd"
          d="M29.4177 59.6635C28.64 60.4605 27.7522 62.6206 27.711 66.7406C27.6837 69.5443 38.8409 70.0968 38.8409 70.0968L43.6336 70.3388L43.387 68.6535C43.387 68.6535 33.0234 66.6549 33.1066 64.9717C33.2449 62.1823 34.6419 61.8025 34.6419 61.8025L29.4177 59.6635Z"
          fill="#A46300" />
      </g>
      <mask id="mask19" mask-type="alpha" maskUnits="userSpaceOnUse" x="19" y="26" width="46" height="46">
        <path
          d="M19.7042 26.6601C19.642 26.6601 19.5802 26.6647 19.5201 26.6727V71.3783C19.5802 71.3867 19.642 71.3909 19.7042 71.3909H64.4287V26.6601H19.7042Z"
          fill="white" />
      </mask>
      <g mask="url(#mask19)">
        <path fill-rule="evenodd" clip-rule="evenodd"
          d="M36.3808 52.7527C36.3808 52.7527 32.3721 53.1981 31.036 54.6455C29.6995 56.0933 27.6953 61.4381 27.6953 61.4381L34.488 63.6653L36.3808 52.7527Z"
          fill="#C9B8A4" />
      </g>
      <mask id="mask20" mask-type="alpha" maskUnits="userSpaceOnUse" x="19" y="26" width="46" height="46">
        <path
          d="M19.7042 26.6601C19.642 26.6601 19.5802 26.6647 19.5201 26.6727V71.3783C19.5802 71.3867 19.642 71.3909 19.7042 71.3909H64.4287V26.6601H19.7042Z"
          fill="white" />
      </mask>
      <g mask="url(#mask20)">
        <path fill-rule="evenodd" clip-rule="evenodd"
          d="M41.3629 68.6831C41.6247 68.5003 42.9385 67.2159 43.4221 67.11C43.9061 67.0041 44.9065 67.1638 45.1998 67.4642C45.4935 67.7642 46.5577 68.8528 46.2918 69.4066C46.0258 69.9607 43.9028 70.5675 43.2717 70.5607C42.6411 70.5536 41.7554 70.0981 41.7554 70.0981L41.3629 68.6831Z"
          fill="#A46300" />
      </g>
      <mask id="mask21" mask-type="alpha" maskUnits="userSpaceOnUse" x="19" y="26" width="46" height="46">
        <path
          d="M19.7042 26.6601C19.642 26.6601 19.5802 26.6647 19.5201 26.6727V71.3783C19.5802 71.3867 19.642 71.3909 19.7042 71.3909H64.4287V26.6601"
          fill="white" />
      </mask>
      <g mask="url(#mask21)">
        <path fill-rule="evenodd" clip-rule="evenodd"
          d="M42.2268 52.1125L42.7835 53.8384C42.7835 53.8384 39.6937 53.1704 38.7748 52.0847L39.7492 51.0545C39.7492 51.0545 40.9462 51.6948 42.2268 52.1125Z"
          fill="#C9B8A4" />
      </g>
      <mask id="mask22" mask-type="alpha" maskUnits="userSpaceOnUse" x="19" y="26" width="46" height="46">
        <path
          d="M19.7042 26.6601C19.642 26.6601 19.5802 26.6647 19.5201 26.6727V71.3783C19.5802 71.3867 19.642 71.3909 19.7042 71.3909H64.4287V26.6601H19.7042Z"
          fill="white" />
      </mask>
      <g mask="url(#mask22)">
        <path fill-rule="evenodd" clip-rule="evenodd"
          d="M43.0064 52.1404L42.7275 53.5602L43.9249 52.9474L43.5353 51.9735L43.0064 52.1404Z" fill="#C9B8A4" />
      </g>
    </g>
    <mask id="mask23" mask-type="alpha" maskUnits="userSpaceOnUse" x="18" y="26" width="50" height="46">
      <path
        d="M19.7041 26.6601C18.9604 26.6601 18.3516 27.2689 18.3516 28.0126V70.0384C18.3516 70.7821 18.9604 71.3909 19.7041 71.3909H66.313C67.0571 71.3909 67.6655 70.7821 67.6655 70.0384V28.0126C67.6655 27.2689 67.0571 26.6601 66.313 26.6601"
        fill="white" />
    </mask>
    <g mask="url(#mask23)">
      <path fill-rule="evenodd" clip-rule="evenodd"
        d="M56.0792 71.7789H36.5829C36.1505 71.7789 35.7972 71.4251 35.7972 70.9932V58.7041C35.7972 58.2718 36.1505 57.9185 36.5829 57.9185H56.0792C56.5116 57.9185 56.8654 58.2718 56.8654 58.7041V70.9932C56.8654 71.4251 56.5116 71.7789 56.0792 71.7789Z"
        fill="#272B3C" />
    </g>
    <g style="mix-blend-mode:multiply">
      <path fill-rule="evenodd" clip-rule="evenodd"
        d="M109.903 48.0055H61.9421C61.1765 48.0055 60.5505 47.3791 60.5505 46.6136V3.36926C60.5505 2.60374 61.1765 1.97729 61.9421 1.97729H109.903C110.668 1.97729 111.295 2.60374 111.295 3.36926V46.6136C111.295 47.3791 110.668 48.0055 109.903 48.0055Z"
        fill="#EAECED" />
    </g>
    <mask id="mask24" mask-type="alpha" maskUnits="userSpaceOnUse" x="64" y="0" width="50" height="45">
      <path d="M64.0029 6.10352e-05H113.317V44.7308H64.0029V6.10352e-05Z" fill="white" />
    </mask>
    <g mask="url(#mask24)">
      <path fill-rule="evenodd" clip-rule="evenodd"
        d="M111.965 44.7303H65.3555C64.6114 44.7303 64.003 44.1215 64.003 43.3778V1.35156C64.003 0.607887 64.6114 -0.000915527 65.3555 -0.000915527H111.965C112.708 -0.000915527 113.317 0.607887 113.317 1.35156V43.3778C113.317 44.1215 112.708 44.7303 111.965 44.7303Z"
        fill="#C9B8A4" />
    </g>
    <mask id="mask25" mask-type="alpha" maskUnits="userSpaceOnUse" x="64" y="0" width="50" height="45">
      <path
        d="M65.3554 0C64.6117 0 64.0029 0.608382 64.0029 1.35205V43.3783C64.0029 44.122 64.6117 44.7312 65.3554 44.7312H111.965C112.708 44.7312 113.317 44.122 113.317 43.3783V1.35205C113.317 0.608382 112.708 0 111.965 0H65.3554Z"
        fill="white" />
    </mask>
    <g mask="url(#mask25)">
      <path fill-rule="evenodd" clip-rule="evenodd"
        d="M98.8127 34.1153L91.1282 37.4616L106.752 43.9165L114.944 38.2767L98.8127 34.1153Z" fill="#0E1225" />
    </g>
    <mask id="mask26" mask-type="alpha" maskUnits="userSpaceOnUse" x="64" y="0" width="50" height="45">
      <path
        d="M65.3554 0C64.6117 0 64.0029 0.608382 64.0029 1.35205V43.3783C64.0029 44.122 64.6117 44.7312 65.3554 44.7312H111.965C112.708 44.7312 113.317 44.122 113.317 43.3783V1.35205C113.317 0.608382 112.708 0 111.965 0H65.3554Z"
        fill="white" />
    </mask>
    <g mask="url(#mask26)">
      <path fill-rule="evenodd" clip-rule="evenodd"
        d="M91.6281 37.4572L106.728 43.6957L114.481 38.3589L98.8291 34.3212L91.6281 37.4572ZM106.752 44.112C106.727 44.112 106.701 44.107 106.677 44.0973L91.0538 37.6425C90.9815 37.6127 90.934 37.5421 90.9332 37.464C90.9323 37.3854 90.9786 37.3144 91.0504 37.2829L98.7346 33.9363C98.7749 33.9191 98.8195 33.9149 98.8615 33.9263L114.993 38.0879C115.067 38.1072 115.123 38.1677 115.137 38.2429C115.15 38.3181 115.118 38.3942 115.055 38.4379L106.862 44.0776C106.829 44.1003 106.791 44.112 106.752 44.112Z"
        fill="black" />
    </g>
    <mask id="mask27" mask-type="alpha" maskUnits="userSpaceOnUse" x="64" y="0" width="50" height="45">
      <path
        d="M65.3554 0C64.6117 0 64.0029 0.608382 64.0029 1.35205V43.3783C64.0029 44.122 64.6117 44.7312 65.3554 44.7312H111.965C112.708 44.7312 113.317 44.122 113.317 43.3783V1.35205C113.317 0.608382 112.708 0 111.965 0"
        fill="white" />
    </mask>
    <g mask="url(#mask27)">
      <path fill-rule="evenodd" clip-rule="evenodd"
        d="M114.661 38.4512L98.802 34.3971C98.5112 34.3538 98.3083 34.0807 98.3511 33.79L99.8225 23.8399C99.8654 23.5492 100.139 23.3462 100.43 23.3891L116.753 24.3084C117.043 24.3516 117.246 24.6247 117.203 24.9155L115.269 38.0003C115.225 38.2915 114.952 38.4944 114.661 38.4512Z"
        fill="#0E1225" />
    </g>
    <mask id="mask28" mask-type="alpha" maskUnits="userSpaceOnUse" x="64" y="0" width="50" height="45">
      <path
        d="M65.3554 0C64.6117 0 64.0029 0.608382 64.0029 1.35205V43.3783C64.0029 44.122 64.6117 44.7312 65.3554 44.7312H111.965C112.708 44.7312 113.317 44.122 113.317 43.3783V1.35205C113.317 0.608382 112.708 0 111.965 0"
        fill="white" />
    </mask>
    <g mask="url(#mask28)">
      <path fill-rule="evenodd" clip-rule="evenodd"
        d="M116.562 25.1136L114.707 37.6652C114.688 37.7904 114.57 37.8778 114.444 37.8593L99.1807 33.8931C99.0555 33.8746 98.9681 33.757 98.9861 33.6313L100.379 24.2149C100.397 24.0897 100.515 24.0018 100.64 24.0208L116.368 24.8518C116.494 24.8703 116.581 24.9884 116.562 25.1136Z"
        fill="#C9B8A4" />
    </g>
    <mask id="mask29" mask-type="alpha" maskUnits="userSpaceOnUse" x="64" y="0" width="50" height="45">
      <path
        d="M65.3554 0C64.6117 0 64.0029 0.608382 64.0029 1.35205V43.3783C64.0029 44.122 64.6117 44.7312 65.3554 44.7312H111.965C112.708 44.7312 113.317 44.122 113.317 43.3783V1.35205C113.317 0.608382 112.708 0 111.965 0"
        fill="white" />
    </mask>
    <g mask="url(#mask29)">
      <path fill-rule="evenodd" clip-rule="evenodd"
        d="M99.823 28.0745L100.385 24.2713C100.407 24.1213 100.543 24.0158 100.686 24.0368L116.341 24.8574C116.483 24.8784 116.583 25.0187 116.56 25.1687L116.368 26.4666"
        fill="#BDA88F" />
      <mask id="mask30" mask-type="alpha" maskUnits="userSpaceOnUse" x="64" y="0" width="50" height="45">
        <path
          d="M65.3554 0C64.6117 0 64.0029 0.608382 64.0029 1.35205V43.3783C64.0029 44.122 64.6117 44.7312 65.3554 44.7312H111.965C112.708 44.7312 113.317 44.122 113.317 43.3783V1.35205C113.317 0.608382 112.708 0 111.965 0H65.3554Z"
          fill="white" />
      </mask>
      <g mask="url(#mask30)">
        <path fill-rule="evenodd" clip-rule="evenodd"
          d="M103.83 32.5359L110.587 33.9292L111.447 28.0508L104.595 27.36L103.83 32.5359ZM110.761 34.385C110.747 34.385 110.733 34.3838 110.719 34.3812L103.554 32.9036C103.446 32.8813 103.374 32.7783 103.39 32.6695L104.213 27.1029C104.229 26.9933 104.329 26.9151 104.44 26.9264L111.705 27.6588C111.761 27.6642 111.813 27.6928 111.848 27.7378C111.883 27.7827 111.898 27.8394 111.89 27.8957L110.967 34.2077C110.958 34.264 110.927 34.3149 110.881 34.3476C110.845 34.3724 110.803 34.385 110.761 34.385Z"
          fill="#1D888C" />
      </g>
      <mask id="mask31" mask-type="alpha" maskUnits="userSpaceOnUse" x="64" y="0" width="50" height="45">
        <path
          d="M65.3554 0C64.6117 0 64.0029 0.608382 64.0029 1.35205V43.3783C64.0029 44.122 64.6117 44.7312 65.3554 44.7312H111.965C112.708 44.7312 113.317 44.122 113.317 43.3783V1.35205C113.317 0.608382 112.708 0 111.965 0H65.3554Z"
          fill="white" />
      </mask>
      <g mask="url(#mask31)">
        <path fill-rule="evenodd" clip-rule="evenodd"
          d="M79.5752 27.6856C79.7269 27.5801 81.7407 26.7032 81.7407 26.7032C81.7407 26.7032 83.2121 32.8026 87.5527 34.7299C91.8933 36.6571 95.7776 35.821 96.5927 35.5983C97.5687 35.3311 98.0233 35.0147 98.8464 35.6042C99.669 36.1937 101.163 37.4781 101.163 37.4781C101.163 37.4781 100.526 38.0713 99.8833 37.9562C99.2413 37.8411 98.2468 36.755 97.375 37.1529C96.1229 37.7247 93.6024 38.5747 90.2059 38.9188C87.0544 39.2381 81.0331 37.8054 77.532 29.2204L77.3593 28.7032L79.5752 27.6856Z"
          fill="#6C2F02" />
      </g>
      <mask id="mask32" mask-type="alpha" maskUnits="userSpaceOnUse" x="64" y="0" width="50" height="45">
        <path
          d="M65.3554 0C64.6117 0 64.0029 0.608382 64.0029 1.35205V43.3783C64.0029 44.122 64.6117 44.7312 65.3554 44.7312H111.965C112.708 44.7312 113.317 44.122 113.317 43.3783V1.35205C113.317 0.608382 112.708 0 111.965 0"
          fill="white" />
      </mask>
      <g mask="url(#mask32)">
        <path fill-rule="evenodd" clip-rule="evenodd"
          d="M84.9194 22.3073C85.4795 23.1476 86.6 24.5479 89.121 29.0297C90.507 31.4939 86.1883 51.089 86.1883 51.089L72.6648 46.1161C72.6648 46.1161 75.9685 41.0835 76.3361 37.3849C77.0764 29.9402 77.576 27.9999 79.8776 24.8983C81.488 22.7274 84.9194 22.3073 84.9194 22.3073Z"
          fill="#6DAFB2" />
      </g>
      <mask id="mask33" mask-type="alpha" maskUnits="userSpaceOnUse" x="64" y="0" width="50" height="45">
        <path
          d="M65.3554 0C64.6117 0 64.0029 0.608382 64.0029 1.35205V43.3783C64.0029 44.122 64.6117 44.7312 65.3554 44.7312H111.965C112.708 44.7312 113.317 44.122 113.317 43.3783V1.35205C113.317 0.608382 112.708 0 111.965 0"
          fill="white" />
      </mask>
      <g mask="url(#mask33)">
        <path fill-rule="evenodd" clip-rule="evenodd"
          d="M95.3987 15.7795C95.3987 15.7795 95.5436 13.1767 95.5243 12.9544C95.1974 9.11967 89.1632 6.28406 86.175 8.68019C82.0499 11.9872 83.2402 15.1716 84.0398 16.7917C84.8675 18.4677 86.2687 18.4093 86.1805 19.3975C86.1481 19.7592 83.1176 21.9768 83.1176 21.9768L85.433 24.6112C85.433 24.6112 86.2641 21.9167 87.9745 21.0487C88.8569 20.6008 91.1064 21.3999 93.0861 21.0546C95.2659 20.6739 95.4676 16.9711 95.4676 16.9711C95.4676 16.9711 95.4499 16.3887 95.3987 15.7795Z"
          fill="#7F4A23" />
      </g>
      <mask id="mask34" mask-type="alpha" maskUnits="userSpaceOnUse" x="64" y="0" width="50" height="45">
        <path
          d="M65.3554 0C64.6117 0 64.0029 0.608382 64.0029 1.35205V43.3783C64.0029 44.122 64.6117 44.7312 65.3554 44.7312H111.965C112.708 44.7312 113.317 44.122 113.317 43.3783V1.35205C113.317 0.608382 112.708 0 111.965 0"
          fill="white" />
      </mask>
      <g mask="url(#mask34)">
        <path fill-rule="evenodd" clip-rule="evenodd"
          d="M93.4033 15.7311L93.4924 15.7546C93.5987 15.7824 93.708 15.7181 93.7357 15.6122L93.8903 15.0206C93.918 14.9148 93.8537 14.8055 93.7479 14.7778L93.6588 14.7543C93.5529 14.7265 93.4437 14.7908 93.4159 14.8967L93.2613 15.4883C93.2336 15.5941 93.2975 15.7034 93.4033 15.7311Z"
          fill="#191D2F" />
      </g>
      <mask id="mask35" mask-type="alpha" maskUnits="userSpaceOnUse" x="64" y="0" width="50" height="45">
        <path
          d="M65.3554 0C64.6117 0 64.0029 0.608382 64.0029 1.35205V43.3783C64.0029 44.122 64.6117 44.7312 65.3554 44.7312H111.965C112.708 44.7312 113.317 44.122 113.317 43.3783V1.35205C113.317 0.608382 112.708 0 111.965 0"
          fill="white" />
      </mask>
      <g mask="url(#mask35)">
        <path fill-rule="evenodd" clip-rule="evenodd"
          d="M95.0579 14.9807C95.149 15.4285 95.5213 15.6848 95.9146 15.7298C96.3082 15.7743 96.6784 16.1399 96.4011 16.6356C96.1339 17.1142 95.8906 17.1499 94.8583 17.2659"
          fill="#7F4A23" />
      </g>
      <mask id="mask36" mask-type="alpha" maskUnits="userSpaceOnUse" x="64" y="0" width="50" height="45">
        <path
          d="M65.3554 0C64.6117 0 64.0029 0.608382 64.0029 1.35205V43.3783C64.0029 44.122 64.6117 44.7312 65.3554 44.7312H111.965C112.708 44.7312 113.317 44.122 113.317 43.3783V1.35205C113.317 0.608382 112.708 0 111.965 0H65.3554Z"
          fill="white" />
      </mask>
      <g mask="url(#mask36)">
        <path fill-rule="evenodd" clip-rule="evenodd"
          d="M93.1537 18.2502C93.2764 18.3729 93.4037 18.4393 93.5347 18.4494C93.6784 18.4582 93.823 18.4019 93.9499 18.3208L93.1537 18.2502ZM93.5696 18.9305C93.5469 18.9305 93.5242 18.9296 93.5011 18.9279C93.0915 18.8985 92.7369 18.6132 92.4478 18.0801C92.4054 18.0023 92.4096 17.9078 92.4579 17.8339C92.5062 17.7599 92.5932 17.72 92.6797 17.7263L94.5297 17.8902C94.6166 17.8977 94.6923 17.9519 94.728 18.0313C94.7633 18.1107 94.7532 18.2032 94.7011 18.2729C94.6801 18.3006 94.2024 18.9305 93.5696 18.9305Z"
          fill="#701E0C" />
      </g>
      <mask id="mask37" mask-type="alpha" maskUnits="userSpaceOnUse" x="64" y="0" width="50" height="45">
        <path
          d="M65.3554 0C64.6117 0 64.0029 0.608382 64.0029 1.35205V43.3783C64.0029 44.122 64.6117 44.7312 65.3554 44.7312H111.965C112.708 44.7312 113.317 44.122 113.317 43.3783V1.35205C113.317 0.608382 112.708 0 111.965 0H65.3554Z"
          fill="white" />
      </mask>
      <g mask="url(#mask37)">
        <path fill-rule="evenodd" clip-rule="evenodd"
          d="M81.8329 32.203C81.8329 32.203 82.9366 37.8015 85.1676 40.0842C86.7995 41.7543 88.0003 41.9846 88.0003 41.9846L88.4205 39.9536L81.8568 32.1879L81.8329 32.203Z"
          fill="#479CA0" />
      </g>
      <mask id="mask38" mask-type="alpha" maskUnits="userSpaceOnUse" x="64" y="0" width="50" height="45">
        <path
          d="M65.3554 0C64.6117 0 64.0029 0.608382 64.0029 1.35205V43.3783C64.0029 44.122 64.6117 44.7312 65.3554 44.7312H111.965C112.708 44.7312 113.317 44.122 113.317 43.3783V1.35205C113.317 0.608382 112.708 0 111.965 0H65.3554Z"
          fill="white" />
      </mask>
      <g mask="url(#mask38)">
        <path fill-rule="evenodd" clip-rule="evenodd"
          d="M84.0296 31.0683C84.1767 30.9566 86.1543 30.0003 86.1543 30.0003C86.1543 30.0003 87.8677 36.0358 92.2823 37.7879C96.6964 39.5403 100.544 38.55 101.35 38.2946C102.314 37.9887 102.756 37.6542 103.602 38.2105C104.447 38.7664 105.991 39.9903 105.991 39.9903C105.991 39.9903 105.379 40.6088 104.732 40.5193C104.086 40.4298 103.049 39.3844 102.193 39.8168C100.966 40.4378 98.4808 41.3881 95.1011 41.868C91.9642 42.3129 85.8909 41.1218 82.049 32.6834L81.8562 32.1738L84.0296 31.0683Z"
          fill="#7F4A23" />
      </g>
      <mask id="mask39" mask-type="alpha" maskUnits="userSpaceOnUse" x="64" y="0" width="50" height="45">
        <path
          d="M65.3554 0C64.6117 0 64.0029 0.608382 64.0029 1.35205V43.3783C64.0029 44.122 64.6117 44.7312 65.3554 44.7312H111.965C112.708 44.7312 113.317 44.122 113.317 43.3783V1.35205C113.317 0.608382 112.708 0 111.965 0"
          fill="white" />
      </mask>
      <g mask="url(#mask39)">
        <path fill-rule="evenodd" clip-rule="evenodd"
          d="M94.904 10.9535L88.9328 14.4764C88.9328 14.4764 89.1517 17.6528 89.8013 19.3023C90.4857 21.0401 89.0689 22.8278 87.0745 23.4034C85.08 23.9791 88.195 26.697 87.7732 28.7125C87.3509 30.7271 83.6065 35.3035 81.4889 32.5649C79.3718 29.8255 78.0113 29.5142 76.5715 30.5528C75.1312 31.5914 71.4645 32.1477 69.4684 30.0536C67.4726 27.9596 67.5499 22.872 71.1456 21.2275C74.7409 19.583 74.6795 18.1927 74.3968 17.0444C74.114 15.8961 73.6581 11.8765 76.9013 10.6656C80.1445 9.45477 82.2209 11.2669 83.52 10.1879C84.8191 9.10898 86.9976 7.89852 89.1824 7.77961C91.8562 7.63382 94.1839 9.65854 94.904 10.9535Z"
          fill="#191D2F" />
      </g>
    </g>
    <path fill-rule="evenodd" clip-rule="evenodd"
      d="M181.201 99.8046H89.8774C89.4505 99.8046 89.1047 99.4588 89.1047 99.0323V38.2143C89.1047 37.7878 89.4505 37.442 89.8774 37.442H181.201C181.628 37.442 181.973 37.7878 181.973 38.2143V99.0323C181.973 99.4588 181.628 99.8046 181.201 99.8046Z"
      fill="#191D2F" />
    <path fill-rule="evenodd" clip-rule="evenodd" d="M91.3896 97.0374H179.688V39.8878H91.3896V97.0374Z"
      fill="#262A3B" />
    <path fill-rule="evenodd" clip-rule="evenodd"
      d="M138.346 79.7277H158.534V59.1775H138.346V79.7277ZM158.804 80.2667H138.076C137.927 80.2667 137.806 80.1461 137.806 79.9974V58.9078C137.806 58.7591 137.927 58.6385 138.076 58.6385H158.804C158.953 58.6385 159.073 58.7591 159.073 58.9078V79.9974C159.073 80.1461 158.953 80.2667 158.804 80.2667Z"
      fill="#6DB8BB" />
    <path fill-rule="evenodd" clip-rule="evenodd" d="M113.15 60.1217H132.568V59.3087H113.15V60.1217Z" fill="#6DB8BB" />
    <path fill-rule="evenodd" clip-rule="evenodd" d="M113.15 62.6668H132.568V61.8537H113.15V62.6668Z" fill="#6DB8BB" />
    <path fill-rule="evenodd" clip-rule="evenodd" d="M113.15 65.2119H132.568V64.3988H113.15V65.2119Z" fill="#6DB8BB" />
    <path fill-rule="evenodd" clip-rule="evenodd" d="M113.15 67.757H132.568V66.9439H113.15V67.757Z" fill="#6DB8BB" />
    <path fill-rule="evenodd" clip-rule="evenodd" d="M113.15 70.3024H132.568V69.4894H113.15V70.3024Z" fill="#6DB8BB" />
    <path fill-rule="evenodd" clip-rule="evenodd"
      d="M118.548 79.7402H113.7C113.458 79.7402 113.26 79.5419 113.26 79.2995V77.647C113.26 77.4046 113.458 77.2062 113.7 77.2062H118.548C118.79 77.2062 118.988 77.4046 118.988 77.647V79.2995C118.988 79.5419 118.79 79.7402 118.548 79.7402Z"
      fill="#6DB8BB" />
    <g style="mix-blend-mode:lighten">
      <path fill-rule="evenodd" clip-rule="evenodd" d="M91.3896 77.3437V39.8878H179.688" fill="#4A4D5B"
        fill-opacity="0.27" />
    </g>
    <g style="mix-blend-mode:multiply">
      <path fill-rule="evenodd" clip-rule="evenodd"
        d="M169.881 37.4773V53.8583C169.881 54.3788 170.368 54.8045 170.962 54.8045H181.901V50.6105L174.787 50.4248V37.4462L169.881 37.4773Z"
        fill="#1D888C" />
    </g>
    <g style="mix-blend-mode:multiply">
      <path fill-rule="evenodd" clip-rule="evenodd"
        d="M171.313 54.8256C170.584 54.8256 169.987 54.229 169.987 53.4996V12.2939C169.987 11.5645 170.584 10.9675 171.313 10.9675H217.013C217.742 10.9675 218.339 11.5645 218.339 12.2939V53.4996C218.339 54.229 217.742 54.8256 217.013 54.8256H171.313Z"
        fill="#EAECED" />
    </g>
    <path fill-rule="evenodd" clip-rule="evenodd"
      d="M174.535 50.4606H219.817C220.54 50.4606 221.131 49.8694 221.131 49.1467V8.31706C221.131 7.59439 220.54 7.00323 219.817 7.00323H174.535C173.813 7.00323 173.221 7.59439 173.221 8.31706V49.1467C173.221 49.8694 173.813 50.4606 174.535 50.4606Z"
      fill="#6DAFB2" />
    <mask id="mask40" mask-type="alpha" maskUnits="userSpaceOnUse" x="173" y="6" width="50" height="45">
      <path
        d="M175.04 6.10583C174.302 6.10583 173.699 6.70963 173.699 7.44722V49.1197C173.699 49.8573 174.302 50.4611 175.04 50.4611H221.257C221.994 50.4611 222.598 49.8573 222.598 49.1197V7.44722C222.598 6.70963 221.994 6.10583 221.257 6.10583"
        fill="white" />
    </mask>
    <g mask="url(#mask40)">
      <path fill-rule="evenodd" clip-rule="evenodd"
        d="M191.288 21.301C191.27 21.521 191.42 24.0962 191.42 24.0962L189.68 24.7042L191.26 25.8334C191.26 25.8334 191.775 28.9119 193.723 29.3095C195.672 29.7078 197.321 29.008 198.195 29.4488C199.891 30.3031 199.847 32.8177 199.847 32.8177L203.023 30.6054C203.023 30.6054 201.536 28.315 201.598 27.2133C201.652 26.2326 201.849 26.7266 202.663 25.0658C203.45 23.4602 204.555 20.3842 200.528 17.0445C196.5 13.7052 191.6 17.505 191.288 21.301Z"
        fill="#A46300" />
    </g>
    <mask id="mask41" mask-type="alpha" maskUnits="userSpaceOnUse" x="173" y="6" width="50" height="45">
      <path
        d="M175.04 6.10583C174.302 6.10583 173.699 6.70963 173.699 7.44722V49.1197C173.699 49.8573 174.302 50.4611 175.04 50.4611H221.257C221.994 50.4611 222.598 49.8573 222.598 49.1197V7.44722C222.598 6.70963 221.994 6.10583 221.257 6.10583"
        fill="white" />
    </mask>
    <g mask="url(#mask41)">
      <path fill-rule="evenodd" clip-rule="evenodd"
        d="M193.17 23.8129L193.08 23.8052C192.971 23.7961 192.891 23.7005 192.9 23.5925L192.95 22.9895C192.959 22.8814 193.055 22.8008 193.163 22.8098L193.254 22.8175C193.362 22.8266 193.443 22.9222 193.434 23.0298L193.383 23.6332C193.375 23.7413 193.279 23.8219 193.17 23.8129Z"
        fill="#191D2F" />
    </g>
    <mask id="mask42" mask-type="alpha" maskUnits="userSpaceOnUse" x="173" y="6" width="50" height="45">
      <path
        d="M175.04 6.10583C174.302 6.10583 173.699 6.70963 173.699 7.44722V49.1197C173.699 49.8573 174.302 50.4611 175.04 50.4611H221.257C221.994 50.4611 222.598 49.8573 222.598 49.1197V7.44722C222.598 6.70963 221.994 6.10583 221.257 6.10583"
        fill="white" />
    </mask>
    <g mask="url(#mask42)">
      <path fill-rule="evenodd" clip-rule="evenodd"
        d="M192.553 27.7934C192.473 27.7934 192.387 27.7857 192.296 27.769C192.169 27.745 192.084 27.6219 192.108 27.4937C192.131 27.3654 192.258 27.2827 192.383 27.305C192.985 27.4173 193.183 26.9062 193.19 26.8843C193.236 26.7621 193.372 26.6999 193.493 26.7441C193.616 26.7891 193.678 26.9246 193.634 27.0468C193.531 27.3256 193.184 27.7934 192.553 27.7934Z"
        fill="black" />
    </g>
    <mask id="mask43" mask-type="alpha" maskUnits="userSpaceOnUse" x="173" y="6" width="50" height="45">
      <path
        d="M175.04 6.10583C174.302 6.10583 173.699 6.70963 173.699 7.44722V49.1197C173.699 49.8573 174.302 50.4611 175.04 50.4611H221.257C221.994 50.4611 222.598 49.8573 222.598 49.1197V7.44722C222.598 6.70963 221.994 6.10583 221.257 6.10583H175.04Z"
        fill="white" />
    </mask>
    <g mask="url(#mask43)">
      <path fill-rule="evenodd" clip-rule="evenodd"
        d="M198.528 22.931C198.528 22.931 198.347 19.882 198.051 19.267C197.591 18.3129 196.565 17.4758 195.119 17.7756C193.673 18.0749 192.304 18.7516 192.304 18.7516C192.304 18.7516 190.953 18.2443 191.374 17.1079C191.794 15.9719 192.673 15.462 194.548 15.336C196.424 15.2099 200.683 15.5083 201.874 16.5079C202.573 17.095 204.78 19.7756 202.887 24.889L198.528 22.931Z"
        fill="#272B3C" />
    </g>
    <mask id="mask44" mask-type="alpha" maskUnits="userSpaceOnUse" x="173" y="6" width="50" height="45">
      <path
        d="M175.04 6.10583C174.302 6.10583 173.699 6.70963 173.699 7.44722V49.1197C173.699 49.8573 174.302 50.4611 175.04 50.4611H221.257C221.994 50.4611 222.598 49.8573 222.598 49.1197V7.44722C222.598 6.70963 221.994 6.10583 221.257 6.10583"
        fill="white" />
    </mask>
    <g mask="url(#mask44)">
      <path fill-rule="evenodd" clip-rule="evenodd"
        d="M194.978 16.6011C196.853 16.475 201.112 16.7739 202.303 17.7731C202.562 17.9901 203.026 18.4948 203.414 19.3014C203.053 17.6402 202.206 16.6744 201.82 16.3498C200.63 15.3502 196.37 15.0517 194.495 15.1778C192.619 15.3039 191.741 15.8138 191.321 16.9497C191.065 17.6389 191.462 18.096 191.813 18.3499C192.237 17.2306 193.115 16.7263 194.978 16.6011Z"
        fill="#303444" />
    </g>
    <mask id="mask45" mask-type="alpha" maskUnits="userSpaceOnUse" x="173" y="6" width="50" height="45">
      <path
        d="M175.04 6.10583C174.302 6.10583 173.699 6.70963 173.699 7.44722V49.1197C173.699 49.8573 174.302 50.4611 175.04 50.4611H221.257C221.994 50.4611 222.598 49.8573 222.598 49.1197V7.44722C222.598 6.70963 221.994 6.10583 221.257 6.10583"
        fill="white" />
    </mask>
    <g mask="url(#mask45)">
      <path fill-rule="evenodd" clip-rule="evenodd"
        d="M198.937 23.4071C198.959 22.8779 199.398 20.8851 200.385 21.5331C201.372 22.1815 201.344 23.6301 200.39 24.0898C199.435 24.5499 198.937 23.4071 198.937 23.4071Z"
        fill="#A46300" />
    </g>
    <mask id="mask46" mask-type="alpha" maskUnits="userSpaceOnUse" x="173" y="6" width="50" height="45">
      <path
        d="M175.04 6.10583C174.302 6.10583 173.699 6.70963 173.699 7.44722V49.1197C173.699 49.8573 174.302 50.4611 175.04 50.4611H221.257C221.994 50.4611 222.598 49.8573 222.598 49.1197V7.44722C222.598 6.70963 221.994 6.10583 221.257 6.10583H175.04Z"
        fill="white" />
    </mask>
    <g mask="url(#mask46)">
      <path fill-rule="evenodd" clip-rule="evenodd"
        d="M203.614 30.2161L198.21 31.2581L193.285 63.6842L210.464 64.7091C210.464 64.7091 210.34 47.154 210.188 45.9147C209.445 39.8669 209.004 38.2108 205.607 32.4996L203.614 30.2161Z"
        fill="#191D2F" />
    </g>
    <mask id="mask47" mask-type="alpha" maskUnits="userSpaceOnUse" x="173" y="6" width="50" height="45">
      <path
        d="M175.04 6.10583C174.302 6.10583 173.699 6.70963 173.699 7.44722V49.1197C173.699 49.8573 174.302 50.4611 175.04 50.4611H221.257C221.994 50.4611 222.598 49.8573 222.598 49.1197V7.44722C222.598 6.70963 221.994 6.10583 221.257 6.10583"
        fill="white" />
    </mask>
    <g mask="url(#mask47)">
      <path fill-rule="evenodd" clip-rule="evenodd"
        d="M208.493 39.2299L207.64 43.1018L205.383 46.5667L199.44 40.9649L201.782 35.1967C201.782 35.1967 208.491 37.6921 208.493 39.2299Z"
        fill="#191D2F" />
    </g>
    <mask id="mask48" mask-type="alpha" maskUnits="userSpaceOnUse" x="173" y="6" width="50" height="45">
      <path
        d="M175.04 6.10583C174.302 6.10583 173.699 6.70963 173.699 7.44722V49.1197C173.699 49.8573 174.302 50.4611 175.04 50.4611H221.257C221.994 50.4611 222.598 49.8573 222.598 49.1197V7.44722C222.598 6.70963 221.994 6.10583 221.257 6.10583H175.04Z"
        fill="white" />
    </mask>
    <g mask="url(#mask48)">
      <path fill-rule="evenodd" clip-rule="evenodd"
        d="M197.959 29.2376C197.959 29.2376 199.646 28.6711 200.063 28.1788C200.063 28.1788 199.533 29.3019 198.591 29.6904C198.591 29.6904 198.333 29.4721 198.131 29.4142C197.909 29.3503 197.653 29.2984 197.653 29.2984L197.959 29.2376Z"
        fill="#964F00" />
    </g>
    <mask id="mask49" mask-type="alpha" maskUnits="userSpaceOnUse" x="173" y="6" width="50" height="45">
      <path
        d="M175.04 6.10583C174.302 6.10583 173.699 6.70963 173.699 7.44722V49.1197C173.699 49.8573 174.302 50.4611 175.04 50.4611H221.257C221.994 50.4611 222.598 49.8573 222.598 49.1197V7.44722C222.598 6.70963 221.994 6.10583 221.257 6.10583H175.04Z"
        fill="white" />
    </mask>
    <g mask="url(#mask49)">
      <path fill-rule="evenodd" clip-rule="evenodd"
        d="M180.202 40.6736L179.638 39.7263C179.638 39.7263 179.585 39.2465 179.941 39.3207C180.296 39.3944 180.638 39.9956 180.786 40.0793L180.202 40.6736Z"
        fill="#A46300" />
    </g>
    <mask id="mask50" mask-type="alpha" maskUnits="userSpaceOnUse" x="173" y="6" width="50" height="45">
      <path
        d="M175.04 6.10583C174.302 6.10583 173.699 6.70963 173.699 7.44722V49.1197C173.699 49.8573 174.302 50.4611 175.04 50.4611H221.257C221.994 50.4611 222.598 49.8573 222.598 49.1197V7.44722C222.598 6.70963 221.994 6.10583 221.257 6.10583H175.04Z"
        fill="white" />
    </mask>
    <g mask="url(#mask50)">
      <path fill-rule="evenodd" clip-rule="evenodd"
        d="M203.635 29.9818C203.615 29.905 203.347 29.0233 203.347 29.0233L198.093 30.2313L197.767 32.1486L203.711 30.4419L203.635 29.9818Z"
        fill="#191D2F" />
    </g>
    <mask id="mask51" mask-type="alpha" maskUnits="userSpaceOnUse" x="173" y="6" width="50" height="45">
      <path
        d="M175.04 6.10583C174.302 6.10583 173.699 6.70963 173.699 7.44722V49.1197C173.699 49.8573 174.302 50.4611 175.04 50.4611H221.257C221.994 50.4611 222.598 49.8573 222.598 49.1197V7.44722C222.598 6.70963 221.994 6.10583 221.257 6.10583"
        fill="white" />
    </mask>
    <g mask="url(#mask51)">
      <path fill-rule="evenodd" clip-rule="evenodd"
        d="M182.627 41.8192L183.976 40.1931C184.042 40.1227 184.054 40.0271 184.005 39.9804L180.086 36.3006C180.036 36.2538 179.942 36.2727 179.876 36.3426L178.352 37.7414C178.286 37.8113 178.273 37.907 178.323 37.9537L182.417 41.8612C182.467 41.9084 182.561 41.8891 182.627 41.8192Z"
        fill="#272B3C" />
    </g>
    <mask id="mask52" mask-type="alpha" maskUnits="userSpaceOnUse" x="173" y="6" width="50" height="45">
      <path
        d="M175.04 6.10583C174.302 6.10583 173.699 6.70963 173.699 7.44722V49.1197C173.699 49.8573 174.302 50.4611 175.04 50.4611H221.257C221.994 50.4611 222.598 49.8573 222.598 49.1197V7.44722C222.598 6.70963 221.994 6.10583 221.257 6.10583"
        fill="white" />
    </mask>
    <g mask="url(#mask52)">
      <path fill-rule="evenodd" clip-rule="evenodd"
        d="M182.555 41.2982L183.569 40.0504C183.62 39.9967 183.624 39.9196 183.581 39.8784L180.122 36.63C180.078 36.5888 180.001 36.5987 179.951 36.6519L178.778 37.7029C178.728 37.7561 178.723 37.8337 178.767 37.8749L182.385 41.3201C182.428 41.3613 182.505 41.3519 182.555 41.2982Z"
        fill="#6DAFB2" />
    </g>
    <mask id="mask53" mask-type="alpha" maskUnits="userSpaceOnUse" x="173" y="6" width="50" height="45">
      <path
        d="M175.04 6.10583C174.302 6.10583 173.699 6.70963 173.699 7.44722V49.1197C173.699 49.8573 174.302 50.4611 175.04 50.4611H221.257C221.994 50.4611 222.598 49.8573 222.598 49.1197V7.44722C222.598 6.70963 221.994 6.10583 221.257 6.10583H175.04Z"
        fill="white" />
    </mask>
    <g mask="url(#mask53)">
      <path fill-rule="evenodd" clip-rule="evenodd"
        d="M199.111 38.8858C199.111 38.8858 195.097 46.9993 191.667 45.41C188.237 43.8208 185.812 41.7298 185.812 41.7298L184.974 43.9692C184.974 43.9692 191.081 50.5127 193.591 50.5963C196.1 50.6795 200.868 47.2501 204.464 42.6497L199.111 38.8858Z"
        fill="#A46300" />
    </g>
    <mask id="mask54" mask-type="alpha" maskUnits="userSpaceOnUse" x="173" y="6" width="50" height="45">
      <path
        d="M175.04 6.10583C174.302 6.10583 173.699 6.70963 173.699 7.44722V49.1197C173.699 49.8573 174.302 50.4611 175.04 50.4611H221.257C221.994 50.4611 222.598 49.8573 222.598 49.1197V7.44722C222.598 6.70963 221.994 6.10583 221.257 6.10583H175.04Z"
        fill="white" />
    </mask>
    <g mask="url(#mask54)">
      <path fill-rule="evenodd" clip-rule="evenodd"
        d="M183.242 40.5802C183.17 40.5682 180.549 40.1179 180.549 40.1179C180.549 40.1179 180.242 40.3023 180.178 40.4241C180.113 40.5455 180.159 40.627 180.245 40.7294C180.33 40.8319 180.464 40.913 180.464 40.913C180.464 40.913 180.596 41.6266 180.675 41.684C180.753 41.7411 181.837 42.9221 181.952 43.0293C182.067 43.1365 184.015 43.5863 184.274 43.6656C184.844 43.8398 185.494 44.4242 185.494 44.4242L185.999 41.9653C185.999 41.9653 184.984 40.8993 184.948 40.8491C184.913 40.7989 184.315 39.8756 184.062 39.7157C183.809 39.5562 182.754 39.0862 182.64 39.0673C182.525 39.0484 182.024 39.4948 181.891 39.59C181.757 39.6857 181.96 40.0579 182.268 40.0652C182.576 40.072 182.715 40.036 182.715 40.036L183.251 40.3465L183.242 40.5802Z"
        fill="#A46300" />
    </g>
    <mask id="mask55" mask-type="alpha" maskUnits="userSpaceOnUse" x="173" y="6" width="50" height="45">
      <path
        d="M175.04 6.05219C174.302 6.05219 173.699 6.65598 173.699 7.39357V49.066C173.699 49.8036 174.302 50.4074 175.04 50.4074H221.257C221.994 50.4074 222.598 49.8036 222.598 49.066V7.39357C222.598 6.65598 221.994 6.05219 221.257 6.05219H175.04Z"
        fill="white" />
    </mask>
    <g mask="url(#mask55)">
      <path fill-rule="evenodd" clip-rule="evenodd"
        d="M180.397 37.756L180.61 38.7479L181.265 38.1634L180.397 37.756ZM180.569 38.9387C180.562 38.9387 180.555 38.9374 180.549 38.9353C180.526 38.928 180.509 38.9091 180.504 38.8864L180.24 37.6535C180.235 37.6291 180.244 37.6038 180.263 37.5879C180.283 37.572 180.311 37.569 180.333 37.5798L181.412 38.0862C181.432 38.0956 181.446 38.1145 181.45 38.1364C181.453 38.1582 181.445 38.1806 181.428 38.1951L180.613 38.922C180.601 38.9327 180.585 38.9387 180.569 38.9387Z"
        fill="#F3E521" />
    </g>
    <path fill-rule="evenodd" clip-rule="evenodd"
      d="M126.105 95.0041C126.099 95.0041 126.093 95.0041 126.087 95.0033C125.971 94.9932 125.885 94.8915 125.895 94.776C125.936 94.302 125.964 93.813 125.976 93.3222C125.979 93.2063 126.073 93.1176 126.191 93.1172C126.307 93.1205 126.399 93.2168 126.396 93.3327C126.383 93.8319 126.356 94.3298 126.314 94.8121C126.304 94.9217 126.213 95.0041 126.105 95.0041ZM125.658 97.9015C125.643 97.9015 125.627 97.8998 125.611 97.8964C125.498 97.8704 125.427 97.7582 125.453 97.6448C125.558 97.1801 125.65 96.7007 125.723 96.2188C125.74 96.1045 125.845 96.0259 125.963 96.0431C126.077 96.0604 126.156 96.1679 126.138 96.2822C126.063 96.7738 125.971 97.2633 125.863 97.738C125.841 97.8355 125.754 97.9015 125.658 97.9015ZM124.791 100.701C124.765 100.701 124.739 100.696 124.713 100.686C124.606 100.643 124.553 100.521 124.596 100.413C124.773 99.9695 124.935 99.5094 125.079 99.0464C125.113 98.9351 125.23 98.8729 125.341 98.9077C125.452 98.9418 125.514 99.0594 125.48 99.1703C125.334 99.6443 125.167 100.115 124.986 100.569C124.953 100.651 124.874 100.701 124.791 100.701ZM123.482 103.322C123.444 103.322 123.406 103.312 123.372 103.292C123.273 103.231 123.242 103.102 123.303 103.003C123.553 102.592 123.789 102.166 124.004 101.735C124.056 101.631 124.182 101.589 124.285 101.641C124.389 101.693 124.432 101.819 124.38 101.923C124.159 102.364 123.917 102.801 123.661 103.221C123.622 103.287 123.552 103.322 123.482 103.322ZM121.749 105.687C121.7 105.687 121.651 105.671 121.611 105.636C121.523 105.56 121.514 105.427 121.59 105.339C121.907 104.975 122.211 104.594 122.496 104.207C122.564 104.113 122.696 104.093 122.789 104.161C122.883 104.23 122.903 104.362 122.834 104.455C122.543 104.852 122.231 105.242 121.907 105.615C121.866 105.663 121.807 105.687 121.749 105.687ZM119.654 107.743C119.595 107.743 119.535 107.718 119.494 107.668C119.419 107.58 119.431 107.447 119.519 107.372C119.892 107.059 120.254 106.73 120.595 106.396C120.677 106.314 120.81 106.316 120.892 106.399C120.973 106.481 120.972 106.615 120.889 106.696C120.541 107.037 120.171 107.373 119.79 107.694C119.75 107.727 119.702 107.743 119.654 107.743ZM117.28 109.473C117.21 109.473 117.142 109.438 117.102 109.375C117.04 109.277 117.069 109.147 117.168 109.085C117.581 108.824 117.987 108.549 118.373 108.269C118.468 108.2 118.599 108.221 118.667 108.315C118.735 108.409 118.714 108.54 118.62 108.608C118.226 108.895 117.813 109.175 117.392 109.441C117.357 109.462 117.318 109.473 117.28 109.473ZM114.702 110.889C114.623 110.889 114.548 110.845 114.512 110.77C114.462 110.665 114.506 110.539 114.611 110.489C115.054 110.278 115.491 110.054 115.911 109.825C116.012 109.768 116.14 109.806 116.196 109.908C116.251 110.009 116.214 110.137 116.112 110.193C115.687 110.427 115.242 110.654 114.792 110.869C114.763 110.883 114.732 110.889 114.702 110.889ZM111.984 112.019C111.898 112.019 111.817 111.966 111.786 111.88C111.747 111.771 111.804 111.651 111.913 111.612C112.374 111.445 112.833 111.268 113.277 111.084C113.384 111.04 113.507 111.09 113.551 111.198C113.596 111.304 113.545 111.427 113.438 111.472C112.988 111.659 112.523 111.838 112.055 112.007C112.032 112.015 112.008 112.019 111.984 112.019ZM109.172 112.894C109.079 112.894 108.994 112.832 108.969 112.738C108.939 112.625 109.006 112.511 109.118 112.481C109.593 112.354 110.067 112.218 110.525 112.076C110.637 112.042 110.754 112.104 110.788 112.214C110.822 112.325 110.761 112.443 110.65 112.477C110.186 112.621 109.707 112.759 109.226 112.887C109.208 112.892 109.189 112.894 109.172 112.894ZM106.296 113.539C106.196 113.539 106.108 113.468 106.089 113.367C106.068 113.253 106.144 113.143 106.257 113.122C106.72 113.037 107.2 112.94 107.694 112.829C107.81 112.803 107.92 112.875 107.945 112.988C107.97 113.101 107.899 113.214 107.786 113.239C107.287 113.351 106.802 113.449 106.334 113.535C106.321 113.538 106.308 113.539 106.296 113.539ZM103.377 113.969C103.271 113.969 103.18 113.89 103.169 113.782C103.155 113.667 103.239 113.563 103.354 113.551C103.801 113.501 104.289 113.44 104.81 113.363C104.925 113.344 105.032 113.425 105.049 113.54C105.066 113.655 104.986 113.762 104.871 113.779C104.345 113.856 103.852 113.919 103.4 113.968C103.392 113.969 103.384 113.969 103.377 113.969ZM100.424 114.169C100.308 114.169 100.214 114.075 100.214 113.959C100.214 113.843 100.308 113.749 100.424 113.749C100.43 113.749 100.977 113.748 101.892 113.683C102.009 113.674 102.108 113.762 102.116 113.878C102.124 113.994 102.037 114.095 101.921 114.103C100.99 114.168 100.447 114.169 100.424 114.169Z"
      fill="#FFC900" />
    <path fill-rule="evenodd" clip-rule="evenodd"
      d="M130.994 95.1277C130.881 95.1277 130.788 95.0386 130.784 94.9248C130.767 94.4424 130.756 93.9509 130.75 93.4504C130.749 93.3341 130.842 93.2391 130.958 93.2379C131.073 93.2391 131.169 93.3294 131.17 93.4454C131.176 93.9425 131.187 94.4307 131.204 94.9105C131.208 95.0264 131.117 95.1235 131.001 95.1277C130.999 95.1277 130.996 95.1277 130.994 95.1277ZM131.167 98.0608C131.059 98.0608 130.967 97.9784 130.959 97.8688C130.917 97.3881 130.882 96.8978 130.852 96.3978C130.845 96.2819 130.934 96.1823 131.049 96.1756C131.169 96.1684 131.265 96.2571 131.272 96.3726C131.301 96.8692 131.336 97.3562 131.377 97.8331C131.387 97.9486 131.301 98.0503 131.186 98.06C131.179 98.0608 131.173 98.0608 131.167 98.0608ZM131.501 100.98C131.398 100.98 131.309 100.905 131.294 100.8C131.224 100.323 131.161 99.8355 131.104 99.3368C131.091 99.2217 131.174 99.1175 131.289 99.1045C131.406 99.0881 131.509 99.1742 131.522 99.2893C131.578 99.7838 131.641 100.267 131.709 100.74C131.726 100.855 131.646 100.961 131.531 100.978C131.521 100.98 131.511 100.98 131.501 100.98ZM132.018 103.872C131.921 103.872 131.834 103.804 131.813 103.706C131.712 103.235 131.617 102.753 131.528 102.257C131.508 102.143 131.584 102.034 131.698 102.014C131.813 101.993 131.921 102.069 131.942 102.183C132.03 102.674 132.123 103.152 132.223 103.618C132.248 103.731 132.175 103.843 132.062 103.867C132.047 103.871 132.033 103.872 132.018 103.872ZM132.746 106.717C132.655 106.717 132.572 106.659 132.544 106.568C132.405 106.102 132.272 105.623 132.15 105.144C132.122 105.031 132.189 104.917 132.302 104.888C132.414 104.86 132.528 104.927 132.557 105.04C132.678 105.513 132.809 105.987 132.947 106.447C132.98 106.558 132.917 106.675 132.806 106.708C132.786 106.715 132.765 106.717 132.746 106.717ZM133.714 109.49C133.63 109.49 133.552 109.44 133.519 109.358C133.338 108.91 133.163 108.444 132.999 107.974C132.961 107.864 133.019 107.744 133.128 107.706C133.237 107.668 133.357 107.726 133.396 107.836C133.558 108.3 133.73 108.759 133.909 109.201C133.952 109.309 133.9 109.431 133.793 109.475C133.767 109.485 133.74 109.49 133.714 109.49ZM134.954 112.151C134.88 112.151 134.807 112.111 134.769 112.04C134.541 111.614 134.319 111.168 134.108 110.716C134.058 110.611 134.104 110.486 134.209 110.437C134.314 110.389 134.439 110.433 134.488 110.539C134.696 110.984 134.915 111.422 135.14 111.842C135.195 111.944 135.156 112.071 135.054 112.126C135.022 112.143 134.988 112.151 134.954 112.151ZM136.497 114.648C136.432 114.648 136.367 114.618 136.326 114.56C136.043 114.162 135.768 113.746 135.508 113.324C135.447 113.225 135.478 113.096 135.577 113.035C135.674 112.975 135.805 113.004 135.866 113.104C136.121 113.518 136.391 113.926 136.668 114.317C136.736 114.411 136.713 114.543 136.619 114.61C136.582 114.636 136.54 114.648 136.497 114.648ZM138.361 116.917C138.305 116.917 138.25 116.895 138.208 116.852C137.874 116.5 137.542 116.125 137.226 115.739C137.152 115.65 137.165 115.517 137.255 115.444C137.344 115.37 137.476 115.383 137.55 115.472C137.861 115.851 138.185 116.217 138.513 116.562C138.593 116.646 138.59 116.779 138.505 116.859C138.465 116.898 138.413 116.917 138.361 116.917ZM140.548 118.876C140.504 118.876 140.459 118.863 140.421 118.834C140.031 118.539 139.646 118.22 139.274 117.887C139.188 117.809 139.181 117.676 139.258 117.59C139.337 117.504 139.469 117.497 139.555 117.574C139.918 117.9 140.294 118.211 140.675 118.499C140.768 118.569 140.786 118.701 140.715 118.793C140.674 118.848 140.611 118.876 140.548 118.876ZM143.038 120.437C143.006 120.437 142.974 120.43 142.944 120.415C142.507 120.194 142.07 119.947 141.646 119.681C141.548 119.619 141.518 119.489 141.58 119.392C141.642 119.293 141.773 119.265 141.869 119.325C142.283 119.585 142.707 119.825 143.133 120.039C143.236 120.092 143.278 120.218 143.226 120.321C143.189 120.394 143.115 120.437 143.038 120.437ZM145.801 121.452C145.789 121.452 145.777 121.451 145.766 121.449C145.743 121.445 145.195 121.35 144.311 121.017C144.203 120.976 144.148 120.855 144.189 120.746C144.229 120.638 144.349 120.583 144.459 120.624C145.301 120.941 145.831 121.034 145.836 121.035C145.951 121.054 146.027 121.163 146.008 121.277C145.99 121.379 145.902 121.452 145.801 121.452Z"
      fill="#181D30" />
    <path fill-rule="evenodd" clip-rule="evenodd"
      d="M177.453 70.4729H176.052C175.936 70.4729 175.842 70.3788 175.842 70.2629C175.842 70.1469 175.936 70.0528 176.052 70.0528H177.453C177.569 70.0528 177.663 70.1469 177.663 70.2629C177.663 70.3788 177.569 70.4729 177.453 70.4729ZM180.394 70.4729H178.923C178.807 70.4729 178.713 70.3788 178.713 70.2629C178.713 70.1469 178.807 70.0528 178.923 70.0528H180.394C180.51 70.0528 180.604 70.1469 180.604 70.2629C180.604 70.3788 180.51 70.4729 180.394 70.4729ZM183.335 70.4729H181.864C181.748 70.4729 181.654 70.3788 181.654 70.2629C181.654 70.1469 181.748 70.0528 181.864 70.0528H183.335C183.451 70.0528 183.545 70.1469 183.545 70.2629C183.545 70.3788 183.451 70.4729 183.335 70.4729ZM186.276 70.4729H184.805C184.689 70.4729 184.595 70.3788 184.595 70.2629C184.595 70.1469 184.689 70.0528 184.805 70.0528H186.276C186.392 70.0528 186.486 70.1469 186.486 70.2629C186.486 70.3788 186.392 70.4729 186.276 70.4729ZM189.217 70.4729H187.746C187.63 70.4729 187.536 70.3788 187.536 70.2629C187.536 70.1469 187.63 70.0528 187.746 70.0528H189.217C189.333 70.0528 189.427 70.1469 189.427 70.2629C189.427 70.3788 189.333 70.4729 189.217 70.4729ZM192.158 70.4729H190.687C190.572 70.4729 190.477 70.3788 190.477 70.2629C190.477 70.1469 190.572 70.0528 190.687 70.0528H192.158C192.274 70.0528 192.368 70.1469 192.368 70.2629C192.368 70.3788 192.274 70.4729 192.158 70.4729ZM195.099 70.4729H193.629C193.513 70.4729 193.419 70.3788 193.419 70.2629C193.419 70.1469 193.513 70.0528 193.629 70.0528H195.099C195.215 70.0528 195.309 70.1469 195.309 70.2629C195.309 70.3788 195.215 70.4729 195.099 70.4729ZM198.04 70.4729H196.57C196.454 70.4729 196.36 70.3788 196.36 70.2629C196.36 70.1469 196.454 70.0528 196.57 70.0528H198.04C198.156 70.0528 198.25 70.1469 198.25 70.2629C198.25 70.3788 198.156 70.4729 198.04 70.4729ZM200.981 70.4729H199.511C199.395 70.4729 199.301 70.3788 199.301 70.2629C199.301 70.1469 199.395 70.0528 199.511 70.0528H200.981C201.097 70.0528 201.191 70.1469 201.191 70.2629C201.191 70.3788 201.097 70.4729 200.981 70.4729Z"
      fill="#E6E6E6" />
    <path fill-rule="evenodd" clip-rule="evenodd"
      d="M173.468 26.4491C173.37 26.4491 173.282 26.3794 173.263 26.2794C173.24 26.1655 173.314 26.0554 173.428 26.0328C174.336 25.8554 174.888 25.8 174.911 25.7979C175.025 25.7874 175.129 25.871 175.14 25.9861C175.152 26.1017 175.068 26.2042 174.952 26.2159C174.947 26.2164 174.395 26.2718 173.509 26.4453C173.495 26.4479 173.482 26.4491 173.468 26.4491ZM170.613 27.1777C170.523 27.1777 170.441 27.1205 170.413 27.031C170.378 26.9205 170.439 26.8025 170.55 26.7672C171.017 26.6201 171.498 26.4832 171.978 26.3605C172.092 26.3315 172.205 26.3995 172.234 26.5121C172.262 26.6243 172.195 26.7386 172.082 26.7676C171.609 26.8882 171.136 27.0231 170.676 27.168C170.655 27.1747 170.634 27.1777 170.613 27.1777ZM167.859 28.2218C167.779 28.2218 167.702 28.1755 167.668 28.0978C167.62 27.9919 167.667 27.8676 167.773 27.8201C168.22 27.6197 168.681 27.4289 169.146 27.2529C169.254 27.2117 169.375 27.2667 169.417 27.3751C169.458 27.4835 169.403 27.605 169.294 27.6461C168.838 27.8188 168.383 28.0066 167.945 28.2033C167.918 28.2159 167.888 28.2218 167.859 28.2218ZM165.262 29.6041C165.192 29.6041 165.124 29.5692 165.084 29.5053C165.022 29.4074 165.052 29.2776 165.15 29.2158C165.563 28.9574 165.997 28.7075 166.438 28.473C166.54 28.4184 166.667 28.4575 166.722 28.56C166.776 28.6625 166.737 28.7898 166.635 28.844C166.202 29.0738 165.778 29.3188 165.373 29.5721C165.338 29.594 165.3 29.6041 165.262 29.6041ZM162.903 31.3578C162.845 31.3578 162.787 31.3334 162.746 31.2868C162.669 31.1998 162.677 31.067 162.764 30.9901C163.131 30.6666 163.52 30.3519 163.921 30.054C164.015 29.9856 164.146 30.004 164.215 30.0977C164.284 30.1906 164.265 30.3221 164.171 30.3914C163.78 30.6822 163.4 30.9893 163.043 31.3053C163.003 31.3406 162.953 31.3578 162.903 31.3578ZM160.896 33.4976C160.851 33.4976 160.806 33.4838 160.768 33.4539C160.676 33.3833 160.659 33.2514 160.73 33.1594C161.03 32.7695 161.354 32.3884 161.695 32.0258C161.775 31.9414 161.908 31.9376 161.993 32.017C162.077 32.0964 162.081 32.2296 162.001 32.3141C161.67 32.6661 161.354 33.0371 161.063 33.4161C161.021 33.4695 160.959 33.4976 160.896 33.4976ZM159.355 35.9912C159.325 35.9912 159.293 35.9845 159.264 35.9707C159.159 35.9202 159.116 35.7942 159.166 35.69C159.383 35.2429 159.623 34.8039 159.882 34.3846C159.944 34.2854 160.073 34.2552 160.172 34.3165C160.27 34.3774 160.301 34.5068 160.24 34.6056C159.988 35.0123 159.754 35.4387 159.544 35.8728C159.508 35.9475 159.433 35.9912 159.355 35.9912ZM158.357 38.7453C158.34 38.7453 158.322 38.7432 158.305 38.7386C158.193 38.7101 158.125 38.5958 158.154 38.4832C158.276 38.0004 158.423 37.5219 158.59 37.0618C158.629 36.9525 158.751 36.8958 158.859 36.9357C158.967 36.9752 159.024 37.0954 158.984 37.2046C158.823 37.6521 158.68 38.1172 158.561 38.5869C158.536 38.6819 158.451 38.7453 158.357 38.7453ZM157.895 41.6389C157.89 41.6389 157.884 41.6385 157.879 41.6381C157.764 41.6297 157.677 41.5293 157.685 41.4137C157.721 40.915 157.778 40.4192 157.854 39.939C157.872 39.8243 157.982 39.7445 158.094 39.7642C158.209 39.7823 158.287 39.8898 158.269 40.0045C158.195 40.473 158.14 40.9575 158.104 41.444C158.096 41.5545 158.004 41.6389 157.895 41.6389Z"
      fill="#6DB8BB" />
    <path fill-rule="evenodd" clip-rule="evenodd"
      d="M112.71 19.229C112.68 19.229 112.649 19.2223 112.62 19.2084C111.8 18.8177 111.287 18.645 111.282 18.6433C111.172 18.6068 111.112 18.4875 111.149 18.3778C111.186 18.2677 111.304 18.2081 111.415 18.245C111.436 18.2522 111.955 18.4261 112.801 18.8295C112.906 18.879 112.95 19.0047 112.9 19.1093C112.864 19.1849 112.789 19.229 112.71 19.229ZM115.277 20.6718C115.238 20.6718 115.198 20.6609 115.163 20.6382C114.754 20.3727 114.335 20.1185 113.914 19.8819C113.814 19.8248 113.778 19.6967 113.835 19.5958C113.891 19.4946 114.019 19.458 114.121 19.516C114.548 19.7567 114.976 20.0156 115.392 20.2857C115.489 20.3487 115.517 20.479 115.453 20.576C115.414 20.6382 115.346 20.6718 115.277 20.6718ZM117.644 22.4193C117.597 22.4193 117.549 22.4033 117.51 22.3705C117.137 22.0588 116.751 21.7554 116.363 21.4689C116.269 21.4 116.249 21.2685 116.318 21.1752C116.387 21.0819 116.519 21.0617 116.612 21.1306C117.007 21.4226 117.4 21.731 117.779 22.0478C117.868 22.1222 117.88 22.2546 117.805 22.3436C117.764 22.3936 117.704 22.4193 117.644 22.4193ZM119.782 24.4389C119.726 24.4389 119.67 24.4167 119.629 24.3725C119.298 24.0196 118.952 23.6722 118.6 23.3398C118.516 23.26 118.512 23.1268 118.592 23.0428C118.671 22.9583 118.804 22.9545 118.889 23.0344C119.247 23.3726 119.599 23.7264 119.935 24.0856C120.015 24.17 120.01 24.3032 119.926 24.3822C119.885 24.42 119.834 24.4389 119.782 24.4389ZM121.655 26.7044C121.59 26.7044 121.526 26.6746 121.485 26.6179C121.2 26.2263 120.899 25.8389 120.592 25.4666C120.518 25.3771 120.53 25.2448 120.62 25.1708C120.71 25.0969 120.842 25.1099 120.915 25.199C121.229 25.578 121.534 25.9721 121.824 26.3708C121.893 26.4645 121.872 26.596 121.778 26.6641C121.741 26.6914 121.698 26.7044 121.655 26.7044ZM123.231 29.1833C123.157 29.1833 123.085 29.1442 123.047 29.0749C122.813 28.651 122.563 28.2296 122.304 27.8224C122.241 27.7241 122.27 27.5943 122.368 27.5321C122.466 27.4703 122.596 27.4989 122.658 27.5968C122.922 28.0115 123.177 28.4405 123.415 28.8716C123.471 28.9732 123.434 29.101 123.332 29.1568C123.3 29.1749 123.265 29.1833 123.231 29.1833ZM124.491 31.8362C124.408 31.8362 124.33 31.7866 124.296 31.7047C124.115 31.2559 123.919 30.8068 123.712 30.3711C123.662 30.266 123.707 30.1408 123.811 30.0913C123.916 30.0417 124.041 30.0862 124.091 30.1908C124.301 30.6345 124.502 31.0908 124.686 31.5475C124.73 31.6551 124.678 31.7778 124.57 31.821C124.544 31.8315 124.518 31.8362 124.491 31.8362ZM125.43 34.6188C125.338 34.6188 125.254 34.5575 125.228 34.4646C125.099 33.9949 124.955 33.526 124.802 33.071C124.764 32.9613 124.824 32.842 124.934 32.805C125.043 32.7668 125.162 32.8269 125.2 32.937C125.356 33.3995 125.501 33.8756 125.633 34.3529C125.664 34.4646 125.598 34.5806 125.486 34.6113C125.468 34.6163 125.449 34.6188 125.43 34.6188ZM126.058 37.4872C125.957 37.4872 125.868 37.4141 125.851 37.3112C125.772 36.8309 125.68 36.349 125.577 35.8793C125.552 35.7659 125.624 35.6541 125.738 35.6293C125.85 35.602 125.963 35.6764 125.988 35.7898C126.091 36.2663 126.185 36.7553 126.265 37.2427C126.284 37.357 126.207 37.4654 126.093 37.4843C126.081 37.4864 126.069 37.4872 126.058 37.4872ZM126.395 40.4048C126.286 40.4048 126.193 40.3199 126.186 40.209C126.152 39.7199 126.108 39.2309 126.053 38.7561C126.04 38.6405 126.122 38.5363 126.238 38.5233C126.356 38.509 126.457 38.5926 126.47 38.7078C126.526 39.1893 126.571 39.6846 126.605 40.1804C126.613 40.296 126.525 40.3964 126.41 40.4044C126.405 40.4044 126.4 40.4048 126.395 40.4048ZM126.474 42.7429C126.358 42.7429 126.264 42.6488 126.264 42.5329C126.263 42.2413 126.26 41.9526 126.253 41.6678C126.25 41.5518 126.342 41.4552 126.458 41.4526C126.588 41.4606 126.67 41.5413 126.673 41.6572C126.68 41.9459 126.683 42.2375 126.684 42.5324C126.684 42.6484 126.59 42.7425 126.474 42.7429H126.474Z"
      fill="#D2C1AD" />
    <path fill-rule="evenodd" clip-rule="evenodd"
      d="M66.0418 57.5883H64.5713C64.4553 57.5883 64.3612 57.4942 64.3612 57.3782C64.3612 57.2623 64.4553 57.1682 64.5713 57.1682H66.0418C66.1578 57.1682 66.2519 57.2623 66.2519 57.3782C66.2519 57.4942 66.1578 57.5883 66.0418 57.5883ZM68.9829 57.5883H67.5124C67.3964 57.5883 67.3023 57.4942 67.3023 57.3782C67.3023 57.2623 67.3964 57.1682 67.5124 57.1682H68.9829C69.0989 57.1682 69.193 57.2623 69.193 57.3782C69.193 57.4942 69.0989 57.5883 68.9829 57.5883ZM71.924 57.5883H70.4534C70.3375 57.5883 70.2434 57.4942 70.2434 57.3782C70.2434 57.2623 70.3375 57.1682 70.4534 57.1682H71.924C72.0399 57.1682 72.134 57.2623 72.134 57.3782C72.134 57.4942 72.0399 57.5883 71.924 57.5883ZM74.865 57.5883H73.3945C73.2785 57.5883 73.1844 57.4942 73.1844 57.3782C73.1844 57.2623 73.2785 57.1682 73.3945 57.1682H74.865C74.981 57.1682 75.0751 57.2623 75.0751 57.3782C75.0751 57.4942 74.981 57.5883 74.865 57.5883ZM77.8061 57.5883H76.3356C76.2196 57.5883 76.1255 57.4942 76.1255 57.3782C76.1255 57.2623 76.2196 57.1682 76.3356 57.1682H77.8061C77.9221 57.1682 78.0162 57.2623 78.0162 57.3782C78.0162 57.4942 77.9221 57.5883 77.8061 57.5883ZM80.7472 57.5883H79.2767C79.1607 57.5883 79.0666 57.4942 79.0666 57.3782C79.0666 57.2623 79.1607 57.1682 79.2767 57.1682H80.7472C80.8632 57.1682 80.9573 57.2623 80.9573 57.3782C80.9573 57.4942 80.8632 57.5883 80.7472 57.5883ZM83.6883 57.5883H82.2177C82.1018 57.5883 82.0077 57.4942 82.0077 57.3782C82.0077 57.2623 82.1018 57.1682 82.2177 57.1682H83.6883C83.8042 57.1682 83.8984 57.2623 83.8984 57.3782C83.8984 57.4942 83.8042 57.5883 83.6883 57.5883ZM86.6294 57.5883H85.1588C85.0429 57.5883 84.9487 57.4942 84.9487 57.3782C84.9487 57.2623 85.0429 57.1682 85.1588 57.1682H86.6294C86.7453 57.1682 86.8394 57.2623 86.8394 57.3782C86.8394 57.4942 86.7453 57.5883 86.6294 57.5883ZM89.5704 57.5883H88.0999C87.9839 57.5883 87.8898 57.4942 87.8898 57.3782C87.8898 57.2623 87.9839 57.1682 88.0999 57.1682H89.5704C89.6864 57.1682 89.7805 57.2623 89.7805 57.3782C89.7805 57.4942 89.6864 57.5883 89.5704 57.5883ZM92.5115 57.5883H91.041C90.925 57.5883 90.8309 57.4942 90.8309 57.3782C90.8309 57.2623 90.925 57.1682 91.041 57.1682H92.5115C92.6275 57.1682 92.7216 57.2623 92.7216 57.3782C92.7216 57.4942 92.6275 57.5883 92.5115 57.5883ZM95.4526 57.5883H93.982C93.8661 57.5883 93.772 57.4942 93.772 57.3782C93.772 57.2623 93.8661 57.1682 93.982 57.1682H95.4526C95.5685 57.1682 95.6627 57.2623 95.6627 57.3782C95.6627 57.4942 95.5685 57.5883 95.4526 57.5883ZM97.063 57.5883H96.9231C96.8072 57.5883 96.713 57.4942 96.713 57.3782C96.713 57.2623 96.8072 57.1682 96.9231 57.1682H97.063C97.179 57.1682 97.2731 57.2623 97.2731 57.3782C97.2731 57.4942 97.179 57.5883 97.063 57.5883Z"
      fill="#6DB8BB" />
    <path fill-rule="evenodd" clip-rule="evenodd"
      d="M144.842 129.447H186.549C187.215 129.447 187.759 128.903 187.759 128.237V90.63C187.759 89.9644 187.215 89.4199 186.549 89.4199H144.842C144.176 89.4199 143.631 89.9644 143.631 90.63V128.237C143.631 128.903 144.176 129.447 144.842 129.447Z"
      fill="#191D2F" />
    <mask id="mask56" mask-type="alpha" maskUnits="userSpaceOnUse" x="143" y="89" width="45" height="41">
      <path
        d="M144.526 89.4196C143.86 89.4196 143.316 89.9641 143.316 90.63V128.237C143.316 128.902 143.86 129.447 144.526 129.447H186.234C186.9 129.447 187.444 128.902 187.444 128.237V90.63C187.444 89.9641 186.9 89.4196 186.234 89.4196H144.526Z"
        fill="white" />
    </mask>
    <g mask="url(#mask56)">
      <path fill-rule="evenodd" clip-rule="evenodd"
        d="M168.899 109.989C169.374 109.734 171.836 109.07 175.16 109.836L174.335 111.227L169.428 111.38L168.899 109.989Z"
        fill="#C9B8A4" />
    </g>
    <mask id="mask57" mask-type="alpha" maskUnits="userSpaceOnUse" x="143" y="89" width="45" height="41">
      <path
        d="M144.526 89.4196C143.86 89.4196 143.316 89.9641 143.316 90.63V128.237C143.316 128.902 143.86 129.447 144.526 129.447H186.234C186.9 129.447 187.444 128.902 187.444 128.237V90.63C187.444 89.9641 186.9 89.4196 186.234 89.4196"
        fill="white" />
    </mask>
    <g mask="url(#mask57)">
      <path fill-rule="evenodd" clip-rule="evenodd"
        d="M172.33 110.931C174.884 110.914 177.024 111.055 180.704 113.577C182.307 114.675 180.379 124.596 180.349 128.274C180.318 131.952 179.791 137.413 179.791 137.413L164.577 137.54C164.577 137.54 164.775 131.99 165.138 127.096C165.51 122.073 165.243 113.713 166.626 112.77C169.131 111.063 172.33 110.931 172.33 110.931Z"
        fill="white" />
      <path fill-rule="evenodd" clip-rule="evenodd"
        d="M165.89 98.7804C165.858 98.969 165.485 101.09 165.485 101.09L163.502 101.756L165.381 102.789C165.381 102.789 164.603 105.675 166.232 106.37C167.861 107.065 169.59 106.478 169.853 107.287C170.66 109.755 169.428 111.38 169.428 111.38L174.334 111.227C174.334 111.227 174.54 108.901 174.654 107.324C174.731 106.261 174.56 105.054 175.587 103.798C176.58 102.584 178.489 100.484 175.516 96.9838C172.673 93.6368 166.477 95.2994 165.89 98.7804Z"
        fill="#BE8035" />
      <path fill-rule="evenodd" clip-rule="evenodd"
        d="M166.381 104.638C166.221 104.638 166.046 104.6 165.86 104.506C165.749 104.451 165.705 104.316 165.761 104.205C165.817 104.095 165.952 104.051 166.062 104.106C166.53 104.342 166.822 104.005 166.854 103.966C166.932 103.87 167.072 103.854 167.168 103.931C167.264 104.008 167.281 104.147 167.205 104.244C167.075 104.41 166.775 104.638 166.381 104.638Z"
        fill="black" />
      <path fill-rule="evenodd" clip-rule="evenodd"
        d="M167.568 101.256L167.664 101.253C167.773 101.25 167.86 101.16 167.857 101.052L167.838 100.462C167.835 100.355 167.743 100.27 167.634 100.273L167.539 100.276C167.43 100.279 167.343 100.369 167.346 100.476L167.365 101.067C167.367 101.174 167.459 101.259 167.568 101.256Z"
        fill="#191D2F" />
      <path fill-rule="evenodd" clip-rule="evenodd"
        d="M168.902 94.5579C167.922 94.7626 167.739 95.9344 168.141 95.9583C168.544 95.9818 169.684 96.2318 170.894 96.3738C173.288 96.6545 172.526 97.9141 171.988 98.6754C171.499 99.3666 172.544 101.108 172.474 101.418C172.056 103.268 172.946 102.501 172.946 102.501C172.946 102.501 172.854 100.701 173.512 100.717C174.275 100.736 174.948 101.064 174.682 101.92C174.416 102.777 173.696 103.151 173.696 103.151C173.696 103.151 174.588 105.169 174.808 105.198C175.028 105.227 176.248 103.393 176.598 102.814C176.946 102.238 177.705 100.455 177.442 99.0133C177.289 98.1755 176.93 97.1776 176.159 96.5054C175.296 95.7524 174.001 95.2243 172.972 95.0062C171.942 94.7886 169.413 94.4512 168.902 94.5579Z"
        fill="#D7D7D7" />
      <path fill-rule="evenodd" clip-rule="evenodd"
        d="M169.794 111.202C169.794 111.202 170.053 112.43 171.445 112.533C171.558 112.542 171.668 112.543 171.775 112.538C173.288 112.462 174.121 111.092 174.121 111.092L169.794 111.202Z"
        fill="#BE8035" />
      <path fill-rule="evenodd" clip-rule="evenodd"
        d="M170.058 110.6L170.45 112.212L169.913 111.964L169.375 111.717L170.058 110.6Z" fill="#C9B8A4" />
    </g>
    <mask id="mask58" mask-type="alpha" maskUnits="userSpaceOnUse" x="143" y="89" width="45" height="41">
      <path
        d="M144.526 89.4196C143.86 89.4196 143.316 89.9641 143.316 90.63V128.237C143.316 128.902 143.86 129.447 144.526 129.447H186.234C186.9 129.447 187.444 128.902 187.444 128.237V90.63C187.444 89.9641 186.9 89.4196 186.234 89.4196H144.526Z"
        fill="white" />
    </mask>
    <g mask="url(#mask58)">
      <path fill-rule="evenodd" clip-rule="evenodd"
        d="M168.899 109.989L170.058 110.6L169.334 112.75L168.765 111.215L168.899 109.989Z" fill="#C9B8A4" />
    </g>
    <mask id="mask59" mask-type="alpha" maskUnits="userSpaceOnUse" x="143" y="89" width="45" height="41">
      <path
        d="M144.526 89.4196C143.86 89.4196 143.316 89.9641 143.316 90.63V128.237C143.316 128.902 143.86 129.447 144.526 129.447H186.234C186.9 129.447 187.444 128.902 187.444 128.237V90.63C187.444 89.9641 186.9 89.4196 186.234 89.4196H144.526Z"
        fill="white" />
    </mask>
    <g mask="url(#mask59)">
      <path fill-rule="evenodd" clip-rule="evenodd"
        d="M171.742 111.292L171.339 112.533L171.928 112.553L172.641 112.419L171.742 111.292Z" fill="#C9B8A4" />
    </g>
    <mask id="mask60" mask-type="alpha" maskUnits="userSpaceOnUse" x="143" y="89" width="45" height="41">
      <path
        d="M144.526 89.4196C143.86 89.4196 143.316 89.9641 143.316 90.63V128.237C143.316 128.902 143.86 129.447 144.526 129.447H186.234C186.9 129.447 187.444 128.902 187.444 128.237V90.63C187.444 89.9641 186.9 89.4196 186.234 89.4196H144.526Z"
        fill="white" />
    </mask>
    <g mask="url(#mask60)">
      <path fill-rule="evenodd" clip-rule="evenodd"
        d="M171.742 111.292L172.559 113.329L175.212 111.11L175.159 109.838L171.742 111.292Z" fill="#C9B8A4" />
      <mask id="mask61" mask-type="alpha" maskUnits="userSpaceOnUse" x="143" y="89" width="45" height="41">
        <path
          d="M144.526 89.4196C143.86 89.4196 143.316 89.9641 143.316 90.63V128.237C143.316 128.902 143.86 129.447 144.526 129.447H186.234C186.9 129.447 187.444 128.902 187.444 128.237V90.63C187.444 89.9641 186.9 89.4196 186.234 89.4196"
          fill="white" />
      </mask>
      <g mask="url(#mask61)">
        <path fill-rule="evenodd" clip-rule="evenodd"
          d="M164.596 101.444C164.59 101.444 164.584 101.443 164.577 101.442C164.517 101.432 164.477 101.374 164.488 101.314L164.797 99.575C164.808 99.5153 164.862 99.4762 164.925 99.4855C164.985 99.4964 165.025 99.5535 165.014 99.6136L164.705 101.353C164.695 101.406 164.649 101.444 164.596 101.444Z"
          fill="#1D888C" />
      </g>
      <mask id="mask62" mask-type="alpha" maskUnits="userSpaceOnUse" x="143" y="89" width="45" height="41">
        <path
          d="M144.526 89.4196C143.86 89.4196 143.316 89.9641 143.316 90.63V128.237C143.316 128.902 143.86 129.447 144.526 129.447H186.234C186.9 129.447 187.444 128.902 187.444 128.237V90.63C187.444 89.9641 186.9 89.4196 186.234 89.4196"
          fill="white" />
      </mask>
      <g mask="url(#mask62)">
        <path fill-rule="evenodd" clip-rule="evenodd"
          d="M172.877 101.535C172.873 101.535 172.869 101.535 172.864 101.535L164.742 100.543C164.681 100.536 164.639 100.481 164.645 100.42C164.653 100.36 164.702 100.316 164.768 100.325L172.891 101.316C172.951 101.323 172.994 101.378 172.987 101.439C172.98 101.494 172.932 101.535 172.877 101.535Z"
          fill="#1D888C" />
      </g>
      <mask id="mask63" mask-type="alpha" maskUnits="userSpaceOnUse" x="143" y="89" width="45" height="41">
        <path
          d="M144.526 89.4196C143.86 89.4196 143.316 89.9641 143.316 90.63V128.237C143.316 128.902 143.86 129.447 144.526 129.447H186.234C186.9 129.447 187.444 128.902 187.444 128.237V90.63C187.444 89.9641 186.9 89.4196 186.234 89.4196"
          fill="white" />
      </mask>
      <g mask="url(#mask63)">
        <path fill-rule="evenodd" clip-rule="evenodd"
          d="M152.115 130.055L152.324 129.979C152.477 129.923 152.557 129.752 152.5 129.599L147.319 115.404C147.263 115.251 147.092 115.172 146.939 115.227L146.73 115.304C146.577 115.36 146.498 115.531 146.554 115.684L151.735 129.878C151.791 130.031 151.962 130.11 152.115 130.055Z"
          fill="white" />
      </g>
      <mask id="mask64" mask-type="alpha" maskUnits="userSpaceOnUse" x="143" y="89" width="45" height="41">
        <path
          d="M144.526 89.4196C143.86 89.4196 143.316 89.9641 143.316 90.63V128.237C143.316 128.902 143.86 129.447 144.526 129.447H186.234C186.9 129.447 187.444 128.902 187.444 128.237V90.63C187.444 89.9641 186.9 89.4196 186.234 89.4196"
          fill="white" />
      </mask>
      <g mask="url(#mask64)">
        <path fill-rule="evenodd" clip-rule="evenodd"
          d="M145.194 129.797C145.155 129.797 145.117 129.789 145.08 129.772C144.946 129.71 144.889 129.55 144.952 129.416L148.804 121.194C148.866 121.06 149.025 121.003 149.159 121.066C149.293 121.128 149.351 121.288 149.288 121.421L145.436 129.643C145.391 129.741 145.294 129.797 145.194 129.797Z"
          fill="white" />
      </g>
      <mask id="mask65" mask-type="alpha" maskUnits="userSpaceOnUse" x="143" y="89" width="45" height="41">
        <path
          d="M144.526 89.4196C143.86 89.4196 143.316 89.9641 143.316 90.63V128.237C143.316 128.902 143.86 129.447 144.526 129.447H186.234C186.9 129.447 187.444 128.902 187.444 128.237V90.63C187.444 89.9641 186.9 89.4196 186.234 89.4196"
          fill="white" />
      </mask>
      <g mask="url(#mask65)">
        <path fill-rule="evenodd" clip-rule="evenodd"
          d="M154.037 120.047C154.037 120.047 151.997 117.829 151.811 117.716C151.625 117.603 149.996 116.926 149.764 116.814C149.531 116.701 148.135 116.757 148.135 116.757C148.135 116.757 148.042 117.152 148.414 117.265C148.786 117.377 149.438 117.434 149.81 117.716"
          fill="#BE8035" />
      </g>
      <mask id="mask66" mask-type="alpha" maskUnits="userSpaceOnUse" x="143" y="89" width="45" height="41">
        <path
          d="M144.526 89.4196C143.86 89.4196 143.316 89.9641 143.316 90.63V128.237C143.316 128.902 143.86 129.447 144.526 129.447H186.234C186.9 129.447 187.444 128.902 187.444 128.237V90.63C187.444 89.9641 186.9 89.4196 186.234 89.4196H144.526Z"
          fill="white" />
      </mask>
      <g mask="url(#mask66)">
        <path fill-rule="evenodd" clip-rule="evenodd"
          d="M149.797 117.566C149.797 117.566 149.6 119.299 149.64 119.654C149.679 120.008 150.861 120.993 151.137 121.072C151.413 121.151 152.713 121.269 152.713 121.269L153.422 121.702L154.368 120.442L151.924 118.275L149.797 117.566Z"
          fill="#BE8035" />
      </g>
      <mask id="mask67" mask-type="alpha" maskUnits="userSpaceOnUse" x="143" y="89" width="45" height="41">
        <path
          d="M144.526 89.4196C143.86 89.4196 143.316 89.9641 143.316 90.63V128.237C143.316 128.902 143.86 129.447 144.526 129.447H186.234C186.9 129.447 187.444 128.902 187.444 128.237V90.63C187.444 89.9641 186.9 89.4196 186.234 89.4196H144.526Z"
          fill="white" />
      </mask>
      <g mask="url(#mask67)">
        <path fill-rule="evenodd" clip-rule="evenodd"
          d="M179.711 112.957C179.711 112.957 182.13 114.073 182.688 116.43C183.036 117.899 186.657 131.127 186.471 131.499C186.285 131.871 183.929 133.794 181.882 133.856C179.835 133.918 171.401 132.368 171.401 132.368L171.96 128.585C171.96 128.585 179.773 128.709 180.145 127.964C180.518 127.22 178.223 121.329 178.223 121.329L179.711 112.957Z"
          fill="white" />
      </g>
      <mask id="mask68" mask-type="alpha" maskUnits="userSpaceOnUse" x="143" y="89" width="45" height="41">
        <path
          d="M144.526 89.4196C143.86 89.4196 143.316 89.9641 143.316 90.63V128.237C143.316 128.902 143.86 129.447 144.526 129.447H186.234C186.9 129.447 187.444 128.902 187.444 128.237V90.63C187.444 89.9641 186.9 89.4196 186.234 89.4196H144.526Z"
          fill="white" />
      </mask>
      <g mask="url(#mask68)">
        <path fill-rule="evenodd" clip-rule="evenodd"
          d="M166.316 113.267C166.316 113.267 161.108 122.895 160.117 124.062C159.126 125.23 154.093 119.776 153.928 119.625C153.762 119.475 152.295 121.341 152.295 121.341C152.295 121.341 156.829 127.911 158.692 129.184C160.27 130.262 160.681 130.419 161.271 130.257C161.86 130.095 165.437 126.746 165.437 126.746L168.109 122.759L166.316 113.267Z"
          fill="white" />
      </g>
      <mask id="mask69" mask-type="alpha" maskUnits="userSpaceOnUse" x="143" y="89" width="45" height="41">
        <path
          d="M144.526 89.4196C143.86 89.4196 143.316 89.9641 143.316 90.63V128.237C143.316 128.902 143.86 129.447 144.526 129.447H186.234C186.9 129.447 187.444 128.902 187.444 128.237V90.63C187.444 89.9641 186.9 89.4196 186.234 89.4196"
          fill="white" />
      </mask>
      <g mask="url(#mask69)">
        <path fill-rule="evenodd" clip-rule="evenodd"
          d="M169.519 106.917C169.519 106.917 169.737 107.021 169.794 107.107C169.851 107.192 169.965 107.486 170.012 107.704C170.012 107.704 172.922 106.519 173.31 104.974C173.31 104.974 171.273 106.898 169.519 106.917Z"
          fill="#B57114" />
      </g>
      <mask id="mask70" mask-type="alpha" maskUnits="userSpaceOnUse" x="143" y="89" width="45" height="41">
        <path
          d="M144.526 89.4196C143.86 89.4196 143.316 89.9641 143.316 90.63V128.237C143.316 128.902 143.86 129.447 144.526 129.447H186.234C186.9 129.447 187.444 128.902 187.444 128.237V90.63C187.444 89.9641 186.9 89.4196 186.234 89.4196H144.526Z"
          fill="white" />
      </mask>
      <g mask="url(#mask70)">
        <path fill-rule="evenodd" clip-rule="evenodd"
          d="M169.794 126.91C169.633 126.91 168.139 126.104 167.82 125.98C167.499 125.856 165.987 126.373 165.721 126.497C165.454 126.621 165.365 128.398 165.365 128.398C165.365 128.398 165.668 129.349 166.254 129.597C166.842 129.846 169.367 129.577 169.954 129.267C170.54 128.957 171.732 129.101 171.732 129.101L170.985 126.621L169.794 126.91Z"
          fill="#BE8035" />
      </g>
    </g>
    <path fill-rule="evenodd" clip-rule="evenodd"
      d="M99.2876 144H40.4044C39.4645 144 38.6956 143.231 38.6956 142.292V89.1981C38.6956 88.2583 39.4645 87.4894 40.4044 87.4894H99.2876C100.227 87.4894 100.996 88.2583 100.996 89.1981V142.292C100.996 143.231 100.227 144 99.2876 144Z"
      fill="#EAECED" />
    <path fill-rule="evenodd" clip-rule="evenodd"
      d="M103.761 139.325H45.4354C44.5044 139.325 43.7426 138.564 43.7426 137.633V85.042C43.7426 84.1113 44.5044 83.3496 45.4354 83.3496H103.761C104.692 83.3496 105.454 84.1113 105.454 85.042V137.633C105.454 138.564 104.692 139.325 103.761 139.325Z"
      fill="#FFC900" />
    <mask id="mask71" mask-type="alpha" maskUnits="userSpaceOnUse" x="95" y="128" width="6" height="12">
      <path d="M95.7103 128.252H100.103V139.381H95.7103V128.252Z" fill="white" />
    </mask>
    <g mask="url(#mask71)">
      <path fill-rule="evenodd" clip-rule="evenodd"
        d="M95.8899 139.305L96.2966 139.439C96.4328 139.483 96.5815 139.409 96.626 139.272L100.091 128.728C100.136 128.591 100.061 128.443 99.9243 128.398L99.5175 128.265C99.3814 128.22 99.2331 128.295 99.1881 128.431L95.7236 138.976C95.6786 139.112 95.7534 139.26 95.8899 139.305Z"
        fill="#191D2F" />
    </g>
    <mask id="mask72" mask-type="alpha" maskUnits="userSpaceOnUse" x="85" y="138" width="12" height="2">
      <path d="M85.1615 138.557H96.6093V139.38H85.1615V138.557Z" fill="white" />
    </mask>
    <g mask="url(#mask72)">
      <path fill-rule="evenodd" clip-rule="evenodd"
        d="M96.2264 140.176H85.5444C85.3339 140.176 85.1616 140.003 85.1616 139.793V138.94C85.1616 138.729 85.3339 138.557 85.5444 138.557H96.2264C96.4369 138.557 96.6091 138.729 96.6091 138.94V139.793C96.6091 140.003 96.4369 140.176 96.2264 140.176Z"
        fill="#191D2F" />
    </g>
    <path fill-rule="evenodd" clip-rule="evenodd"
      d="M67.6312 121.083C67.8459 120.997 70.5492 120.499 70.5492 120.499C70.5492 120.499 70.6131 128.35 75.3574 131.93C80.1018 135.51 85.0731 135.592 86.1293 135.551C87.3953 135.502 88.0389 135.246 88.8746 136.198C89.7103 137.149 91.167 139.138 91.167 139.138C91.167 139.138 90.2229 139.681 89.4721 139.358C88.7217 139.036 87.8175 137.43 86.6424 137.668C84.9546 138.01 81.6413 138.332 77.404 137.788C73.4718 137.284 66.5393 133.831 64.7057 122.374L64.6418 121.695L67.6312 121.083Z"
      fill="#A96400" />
    <path fill-rule="evenodd" clip-rule="evenodd"
      d="M73.2871 98.4839C73.4425 98.7074 74.8723 101.549 74.8723 101.549L77.1764 101.493L76.1164 103.303C76.1164 103.303 77.4689 106.906 75.6349 108.534C73.8013 110.162 71.1796 110.492 70.5187 111.502C69.2376 113.461 69.7036 116.951 69.7036 116.951L66.4264 115.297C66.4264 115.297 68.0528 111.048 67.8671 110.646C67.3591 109.547 65.3684 110.797 63.474 109.528C61.6425 108.301 58.5632 105.7 60.798 99.649C63.0328 93.5979 70.6086 94.6265 73.2871 98.4839Z"
      fill="#BE8035" />
    <path fill-rule="evenodd" clip-rule="evenodd"
      d="M77.1763 101.444L74.8722 101.499C74.8722 101.499 73.4424 98.6581 73.287 98.4346C70.9488 95.0675 64.8801 93.857 61.8886 97.6283C65.0738 95.1078 69.9291 96.5834 72.0332 99.6131C72.1883 99.8366 73.8865 102.485 73.8865 102.485L75.9259 102.324"
      fill="#C38747" />
    <path fill-rule="evenodd" clip-rule="evenodd"
      d="M67.9465 101.122L74.2156 99.0098C74.2156 99.0098 73.5131 95.2474 70.2817 94.7524C67.1356 94.2709 62.3517 94.9276 60.5892 96.8233C58.8266 98.7182 56.9133 102.077 58.3607 106.031C59.3308 108.683 61.4467 110.081 63.8164 110.178L65.3667 110.3L67.9465 101.122Z"
      fill="#C9B8A4" />
    <path fill-rule="evenodd" clip-rule="evenodd"
      d="M67.4071 104.514C67.2458 104.616 65.2189 102.897 64.3673 103.713C63.5156 104.529 64.1686 105.922 65.0744 106.305C65.9803 106.689 67.1664 106.298 67.1664 106.298L67.4071 104.514Z"
      fill="#BE8035" />
    <path fill-rule="evenodd" clip-rule="evenodd"
      d="M60.5715 97.6576C60.1026 97.8605 57.0854 98.7563 56.246 96.3538C55.4065 93.9518 57.0817 91.9393 59.0862 91.8149C61.0912 91.6906 62.339 94.4455 62.1143 95.8345L60.5715 97.6576Z"
      fill="#C9B8A4" />
    <path fill-rule="evenodd" clip-rule="evenodd"
      d="M72.7325 102.711L72.8414 102.681C72.9699 102.646 73.0468 102.512 73.0115 102.383L72.8153 101.663C72.78 101.534 72.646 101.458 72.517 101.493L72.4086 101.522C72.2796 101.557 72.2031 101.692 72.238 101.82L72.4346 102.54C72.4695 102.669 72.6036 102.746 72.7325 102.711Z"
      fill="#191D2F" />
    <path fill-rule="evenodd" clip-rule="evenodd"
      d="M74.6513 105.937C74.2539 105.937 73.9156 105.765 73.7345 105.615C73.6089 105.51 73.5921 105.324 73.6967 105.198C73.8009 105.073 73.9858 105.056 74.1114 105.159C74.1686 105.204 74.674 105.586 75.2286 105.11C75.3526 105.004 75.5391 105.018 75.6454 105.142C75.7517 105.266 75.7374 105.453 75.6135 105.559C75.2866 105.839 74.9517 105.937 74.6513 105.937Z"
      fill="#C22000" />
    <mask id="mask73" mask-type="alpha" maskUnits="userSpaceOnUse" x="56" y="114" width="18" height="26">
      <path d="M56.2476 114.96H73.9621V139.38H56.2476V114.96Z" fill="white" />
    </mask>
    <g mask="url(#mask73)">
      <path fill-rule="evenodd" clip-rule="evenodd"
        d="M66.012 114.96L70.3685 116.812L73.9625 140.88L56.248 144.647C56.248 144.647 56.6795 143.193 57.1085 141.977C59.2597 135.871 59.0735 122.257 63.1797 117.6L66.012 114.96Z"
        fill="#191D2F" />
    </g>
    <path fill-rule="evenodd" clip-rule="evenodd"
      d="M64.4044 126.839C64.4044 126.839 65.7858 133.844 68.5773 136.701C70.6193 138.791 73.6561 138.875 73.6561 138.875L73.4246 137.401L64.4342 126.82L64.4044 126.839Z"
      fill="#00050D" />
    <path fill-rule="evenodd" clip-rule="evenodd"
      d="M67.1532 125.419C67.3372 125.279 69.8119 124.082 69.8119 124.082C69.8119 124.082 71.9564 131.635 77.4806 133.828C83.0043 136.021 87.8193 134.781 88.8273 134.461C90.0344 134.079 90.5869 133.66 91.6452 134.356C92.7036 135.052 94.6359 136.584 94.6359 136.584C94.6359 136.584 93.8691 137.358 93.0603 137.245C92.2511 137.134 90.9532 135.826 89.8831 136.367C88.3466 137.144 85.2375 138.333 81.0078 138.933C77.0827 139.49 69.4821 138 64.6751 127.44L64.4331 126.802L67.1532 125.419Z"
      fill="#BE8035" />
    <path fill-rule="evenodd" clip-rule="evenodd"
      d="M57.3585 93.5217C59.3286 93.3995 60.5668 96.0569 60.3958 97.4674C62.631 96.4031 66.0935 96.0834 68.5539 96.4603C70.6526 96.7817 71.6841 98.4812 72.1496 99.6329L74.2953 98.9102C74.2953 98.9102 73.5924 95.1477 70.361 94.6528C67.9006 94.2759 64.4385 94.5961 62.2029 95.6599C62.3739 94.2499 61.1357 91.5924 59.1656 91.7146C57.9266 91.7911 56.8144 92.5902 56.343 93.7558C56.6636 93.6251 57.0056 93.5436 57.3585 93.5217Z"
      fill="#EDEDED" />
  </g>
  <defs>
    <clipPath id="clip0">
      <rect width="259" height="144" fill="white" />
    </clipPath>
  </defs>
</svg>
