<svg width="259" height="144" viewBox="0 0 259 144" fill="none" xmlns="http://www.w3.org/2000/svg">
<g clip-path="url(#clip0)">
<rect width="259" height="144" fill="#DDDDDD"/>
<path d="M50.9549 85.1049C50.9549 85.1049 60.7079 79.477 60.7739 79.424H60.7789C60.9444 79.2599 61.0716 79.0614 61.1516 78.8426C61.2317 78.6238 61.2625 78.39 61.2419 78.158V77.2249C61.2249 76.5442 61.0401 75.8782 60.7039 75.2859L49.7869 81.5859C49.5612 81.7444 49.3689 81.9458 49.2209 82.1787C49.073 82.4115 48.9724 82.6712 48.9249 82.9429L50.9549 85.1049Z" fill="#BCBEC0"/>
<path d="M49.7879 81.585L60.7049 75.285C60.4452 74.7809 60.0572 74.3542 59.5799 74.048L53.1569 70.339C52.9931 70.2202 52.7981 70.1519 52.596 70.1423C52.3938 70.1327 52.1933 70.1823 52.0189 70.285L42.3059 75.885L48.9249 82.942C48.9726 82.6702 49.0733 82.4104 49.2214 82.1776C49.3695 81.9447 49.562 81.7434 49.7879 81.585V81.585Z" fill="#DDDDDD"/>
<path d="M49.832 85.039L43.408 81.331C42.9018 80.9682 42.4878 80.4919 42.1992 79.9401C41.9105 79.3884 41.7553 78.7766 41.746 78.154V77.221C41.746 75.997 42.49 75.434 43.408 75.964L49.832 79.673C50.3381 80.0357 50.7521 80.5121 51.0408 81.0638C51.3294 81.6156 51.4846 82.2273 51.494 82.85V83.783C51.494 85.007 50.75 85.57 49.832 85.039Z" fill="#D1D3D4"/>
<path d="M54.027 82.166L53.7 84.086L53.385 84.286L53.901 84.895L54.001 85.017L58.942 82.164C59.0157 82.1047 59.0732 82.0278 59.1093 81.9404C59.1453 81.853 59.1586 81.7579 59.148 81.664V76.849C59.144 76.6449 59.0984 76.4438 59.014 76.258L53.736 79.305L54.027 82.166Z" fill="#FAC262"/>
<path d="M53.7369 79.305L59.0149 76.258C58.9166 76.0129 58.7461 75.8037 58.5259 75.658L49.3999 70.389C49.3398 70.3456 49.2687 70.3201 49.1947 70.3155C49.1207 70.3109 49.0469 70.3273 48.9819 70.363L44.0139 73.235L44.6909 74.035L44.9749 73.943L53.7009 78.943L53.7369 79.305Z" fill="#FED08A"/>
<path d="M53.5899 78.5079L44.464 73.2389C44.12 73.0389 43.8409 73.2509 43.8409 73.7099V75.0039L44.679 74.5209C44.8532 74.4183 45.0535 74.3688 45.2555 74.3784C45.4575 74.388 45.6522 74.4563 45.8159 74.5749L52.239 78.2839C52.7453 78.6465 53.1596 79.1228 53.4484 79.6746C53.7373 80.2264 53.8926 80.8382 53.9019 81.4609V82.3939C53.9224 82.6261 53.8914 82.8599 53.8112 83.0787C53.731 83.2975 53.6036 83.496 53.438 83.6599V83.6599H53.433C53.42 83.6709 53.0119 83.9079 52.3709 84.2799L53.5899 84.9799C53.9339 85.1799 54.213 84.9679 54.213 84.5089V79.6929C54.2085 79.4605 54.1499 79.2324 54.0417 79.0267C53.9336 78.821 53.7789 78.6433 53.5899 78.5079V78.5079Z" fill="#F5B335"/>
<path d="M55.1589 82.417L55.183 82.431C55.2122 82.4516 55.243 82.4699 55.2749 82.486L55.8959 82.856L56.1089 82.478C56.1986 82.4433 56.2856 82.4019 56.369 82.354C56.8399 82.0597 57.2284 81.6506 57.498 81.165L55.2279 79.854C54.9423 80.3302 54.7823 80.8711 54.7629 81.426C54.7465 81.6107 54.7738 81.7966 54.8426 81.9688C54.9114 82.1409 55.0198 82.2945 55.1589 82.417V82.417Z" fill="#7D858C"/>
<path d="M57.497 81.168C57.7899 80.6867 57.9542 80.1381 57.974 79.575C57.9746 79.4576 57.9639 79.3404 57.942 79.225L58.124 78.902L57.536 78.555C57.3526 78.4599 57.1463 78.4181 56.9403 78.4344C56.7344 78.4507 56.5372 78.5243 56.371 78.647C55.8934 78.9456 55.5005 79.3619 55.23 79.856L57.497 81.168Z" fill="#A6ACB1"/>
<path d="M58.1442 81.5354C58.7713 80.4492 58.7714 79.2752 58.1444 78.9131C57.5174 78.5511 56.5006 79.1381 55.8735 80.2243C55.2463 81.3105 55.2462 82.4845 55.8733 82.8465C56.5003 83.2086 57.517 82.6215 58.1442 81.5354Z" fill="#323E48"/>
<path d="M57.7972 81.3352C58.2324 80.5814 58.2323 79.7666 57.7971 79.5153C57.3619 79.264 56.6562 79.6714 56.221 80.4251C55.7858 81.1789 55.7858 81.9937 56.2211 82.245C56.6563 82.4963 57.3619 82.0889 57.7972 81.3352Z" fill="#566069"/>
<path d="M57.9359 80.132C57.9452 80.0105 57.9281 79.8884 57.8858 79.7742C57.8435 79.6599 57.777 79.5561 57.6909 79.4699C57.5751 79.4419 57.4547 79.4384 57.3375 79.4596C57.2202 79.4807 57.1086 79.5262 57.0099 79.5929C56.6854 79.8045 56.4152 80.0896 56.2215 80.4251C56.0278 80.7606 55.9159 81.1371 55.8949 81.5239C55.8856 81.6453 55.9026 81.7673 55.9447 81.8816C55.9868 81.9958 56.0531 82.0996 56.1389 82.1859C56.2549 82.214 56.3755 82.2176 56.4929 82.1964C56.6104 82.1753 56.7221 82.1298 56.821 82.0629C57.1455 81.8514 57.4156 81.5663 57.6094 81.2308C57.8031 80.8953 57.915 80.5188 57.9359 80.132V80.132Z" fill="#6BCBB8"/>
<path opacity="0.3" d="M57.473 80.3979C57.4607 80.6241 57.3953 80.8443 57.282 81.0405C57.1688 81.2366 57.0108 81.4033 56.821 81.527C56.461 81.735 56.1689 81.566 56.1689 81.151C56.1812 80.9248 56.2467 80.7047 56.36 80.5085C56.4733 80.3123 56.6312 80.1457 56.821 80.022C57.181 79.814 57.473 79.9829 57.473 80.3979Z" fill="#C6EAE2"/>
<path opacity="0.3" d="M56.825 80.462C56.8179 80.5914 56.7804 80.7173 56.7156 80.8296C56.6508 80.9418 56.5605 81.0372 56.452 81.108C56.246 81.227 56.079 81.131 56.079 80.893C56.086 80.7636 56.1235 80.6376 56.1883 80.5254C56.2531 80.4132 56.3434 80.3178 56.452 80.247C56.658 80.127 56.825 80.224 56.825 80.462Z" fill="#C6EAE2"/>
<path d="M86.703 57.004L3.17799 105.227C1.42999 106.236 0 105.155 0 102.827V22.674C0.0203124 21.4843 0.318204 20.3158 0.869949 19.2617C1.42169 18.2075 2.21204 17.2967 3.17799 16.602L86.703 -31.626C88.451 -32.635 89.881 -31.554 89.881 -29.226V50.924C89.8619 52.115 89.5646 53.2851 89.0128 54.3408C88.461 55.3965 87.67 56.3085 86.703 57.004V57.004Z" fill="#323E48"/>
<path d="M86.142 -24.867L85.992 52.626L5.901 97.901V22.019L86.142 -24.867Z" fill="#E2F4F0"/>
<path d="M192.208 165.945L102.777 114.312C99.703 112.537 94.284 112.762 90.735 114.812L60.51 132.263C56.961 134.312 56.572 137.441 59.645 139.215L117.503 172.615L106.867 178.985L122.526 188.098L133.68 181.955L149.711 191.21L192.208 165.945Z" fill="#F0F0F0"/>
<path d="M187.143 144.928L156.238 158.719L133.903 146.963L165.231 129.15L187.143 144.928Z" fill="#D4D5D7"/>
<path d="M166.498 116.119L155.47 124.638C153.67 125.738 152.317 124.646 152.318 122.751L152.108 119.666C152.206 118.569 152.552 117.508 153.12 116.564C153.688 115.62 154.463 114.817 155.386 114.216L166.506 107.408C168.306 106.308 169.779 106.953 169.777 108.848V110.668C169.679 111.766 169.333 112.827 168.765 113.771C168.197 114.715 167.422 115.518 166.498 116.119Z" fill="#323E48"/>
<path d="M169.611 96.955C168.56 99.0482 167.18 100.959 165.524 102.615C164.236 103.958 163.218 105.535 162.524 107.261C161.925 108.851 160.933 110.263 159.642 111.367C158.11 112.566 156.672 113.882 155.342 115.302C154.262 116.508 156.042 118.302 157.126 117.086C159.611 114.311 162.869 112.575 164.462 109.086C165.176 107.27 166.217 105.602 167.535 104.163C169.26 102.425 170.695 100.422 171.786 98.23C172.495 96.777 170.32 95.496 169.608 96.957L169.611 96.955Z" fill="#FFC2B0"/>
<path d="M164.576 98.888L161.644 106.345C161.303 108.661 166.481 109.586 166.932 107.719L169.132 100.313C169.269 99.7359 169.186 99.1287 168.9 98.6092C168.614 98.0898 168.145 97.6952 167.584 97.502V97.502C167.001 97.3 166.362 97.3315 165.801 97.5899C165.241 97.8482 164.802 98.3134 164.576 98.888V98.888Z" fill="#6258AD"/>
<path d="M187.081 145.019C187.166 145.006 187.247 144.977 187.321 144.933C187.394 144.889 187.459 144.831 187.51 144.762C187.561 144.693 187.598 144.615 187.619 144.532C187.639 144.448 187.644 144.362 187.631 144.277L184.977 126.382C184.964 126.297 184.935 126.216 184.891 126.142C184.847 126.069 184.789 126.004 184.72 125.953C184.651 125.902 184.573 125.865 184.49 125.844C184.406 125.824 184.32 125.819 184.235 125.832V125.832C184.15 125.845 184.069 125.874 183.995 125.918C183.922 125.962 183.857 126.02 183.806 126.089C183.755 126.158 183.718 126.236 183.697 126.319C183.677 126.403 183.672 126.489 183.685 126.574L186.339 144.469C186.352 144.554 186.381 144.635 186.425 144.709C186.469 144.782 186.527 144.847 186.596 144.898C186.665 144.949 186.743 144.986 186.826 145.007C186.91 145.027 186.996 145.032 187.081 145.019Z" fill="#323E48"/>
<path d="M166.087 115.267L171.658 100.53C171.822 99.9816 172.105 99.4765 172.488 99.0512C172.871 98.6259 173.344 98.291 173.873 98.0709C174.401 97.8507 174.972 97.7508 175.543 97.7783C176.115 97.8058 176.673 97.9601 177.178 98.23L185.387 102.986C186.137 103.46 186.732 104.143 187.1 104.951C187.468 105.758 187.592 106.656 187.457 107.533L185.017 126.717L166.087 115.267Z" fill="#323E48"/>
<path d="M170.354 133.183L154.574 124.073C153.112 123.229 153.703 121.373 155.889 119.958L161.561 116.275C163.747 114.856 166.731 114.385 168.194 115.23L183.974 124.34C185.436 125.184 184.844 127.04 182.659 128.455L176.987 132.138C174.798 133.557 171.816 134.027 170.354 133.183Z" fill="#323E48"/>
<path d="M163.027 118.431C163.427 119.031 166.327 111.22 164.7 100.392L179.244 107.372C178.838 114.406 176.525 116.729 174.716 125.334L163.027 118.431Z" fill="#7268BA"/>
<path d="M171.031 122.312C171.42 122.853 179.044 117.603 177.905 108.797C177.76 107.678 176.969 107.935 178.105 108.271L179.465 107.383C179.765 113.098 182.059 113.416 179.72 121.183C179.184 122.965 176.243 126.39 174.485 125.335L171.031 122.312Z" fill="#6258AD"/>
<path d="M165.52 97.745C164.915 98.4884 164.621 99.4368 164.699 100.392C164.625 101.852 165.359 103.843 166.712 104.392L181.082 110.039C181.082 110.039 183.007 105.356 180.382 103.378C178.966 102.312 175.758 99.898 174.038 98.56C171.509 96.598 167.804 95.501 165.52 97.745Z" fill="#7268BA"/>
<path d="M176.461 102.05L170.385 100.219L171.817 96.845C173.794 97.0587 175.639 97.9373 177.051 99.337L176.461 102.05Z" fill="#CCCCCC"/>
<path d="M173.723 101.238C173.723 101.238 171.974 101.03 171.996 97.948L170.85 97.648C170.674 97.757 170.35 97.632 170.074 98.633C169.916 99.2298 169.877 99.8523 169.962 100.464L170.195 102.249C170.209 102.343 170.245 102.432 170.3 102.509C170.356 102.586 170.429 102.648 170.513 102.691C170.598 102.734 170.691 102.756 170.786 102.756C170.881 102.755 170.974 102.732 171.058 102.688L173.723 101.238Z" fill="white"/>
<path d="M172.368 99.887L170.91 94.507L174.61 95.531L175.796 99.924C176.05 100.639 173.44 102.63 172.368 99.887Z" fill="#FFC2B0"/>
<path d="M171.312 87.6134C172.231 87.5827 173.124 87.9182 173.795 88.5462C174.467 89.1741 174.861 90.0431 174.892 90.9618L175.035 95.2494C175.05 95.7043 174.976 96.1578 174.816 96.5838C174.655 97.0099 174.413 97.4003 174.102 97.7327C173.791 98.0651 173.418 98.3331 173.003 98.5212C172.589 98.7093 172.141 98.8139 171.687 98.8291V98.8291C170.768 98.8598 169.874 98.5242 169.203 97.8963C168.532 97.2683 168.137 96.3994 168.107 95.4807L167.964 91.1931C167.933 90.2743 168.269 89.3811 168.896 88.7097C169.524 88.0384 170.393 87.644 171.312 87.6134V87.6134Z" fill="#FFC2B0"/>
<path d="M171.451 91.841C170.486 92.2167 169.419 92.2397 168.438 91.906C167.117 91.397 166.183 89.541 167.22 88.576C168.216 87.9483 169.288 87.4522 170.411 87.1C173.798 85.726 177.469 87.462 177.597 91.328C177.597 91.328 178.163 96.108 175.492 97.191C175.386 97.2316 175.271 97.2411 175.16 97.2182C175.049 97.1954 174.947 97.1411 174.866 97.062L174.846 97.044C174.755 96.9564 174.694 96.8428 174.67 96.7189C174.647 96.595 174.662 96.4669 174.714 96.352C174.822 96.1354 174.885 95.8993 174.899 95.6577C174.914 95.4162 174.88 95.1743 174.798 94.9463C174.717 94.7184 174.591 94.5091 174.427 94.331C174.263 94.153 174.065 94.0098 173.845 93.91C173.707 93.8128 173.593 93.6862 173.511 93.5393C173.429 93.3924 173.38 93.229 173.369 93.061C173.342 92.8457 173.267 92.639 173.151 92.4558C173.035 92.2725 172.88 92.1171 172.696 92.0006C172.513 91.8842 172.307 91.8095 172.092 91.7819C171.876 91.7543 171.658 91.7745 171.451 91.841V91.841Z" fill="#323E48"/>
<path d="M175.644 95.89C175.559 95.9845 175.45 96.0541 175.328 96.0913C175.207 96.1285 175.077 96.1318 174.954 96.101C174.83 96.0701 174.718 96.0063 174.628 95.9162C174.538 95.8262 174.475 95.7134 174.444 95.59C174.358 95.2852 174.359 94.9624 174.447 94.6583C174.536 94.3542 174.708 94.081 174.944 93.87C175.029 93.7754 175.138 93.7058 175.26 93.6686C175.381 93.6315 175.511 93.6281 175.634 93.659C175.758 93.6898 175.87 93.7537 175.96 93.8437C176.05 93.9337 176.113 94.0465 176.144 94.17C176.23 94.4747 176.229 94.7975 176.141 95.1017C176.052 95.4058 175.88 95.6789 175.644 95.89V95.89Z" fill="#FFC2B0"/>
<path d="M172.037 98.817C172.037 98.817 173.552 98.041 173.558 98.027C173.27 98.637 172.833 99.1643 172.287 99.56L172.037 98.817Z" fill="#EA8A6C"/>
<path d="M172.84 100.994C172.84 100.994 174.755 101.909 177.048 99.337L178.16 101.098C178.246 101.358 178.26 101.389 178.031 101.584L175.087 104.123C175.009 104.193 174.916 104.244 174.815 104.273C174.714 104.301 174.608 104.306 174.505 104.286C174.402 104.267 174.305 104.224 174.221 104.161C174.137 104.098 174.069 104.017 174.022 103.923L172.84 100.994Z" fill="white"/>
<path d="M82.99 34.748C83.2229 34.8063 83.464 34.8242 83.703 34.801C84.2937 34.6165 84.8106 34.2492 85.179 33.752C85.2218 33.7101 85.2558 33.6602 85.279 33.605C85.2947 33.5451 85.2965 33.4824 85.2841 33.4217C85.2718 33.361 85.2458 33.304 85.208 33.255C84.821 32.655 84.121 32.567 83.529 32.312C83.262 32.197 83.009 32.042 82.743 31.922C82.3239 31.7498 81.8883 31.6208 81.443 31.537V31.537C80.91 31.418 78.98 31.037 79.012 32.392C79.026 32.977 79.583 33.408 79.934 33.668C80.3532 33.9677 80.8178 34.1983 81.31 34.351C81.8608 34.5196 82.422 34.6522 82.99 34.748Z" fill="#FFC2B0"/>
<path d="M84.894 32.935C84.5319 32.5116 84.1334 32.1208 83.703 31.767C83.4133 31.519 83.0537 31.3671 82.674 31.332C81.937 31.266 80.728 31.218 80.438 31.579C80.065 32.045 80.708 32.45 81.102 32.699C81.9633 33.1567 82.919 33.4082 83.894 33.434C83.9545 33.4421 84.016 33.4321 84.0708 33.4052C84.1257 33.3783 84.1713 33.3358 84.202 33.283C84.258 33.344 84.312 33.405 84.361 33.468C84.66 33.85 85.191 33.313 84.894 32.935Z" fill="#FFC2B0"/>
<path d="M182.124 129.774L171.004 136.582C169.204 137.682 167.811 137.167 167.91 135.432L168.01 133.765C168.19 132.71 168.591 131.705 169.186 130.816C169.781 129.926 170.558 129.173 171.465 128.605L182.585 121.797C184.385 120.697 185.778 121.212 185.678 122.947L185.578 124.614C185.398 125.669 184.998 126.674 184.402 127.563C183.807 128.452 183.031 129.206 182.124 129.774V129.774Z" fill="#323E48"/>
<path d="M112.044 77.8561C112.062 74.3154 107.104 71.4202 100.971 71.3895C94.838 71.3589 89.8518 74.2043 89.8341 77.745C89.8164 81.2857 94.7739 84.1809 100.907 84.2115C107.04 84.2422 112.026 81.3968 112.044 77.8561Z" fill="#D4D5D7"/>
<path d="M92.5101 73.959L96.9041 71.845L99.1971 71.923C99.3361 74.956 99.0761 74.539 98.0841 75.104L94.3551 76.482C92.4431 76.956 91.8691 76.948 90.9471 76.295C90.4671 75.522 91.2221 74.794 92.5101 73.959Z" fill="#323E48"/>
<path d="M105.089 82.103L106.582 77.46L108.217 75.851C110.517 77.841 110.031 77.742 109.757 78.851L108.189 82.505C107.217 84.218 106.815 84.629 105.707 84.848C104.812 84.66 104.804 83.611 105.089 82.103Z" fill="#323E48"/>
<path d="M105.627 42.468C103.727 48.299 103.997 54.7781 104.499 60.8071C104.734 63.6231 105.075 66.428 105.417 69.233C105.796 71.5812 106.057 73.9468 106.199 76.321C106.171 78.972 110.01 78.893 110.038 76.239C109.99 73.8967 109.823 71.5584 109.538 69.233C109.209 66.533 108.88 63.8331 108.647 61.1261C108.147 55.3531 107.781 49.153 109.6 43.563C110.422 41.036 106.446 39.954 105.628 42.463L105.627 42.468Z" fill="#323E48"/>
<path d="M96.624 41.538C95.7479 45.0105 95.1639 48.5502 94.878 52.12C94.5478 54.2501 94.4316 56.4078 94.531 58.561C94.938 62.661 95.695 66.833 95.666 70.961C95.648 73.612 99.766 73.615 99.785 70.961C99.813 66.89 99.076 62.779 98.668 58.735C98.5565 56.7224 98.6469 54.7036 98.938 52.709C99.2022 49.3075 99.7569 45.9349 100.596 42.628C101.296 40.069 97.327 38.976 96.624 41.528V41.538Z" fill="#323E48"/>
<path d="M99.6349 48.078C100.015 48.504 98.3809 46.431 98.8699 46.726C99.8889 47.342 105.607 51.226 106.797 51.246C108.235 51.27 107.397 49.881 108.467 48.92C109.379 47.8872 109.862 46.5459 109.82 45.169C109.876 44.7951 109.842 44.413 109.72 44.055C109.525 43.695 109.242 43.3907 108.897 43.171C106.357 41.248 101.36 36.489 97.8109 38.011C93.7059 39.77 97.8139 46.038 99.6349 48.078Z" fill="#323E48"/>
<path d="M62.909 102.241C63.1566 102.288 63.3756 102.431 63.518 102.638C63.6604 102.846 63.7146 103.102 63.6687 103.35L57.4826 136.698C57.4598 136.82 57.413 136.938 57.345 137.042C57.277 137.147 57.189 137.237 57.086 137.308C56.9831 137.379 56.8672 137.429 56.7451 137.454C56.6229 137.48 56.4968 137.482 56.3741 137.459C56.1265 137.413 55.9075 137.27 55.7651 137.062C55.6227 136.855 55.5685 136.599 55.6144 136.351L61.8005 103.003C61.8465 102.755 61.9892 102.535 62.1971 102.393C62.4049 102.25 62.6611 102.195 62.909 102.241V102.241Z" fill="#323E48"/>
<path d="M74.0379 24.848L90.744 15.202C91.342 14.7719 91.8313 14.2081 92.173 13.5555C92.5146 12.9029 92.6992 12.1795 92.7119 11.443V3.24298C92.7119 1.79998 91.827 1.12997 90.744 1.75497L74.0379 11.401C73.4396 11.8312 72.9501 12.3953 72.6084 13.0483C72.2667 13.7013 72.0823 14.4251 72.0699 15.162V23.362C72.0699 24.803 72.9559 25.473 74.0379 24.848Z" fill="#323E48"/>
<path d="M74.718 25.529L91.424 15.884C92.0223 15.4537 92.5118 14.8895 92.8535 14.2366C93.1952 13.5836 93.3796 12.8598 93.392 12.123V3.92297C93.392 2.47997 92.506 1.80996 91.424 2.43496L74.718 12.08C74.1197 12.5103 73.6303 13.0745 73.2886 13.7274C72.947 14.3804 72.7625 15.1041 72.75 15.841V24.041C72.75 25.484 73.633 26.15 74.718 25.529Z" fill="#F5B335"/>
<path d="M81.771 13.296L91.13 7.89601C91.2613 7.80143 91.3687 7.67751 91.4437 7.53411C91.5187 7.39072 91.5592 7.2318 91.562 7.07V7.07C91.562 6.753 91.368 6.60601 91.13 6.74301L81.771 12.143C81.6397 12.2374 81.5323 12.3611 81.4573 12.5043C81.3823 12.6476 81.3418 12.8063 81.339 12.968C81.339 13.289 81.534 13.436 81.771 13.296Z" fill="#323E48"/>
<path d="M81.771 16.598L91.13 11.1979C91.2613 11.1034 91.3687 10.9794 91.4437 10.8361C91.5187 10.6927 91.5592 10.5338 91.562 10.372V10.372C91.562 10.055 91.368 9.90795 91.13 10.0449L81.771 15.445C81.6397 15.5393 81.5323 15.663 81.4573 15.8063C81.3823 15.9495 81.3418 16.1083 81.339 16.27C81.339 16.588 81.534 16.735 81.771 16.598Z" fill="#323E48"/>
<path d="M75.5299 16.902L79.0769 14.854C79.2083 14.7595 79.3158 14.6356 79.3908 14.4922C79.4658 14.3488 79.5063 14.1898 79.5089 14.028V14.028C79.5089 13.711 79.3149 13.564 79.0769 13.701L75.5299 15.749C75.3987 15.8434 75.2913 15.9671 75.2163 16.1103C75.1413 16.2536 75.1008 16.4123 75.0979 16.574V16.574C75.0979 16.892 75.2919 17.039 75.5299 16.902Z" fill="#323E48"/>
<path d="M92.0269 15.033L92.2169 19.42C92.2269 19.775 91.6949 20.209 91.3879 20.097L87.6139 18.103L92.0269 15.033Z" fill="#F5B335"/>
<path d="M172.408 124.682V124.171L171.75 124.426L171.609 124.101L155.129 114.582C155.006 114.526 154.872 114.5 154.737 114.506C154.602 114.512 154.47 114.548 154.352 114.614L147.259 118.714V118.6L145.947 119.127V119.67H145.956C145.978 119.731 146.023 119.781 146.081 119.811L163.227 129.711C163.35 129.767 163.485 129.793 163.62 129.787C163.755 129.782 163.887 129.745 164.005 129.679L172.221 124.936C172.272 124.914 172.316 124.879 172.349 124.834C172.382 124.789 172.403 124.737 172.41 124.682H172.408Z" fill="#BACFF2"/>
<path d="M163.215 129.168L146.069 119.268C145.869 119.153 145.896 118.951 146.125 118.819L154.341 114.075C154.459 114.01 154.591 113.973 154.726 113.967C154.861 113.962 154.995 113.988 155.118 114.043L172.264 123.943C172.464 124.058 172.437 124.26 172.208 124.392L163.992 129.136C163.874 129.201 163.742 129.238 163.607 129.244C163.472 129.249 163.338 129.223 163.215 129.168Z" fill="#E1EAF4"/>
<path d="M164.385 122.79L160.236 120.39C160.188 120.362 160.194 120.313 160.249 120.281L162.237 119.133C162.266 119.117 162.297 119.108 162.33 119.107C162.363 119.105 162.395 119.112 162.425 119.125L166.575 121.525C166.623 121.553 166.617 121.602 166.561 121.634L164.575 122.779C164.546 122.796 164.514 122.805 164.481 122.807C164.448 122.809 164.415 122.803 164.385 122.79V122.79Z" fill="#BACFF2"/>
<path d="M106.896 22.187L99.5959 19.406L100.479 16.36C102.042 16.1928 103.611 16.6154 104.879 17.545L106.896 22.187Z" fill="#424268"/>
<path d="M96.647 18.592C95.916 19.564 96.006 20.137 96.047 21.411C96.065 22.0137 96.2843 22.5929 96.6697 23.0565C97.0552 23.5201 97.5848 23.8413 98.174 23.969L108.165 26.564C108.165 26.564 111.344 22.024 108.879 20.726C107.551 20.026 105.49 18.906 103.872 18.021C101.496 16.719 98.336 16.346 96.647 18.592Z" fill="#FFDFB0"/>
<path d="M96.103 40.81C96.475 41.264 96.877 27.998 96.103 19.657L110.164 25.521C110.126 31.838 107.656 38.421 108.464 46.077L96.103 40.81Z" fill="#FFDFB0"/>
<path d="M101.143 19.164L100.343 14.159L103.899 15.253L104.549 19.34C104.712 20.008 101.878 21.73 101.143 19.164Z" fill="#FFC2B0"/>
<path d="M107.243 18.887C107.243 18.887 103.176 23.647 102.443 34.581C102.143 39.092 101.611 45.171 102.592 45.645C104.127 46.387 106.055 47.655 108.014 47.255C108.814 47.092 110.433 46.363 110.463 45.574C109.845 38.974 111.02 31.9 110.388 24.637L110.055 21.815C110.005 21.523 110.526 21.27 110.312 21.029L107.243 18.887Z" fill="#323E48"/>
<path d="M100.192 17.554C100.192 17.554 97.442 24.73 98.983 42.441C98.9912 42.5808 98.9631 42.7204 98.9015 42.8462C98.8399 42.972 98.7469 43.0798 98.6315 43.1591C98.516 43.2385 98.3821 43.2867 98.2426 43.2991C98.103 43.3115 97.9627 43.2877 97.835 43.23C97.2301 42.9543 96.6427 42.6417 96.0761 42.294C95.8552 42.1644 95.6735 41.9775 95.5503 41.753C95.427 41.5285 95.3668 41.2749 95.376 41.019C95.523 37.439 95.568 23.105 95.568 23.105C95.568 23.105 95.007 16.856 100.009 16.805C105.956 16.742 100.192 17.554 100.192 17.554Z" fill="#323E48"/>
<path d="M101.05 18.078C101.05 18.078 102.685 17.165 102.693 17.15C102.701 17.135 102.064 18.643 101.246 19.039L101.05 18.078Z" fill="#EA8A6C"/>
<path d="M101.715 22.17C102.063 22.2262 102.42 22.1489 102.714 21.9534C103.007 21.758 103.216 21.459 103.299 21.116L103.554 19.978C103.121 20.2041 102.618 20.2594 102.146 20.1331C101.674 20.0069 101.266 19.7082 101.003 19.296L100.703 20.666C100.665 20.8316 100.662 21.0032 100.693 21.1701C100.724 21.3371 100.789 21.4959 100.884 21.6368C100.979 21.7777 101.101 21.8977 101.244 21.9894C101.387 22.0811 101.547 22.1426 101.715 22.17V22.17Z" fill="#F5B335"/>
<path d="M102.4 21.613L101.551 32.752C101.541 32.8769 101.488 32.9944 101.4 33.084L100.483 34.034C100.429 34.0933 100.362 34.1393 100.287 34.1685C100.212 34.1978 100.132 34.2094 100.052 34.2025C99.972 34.1957 99.8947 34.1705 99.826 34.129C99.7573 34.0874 99.6991 34.0306 99.6559 33.963L99.1559 33.128C99.0925 33.0202 99.0718 32.8924 99.098 32.77L101.462 21.411L102.4 21.613Z" fill="#F5B335"/>
<path d="M102.415 19.632C102.415 19.632 101.015 19.652 100.808 17.27L99.877 17.159C99.745 17.259 99.477 17.199 99.332 17.999C99.2492 18.472 99.2639 18.9569 99.375 19.424L99.688 20.778C99.708 20.8498 99.7451 20.9156 99.7961 20.9699C99.847 21.0243 99.9104 21.0655 99.9807 21.09C100.051 21.1146 100.126 21.1218 100.2 21.111C100.274 21.1002 100.344 21.0717 100.404 21.028L102.415 19.632Z" fill="white"/>
<path d="M102.451 19.637C102.22 19.6199 101.996 19.5457 101.801 19.421L99.687 20.794L99.707 20.878C99.7244 20.9395 99.7563 20.9959 99.8 21.0425C99.8437 21.0891 99.898 21.1245 99.9582 21.1459C100.018 21.1672 100.083 21.1739 100.146 21.1652C100.209 21.1565 100.27 21.1328 100.322 21.096L102.451 19.637Z" fill="#FCFEFF"/>
<path d="M101.695 19.535C101.695 19.535 103.28 20.044 104.915 17.822L105.924 19.067C106.011 19.259 106.024 19.282 105.857 19.456L103.703 21.719C103.649 21.7816 103.581 21.8311 103.505 21.8636C103.429 21.8962 103.346 21.9111 103.264 21.9072C103.181 21.9032 103.1 21.8805 103.027 21.8409C102.955 21.8012 102.892 21.7455 102.844 21.678L101.695 19.535Z" fill="white"/>
<path d="M101.656 19.525C101.912 19.5589 102.171 19.5746 102.429 19.572L103.694 21.733L103.624 21.806C103.577 21.8594 103.519 21.9015 103.453 21.9294C103.388 21.9572 103.317 21.9701 103.246 21.9669C103.175 21.9637 103.106 21.9446 103.043 21.9111C102.98 21.8775 102.926 21.8303 102.884 21.773L101.656 19.525Z" fill="#FCFEFF"/>
<path d="M97.734 17.417C97.288 19.868 96.362 22.693 96.773 24.366L97.951 24.12L97.28 26.308L98.537 34.608C98.3827 28.4976 99.0354 22.3936 100.478 16.454C99.4935 16.523 98.5457 16.8556 97.734 17.417V17.417Z" fill="#323E48"/>
<path d="M101.488 18.088L100.454 18.18C100.085 18.2203 99.7107 18.1852 99.3552 18.0767C98.9997 17.9682 98.67 17.7887 98.386 17.5489C98.102 17.3091 97.8697 17.0141 97.7031 16.6819C97.5365 16.3496 97.4392 15.987 97.417 15.616L97.161 10.49C97.1414 9.72222 97.4156 8.97592 97.9276 8.4035C98.4396 7.83108 99.1508 7.47572 99.916 7.40997L100.95 7.31798C101.32 7.27763 101.693 7.31275 102.049 7.42123C102.404 7.52972 102.734 7.7093 103.018 7.94907C103.302 8.18883 103.534 8.48379 103.701 8.81605C103.868 9.14832 103.965 9.51096 103.987 9.88197L104.287 13.617C104.371 15.17 103.083 17.946 101.488 18.088Z" fill="#FFC2B0"/>
<path d="M101.288 11.126C100.847 11.3862 100.35 11.5376 99.8389 11.5677C99.3276 11.5978 98.8166 11.5057 98.348 11.299C98.0532 11.1962 97.7909 11.0171 97.5878 10.78C97.3847 10.5429 97.2481 10.2562 97.1918 9.94916C97.1355 9.64208 97.1616 9.32559 97.2674 9.03186C97.3731 8.73814 97.5548 8.47768 97.794 8.27699C98.244 7.67696 98.8466 7.20838 99.539 6.91998C102.857 5.40898 106.821 7.00099 107.006 10.714C107.006 10.714 107.153 15.598 104.123 16.521L103.894 14.975C103.99 14.9189 104.071 14.8387 104.127 14.7423C104.184 14.646 104.214 14.5367 104.216 14.425C104.217 14.3134 104.19 14.2032 104.136 14.1053C104.083 14.0073 104.005 13.9249 103.91 13.866C103.64 13.6357 103.344 13.4389 103.027 13.28C102.588 13.048 102.484 12.454 102.514 11.834C102.516 11.6897 102.479 11.5476 102.408 11.4221C102.337 11.2967 102.234 11.1925 102.109 11.1204C101.984 11.0483 101.842 11.0108 101.698 11.0117C101.553 11.0127 101.412 11.0522 101.288 11.126V11.126Z" fill="#715154"/>
<path d="M104.831 15.086C104.753 15.1824 104.65 15.2558 104.533 15.2986C104.417 15.3413 104.291 15.3518 104.169 15.3288C104.047 15.3059 103.933 15.2504 103.84 15.1682C103.747 15.086 103.678 14.9802 103.64 14.862C103.553 14.5657 103.55 14.2508 103.633 13.9533C103.716 13.6557 103.881 13.3874 104.109 13.179C104.187 13.0826 104.29 13.0092 104.407 12.9664C104.523 12.9237 104.649 12.9132 104.771 12.9362C104.893 12.9591 105.007 13.0146 105.1 13.0968C105.193 13.179 105.262 13.2848 105.3 13.403C105.387 13.6993 105.39 14.0142 105.307 14.3117C105.224 14.6093 105.059 14.8776 104.831 15.086V15.086Z" fill="#FFC2B0"/>
<path d="M97.388 13.63C97.4102 14.001 97.5075 14.3637 97.6741 14.6959C97.8407 15.0282 98.073 15.3232 98.357 15.5629C98.641 15.8027 98.9707 15.9823 99.3262 16.0907C99.6817 16.1992 100.056 16.2344 100.425 16.194L101.459 16.102C102.448 16.014 102.947 14.811 103.367 13.472C103.416 13.5 103.469 13.518 103.525 13.5251C103.581 13.5322 103.637 13.5282 103.691 13.5133C103.745 13.4984 103.796 13.473 103.84 13.4384C103.885 13.4039 103.921 13.3609 103.949 13.312L104.014 13.197L103.943 14.433C104.021 15.985 103.087 18.167 101.494 18.308L100.46 18.4C100.091 18.4404 99.7167 18.4052 99.3612 18.2968C99.0057 18.1883 98.676 18.0087 98.392 17.7689C98.108 17.5292 97.8757 17.2342 97.7091 16.9019C97.5425 16.5697 97.4452 16.207 97.423 15.836L97.167 10.71C97.1572 10.4974 97.1719 10.2843 97.211 10.075L97.388 13.63Z" fill="#AF8080"/>
<path d="M108.053 19.319L106.153 25.653L104.576 25.497L105.007 27.923L102.33 35.044C102.501 31.0007 103.14 26.9909 104.235 23.095C104.708 21.447 105.492 19.281 105.124 17.795C106.191 18.1049 107.187 18.6228 108.053 19.319V19.319Z" fill="#323E48"/>
<path d="M109.274 43.411C109.399 43.469 112.117 41.721 110.79 40.319C109.463 38.917 107.642 41.267 107.642 41.267C107.921 42.1491 108.498 42.9069 109.274 43.411V43.411Z" fill="#FFC2B0"/>
<path d="M109.277 40.557C109.211 40.4806 109.161 40.3919 109.129 40.2961C109.098 40.2002 109.086 40.0991 109.093 39.9985C109.101 39.8979 109.129 39.7998 109.175 39.71C109.221 39.6201 109.284 39.5403 109.361 39.475C110.715 38.1905 111.504 36.4208 111.554 34.555C111.883 30.5579 110.749 26.5774 108.361 23.355C107.17 21.636 109.761 19.988 110.95 21.701C113.85 25.891 115.608 29.97 114.931 35.312C114.729 37.3695 113.926 39.322 112.622 40.926C112.325 41.2774 112.001 41.6044 111.652 41.904C111.484 42.053 111.265 42.1314 111.04 42.123C110.815 42.1147 110.603 42.0201 110.446 41.859L109.277 40.557Z" fill="#323E48"/>
<path d="M84.303 32.708C84.329 32.6167 84.3745 32.532 84.4362 32.4598C84.4979 32.3876 84.5744 32.3295 84.6605 32.2894C84.7466 32.2494 84.8404 32.2284 84.9354 32.2278C85.0304 32.2272 85.1244 32.247 85.211 32.286C87.161 33.169 92.625 35.286 93.623 31.819C94.7733 28.0006 95.5299 24.0745 95.881 20.102L96.909 32.443C95.678 35.443 93.944 37.8 91.583 37.314C89.0361 36.8686 86.5531 36.114 84.189 35.067C84.0496 34.9982 83.9391 34.8825 83.8767 34.7401C83.8143 34.5978 83.8041 34.4381 83.848 34.289L84.303 32.708Z" fill="#323E48"/>
<path d="M162.778 118.026C162.732 117.785 162.638 117.555 162.502 117.35C162.367 117.145 162.192 116.969 161.988 116.832L144.965 107.158C144.911 107.12 144.849 107.094 144.784 107.084C144.719 107.073 144.652 107.078 144.589 107.098V107.098C144.555 107.113 144.525 107.137 144.501 107.166L143.937 107.758L144.449 107.713L146.067 118.173C146.113 118.414 146.207 118.644 146.343 118.849C146.478 119.054 146.653 119.23 146.857 119.367L162.957 128.514L163.476 129.098L163.541 129.242C163.867 129.312 164.641 128.759 164.641 128.759L162.778 118.026Z" fill="white"/>
<path d="M121.277 89.466L110.247 97.985C108.447 99.085 107.094 97.9929 107.096 96.0979L106.886 93.013C106.984 91.9156 107.33 90.8548 107.898 89.9107C108.466 88.9666 109.241 88.1638 110.164 87.5629L121.284 80.755C123.084 79.655 124.557 80.3 124.555 82.195V84.015C124.457 85.1125 124.111 86.1735 123.543 87.1178C122.976 88.062 122.201 88.865 121.277 89.466V89.466Z" fill="#323E48"/>
<path d="M141.861 118.367C141.946 118.354 142.027 118.325 142.101 118.281C142.174 118.237 142.239 118.179 142.29 118.11C142.341 118.041 142.378 117.963 142.399 117.88C142.419 117.796 142.424 117.71 142.411 117.625L139.757 99.73C139.744 99.6451 139.715 99.5636 139.671 99.49C139.627 99.4165 139.569 99.3523 139.5 99.3013C139.431 99.2502 139.353 99.2132 139.27 99.1924C139.186 99.1716 139.1 99.1673 139.015 99.18V99.18C138.93 99.1926 138.849 99.2218 138.775 99.2659C138.702 99.31 138.637 99.3681 138.586 99.437C138.535 99.5059 138.498 99.5842 138.477 99.6674C138.457 99.7506 138.452 99.8371 138.465 99.922L141.119 117.817C141.132 117.902 141.161 117.983 141.205 118.057C141.249 118.13 141.307 118.195 141.376 118.246C141.445 118.297 141.523 118.334 141.606 118.355C141.69 118.375 141.776 118.38 141.861 118.367V118.367Z" fill="#323E48"/>
<path d="M121.318 89.08L126.889 74.343C127.053 73.7947 127.337 73.2897 127.72 72.8645C128.103 72.4393 128.575 72.1045 129.104 71.8844C129.632 71.6643 130.203 71.5644 130.774 71.5918C131.346 71.6192 131.904 71.7733 132.409 72.043L140.626 76.801C141.376 77.2752 141.972 77.958 142.34 78.7657C142.707 79.5734 142.832 80.4708 142.697 81.348L140.36 97.964L121.318 89.08Z" fill="#323E48"/>
<path d="M125.133 106.53L109.353 97.42C107.891 96.576 108.483 94.72 110.668 93.305L116.34 89.622C118.526 88.203 121.51 87.732 122.973 88.577L138.752 97.687C140.215 98.531 139.623 100.387 137.437 101.802L131.765 105.485C129.58 106.904 126.595 107.374 125.133 106.53Z" fill="#323E48"/>
<path d="M136.904 103.121L125.784 109.929C123.984 111.029 122.591 110.514 122.691 108.779L122.791 107.112C122.971 106.057 123.372 105.052 123.967 104.163C124.563 103.273 125.34 102.52 126.247 101.952L137.367 95.144C139.167 94.044 140.56 94.559 140.461 96.294L140.361 97.961C140.181 99.0162 139.78 100.021 139.184 100.911C138.588 101.8 137.811 102.553 136.904 103.121V103.121Z" fill="#323E48"/>
<path d="M125.204 66.436C124.628 67.456 123.963 69.9359 124.499 71.1579C124.585 71.3579 126.272 75.986 126.463 75.871C126.654 75.756 128.975 75.0479 129.14 74.8979C129.63 74.4499 133.068 77.49 133.567 77.052C134.243 76.458 134.528 67.852 134.557 66.952C134.593 65.804 128.847 65.858 128.14 64.952C127.99 64.7844 127.851 64.6074 127.724 64.422V64.422C127.558 64.141 127.476 63.6149 127.064 63.6799C126.734 63.7319 126.495 64.2439 126.325 64.4799C125.908 65.1064 125.534 65.7599 125.204 66.436V66.436Z" fill="#715154"/>
<path d="M122.717 75.591C122.501 77.5332 121.962 79.4257 121.124 81.191C120.34 82.676 119.418 84.642 118.098 85.691C116.825 86.703 115.175 87.127 113.791 87.959C112.063 89.0249 110.666 90.55 109.755 92.364C108.907 93.964 111.331 95.381 112.181 93.782C113.232 91.8137 114.95 90.2842 117.026 89.468C118.559 88.8807 119.93 87.9374 121.026 86.716C123.374 83.699 124.891 80.12 125.426 76.335C125.703 74.566 122.996 73.804 122.717 75.588V75.591Z" fill="#FFC2B0"/>
<path d="M122.898 74.902C122.312 76.611 121.898 78.392 121.265 80.082C120.726 81.3233 119.964 82.4556 119.018 83.423C117.436 85.231 120.076 87.891 121.667 86.072C122.921 84.7683 123.94 83.2568 124.678 81.605C125.413 79.753 125.864 77.782 126.51 75.898C127.294 73.613 123.677 72.631 122.898 74.898V74.902Z" fill="#F5B335"/>
<path d="M122.346 89.87C115.923 93.943 112.002 97.67 112.246 99.416C112.246 99.416 115.446 97.642 117.956 99.1C121.676 101.261 118.182 103.262 118.182 103.262C118.182 103.262 131.814 104.07 132.531 96.591C132.985 91.851 132.531 92.108 132.531 92.108C132.531 92.108 125.838 94.426 122.346 89.87Z" fill="#323E48"/>
<path d="M134.603 75.786C133.12 74.137 130.263 73.247 128.114 73.138C127.514 73.108 127.514 74.044 128.114 74.075C130.275 74.1532 132.339 74.9942 133.94 76.449C134.34 76.898 135.005 76.234 134.602 75.787L134.603 75.786Z" fill="#FFDFB0"/>
<path d="M124.213 76.487C124.213 76.487 121.763 79.887 121.897 82.033C122.105 83.2066 122.473 84.3462 122.99 85.42C123.955 89.039 123.247 90.077 123.317 91.067C123.317 91.067 124.499 93.078 132.423 91.777L136.516 81.691L124.213 76.487Z" fill="#F7C25D"/>
<path d="M135.769 83.91C135.987 83.7463 136.137 83.5082 136.191 83.241C136.509 81.42 137.565 80.641 135.75 77.39C135.458 76.867 131.224 74.3539 127.978 73.5719C127.21 73.3953 126.405 73.4831 125.693 73.821C124.981 74.1589 124.404 74.7272 124.055 75.4339C123.697 76.2577 123.401 77.1067 123.168 77.974C122.818 81.333 124.568 76.9969 124.694 78.8739C124.689 78.8289 124.68 78.782 124.676 78.737C124.676 78.737 124.902 81.902 125.07 84.352C125.17 85.88 125.246 86.986 125.249 87.14C125.249 87.147 125.249 87.157 125.249 87.159L130.68 91.972L133.985 86.738L135.769 83.91Z" fill="#F7C25D"/>
<path d="M128.819 73.642C128.616 73.6014 128.407 73.6173 128.213 73.6878C128.019 73.7584 127.848 73.8809 127.719 74.042C126.978 74.942 125.779 76.889 127.519 78.535C129.866 80.759 134.334 76.348 134.334 76.348C132.695 75.0857 130.82 74.1655 128.819 73.642V73.642Z" fill="#FFC2B0"/>
<path d="M129.069 75.538L128.799 69.938L131.91 71.686L132.127 76.26C132.218 77.015 129.5 78.459 129.069 75.538Z" fill="#FFC2B0"/>
<path d="M129.041 74.116C129.041 74.116 130.695 73.662 130.704 73.649C130.295 74.1915 129.756 74.6218 129.136 74.9L129.041 74.116Z" fill="#EA8A6C"/>
<path d="M134.926 82.901C134.573 83.5677 134.15 84.1946 133.663 84.771C133.014 85.5539 132.149 86.1273 131.175 86.419C130.201 86.7107 129.162 86.7075 128.19 86.41C126.162 85.7511 124.204 84.894 122.345 83.851C122.345 83.851 123.392 88.051 122.806 90.426C122.534 91.526 123.22 90.691 123.22 90.691C123.22 91.76 124.62 91.83 124.62 91.83C127.164 92.6146 129.887 92.5957 132.42 91.776L135.262 84.797L134.926 82.901Z" fill="#F7C25D"/>
<path d="M121.934 89.75C121.89 89.8635 121.878 89.987 121.9 90.1067C121.922 90.2265 121.976 90.338 122.057 90.429C123.421 91.8794 125.296 92.7404 127.285 92.829C128.921 93.0056 130.574 92.9058 132.177 92.534C132.337 92.491 132.475 92.3899 132.565 92.2505C132.654 92.1111 132.689 91.9433 132.661 91.78L132.626 91.573C132.611 91.4845 132.579 91.3999 132.53 91.3243C132.482 91.2488 132.419 91.1839 132.344 91.1335C132.27 91.0831 132.186 91.0483 132.098 91.0312C132.01 91.0141 131.92 91.015 131.832 91.034C130.405 91.346 127.039 91.905 124.949 90.834C124.243 90.4982 123.593 90.0557 123.022 89.522C122.944 89.4435 122.848 89.3857 122.742 89.3539C122.636 89.3221 122.524 89.3173 122.416 89.34C122.308 89.3627 122.207 89.4121 122.123 89.4837C122.039 89.5553 121.974 89.6468 121.934 89.75V89.75Z" fill="#FFDFB0"/>
<path d="M127.432 73.419C126.935 74.3856 126.591 75.4237 126.413 76.496C126.256 76.8963 126.249 77.3398 126.393 77.7449C126.537 78.15 126.823 78.4895 127.197 78.701C129.688 80.469 132.604 78.301 134.497 76.666C134.954 76.271 134.289 75.611 133.835 76.004C132.466 77.185 130.074 79.123 128.173 78.166C126.909 77.529 127.282 76.777 127.597 75.699C127.736 75.0721 127.953 74.465 128.243 73.892C128.299 73.7851 128.312 73.6605 128.279 73.5443C128.246 73.428 128.169 73.329 128.065 73.268C127.961 73.207 127.837 73.1887 127.719 73.2168C127.602 73.2449 127.499 73.3173 127.434 73.419H127.432Z" fill="white"/>
<path d="M133.549 67.3104C134.092 65.4599 133.032 63.5194 131.182 62.9763C129.331 62.4332 127.391 63.4931 126.848 65.3437L125.63 69.4917C125.087 71.3422 126.147 73.2827 127.998 73.8258C129.848 74.3689 131.788 73.309 132.332 71.4584L133.549 67.3104Z" fill="#FFC2B0"/>
<path d="M134.146 82.139C134.546 84.627 135.155 87.087 135.481 89.586C135.789 91.949 136.381 94.443 134.273 96.075C131.163 98.482 127.262 99.288 126.39 103.709C126.041 105.475 128.749 106.231 129.099 104.456C129.974 100.027 135.551 99.968 137.717 96.463C139.042 94.319 138.56 91.69 138.257 89.326C137.915 86.662 137.28 84.045 136.857 81.393C136.572 79.612 133.864 80.368 134.148 82.14L134.146 82.139Z" fill="#FFC2B0"/>
<path d="M132.969 80.137C134.627 84.3007 135.427 88.7565 135.32 93.237C135.289 95.648 139.036 95.65 139.066 93.237C139.187 88.4198 138.342 83.6272 136.581 79.142C135.704 76.927 132.081 77.892 132.968 80.142L132.969 80.137Z" fill="#F5B335"/>
<path d="M131.054 67.135C130.288 65.459 127.784 66.577 126.775 65.856C125.675 65.073 126.414 63.929 127.5 63.132C128.233 62.609 129.1 62.3056 130 62.257C133.455 61.878 136.271 64.023 135.473 67.614C135.473 67.614 135.561 73.039 132.534 73.027L132.424 71.158C132.424 71.158 133.576 70.411 132.106 68.911C131.763 68.561 131.746 68.548 131.935 67.966C132.124 67.384 131.309 67.697 131.054 67.135Z" fill="#715154"/>
<path d="M130.932 66.916C130.932 66.916 133.018 71.8469 132.043 74.4699C131.237 76.6389 128.45 77.4339 127.152 80.6899C127.095 80.8374 127.089 80.9993 127.132 81.151C127.176 81.3027 127.268 81.4359 127.395 81.5304C127.522 81.6249 127.675 81.6755 127.833 81.6745C127.991 81.6735 128.145 81.621 128.27 81.525C129.071 80.8897 129.965 80.3805 130.92 80.015C133.392 79.115 134.467 77.6419 134.557 76.4699C134.647 75.2979 135.579 66.9399 135.579 66.9399L130.879 65.2159L130.932 66.916Z" fill="#715154"/>
<path d="M125.285 68.478C125.285 68.478 125.754 66.854 130.22 65.724C134.686 64.594 130.42 65.671 130.42 65.671L126.763 63.793C126.763 63.793 124.783 65.139 125.285 68.478Z" fill="#715154"/>
<path d="M132.944 72.233C132.837 72.3033 132.713 72.3434 132.585 72.349C132.457 72.3546 132.33 72.3255 132.218 72.2649C132.105 72.2042 132.011 72.1142 131.945 72.0044C131.879 71.8945 131.844 71.769 131.844 71.641C131.835 71.3218 131.916 71.0067 132.078 70.7315C132.24 70.4563 132.476 70.2322 132.759 70.085C132.866 70.0143 132.99 69.9739 133.118 69.9681C133.246 69.9623 133.373 69.9914 133.486 70.0521C133.599 70.1128 133.693 70.203 133.759 70.313C133.825 70.423 133.859 70.5488 133.859 70.677C133.868 70.9961 133.787 71.3113 133.625 71.5864C133.463 71.8616 133.227 72.0857 132.944 72.233Z" fill="#FFC2B0"/>
<path d="M62.998 99.911H56.91V103.447H62.998V99.911Z" fill="#A6ACB1"/>
<path d="M173.696 122.519H167.608V126.055H173.696V122.519Z" fill="#BACFF2"/>
<path d="M132.884 148.058L57.684 104.643C56.505 103.963 56.653 102.774 58.014 101.988L93.102 81.73C93.8005 81.3408 94.5805 81.1209 95.3794 81.0879C96.1783 81.0549 96.9738 81.2097 97.702 81.54L172.902 124.954C174.081 125.635 173.933 126.823 172.572 127.609L137.484 147.867C136.786 148.256 136.006 148.476 135.207 148.51C134.408 148.543 133.612 148.388 132.884 148.058V148.058Z" fill="#A6ACB1"/>
<path d="M132.884 144.667L57.684 101.253C56.505 100.572 56.653 99.383 58.014 98.597L93.102 78.339C93.8003 77.9496 94.5803 77.7294 95.3792 77.6962C96.1782 77.6631 96.9738 77.8178 97.702 78.148L172.902 121.562C174.081 122.243 173.933 123.432 172.572 124.217L137.484 144.475C136.786 144.865 136.006 145.085 135.207 145.118C134.408 145.152 133.612 144.997 132.884 144.667V144.667Z" fill="#FDFFFF"/>
<path d="M192.041 168.013L192.042 168.013C192.677 167.931 193.126 167.35 193.044 166.715L188.901 134.448C188.82 133.813 188.239 133.365 187.604 133.446L187.603 133.447C186.968 133.528 186.52 134.109 186.601 134.744L190.744 167.011C190.826 167.646 191.407 168.094 192.041 168.013Z" fill="#323E48"/>
<path d="M149.727 193.16C149.424 193.134 149.143 192.988 148.947 192.755C148.751 192.522 148.656 192.221 148.682 191.918L153.192 139.55C153.218 139.247 153.364 138.966 153.597 138.77C153.829 138.574 154.131 138.479 154.434 138.505V138.505C154.737 138.531 155.018 138.677 155.214 138.91C155.41 139.143 155.505 139.444 155.479 139.747L150.969 192.115C150.943 192.418 150.797 192.699 150.564 192.895C150.331 193.091 150.03 193.186 149.727 193.16V193.16Z" fill="#323E48"/>
<path d="M84.62 112.347H78.532V115.883H84.62V112.347Z" fill="#A6ACB1"/>
<path d="M195.318 134.955H189.23V138.491H195.318V134.955Z" fill="#A6ACB1"/>
<path d="M154.505 160.494L79.305 117.08C78.126 116.399 78.2739 115.211 79.6349 114.425L114.723 94.167C115.421 93.7776 116.201 93.5574 117 93.5242C117.799 93.4911 118.595 93.6458 119.323 93.976L194.523 137.391C195.702 138.071 195.554 139.26 194.193 140.046L159.105 160.304C158.407 160.693 157.626 160.913 156.828 160.946C156.029 160.979 155.233 160.824 154.505 160.494V160.494Z" fill="#A6ACB1"/>
<path d="M154.504 157.102L78.512 113.33C77.333 112.649 78.277 111.818 79.638 111.03L114.727 90.769C115.425 90.3796 116.205 90.1595 117.004 90.1263C117.803 90.0932 118.599 90.2479 119.327 90.578L194.527 133.993C195.706 134.673 195.558 135.862 194.197 136.648L159.109 156.906C158.41 157.297 157.63 157.518 156.83 157.552C156.03 157.586 155.233 157.432 154.504 157.102V157.102Z" fill="#FDFFFF"/>
<path d="M167.906 127.394L157.565 133.279L140.098 123.517L150.59 117.388L167.906 127.394Z" fill="#E3E4E6"/>
<path d="M172.339 124.76V124.249L171.681 124.504L171.54 124.179L155.064 114.666C154.941 114.611 154.807 114.585 154.672 114.59C154.537 114.596 154.405 114.633 154.287 114.698L147.193 118.798V118.684L145.881 119.211V119.755H145.89C145.912 119.816 145.957 119.867 146.015 119.896L163.16 129.796C163.283 129.852 163.418 129.878 163.553 129.872C163.688 129.867 163.82 129.83 163.938 129.764L172.154 125.021C172.205 124.999 172.249 124.964 172.282 124.92C172.315 124.875 172.336 124.823 172.343 124.768L172.339 124.76Z" fill="#566069"/>
<path d="M163.146 129.248L146.001 119.348C145.801 119.233 145.828 119.031 146.057 118.899L154.273 114.156C154.391 114.09 154.523 114.053 154.658 114.048C154.793 114.042 154.928 114.068 155.051 114.124L172.196 124.024C172.396 124.138 172.369 124.341 172.14 124.473L163.924 129.216C163.806 129.282 163.674 129.319 163.539 129.324C163.404 129.33 163.269 129.304 163.146 129.248V129.248Z" fill="#A6ACB1"/>
<path d="M164.319 122.873L160.169 120.473C160.121 120.445 160.127 120.396 160.183 120.364L162.171 119.216C162.2 119.2 162.232 119.191 162.264 119.19C162.297 119.189 162.329 119.195 162.359 119.208L166.508 121.608C166.556 121.636 166.55 121.684 166.495 121.716L164.507 122.864C164.479 122.88 164.447 122.889 164.414 122.891C164.382 122.892 164.349 122.886 164.319 122.873Z" fill="#D1D4D7"/>
<path d="M162.71 118.108C162.664 117.867 162.57 117.637 162.434 117.432C162.299 117.227 162.124 117.051 161.92 116.914L144.898 107.24C144.844 107.201 144.782 107.176 144.717 107.165C144.651 107.155 144.584 107.16 144.521 107.18V107.18C144.487 107.195 144.457 107.219 144.433 107.248L143.869 107.84L144.382 107.794L146 118.255C146.046 118.496 146.14 118.726 146.276 118.931C146.411 119.136 146.586 119.312 146.79 119.449L162.89 128.596L163.41 129.18L163.475 129.324C163.801 129.394 164.58 128.841 164.58 128.841L162.71 118.108Z" fill="white"/>
<path d="M163.273 129.674L146.251 119.999C146.047 119.862 145.872 119.686 145.737 119.481C145.601 119.276 145.507 119.046 145.461 118.805L143.825 108.229C143.755 107.778 143.996 107.581 144.362 107.789L161.384 117.463C161.588 117.6 161.763 117.776 161.898 117.981C162.034 118.186 162.128 118.416 162.174 118.657L163.809 129.233C163.88 129.685 163.644 129.882 163.273 129.674Z" fill="#323E48"/>
<path d="M154.619 118.679C154.706 119.241 154.196 119.367 153.481 118.96C152.788 118.585 152.268 117.956 152.028 117.206C151.941 116.644 152.451 116.518 153.166 116.925C153.859 117.3 154.379 117.929 154.619 118.679V118.679Z" fill="white"/>
<path d="M179.271 115.04C179.279 116.432 179.218 118.162 177.981 119.071C176.888 119.694 175.654 120.028 174.396 120.041C170.921 120.404 167.568 120.671 164.396 122.282C162.948 123.018 164.224 125.195 165.669 124.46C169.235 122.649 173.08 123.06 176.861 122.203C180.482 121.385 181.814 118.554 181.794 115.04C181.785 114.712 181.648 114.4 181.412 114.171C181.177 113.942 180.861 113.813 180.532 113.813C180.204 113.813 179.888 113.942 179.653 114.171C179.417 114.4 179.28 114.712 179.271 115.04V115.04Z" fill="#FFC2B0"/>
<path d="M177.771 106.679L178.301 114.679C178.981 116.919 184.058 115.547 183.67 113.665L182.496 106.031C182.373 105.45 182.04 104.936 181.559 104.588C181.078 104.24 180.486 104.083 179.896 104.148V104.148C179.284 104.215 178.722 104.516 178.326 104.987C177.93 105.459 177.731 106.065 177.771 106.679Z" fill="#6258AD"/>
<path d="M92.4275 150.358C92.2468 150.385 92.0628 150.339 91.9159 150.23C91.7691 150.122 91.6715 149.959 91.6446 149.778L89.0703 132.477C89.0435 132.296 89.0894 132.112 89.198 131.966C89.3067 131.819 89.4691 131.722 89.6496 131.695V131.695C89.8303 131.668 90.0143 131.714 90.1612 131.823C90.308 131.932 90.4056 132.094 90.4325 132.275L93.0068 149.576C93.0336 149.757 92.9877 149.941 92.8791 150.087C92.7704 150.234 92.608 150.331 92.4275 150.358V150.358Z" fill="#323E48"/>
<path d="M59.796 151.498C59.6217 151.472 59.4648 151.378 59.3598 151.236C59.2548 151.095 59.2103 150.917 59.236 150.743L62.364 129.648C62.39 129.474 62.484 129.317 62.6256 129.212C62.7672 129.107 62.9447 129.062 63.119 129.088V129.088C63.2934 129.114 63.4503 129.208 63.5553 129.35C63.6603 129.491 63.7048 129.669 63.679 129.843L60.55 150.938C60.5241 151.112 60.4301 151.269 60.2888 151.374C60.1475 151.479 59.9702 151.523 59.796 151.498V151.498Z" fill="#323E48"/>
<path d="M75.138 160.468C75.0455 160.454 74.9566 160.423 74.8763 160.374C74.7961 160.326 74.7261 160.263 74.6704 160.188C74.6147 160.113 74.5743 160.027 74.5516 159.937C74.5289 159.846 74.5243 159.751 74.538 159.659L78.192 135.021C78.2199 134.834 78.3208 134.666 78.4725 134.554C78.6241 134.441 78.8142 134.393 79.001 134.421V134.421C79.0935 134.435 79.1825 134.466 79.2627 134.515C79.3429 134.563 79.4129 134.626 79.4686 134.701C79.5244 134.776 79.5647 134.862 79.5874 134.952C79.6102 135.043 79.6148 135.137 79.601 135.23L75.947 159.868C75.9333 159.96 75.9015 160.049 75.8534 160.13C75.8054 160.21 75.742 160.28 75.6668 160.336C75.5917 160.391 75.5063 160.432 75.4156 160.454C75.3249 160.477 75.2305 160.482 75.138 160.468V160.468Z" fill="#323E48"/>
<path d="M78.4811 140.706L63.6671 132.153C62.2941 131.361 62.8501 129.622 64.9021 128.29L70.2271 124.833C72.2791 123.501 75.0811 123.059 76.4541 123.852L91.268 132.405C92.641 133.198 92.0851 134.936 90.0331 136.268L84.7081 139.725C82.6561 141.057 79.8541 141.499 78.4811 140.706Z" fill="#323E48"/>
<path d="M74.3889 125.087L64.0359 133.087C62.3449 134.122 61.076 133.095 61.077 131.316L60.877 128.416C60.969 127.386 61.2938 126.39 61.8268 125.504C62.3598 124.618 63.0872 123.864 63.9539 123.3L74.3929 116.908C76.0839 115.873 77.466 116.481 77.464 118.26V119.969C77.3725 120.999 77.0482 121.995 76.5155 122.882C75.9828 123.769 75.2557 124.523 74.3889 125.087V125.087Z" fill="#323E48"/>
<path d="M77.468 143.046L62.4581 134.346C61.5283 133.742 60.7743 132.903 60.2721 131.914C59.7451 130.704 61.0021 129.829 62.4101 130.642L76.1811 138.749C77.5891 139.562 78.12 140.411 77.892 141.418C77.891 141.417 79.252 143.966 77.468 143.046Z" fill="#323E48"/>
<path d="M90.5489 136.6L80.11 142.991C78.419 144.026 77.11 143.541 77.21 141.911L77.3 140.346C77.4689 139.356 77.8452 138.412 78.4042 137.577C78.9633 136.743 79.6925 136.035 80.544 135.502L90.983 129.11C92.674 128.075 93.983 128.561 93.883 130.19L93.793 131.755C93.6242 132.746 93.2479 133.689 92.6889 134.524C92.1298 135.359 91.4006 136.067 90.5489 136.6Z" fill="#323E48"/>
<path d="M60.28 131.694L57.671 115.348C57.229 112.931 59.036 112.126 61.585 113.606L71.779 119.521C73.7086 120.694 75.2305 122.432 76.138 124.5L80.438 135.113C81.672 138.155 79.009 141.149 76.438 139.613L60.28 131.694Z" fill="#323E48"/>
<path d="M120.888 150.868L110.535 158.868C108.844 159.903 107.575 158.876 107.576 157.097L107.376 154.197C107.468 153.167 107.793 152.171 108.326 151.285C108.859 150.399 109.586 149.645 110.453 149.081L120.892 142.689C122.583 141.654 123.965 142.263 123.963 144.041V145.75C123.872 146.78 123.547 147.776 123.015 148.663C122.482 149.55 121.755 150.304 120.888 150.868V150.868Z" fill="#323E48"/>
<path d="M118.068 130.957C117.117 131.985 117.146 132.65 117.03 134.109C116.969 134.792 117.141 135.476 117.518 136.049C117.896 136.622 118.455 137.051 119.107 137.265L132.521 141.75C132.521 141.75 136.273 136.535 131.869 134.642C129.892 133.671 128.029 132.485 126.312 131.106C123.79 129.363 120.265 128.581 118.068 130.957Z" fill="#F7C25D"/>
<path d="M116.762 153.906C115.862 153.587 116.112 141.155 117.175 132.652L132.875 139.806C131.953 144.596 131.572 149.475 131.739 154.351C131.754 155.087 131.579 155.814 131.231 156.462C130.883 157.11 130.373 157.657 129.752 158.051C129.13 158.445 128.417 158.672 127.683 158.709C126.948 158.747 126.216 158.595 125.557 158.267L116.762 153.906Z" fill="#F7C25D"/>
<path d="M131.838 139.492C133.583 140.819 135.005 142.671 136.856 143.842C138.126 144.642 140.222 144.994 141.456 143.933C144.914 140.961 136.826 136.188 134.956 135.255C133.265 134.412 131.771 136.955 133.47 137.798C135.116 138.577 136.638 139.596 137.985 140.821C138.35 141.167 138.767 141.979 139.164 142.212C139.226 142.249 139.772 143.812 139.497 141.754C139.447 141.381 139.955 141.816 139.316 141.627C138.505 141.383 137.775 140.924 137.205 140.298C135.976 139.109 134.681 137.991 133.326 136.948C131.818 135.801 130.35 138.357 131.84 139.491L131.838 139.492Z" fill="#FFC2B0"/>
<path d="M130.303 138.984L136.386 143.984C138.325 145.165 140.436 141.599 138.916 140.495L132.96 135.239C132.757 135.069 132.523 134.941 132.271 134.861C132.018 134.782 131.753 134.753 131.489 134.777C131.226 134.8 130.969 134.875 130.735 134.998C130.501 135.12 130.293 135.288 130.123 135.491V135.491C129.763 136.012 129.586 136.636 129.619 137.268C129.651 137.9 129.892 138.503 130.303 138.984Z" fill="#F5B335"/>
<path d="M125.065 131.935L125.357 126.926L128.629 128.426L128.462 132.971C128.494 133.699 125.121 133.611 125.065 131.935Z" fill="#FFC2B0"/>
<path d="M129.897 133.577C126.297 132.861 123.582 135.021 123.266 129.765C123.526 129.618 123.834 129.58 124.122 129.658C124.411 129.736 124.658 129.923 124.809 130.181C125.174 130.702 125.674 131.112 126.256 131.367C126.838 131.623 127.479 131.713 128.109 131.629C128.322 131.61 128.536 131.654 128.725 131.755C128.914 131.856 129.068 132.011 129.17 132.199L129.897 133.577Z" fill="white"/>
<path d="M107.737 159.376L105.124 143.03C104.682 140.613 106.489 139.808 109.038 141.288L119.232 147.203C121.162 148.375 122.684 150.114 123.591 152.182L127.891 162.795C129.125 165.838 126.462 168.832 123.891 167.295L107.737 159.376Z" fill="#323E48"/>
<path d="M105.921 111.313C105.783 111.363 105.664 111.454 105.579 111.574C105.495 111.694 105.45 111.838 105.45 111.984C105.45 112.131 105.495 112.275 105.579 112.395C105.664 112.515 105.783 112.606 105.921 112.656L122.602 122.513C123.069 122.758 123.587 122.886 124.114 122.888C124.641 122.889 125.16 122.763 125.628 122.52L136.684 115.905C136.822 115.855 136.941 115.764 137.026 115.644C137.11 115.524 137.155 115.38 137.155 115.233C137.155 115.087 137.11 114.943 137.026 114.823C136.941 114.703 136.822 114.612 136.684 114.562L120.002 104.701C119.536 104.456 119.017 104.328 118.49 104.327C117.964 104.326 117.445 104.452 116.977 104.694L105.921 111.313Z" fill="#566069"/>
<path d="M122.602 122.511L105.915 112.652C105.785 112.591 105.673 112.497 105.591 112.379C105.509 112.261 105.459 112.123 105.447 111.98V112.728C105.458 112.871 105.508 113.009 105.59 113.127C105.672 113.245 105.784 113.339 105.914 113.4L122.602 123.259C123.064 123.513 123.584 123.642 124.111 123.633V122.887C123.584 122.895 123.064 122.765 122.602 122.511V122.511Z" fill="#323E48"/>
<path d="M136.688 115.903L125.632 122.518C125.167 122.771 124.644 122.898 124.115 122.886V123.633C124.644 123.645 125.167 123.518 125.632 123.266L136.688 116.65C136.817 116.59 136.928 116.498 137.01 116.383C137.092 116.267 137.143 116.132 137.158 115.991V115.991V115.234C137.145 115.377 137.095 115.514 137.013 115.632C136.93 115.749 136.818 115.843 136.688 115.903Z" fill="#727789"/>
<path d="M118.718 105.864L108.389 111.941L123.452 120.824L133.781 114.743L118.718 105.864Z" fill="#BACFF2"/>
<path d="M133.019 114.279L122.69 120.36L123.452 120.827L133.781 114.746L133.019 114.279Z" fill="#323E48"/>
<path d="M128.882 118.625L129.65 119.072C129.744 119.121 129.849 119.146 129.955 119.146C130.061 119.146 130.166 119.121 130.26 119.072L131.06 118.598C131.115 118.578 131.163 118.541 131.197 118.493C131.231 118.445 131.249 118.388 131.249 118.329C131.249 118.27 131.231 118.213 131.197 118.165C131.163 118.116 131.115 118.08 131.06 118.06L130.293 117.612C130.199 117.563 130.094 117.538 129.988 117.538C129.882 117.538 129.777 117.563 129.683 117.612L128.883 118.086C128.827 118.106 128.779 118.142 128.745 118.19C128.711 118.238 128.692 118.296 128.692 118.355C128.692 118.414 128.71 118.472 128.744 118.52C128.778 118.568 128.826 118.605 128.882 118.625Z" fill="#323E48"/>
<path d="M113.098 107.836C113.328 107.969 113.445 108.2 113.358 108.351C113.271 108.502 113.013 108.516 112.782 108.384C112.551 108.252 112.436 108.02 112.523 107.869C112.61 107.718 112.868 107.703 113.098 107.836Z" fill="#323E48"/>
<path d="M114.186 112.844L114.986 113.312C115.085 113.363 115.194 113.39 115.305 113.39C115.416 113.39 115.525 113.363 115.624 113.312L116.46 112.812C116.518 112.791 116.568 112.753 116.603 112.702C116.639 112.652 116.658 112.592 116.658 112.53C116.658 112.468 116.639 112.408 116.603 112.358C116.568 112.307 116.518 112.269 116.46 112.248L115.66 111.779C115.561 111.728 115.452 111.701 115.34 111.701C115.229 111.701 115.12 111.728 115.021 111.779L114.185 112.279C114.127 112.3 114.076 112.338 114.041 112.389C114.005 112.44 113.986 112.5 113.986 112.562C113.987 112.624 114.006 112.684 114.042 112.735C114.077 112.785 114.128 112.823 114.186 112.844V112.844Z" fill="white"/>
<path d="M116.574 111.447L117.374 111.916C117.473 111.967 117.582 111.993 117.693 111.993C117.804 111.993 117.913 111.967 118.012 111.916L118.848 111.416C118.906 111.395 118.956 111.357 118.991 111.306C119.027 111.256 119.046 111.196 119.046 111.134C119.046 111.072 119.027 111.012 118.991 110.962C118.956 110.911 118.906 110.873 118.848 110.852L118.048 110.384C117.949 110.333 117.84 110.306 117.729 110.306C117.618 110.306 117.509 110.333 117.41 110.384L116.574 110.884C116.516 110.905 116.467 110.944 116.432 110.994C116.396 111.044 116.378 111.104 116.378 111.165C116.378 111.227 116.396 111.287 116.432 111.337C116.467 111.387 116.516 111.426 116.574 111.447V111.447Z" fill="white"/>
<path d="M116.574 114.19L117.374 114.659C117.473 114.71 117.582 114.736 117.693 114.736C117.804 114.736 117.913 114.71 118.012 114.659L118.848 114.159C118.906 114.138 118.956 114.1 118.991 114.049C119.027 113.999 119.046 113.939 119.046 113.877C119.046 113.815 119.027 113.755 118.991 113.705C118.956 113.654 118.906 113.616 118.848 113.595L118.048 113.127C117.949 113.076 117.84 113.049 117.729 113.049C117.618 113.049 117.509 113.076 117.41 113.127L116.574 113.627C116.516 113.648 116.467 113.687 116.432 113.737C116.396 113.787 116.378 113.847 116.378 113.909C116.378 113.97 116.396 114.03 116.432 114.08C116.467 114.13 116.516 114.169 116.574 114.19V114.19Z" fill="white"/>
<path d="M118.963 112.793L119.763 113.262C119.862 113.313 119.971 113.339 120.082 113.339C120.193 113.339 120.302 113.313 120.401 113.262L121.237 112.762C121.295 112.741 121.345 112.703 121.38 112.652C121.416 112.602 121.435 112.542 121.435 112.48C121.435 112.418 121.416 112.358 121.38 112.308C121.345 112.257 121.295 112.219 121.237 112.198L120.437 111.73C120.338 111.679 120.229 111.652 120.117 111.652C120.006 111.652 119.897 111.679 119.798 111.73L118.962 112.23C118.904 112.251 118.855 112.29 118.82 112.34C118.785 112.391 118.766 112.45 118.766 112.512C118.766 112.573 118.785 112.633 118.82 112.683C118.856 112.734 118.905 112.772 118.963 112.793V112.793Z" fill="white"/>
<path d="M118.963 110.075L119.763 110.544C119.862 110.595 119.971 110.622 120.082 110.622C120.193 110.622 120.302 110.595 120.401 110.544L121.237 110.044C121.295 110.023 121.345 109.985 121.38 109.934C121.416 109.884 121.435 109.824 121.435 109.762C121.435 109.7 121.416 109.64 121.38 109.59C121.345 109.539 121.295 109.501 121.237 109.48L120.437 109.012C120.338 108.961 120.229 108.934 120.117 108.934C120.006 108.934 119.897 108.961 119.798 109.012L118.962 109.512C118.904 109.533 118.855 109.572 118.82 109.622C118.785 109.672 118.766 109.732 118.766 109.794C118.766 109.855 118.785 109.915 118.82 109.965C118.856 110.016 118.905 110.054 118.963 110.075V110.075Z" fill="white"/>
<path d="M121.356 111.421L122.156 111.89C122.255 111.941 122.364 111.968 122.475 111.968C122.587 111.968 122.696 111.941 122.795 111.89L123.63 111.39C123.688 111.369 123.738 111.331 123.773 111.28C123.809 111.23 123.828 111.17 123.828 111.108C123.828 111.046 123.809 110.986 123.773 110.936C123.738 110.885 123.688 110.847 123.63 110.826L122.83 110.357C122.731 110.306 122.622 110.279 122.51 110.279C122.399 110.279 122.29 110.306 122.191 110.357L121.355 110.857C121.297 110.878 121.247 110.916 121.212 110.967C121.177 111.017 121.158 111.078 121.158 111.139C121.158 111.201 121.177 111.261 121.212 111.311C121.248 111.362 121.298 111.4 121.356 111.421V111.421Z" fill="white"/>
<path d="M118.975 115.537L119.775 116.006C119.874 116.057 119.983 116.083 120.095 116.083C120.206 116.083 120.315 116.057 120.414 116.006L121.25 115.506C121.308 115.485 121.358 115.447 121.393 115.396C121.429 115.346 121.448 115.286 121.448 115.224C121.448 115.162 121.429 115.102 121.393 115.052C121.358 115.001 121.308 114.963 121.25 114.942L120.45 114.474C120.352 114.423 120.242 114.396 120.131 114.396C120.02 114.396 119.911 114.423 119.812 114.474L118.976 114.974C118.918 114.995 118.869 115.033 118.833 115.084C118.798 115.134 118.779 115.194 118.779 115.255C118.779 115.316 118.798 115.376 118.833 115.427C118.868 115.477 118.917 115.516 118.975 115.537V115.537Z" fill="white"/>
<path d="M121.361 114.139L122.161 114.608C122.26 114.659 122.369 114.685 122.48 114.685C122.591 114.685 122.7 114.659 122.799 114.608L123.635 114.108C123.693 114.087 123.743 114.049 123.778 113.998C123.814 113.948 123.833 113.888 123.833 113.826C123.833 113.764 123.814 113.704 123.778 113.654C123.743 113.603 123.693 113.565 123.635 113.544L122.835 113.076C122.736 113.025 122.627 112.998 122.516 112.998C122.405 112.998 122.296 113.025 122.197 113.076L121.362 113.576C121.304 113.597 121.255 113.635 121.219 113.686C121.184 113.736 121.165 113.796 121.165 113.857C121.165 113.918 121.184 113.978 121.219 114.029C121.254 114.079 121.303 114.118 121.361 114.139V114.139Z" fill="white"/>
<path d="M123.751 112.767L124.551 113.236C124.65 113.287 124.759 113.313 124.87 113.313C124.982 113.313 125.091 113.287 125.19 113.236L126.026 112.736C126.084 112.715 126.134 112.677 126.169 112.626C126.205 112.576 126.224 112.516 126.224 112.454C126.224 112.392 126.205 112.332 126.169 112.282C126.134 112.231 126.084 112.193 126.026 112.172L125.226 111.704C125.127 111.653 125.018 111.626 124.906 111.626C124.795 111.626 124.686 111.653 124.587 111.704L123.751 112.204C123.693 112.225 123.644 112.264 123.609 112.314C123.573 112.364 123.555 112.424 123.555 112.485C123.555 112.547 123.573 112.607 123.609 112.657C123.644 112.707 123.693 112.746 123.751 112.767V112.767Z" fill="white"/>
<path d="M129.334 118.928C129.334 118.928 132.155 118.853 131.834 123.911C131.613 127.429 129.576 128.53 126.597 129.705C124.742 130.436 122.62 129.191 122.642 127.433C122.287 125.073 122.592 122.66 123.525 120.463C123.551 118.343 124.952 119.194 127.472 119.23L129.334 118.928Z" fill="#FFC2B0"/>
<path d="M123.713 125.852C123.585 126.679 123.961 127.424 124.553 127.516C124.617 127.526 124.682 127.528 124.746 127.522C125.05 127.447 125.322 127.277 125.522 127.037C125.722 126.796 125.84 126.497 125.858 126.185C125.986 125.358 125.61 124.613 125.018 124.521C124.426 124.429 123.841 125.025 123.713 125.852Z" fill="#FFC2B0"/>
<path d="M129.492 129.138C129.492 129.138 133.035 128.092 133.039 123.209C133.039 117.925 128.176 118.046 125.505 117.609C124.322 117.409 123.505 117.185 122.213 118.189C121.037 119.102 121.922 121.395 123.502 121.648C124.129 121.748 123.724 123.427 123.811 124.018C123.967 125.07 124.577 125.618 124.747 126.641C124.914 127.242 125.213 127.797 125.622 128.268C126.031 128.738 126.54 129.112 127.111 129.361C127.905 129.58 128.752 129.5 129.492 129.138V129.138Z" fill="#715154"/>
<path d="M110.63 106.059C110.63 106.5 109.978 106.859 109.174 106.859C108.37 106.859 107.717 106.501 107.717 106.059C107.717 105.617 108.369 105.259 109.174 105.259C109.979 105.259 110.63 105.617 110.63 106.059Z" fill="#495063"/>
<path d="M107.715 106.058L107.94 104.01H110.403L110.628 106.058H107.715Z" fill="#495063"/>
<path d="M110.403 104.01C110.403 104.384 109.852 104.686 109.171 104.686C108.49 104.686 107.939 104.386 107.939 104.01C107.939 103.634 108.49 103.334 109.171 103.334C109.852 103.334 110.403 103.637 110.403 104.01Z" fill="#5D637A"/>
<path d="M109.803 103.746C109.803 103.938 109.52 104.093 109.172 104.093C108.824 104.093 108.541 103.938 108.541 103.746C108.541 103.554 108.823 103.4 109.172 103.4C109.521 103.4 109.803 103.555 109.803 103.746Z" fill="#39404F"/>
<path d="M109.468 95.152C109.468 95.242 109.335 95.315 109.168 95.315C109.001 95.315 108.868 95.242 108.868 95.152C108.868 95.062 109 94.989 109.168 94.989C109.336 94.989 109.468 95.062 109.468 95.152Z" fill="#39404F"/>
<path d="M109.468 95.152H108.875L108.54 103.746H109.802L109.468 95.152Z" fill="#39404F"/>
<path d="M109.18 94.376H109.165C109.123 94.376 109.082 94.3928 109.052 94.4228C109.022 94.4528 109.005 94.4935 109.005 94.536V95.866H109.341V94.541C109.342 94.5194 109.338 94.498 109.33 94.478C109.322 94.4579 109.311 94.4396 109.296 94.4242C109.281 94.4088 109.263 94.3966 109.243 94.3883C109.223 94.38 109.202 94.3758 109.18 94.376V94.376Z" fill="#39404F"/>
<mask id="mask0" mask-type="alpha" maskUnits="userSpaceOnUse" x="6" y="-25" width="81" height="123">
<path d="M86.241 -25L86.091 52.493L6 97.768V21.886L86.241 -25Z" fill="#E2F4F0"/>
</mask>
<g mask="url(#mask0)">
<path d="M65.908 42.449C67.255 46.373 68.208 50.465 69.657 54.349C70.764 57.307 72.757 59.669 74.819 62.022C78.451 66.174 72.3891 72.284 68.7351 68.106C65.9711 64.947 63.379 61.777 61.819 57.845C60.133 53.592 59.096 49.065 57.611 44.738C56.952 42.819 54.137 40.538 55.369 39.638C57.506 38.077 64.769 39.138 65.908 42.451V42.449Z" fill="#8CD5C6"/>
<path d="M60.622 22.446C61.944 24.79 63.472 30.482 62.243 33.292C62.043 33.744 58.172 44.381 57.732 44.118C57.292 43.855 51.962 42.228 51.583 41.882C50.456 40.852 42.561 47.835 41.414 46.828C39.86 45.464 39.207 25.701 39.141 23.634C39.057 20.999 52.254 21.122 53.879 19.045C54.223 18.66 54.5416 18.2531 54.833 17.827V17.827C55.214 17.183 55.403 15.975 56.348 16.127C57.107 16.246 57.655 17.422 58.048 17.958C59.0042 19.3955 59.8641 20.8948 60.622 22.446Z" fill="#715154"/>
<path d="M39.0299 43.92C42.4359 40.133 48.998 38.089 53.93 37.838C55.314 37.768 55.31 39.919 53.93 39.989C49.547 40.212 43.5609 42.089 40.5479 45.441C39.6209 46.473 38.1029 44.947 39.0269 43.92H39.0299Z" fill="#D0E7F4"/>
<path d="M62.8979 45.531C62.8979 45.531 68.5249 53.343 68.2169 58.269C68.0169 61.404 65.9779 65.033 65.7069 66.048C63.4909 74.359 65.1169 76.748 64.9569 79.017C64.9569 79.017 62.2409 83.636 44.0429 80.647L34.6429 57.481L62.8979 45.531Z" fill="#8CD5C6"/>
<path d="M36.356 62.58C35.8552 62.2044 35.5099 61.6577 35.386 61.044C34.656 56.86 32.23 55.079 36.398 47.605C37.068 46.405 46.798 40.631 54.25 38.836C56.014 38.4311 57.8631 38.6329 59.4982 39.4088C61.1334 40.1847 62.4591 41.4894 63.261 43.112C64.0832 45.006 64.765 46.958 65.301 48.952C66.101 56.667 62.094 46.707 61.796 51.01C61.808 50.91 61.829 50.799 61.838 50.696C61.838 50.696 61.319 57.965 60.933 63.596C60.696 67.106 60.533 69.645 60.521 69.996C60.521 70.012 60.521 70.035 60.521 70.04L48.047 81.094L40.456 69.073L36.356 62.58Z" fill="#8CD5C6"/>
<path d="M52.318 38.997C52.7812 38.9047 53.2609 38.941 53.7049 39.102C54.149 39.2629 54.5405 39.5423 54.837 39.91C56.537 41.979 59.292 46.45 55.303 50.23C49.913 55.338 39.65 45.207 39.65 45.207C44.01 42.116 48.259 39.842 52.318 38.997Z" fill="#FFC2B0"/>
<path d="M51.7439 43.351L52.3639 30.483L45.2179 34.499L44.7179 45.004C44.5109 46.744 50.7529 50.062 51.7439 43.351Z" fill="#FFC2B0"/>
<path d="M51.799 40.082C51.799 40.082 47.999 39.039 47.98 39.009C48.9185 40.2553 50.1568 41.2439 51.58 41.883L51.799 40.082Z" fill="#EA8A6C"/>
<path d="M55.511 38.484C56.6523 40.7042 57.4418 43.0883 57.851 45.551C58.351 47.824 58.101 49.161 56.051 50.617C50.329 54.679 43.632 49.689 39.291 45.942C38.241 45.036 39.769 43.5199 40.812 44.4209C43.955 47.1339 49.451 51.585 53.812 49.387C56.712 47.924 55.859 46.198 55.134 43.72C54.8142 42.2802 54.3157 40.886 53.65 39.57C53.5149 39.3242 53.4811 39.0354 53.5558 38.7651C53.6304 38.4948 53.8076 38.2643 54.0497 38.1228C54.2918 37.9812 54.5796 37.9397 54.8518 38.0072C55.124 38.0747 55.3591 38.2457 55.507 38.484H55.511Z" fill="white"/>
<path d="M54.2035 39.4184C52.1625 40.0174 49.9672 39.7811 48.1005 38.7615C46.2338 37.7419 44.8486 36.0224 44.2496 33.9815L41.4535 24.4543C40.8545 22.4133 41.0909 20.218 42.1105 18.3513C43.1301 16.4846 44.8495 15.0994 46.8905 14.5004C48.9315 13.9014 51.1268 14.1377 52.9935 15.1574C54.8602 16.177 56.2454 17.8964 56.8444 19.9374L59.6405 29.4645C60.2394 31.5055 60.0031 33.7008 58.9835 35.5675C57.9639 37.4342 56.2444 38.8195 54.2035 39.4184V39.4184Z" fill="#FFC2B0"/>
<path d="M47.185 24.052C48.944 20.203 54.6949 22.77 57.0139 21.114C59.5309 19.314 57.842 16.689 55.349 14.859C53.6665 13.6588 51.6775 12.9617 49.6139 12.849C41.6789 11.978 35.214 16.905 37.044 25.149C37.044 25.149 36.844 37.609 43.794 37.581L44.048 33.288C44.048 33.288 41.403 31.573 44.779 28.127C45.567 27.327 45.6059 27.294 45.1699 25.957C44.7299 24.606 46.593 25.346 47.185 24.052Z" fill="#715154"/>
<path d="M60.434 27.138C60.434 27.138 59.358 23.408 49.1 20.811C38.842 18.214 48.635 20.689 48.635 20.689L57.035 16.376C57.035 16.376 61.589 19.468 60.434 27.138Z" fill="#715154"/>
<path d="M56.661 32.189L52.961 33.711C52.8864 33.7412 52.8251 33.7972 52.7884 33.8688C52.7516 33.9404 52.7419 34.0228 52.761 34.101C52.897 34.701 53.429 35.986 55.461 35.301C55.9966 35.0862 56.4534 34.712 56.7694 34.2291C57.0854 33.7462 57.2455 33.1779 57.228 32.601C57.2296 32.5321 57.2145 32.4639 57.184 32.4021C57.1534 32.3403 57.1083 32.2869 57.0525 32.2463C56.9968 32.2058 56.932 32.1795 56.8638 32.1695C56.7956 32.1595 56.726 32.1662 56.661 32.189Z" fill="white"/>
<path d="M50.866 29.59C50.904 30.062 51.126 30.45 51.366 30.456C51.606 30.462 51.766 30.084 51.726 29.612C51.686 29.14 51.466 28.752 51.226 28.746C50.986 28.74 50.828 29.115 50.866 29.59Z" fill="#492817"/>
<path d="M56.7529 27.464C56.7909 27.936 57.0129 28.324 57.2529 28.33C57.4929 28.336 57.653 27.958 57.613 27.486C57.573 27.014 57.353 26.626 57.113 26.62C56.873 26.614 56.7149 26.992 56.7529 27.464Z" fill="#492817"/>
<path d="M51.2439 27.406C50.3336 27.4389 49.4691 27.8139 48.8229 28.456C48.4429 28.874 47.7339 28.206 48.1129 27.789C48.9268 26.9786 50.0216 26.5129 51.1699 26.489C51.7699 26.489 51.8409 27.412 51.2429 27.409L51.2439 27.406Z" fill="#715154"/>
<path d="M57.465 25.179C57.0796 25.1052 56.6834 25.1084 56.2991 25.1882C55.9149 25.268 55.5502 25.4229 55.226 25.644C54.844 25.944 54.271 25.258 54.655 24.955C55.0562 24.6666 55.5118 24.4628 55.9942 24.3559C56.4765 24.249 56.9756 24.2412 57.461 24.333C57.975 24.446 57.983 25.292 57.461 25.178L57.465 25.179Z" fill="#715154"/>
<path d="M42.786 53.916C38.978 63.4783 37.1413 73.7114 37.386 84.001C37.456 89.54 28.852 89.543 28.786 84.001C28.5057 72.9384 30.4448 61.9317 34.489 51.631C36.505 46.543 44.829 48.76 42.789 53.918L42.786 53.916Z" fill="#8CD5C6"/>
<path d="M47.465 23.549C47.465 23.549 43.144 34.858 45.384 40.885C47.236 45.866 53.165 47.707 56.147 55.185C56.2772 55.5237 56.2931 55.8957 56.1924 56.2443C56.0917 56.5929 55.8799 56.8991 55.5891 57.1162C55.2984 57.3334 54.9447 57.4496 54.5818 57.4472C54.219 57.4448 53.8669 57.3239 53.579 57.103C51.7388 55.6435 49.6865 54.4737 47.493 53.634C41.816 51.576 38.954 47.899 38.747 45.208C38.54 42.517 36.792 23.608 36.792 23.608L47.592 19.649L47.465 23.549Z" fill="#715154"/>
<path d="M42.844 35.76C43.0897 35.9225 43.3748 36.0153 43.669 36.0287C43.9633 36.042 44.2556 35.9754 44.515 35.8359C44.7744 35.6964 44.9912 35.4893 45.1423 35.2364C45.2933 34.9836 45.3731 34.6945 45.373 34.4C45.3929 33.6674 45.2066 32.9439 44.8353 32.312C44.464 31.6801 43.9227 31.1652 43.273 30.826C43.0273 30.6636 42.7422 30.5707 42.448 30.5573C42.1537 30.544 41.8614 30.6106 41.602 30.7501C41.3426 30.8896 41.1258 31.0967 40.9748 31.3496C40.8237 31.6024 40.7439 31.8915 40.744 32.186C40.7241 32.9186 40.9104 33.6421 41.2817 34.274C41.653 34.9059 42.1943 35.4208 42.844 35.76V35.76Z" fill="#FFC2B0"/>
</g>
<path opacity="0.53" d="M104.44 108.742C104.456 108.703 104.457 108.66 104.443 108.621C104.43 108.582 104.403 108.548 104.367 108.527L98.7901 105.307C97.7447 104.5 96.5962 103.837 95.3751 103.335L94.7751 102.987C94.7557 102.978 94.7346 102.972 94.7131 102.97L93.6661 102.37C93.1661 100.675 90.3541 98.81 86.1141 97.116C86.0384 97.0712 85.952 97.0476 85.8641 97.0476C85.7761 97.0476 85.6898 97.0712 85.6141 97.116L85.0141 97.473L71.8591 105.068C71.8289 105.086 71.8048 105.112 71.7901 105.144H71.7801V105.183C71.7742 105.208 71.7742 105.235 71.7801 105.26V105.508C71.7705 105.544 71.7731 105.583 71.7874 105.617C71.8016 105.652 71.8268 105.681 71.8591 105.7L81.4591 111.24C81.4785 111.249 81.4996 111.255 81.5211 111.257L91.0471 116.757C91.0741 116.773 91.1048 116.781 91.1361 116.781C91.1673 116.781 91.198 116.773 91.2251 116.757L104.38 109.162C104.408 109.146 104.431 109.122 104.446 109.093C104.462 109.064 104.468 109.032 104.466 108.999V108.999V108.747L104.44 108.742Z" fill="#D1D4D7"/>
<path d="M93.95 102.747H93.572V102.999H93.95V102.747Z" fill="#DD4078"/>
<path d="M80.8441 110.182H80.4661V110.56H80.8441V110.182Z" fill="#3A3A5E"/>
<path d="M103.484 108.023L93.8841 102.483C93.8647 102.473 93.8437 102.468 93.8221 102.466L84.2961 96.966C84.2692 96.9505 84.2386 96.9423 84.2076 96.9423C84.1765 96.9423 84.146 96.9505 84.1191 96.966L70.9641 104.566C70.9339 104.584 70.9099 104.61 70.8951 104.642H70.8851V104.681C70.8791 104.706 70.8791 104.733 70.8851 104.758V105.006C70.8755 105.042 70.8781 105.081 70.8923 105.115C70.9066 105.15 70.9318 105.179 70.9641 105.198L80.5641 110.738C80.5836 110.747 80.6045 110.753 80.6261 110.755L90.1521 116.255C90.1791 116.271 90.2098 116.279 90.2411 116.279C90.2724 116.279 90.3031 116.271 90.3301 116.255L103.485 108.66C103.513 108.644 103.536 108.62 103.552 108.591C103.567 108.562 103.574 108.53 103.571 108.497V108.497V108.245H103.555C103.573 108.206 103.575 108.161 103.562 108.12C103.549 108.079 103.521 108.045 103.484 108.023V108.023Z" fill="#323E48"/>
<path d="M74.306 105.783L80.557 109.816L84.351 106.797C84.351 106.797 76.986 103.796 74.306 105.783Z" fill="#323E48"/>
<path d="M80.6101 109.707C80.0691 107.669 76.3102 106.837 72.0042 104.738C71.8662 104.658 71.8842 104.519 72.0432 104.426L83.7131 97.689C83.7951 97.6432 83.8866 97.6173 83.9804 97.6133C84.0742 97.6093 84.1676 97.6274 84.2531 97.666C89.5981 99.249 92.9281 100.891 92.8591 102.635L80.6101 109.707Z" fill="#D1D4D7"/>
<path d="M80.6111 109.707C80.9679 109.586 81.3491 109.554 81.721 109.615C82.0929 109.676 82.4443 109.827 82.7441 110.055C83.6971 110.843 89.7711 115.407 89.7711 115.407L102.118 108.347C102.118 108.347 95.5181 101.947 92.8591 102.635L80.6111 109.707Z" fill="#D1D4D7"/>
<path d="M80.611 109.707C81.003 107.33 77.211 106.117 73.38 103.675C73.258 103.584 73.28 103.434 73.438 103.342L84.726 96.608C84.8017 96.5632 84.888 96.5396 84.976 96.5396C85.064 96.5396 85.1503 96.5632 85.226 96.608C90.063 98.54 93.039 100.695 92.851 102.566L80.611 109.707Z" fill="#ECEDEE"/>
<path d="M98.3301 106.647L94.2531 103.908C94.2011 103.873 94.2111 103.819 94.2761 103.787C94.3093 103.771 94.3457 103.764 94.3823 103.765C94.419 103.766 94.4549 103.776 94.4871 103.793L98.5641 106.532C98.6161 106.567 98.6061 106.621 98.5411 106.653C98.5079 106.668 98.4715 106.676 98.4349 106.675C98.3983 106.674 98.3624 106.664 98.3301 106.647V106.647Z" fill="#7D858C"/>
<path d="M96.9501 107.49L92.8731 104.751C92.8211 104.716 92.8321 104.662 92.8961 104.63C92.9294 104.615 92.9657 104.607 93.0023 104.608C93.039 104.609 93.0749 104.619 93.1071 104.636L97.1841 107.375C97.2361 107.41 97.2261 107.464 97.1611 107.496C97.128 107.512 97.0916 107.519 97.0549 107.518C97.0183 107.517 96.9823 107.508 96.9501 107.49V107.49Z" fill="#7D858C"/>
<path d="M95.579 108.339L91.502 105.6C91.45 105.565 91.4611 105.511 91.5251 105.479C91.5583 105.464 91.5946 105.456 91.6313 105.457C91.6679 105.458 91.7038 105.468 91.7361 105.485L95.813 108.224C95.865 108.259 95.854 108.313 95.79 108.345C95.7568 108.361 95.7205 108.368 95.6838 108.367C95.6472 108.366 95.6113 108.356 95.579 108.339V108.339Z" fill="#7D858C"/>
<path d="M94.201 109.185L90.124 106.446C90.072 106.411 90.083 106.357 90.148 106.325C90.1812 106.309 90.2176 106.302 90.2543 106.303C90.2909 106.304 90.3268 106.314 90.359 106.331L94.436 109.07C94.488 109.105 94.477 109.159 94.413 109.191C94.3797 109.207 94.3432 109.214 94.3063 109.213C94.2695 109.212 94.2334 109.203 94.201 109.185V109.185Z" fill="#7D858C"/>
<path d="M92.8241 110.032L88.747 107.293C88.695 107.258 88.706 107.204 88.77 107.172C88.8032 107.156 88.8396 107.149 88.8763 107.15C88.9129 107.151 88.9488 107.16 88.981 107.178L93.058 109.917C93.11 109.952 93.0991 110.006 93.0351 110.038C93.0019 110.054 92.9655 110.061 92.9288 110.06C92.8922 110.059 92.8563 110.049 92.8241 110.032V110.032Z" fill="#7D858C"/>
<path d="M91.4082 111.211L87.3312 108.472C87.2792 108.437 87.2901 108.383 87.3541 108.351C87.3873 108.336 87.4237 108.328 87.4604 108.329C87.497 108.33 87.5329 108.34 87.5651 108.357L91.6422 111.096C91.6942 111.131 91.6832 111.185 91.6192 111.217C91.5859 111.232 91.5496 111.24 91.5129 111.239C91.4763 111.238 91.4404 111.228 91.4082 111.211V111.211Z" fill="#7D858C"/>
<path d="M90.0311 112.058L85.9541 109.318C85.9021 109.283 85.9131 109.229 85.9771 109.197C86.0102 109.181 86.0466 109.174 86.0833 109.175C86.1199 109.176 86.1559 109.185 86.1881 109.203L90.2651 111.942C90.3171 111.977 90.3061 112.031 90.2421 112.063C90.2089 112.079 90.1726 112.086 90.136 112.085C90.0994 112.085 90.0634 112.075 90.0311 112.058V112.058Z" fill="#7D858C"/>
<path d="M88.6591 112.905L84.5821 110.165C84.5301 110.13 84.5401 110.076 84.6051 110.044C84.6382 110.028 84.6746 110.021 84.7113 110.022C84.7479 110.023 84.7839 110.032 84.8161 110.05L88.8931 112.789C88.9451 112.824 88.9341 112.878 88.8701 112.91C88.8369 112.926 88.8006 112.933 88.764 112.933C88.7273 112.932 88.6914 112.922 88.6591 112.905V112.905Z" fill="#7D858C"/>
<path d="M89.991 100.121L85.854 97.474C85.801 97.44 85.81 97.386 85.875 97.353C85.9078 97.3365 85.9439 97.3279 85.9805 97.3279C86.0172 97.3279 86.0533 97.3365 86.086 97.353L90.223 100C90.276 100.034 90.267 100.088 90.202 100.121C90.1693 100.138 90.1332 100.146 90.0965 100.146C90.0599 100.146 90.0238 100.138 89.991 100.121V100.121Z" fill="#A6ACB1"/>
<path d="M88.6341 100.999L84.4961 98.353C84.4431 98.319 84.4531 98.265 84.5171 98.232C84.5498 98.2155 84.5859 98.2069 84.6226 98.2069C84.6592 98.2069 84.6953 98.2155 84.7281 98.232L88.8661 100.878C88.9191 100.912 88.9101 100.966 88.8451 100.999C88.8123 101.016 88.7762 101.024 88.7396 101.024C88.7029 101.024 88.6668 101.016 88.6341 100.999Z" fill="#A6ACB1"/>
<path d="M87.277 101.876L83.139 99.229C83.086 99.195 83.096 99.141 83.16 99.108C83.1929 99.0914 83.2292 99.0828 83.266 99.0828C83.3028 99.0828 83.3391 99.0914 83.372 99.108L87.51 101.754C87.563 101.788 87.553 101.842 87.489 101.875C87.4562 101.892 87.4199 101.901 87.3831 101.901C87.3463 101.901 87.3099 101.892 87.277 101.876V101.876Z" fill="#A6ACB1"/>
<path d="M85.9191 102.753L81.7811 100.106C81.7281 100.073 81.7381 100.018 81.8021 99.985C81.8348 99.9685 81.871 99.9599 81.9076 99.9599C81.9443 99.9599 81.9804 99.9685 82.0131 99.985L86.1511 102.632C86.2041 102.666 86.1941 102.72 86.1301 102.753C86.0973 102.769 86.0612 102.778 86.0246 102.778C85.9879 102.778 85.9518 102.769 85.9191 102.753V102.753Z" fill="#A6ACB1"/>
<path d="M84.562 103.63L80.424 100.983C80.371 100.949 80.381 100.895 80.445 100.862C80.4777 100.845 80.5139 100.837 80.5505 100.837C80.5872 100.837 80.6233 100.845 80.656 100.862L84.794 103.509C84.847 103.543 84.837 103.597 84.773 103.63C84.7403 103.647 84.7042 103.655 84.6675 103.655C84.6309 103.655 84.5948 103.647 84.562 103.63V103.63Z" fill="#A6ACB1"/>
<path d="M83.172 104.842L79.034 102.195C78.981 102.161 78.991 102.107 79.055 102.074C79.0878 102.058 79.1239 102.049 79.1605 102.049C79.1972 102.049 79.2333 102.058 79.266 102.074L83.404 104.721C83.457 104.755 83.448 104.809 83.383 104.842C83.3503 104.858 83.3142 104.867 83.2775 104.867C83.2409 104.867 83.2048 104.858 83.172 104.842V104.842Z" fill="#A6ACB1"/>
<path d="M81.815 105.719L77.677 103.072C77.624 103.039 77.634 102.984 77.698 102.951C77.7309 102.934 77.7672 102.926 77.804 102.926C77.8408 102.926 77.8771 102.934 77.91 102.951L82.048 105.598C82.101 105.632 82.092 105.686 82.027 105.719C81.9941 105.736 81.9578 105.744 81.921 105.744C81.8841 105.744 81.8478 105.736 81.815 105.719Z" fill="#A6ACB1"/>
<path d="M80.458 106.596L76.32 103.949C76.267 103.916 76.277 103.861 76.341 103.828C76.3738 103.812 76.4099 103.803 76.4465 103.803C76.4832 103.803 76.5193 103.812 76.552 103.828L80.69 106.475C80.743 106.509 80.733 106.563 80.669 106.596C80.6363 106.613 80.6002 106.621 80.5635 106.621C80.5269 106.621 80.4907 106.613 80.458 106.596V106.596Z" fill="#A6ACB1"/>
<path d="M99.0481 106.042C97.4281 107.034 93.1111 109.32 90.8251 110.506C90.8018 110.518 90.7831 110.538 90.7718 110.562C90.7604 110.585 90.757 110.612 90.762 110.638C90.7671 110.664 90.7803 110.688 90.7998 110.705C90.8192 110.723 90.8439 110.734 90.8701 110.737L92.3871 110.892C92.4077 110.893 92.4275 110.9 92.4449 110.911C92.4622 110.922 92.4765 110.937 92.4865 110.955C92.4964 110.973 92.5017 110.993 92.5018 111.014C92.5019 111.035 92.4969 111.055 92.4871 111.073L91.9651 112.053C91.9529 112.076 91.948 112.102 91.9514 112.127C91.9547 112.153 91.9661 112.177 91.9838 112.196C92.0015 112.215 92.0247 112.227 92.0501 112.232C92.0754 112.237 92.1017 112.234 92.1251 112.223C93.0671 111.778 95.8081 109.701 99.7041 107.054C99.7795 107.004 99.8424 106.937 99.8882 106.859C99.934 106.78 99.9615 106.693 99.9687 106.602C99.9758 106.512 99.9623 106.421 99.9293 106.337C99.8963 106.252 99.8446 106.177 99.7781 106.115V106.115C99.6817 106.024 99.5577 105.967 99.4256 105.954C99.2935 105.941 99.1607 105.972 99.0481 106.042V106.042Z" fill="#7E57C5"/>
<path opacity="0.53" d="M79.3141 97.769C79.3115 97.7253 79.2972 97.6832 79.2725 97.6471C79.2478 97.611 79.2138 97.5823 79.1741 97.564L75.6591 95.534C75.5289 95.475 75.3868 95.4473 75.244 95.4532C75.1013 95.4591 74.9619 95.4984 74.8371 95.568L68.4731 99.242C68.4214 99.2649 68.3762 99.3002 68.3414 99.3446C68.3065 99.3891 68.2831 99.4414 68.2731 99.497L68.2841 99.849C68.2691 99.9018 68.2741 99.9583 68.2981 100.008C68.322 100.057 68.3633 100.096 68.4141 100.117L71.929 102.147C72.0592 102.206 72.2014 102.234 72.3441 102.228C72.4869 102.222 72.6262 102.183 72.7511 102.113L79.1151 98.439C79.1676 98.416 79.2134 98.3801 79.2484 98.3346C79.2833 98.2892 79.3063 98.2357 79.3151 98.179V98.179L79.3141 97.769Z" fill="#D1D4D7"/>
<path d="M67.6541 99.561L67.644 99.209L68.0981 99.503C68.0586 99.6091 68.0111 99.7121 67.9561 99.811L67.6541 99.561Z" fill="#A6ACB1"/>
<path d="M71.3021 101.861L67.7871 99.831C67.5761 99.71 67.603 99.497 67.846 99.357L74.2101 95.683C74.3349 95.6135 74.4743 95.5743 74.617 95.5683C74.7598 95.5624 74.9019 95.5901 75.032 95.649L78.5471 97.679C78.7581 97.8 78.7311 98.013 78.4881 98.153L72.1241 101.827C71.9992 101.897 71.8599 101.936 71.7171 101.942C71.5744 101.948 71.4322 101.92 71.3021 101.861V101.861Z" fill="#D1D4D7"/>
<path d="M71.6841 99.9111L74.2091 95.684C74.3339 95.6145 74.4733 95.5752 74.616 95.5693C74.7588 95.5634 74.9009 95.5911 75.0311 95.65L78.5461 97.68C78.7571 97.801 78.7301 98.014 78.4871 98.154L72.1231 101.828C71.9931 101.899 71.8482 101.939 71.7001 101.943L71.6841 99.9111Z" fill="#A6ACB1"/>
<path d="M74.4541 98.508L75.0991 97.632L78.6881 97.481V97.891L74.7651 99.141L74.4541 98.508Z" fill="#566069"/>
<path d="M68.1451 99.8031C68.1451 99.8641 68.1021 99.8891 68.0451 99.8581C68.0165 99.8403 67.9925 99.816 67.9751 99.7871C67.9577 99.7582 67.9474 99.7257 67.9451 99.6921C67.9451 99.6311 67.9881 99.606 68.0451 99.637C68.0737 99.6548 68.0977 99.6792 68.1151 99.708C68.1324 99.7369 68.1427 99.7695 68.1451 99.8031V99.8031Z" fill="#566069"/>
<path d="M71.3021 101.459L67.7871 99.429C67.5761 99.308 67.603 99.095 67.846 98.955L74.2101 95.281C74.3349 95.2115 74.4743 95.1722 74.617 95.1663C74.7598 95.1604 74.9019 95.1881 75.032 95.247L78.5471 97.277C78.7581 97.398 78.7311 97.611 78.4881 97.751L72.1241 101.425C71.9992 101.495 71.8599 101.534 71.7171 101.54C71.5744 101.546 71.4322 101.518 71.3021 101.459V101.459Z" fill="#323E48"/>
<path d="M76.905 96.68L75.934 96.12C75.894 96.097 75.899 96.056 75.945 96.029C75.9688 96.0157 75.9954 96.0081 76.0227 96.0069C76.0499 96.0057 76.0771 96.0109 76.102 96.022L77.072 96.582C77.112 96.605 77.107 96.646 77.061 96.673C77.0373 96.6861 77.0109 96.6935 76.9838 96.6948C76.9568 96.696 76.9298 96.6909 76.905 96.68V96.68Z" fill="#566069"/>
<path d="M69.8571 100.9L69.0781 100.45C69.0598 100.437 69.0448 100.42 69.0344 100.4C69.024 100.38 69.0184 100.358 69.0181 100.335V100.335C69.0181 100.291 69.0451 100.27 69.0781 100.29L69.8571 100.74C69.8754 100.753 69.8904 100.77 69.9008 100.79C69.9113 100.81 69.9168 100.833 69.9171 100.855C69.9201 100.898 69.8911 100.919 69.8571 100.9Z" fill="#566069"/>
<path d="M77.581 98.494L77.965 98.272C77.9777 98.263 77.9881 98.2512 77.9954 98.2375C78.0027 98.2238 78.0067 98.2086 78.007 98.193V98.193C78.007 98.163 77.988 98.149 77.965 98.162L77.581 98.384C77.5686 98.3931 77.5584 98.405 77.5513 98.4187C77.5442 98.4324 77.5403 98.4476 77.54 98.463V98.463C77.54 98.494 77.559 98.508 77.581 98.494Z" fill="#566069"/>
<path d="M77.037 98.835L77.421 98.613C77.4335 98.6039 77.4437 98.5921 77.4508 98.5783C77.4579 98.5646 77.4617 98.5495 77.462 98.534C77.462 98.504 77.443 98.49 77.421 98.503L77.037 98.725C77.0244 98.734 77.014 98.7458 77.0067 98.7596C76.9994 98.7733 76.9954 98.7885 76.995 98.804V98.804C76.995 98.834 77.014 98.849 77.037 98.835Z" fill="#566069"/>
<path d="M74.407 95.491L69.056 98.581C69.0275 98.5974 69.0039 98.621 68.9875 98.6495C68.9711 98.6779 68.9624 98.7102 68.9624 98.743C68.9624 98.7759 68.9711 98.8081 68.9875 98.8366C69.0039 98.865 69.0275 98.8886 69.056 98.905L72.305 100.781C72.3335 100.797 72.3657 100.806 72.3985 100.806C72.4313 100.806 72.4635 100.797 72.492 100.781L77.843 97.691C77.8714 97.6746 77.8951 97.651 77.9115 97.6226C77.9279 97.5942 77.9366 97.5619 77.9366 97.529C77.9366 97.4962 77.9279 97.4639 77.9115 97.4355C77.8951 97.407 77.8714 97.3834 77.843 97.367L74.594 95.491C74.5655 95.4747 74.5333 95.4661 74.5005 95.4661C74.4677 95.4661 74.4354 95.4747 74.407 95.491V95.491Z" fill="#D1D4D7"/>
</g>
<defs>
<clipPath id="clip0">
<rect width="259" height="144" fill="white"/>
</clipPath>
</defs>
</svg>
