<svg width="259" height="144" viewBox="0 0 259 144" fill="none" xmlns="http://www.w3.org/2000/svg">
  <g clip-path="url(#clip0)">
    <path
      d="M129.591 128.8C195.187 128.8 248.364 122.231 248.364 114.127C248.364 106.023 195.187 99.4534 129.591 99.4534C63.9945 99.4534 10.8182 106.023 10.8182 114.127C10.8182 122.231 63.9945 128.8 129.591 128.8Z"
      fill="#090C17" fill-opacity="0.2" />
    <path fill-rule="evenodd" clip-rule="evenodd" d="M114.818 112.233H233V31.7667H114.818V112.233Z" fill="#090C17" />
    <path fill-rule="evenodd" clip-rule="evenodd" d="M117.182 109.748H231.109V34.1333H117.182V109.748Z"
      fill="#262A3B" />
    <path
      d="M188.091 72C188.091 79.81 181.709 86.2 173.909 86.2C166.109 86.2 159.727 79.81 159.727 72C159.727 64.19 166.109 57.8 173.909 57.8C181.709 57.8 188.091 64.19 188.091 72Z"
      stroke="#4EBABC" stroke-width="2" />
    <path opacity="0.049" fill-rule="evenodd" clip-rule="evenodd" d="M117.182 89.9866V34.1333H230.636" fill="white" />
    <path fill-rule="evenodd" clip-rule="evenodd"
      d="M39.8909 101.82L22.4 112.588L62.8181 122.647L80.6636 106.08L39.8909 101.82Z" fill="#090C17" />
    <path d="M39.8909 101.82L22.4 112.588L62.8181 122.647L80.6636 106.08L39.8909 101.82Z" stroke="black"
      stroke-linecap="round" stroke-linejoin="round" />
    <path fill-rule="evenodd" clip-rule="evenodd"
      d="M40.009 102.53C39.3 102.53 38.709 101.938 38.709 101.228V76.7333C38.709 76.0233 39.3 75.4317 40.009 75.4317L80.0727 71.8817C80.7818 71.8817 81.3727 72.4733 81.3727 73.1833V105.488C81.3727 106.198 80.7818 106.79 80.0727 106.79L40.009 102.53Z"
      fill="#090C17" />
    <path fill-rule="evenodd" clip-rule="evenodd"
      d="M80.0727 104.66C80.0727 105.015 79.8363 105.252 79.4818 105.252L40.8363 101.11C40.4818 101.11 40.2454 100.873 40.2454 100.518V77.325C40.3636 77.0883 40.6 76.7333 40.9545 76.7333L79.6 73.1833C79.9545 73.1833 80.1909 73.42 80.1909 73.775V104.66H80.0727Z"
      fill="#262A3B" />
    <path
      d="M66.3636 89.1583C66.3636 93.4183 62.9363 96.85 58.6818 96.85C54.4272 96.85 50.9999 93.4183 50.9999 89.1583C50.9999 84.8983 54.4272 81.4667 58.6818 81.4667C62.9363 81.4667 66.3636 84.8983 66.3636 89.1583Z"
      stroke="#4EBABC" stroke-width="1.5" />
    <path fill-rule="evenodd" clip-rule="evenodd"
      d="M40.2454 86.91V77.5616C40.2454 77.2066 40.4818 76.8516 40.8363 76.8516L79.2454 73.3016C79.6 73.3016 79.8363 73.6566 79.8363 74.0116V77.2066"
      fill="white" fill-opacity="0.05" />
    <path d="M137.298 87.9772C117.963 95.8616 100.294 97.0753 84.0678 91.5451" stroke="#4EBABC" stroke-width="2"
      stroke-dasharray="3 3" />
    <path d="M141.525 88.3479L141.976 83.8923L137.861 83.5481" stroke="#4EBABC" stroke-width="2"
      stroke-linecap="square" />
  </g>
  <defs>
    <clipPath id="clip0">
      <rect width="259" height="144" fill="white" />
    </clipPath>
  </defs>
</svg>
