<svg width="259" height="144" viewBox="0 0 259 144" fill="none" xmlns="http://www.w3.org/2000/svg">
  <path fill-rule="evenodd" clip-rule="evenodd"
    d="M83.6826 75.0641H82.6876C82.3575 75.0641 82.0901 74.7972 82.0901 74.4671C82.0901 74.1371 82.3575 73.8701 82.6876 73.8701H83.6826C84.0122 73.8701 84.2795 74.1371 84.2795 74.4671C84.2795 74.7972 84.0122 75.0641 83.6826 75.0641ZM61.653 75.0641H59.6306C59.301 75.0641 59.0332 74.7972 59.0332 74.4671C59.0332 74.1371 59.301 73.8701 59.6306 73.8701H61.653C61.9827 73.8701 62.25 74.1371 62.25 74.4671C62.25 74.7972 61.9827 75.0641 61.653 75.0641ZM65.4959 75.0641H63.4734C63.1434 75.0641 62.876 74.7972 62.876 74.4671C62.876 74.1371 63.1434 73.8701 63.4734 73.8701H65.4959C65.8255 73.8701 66.0929 74.1371 66.0929 74.4671C66.0929 74.7972 65.8255 75.0641 65.4959 75.0641ZM69.3387 75.0641H67.3163C66.9866 75.0641 66.7188 74.7972 66.7188 74.4671C66.7188 74.1371 66.9866 73.8701 67.3163 73.8701H69.3387C69.6683 73.8701 69.9357 74.1371 69.9357 74.4671C69.9357 74.7972 69.6683 75.0641 69.3387 75.0641ZM73.1815 75.0641H71.1591C70.829 75.0641 70.5617 74.7972 70.5617 74.4671C70.5617 74.1371 70.829 73.8701 71.1591 73.8701H73.1815C73.5112 73.8701 73.7785 74.1371 73.7785 74.4671C73.7785 74.7972 73.5112 75.0641 73.1815 75.0641ZM77.0244 75.0641H75.0019C74.6723 75.0641 74.4049 74.7972 74.4049 74.4671C74.4049 74.1371 74.6723 73.8701 75.0019 73.8701H77.0244C77.354 73.8701 77.6218 74.1371 77.6218 74.4671C77.6218 74.7972 77.354 75.0641 77.0244 75.0641ZM80.8672 75.0641H78.8448C78.5151 75.0641 78.2473 74.7972 78.2473 74.4671C78.2473 74.1371 78.5151 73.8701 78.8448 73.8701H80.8672C81.1968 73.8701 81.4642 74.1371 81.4642 74.4671C81.4642 74.7972 81.1968 75.0641 80.8672 75.0641ZM57.8101 75.0641H56.8151C56.485 75.0641 56.2177 74.7972 56.2177 74.4671C56.2177 74.1371 56.485 73.8701 56.8151 73.8701H57.8101C58.1397 73.8701 58.4071 74.1371 58.4071 74.4671C58.4071 74.7972 58.1397 75.0641 57.8101 75.0641ZM86.071 53.5703H85.0755C84.7459 53.5703 84.4785 53.303 84.4785 52.9733C84.4785 52.6432 84.7459 52.3759 85.0755 52.3759H86.071C86.4006 52.3759 86.668 52.6432 86.668 52.9733C86.668 53.303 86.4006 53.5703 86.071 53.5703ZM65.7264 53.5703H63.8658C63.5362 53.5703 63.2688 53.303 63.2688 52.9733C63.2688 52.6432 63.5362 52.3759 63.8658 52.3759H65.7264C66.0561 52.3759 66.3234 52.6432 66.3234 52.9733C66.3234 53.303 66.0561 53.5703 65.7264 53.5703ZM69.2613 53.5703H67.4011C67.071 53.5703 66.8036 53.303 66.8036 52.9733C66.8036 52.6432 67.071 52.3759 67.4011 52.3759H69.2613C69.5913 52.3759 69.8587 52.6432 69.8587 52.9733C69.8587 53.303 69.5913 53.5703 69.2613 53.5703ZM72.7961 53.5703H70.9359C70.6062 53.5703 70.3389 53.303 70.3389 52.9733C70.3389 52.6432 70.6062 52.3759 70.9359 52.3759H72.7961C73.1257 52.3759 73.3935 52.6432 73.3935 52.9733C73.3935 53.303 73.1257 53.5703 72.7961 53.5703ZM76.3313 53.5703H74.4707C74.1411 53.5703 73.8737 53.303 73.8737 52.9733C73.8737 52.6432 74.1411 52.3759 74.4707 52.3759H76.3313C76.661 52.3759 76.9283 52.6432 76.9283 52.9733C76.9283 53.303 76.661 53.5703 76.3313 53.5703ZM79.8662 53.5703H78.0055C77.6759 53.5703 77.4085 53.303 77.4085 52.9733C77.4085 52.6432 77.6759 52.3759 78.0055 52.3759H79.8662C80.1958 52.3759 80.4631 52.6432 80.4631 52.9733C80.4631 53.303 80.1958 53.5703 79.8662 53.5703ZM83.401 53.5703H81.5408C81.2107 53.5703 80.9433 53.303 80.9433 52.9733C80.9433 52.6432 81.2107 52.3759 81.5408 52.3759H83.401C83.731 52.3759 83.9984 52.6432 83.9984 52.9733C83.9984 53.303 83.731 53.5703 83.401 53.5703ZM62.1915 53.5703H61.1965C60.8664 53.5703 60.599 53.303 60.599 52.9733V51.9779C60.599 51.6482 60.8664 51.3809 61.1965 51.3809C61.5261 51.3809 61.7935 51.6482 61.7935 51.9779V52.3759H62.1915C62.5211 52.3759 62.7884 52.6432 62.7884 52.9733C62.7884 53.303 62.5211 53.5703 62.1915 53.5703ZM61.1963 25.719C60.8667 25.719 60.5993 25.4516 60.5993 25.122V23.2307C60.5993 22.9006 60.8667 22.6332 61.1963 22.6332C61.526 22.6332 61.7933 22.9006 61.7933 23.2307V25.122C61.7933 25.4516 61.526 25.719 61.1963 25.719ZM61.1963 29.3127C60.8667 29.3127 60.5993 29.0449 60.5993 28.7152V26.8239C60.5993 26.4942 60.8667 26.2269 61.1963 26.2269C61.526 26.2269 61.7933 26.4942 61.7933 26.8239V28.7152C61.7933 29.0449 61.526 29.3127 61.1963 29.3127ZM61.1963 32.9059C60.8667 32.9059 60.5993 32.6385 60.5993 32.3084V30.4175C60.5993 30.0879 60.8667 29.8201 61.1963 29.8201C61.526 29.8201 61.7933 30.0879 61.7933 30.4175V32.3084C61.7933 32.6385 61.526 32.9059 61.1963 32.9059ZM61.1963 36.4991C60.8667 36.4991 60.5993 36.2317 60.5993 35.9021V34.0107C60.5993 33.6811 60.8667 33.4137 61.1963 33.4137C61.526 33.4137 61.7933 33.6811 61.7933 34.0107V35.9021C61.7933 36.2317 61.526 36.4991 61.1963 36.4991ZM61.1963 40.0927C60.8667 40.0927 60.5993 39.8254 60.5993 39.4957V37.6044C60.5993 37.2743 60.8667 37.007 61.1963 37.007C61.526 37.007 61.7933 37.2743 61.7933 37.6044V39.4957C61.7933 39.8254 61.526 40.0927 61.1963 40.0927ZM61.1963 43.6864C60.8667 43.6864 60.5993 43.419 60.5993 43.089V41.1976C60.5993 40.868 60.8667 40.6006 61.1963 40.6006C61.526 40.6006 61.7933 40.868 61.7933 41.1976V43.089C61.7933 43.419 61.526 43.6864 61.1963 43.6864ZM61.1963 47.2796C60.8667 47.2796 60.5993 47.0123 60.5993 46.6822V44.7913C60.5993 44.4616 60.8667 44.1943 61.1963 44.1943C61.526 44.1943 61.7933 44.4616 61.7933 44.7913V46.6822C61.7933 47.0123 61.526 47.2796 61.1963 47.2796ZM61.1963 50.8733C60.8667 50.8733 60.5993 50.6055 60.5993 50.2758V48.3845C60.5993 48.0548 60.8667 47.7875 61.1963 47.7875C61.526 47.7875 61.7933 48.0548 61.7933 48.3845V50.2758C61.7933 50.6055 61.526 50.8733 61.1963 50.8733ZM61.1963 22.1255C60.8667 22.1255 60.5993 21.8582 60.5993 21.5285V20.5331C60.5993 20.2035 60.8667 19.9357 61.1963 19.9357C61.526 19.9357 61.7933 20.2035 61.7933 20.5331V21.5285C61.7933 21.8582 61.526 22.1255 61.1963 22.1255ZM201.295 75.0641H200.3C199.97 75.0641 199.703 74.7972 199.703 74.4671C199.703 74.1371 199.97 73.8701 200.3 73.8701H201.295C201.625 73.8701 201.892 74.1371 201.892 74.4671C201.892 74.7972 201.625 75.0641 201.295 75.0641ZM178.761 75.0641H176.689C176.36 75.0641 176.092 74.7972 176.092 74.4671C176.092 74.1371 176.36 73.8701 176.689 73.8701H178.761C179.09 73.8701 179.358 74.1371 179.358 74.4671C179.358 74.7972 179.09 75.0641 178.761 75.0641ZM182.696 75.0641H180.625C180.295 75.0641 180.027 74.7972 180.027 74.4671C180.027 74.1371 180.295 73.8701 180.625 73.8701H182.696C183.025 73.8701 183.293 74.1371 183.293 74.4671C183.293 74.7972 183.025 75.0641 182.696 75.0641ZM186.631 75.0641H184.56C184.23 75.0641 183.962 74.7972 183.962 74.4671C183.962 74.1371 184.23 73.8701 184.56 73.8701H186.631C186.961 73.8701 187.228 74.1371 187.228 74.4671C187.228 74.7972 186.961 75.0641 186.631 75.0641ZM190.566 75.0641H188.495C188.165 75.0641 187.898 74.7972 187.898 74.4671C187.898 74.1371 188.165 73.8701 188.495 73.8701H190.566C190.896 73.8701 191.163 74.1371 191.163 74.4671C191.163 74.7972 190.896 75.0641 190.566 75.0641ZM194.501 75.0641H192.43C192.1 75.0641 191.833 74.7972 191.833 74.4671C191.833 74.1371 192.1 73.8701 192.43 73.8701H194.501C194.831 73.8701 195.098 74.1371 195.098 74.4671C195.098 74.7972 194.831 75.0641 194.501 75.0641ZM198.436 75.0641H196.365C196.035 75.0641 195.768 74.7972 195.768 74.4671C195.768 74.1371 196.035 73.8701 196.365 73.8701H198.436C198.766 73.8701 199.033 74.1371 199.033 74.4671C199.033 74.7972 198.766 75.0641 198.436 75.0641ZM174.826 75.0641H173.83C173.501 75.0641 173.233 74.7972 173.233 74.4671C173.233 74.1371 173.501 73.8701 173.83 73.8701H174.826C175.155 73.8701 175.423 74.1371 175.423 74.4671C175.423 74.7972 175.155 75.0641 174.826 75.0641ZM171.243 53.5703H170.248C169.918 53.5703 169.651 53.303 169.651 52.9733C169.651 52.6432 169.918 52.3759 170.248 52.3759H171.243C171.573 52.3759 171.84 52.6432 171.84 52.9733C171.84 53.303 171.573 53.5703 171.243 53.5703ZM174.867 53.5703H172.96C172.63 53.5703 172.362 53.303 172.362 52.9733C172.362 52.6432 172.63 52.3759 172.96 52.3759H174.867C175.197 52.3759 175.464 52.6432 175.464 52.9733C175.464 53.303 175.197 53.5703 174.867 53.5703ZM178.491 53.5703H176.584C176.254 53.5703 175.987 53.303 175.987 52.9733C175.987 52.6432 176.254 52.3759 176.584 52.3759H178.491C178.821 52.3759 179.088 52.6432 179.088 52.9733C179.088 53.303 178.821 53.5703 178.491 53.5703ZM182.115 53.5703H180.208C179.878 53.5703 179.611 53.303 179.611 52.9733C179.611 52.6432 179.878 52.3759 180.208 52.3759H182.115C182.445 52.3759 182.713 52.6432 182.713 52.9733C182.713 53.303 182.445 53.5703 182.115 53.5703ZM185.739 53.5703H183.832C183.502 53.5703 183.235 53.303 183.235 52.9733C183.235 52.6432 183.502 52.3759 183.832 52.3759H185.739C186.069 52.3759 186.336 52.6432 186.336 52.9733C186.336 53.303 186.069 53.5703 185.739 53.5703ZM189.363 53.5703H187.456C187.126 53.5703 186.859 53.303 186.859 52.9733C186.859 52.6432 187.126 52.3759 187.456 52.3759H189.363C189.693 52.3759 189.96 52.6432 189.96 52.9733C189.96 53.303 189.693 53.5703 189.363 53.5703ZM192.987 53.5703H191.08C190.75 53.5703 190.483 53.303 190.483 52.9733C190.483 52.6432 190.75 52.3759 191.08 52.3759H192.987C193.317 52.3759 193.584 52.6432 193.584 52.9733C193.584 53.303 193.317 53.5703 192.987 53.5703ZM195.699 53.5703H194.704C194.374 53.5703 194.107 53.303 194.107 52.9733C194.107 52.6432 194.374 52.3759 194.704 52.3759H195.102V51.9779C195.102 51.6482 195.369 51.3809 195.699 51.3809C196.029 51.3809 196.296 51.6482 196.296 51.9779V52.9733C196.296 53.303 196.029 53.5703 195.699 53.5703ZM195.699 26.9744C195.369 26.9744 195.102 26.707 195.102 26.3774V24.2957C195.102 23.966 195.369 23.6987 195.699 23.6987C196.029 23.6987 196.296 23.966 196.296 24.2957V26.3774C196.296 26.707 196.029 26.9744 195.699 26.9744ZM195.699 30.9288C195.369 30.9288 195.102 30.6615 195.102 30.3318V28.2506C195.102 27.9209 195.369 27.6531 195.699 27.6531C196.029 27.6531 196.296 27.9209 196.296 28.2506V30.3318C196.296 30.6615 196.029 30.9288 195.699 30.9288ZM195.699 34.8837C195.369 34.8837 195.102 34.6163 195.102 34.2863V32.205C195.102 31.8754 195.369 31.6076 195.699 31.6076C196.029 31.6076 196.296 31.8754 196.296 32.205V34.2863C196.296 34.6163 196.029 34.8837 195.699 34.8837ZM195.699 38.8381C195.369 38.8381 195.102 38.5708 195.102 38.2407V36.1595C195.102 35.8298 195.369 35.5625 195.699 35.5625C196.029 35.5625 196.296 35.8298 196.296 36.1595V38.2407C196.296 38.5708 196.029 38.8381 195.699 38.8381ZM195.699 42.7926C195.369 42.7926 195.102 42.5252 195.102 42.1956V40.1143C195.102 39.7843 195.369 39.5169 195.699 39.5169C196.029 39.5169 196.296 39.7843 196.296 40.1143V42.1956C196.296 42.5252 196.029 42.7926 195.699 42.7926ZM195.699 46.7475C195.369 46.7475 195.102 46.4797 195.102 46.15V44.0688C195.102 43.7391 195.369 43.4718 195.699 43.4718C196.029 43.4718 196.296 43.7391 196.296 44.0688V46.15C196.296 46.4797 196.029 46.7475 195.699 46.7475ZM195.699 50.7019C195.369 50.7019 195.102 50.4346 195.102 50.1049V48.0237C195.102 47.694 195.369 47.4262 195.699 47.4262C196.029 47.4262 196.296 47.694 196.296 48.0237V50.1049C196.296 50.4346 196.029 50.7019 195.699 50.7019ZM195.699 23.0197C195.369 23.0197 195.102 22.7523 195.102 22.4227V21.4272C195.102 21.0976 195.369 20.8303 195.699 20.8303C196.029 20.8303 196.296 21.0976 196.296 21.4272V22.4227C196.296 22.7523 196.029 23.0197 195.699 23.0197ZM171.243 92.9759H170.248C169.918 92.9759 169.651 92.7089 169.651 92.3789C169.651 92.0488 169.918 91.7819 170.248 91.7819H171.243C171.573 91.7819 171.84 92.0488 171.84 92.3789C171.84 92.7089 171.573 92.9759 171.243 92.9759ZM174.867 92.9759H172.96C172.63 92.9759 172.362 92.7089 172.362 92.3789C172.362 92.0488 172.63 91.7819 172.96 91.7819H174.867C175.197 91.7819 175.464 92.0488 175.464 92.3789C175.464 92.7089 175.197 92.9759 174.867 92.9759ZM178.491 92.9759H176.584C176.254 92.9759 175.987 92.7089 175.987 92.3789C175.987 92.0488 176.254 91.7819 176.584 91.7819H178.491C178.821 91.7819 179.088 92.0488 179.088 92.3789C179.088 92.7089 178.821 92.9759 178.491 92.9759ZM182.115 92.9759H180.208C179.878 92.9759 179.611 92.7089 179.611 92.3789C179.611 92.0488 179.878 91.7819 180.208 91.7819H182.115C182.445 91.7819 182.713 92.0488 182.713 92.3789C182.713 92.7089 182.445 92.9759 182.115 92.9759ZM185.739 92.9759H183.832C183.502 92.9759 183.235 92.7089 183.235 92.3789C183.235 92.0488 183.502 91.7819 183.832 91.7819H185.739C186.069 91.7819 186.336 92.0488 186.336 92.3789C186.336 92.7089 186.069 92.9759 185.739 92.9759ZM189.363 92.9759H187.456C187.126 92.9759 186.859 92.7089 186.859 92.3789C186.859 92.0488 187.126 91.7819 187.456 91.7819H189.363C189.693 91.7819 189.96 92.0488 189.96 92.3789C189.96 92.7089 189.693 92.9759 189.363 92.9759ZM192.987 92.9759H191.08C190.75 92.9759 190.483 92.7089 190.483 92.3789C190.483 92.0488 190.75 91.7819 191.08 91.7819H192.987C193.317 91.7819 193.584 92.0488 193.584 92.3789C193.584 92.7089 193.317 92.9759 192.987 92.9759ZM195.699 93.9712C195.369 93.9712 195.102 93.7042 195.102 93.3742V92.9757H194.704C194.374 92.9757 194.107 92.7088 194.107 92.3787C194.107 92.0491 194.374 91.7817 194.704 91.7817H195.699C196.029 91.7817 196.296 92.0491 196.296 92.3787V93.3742C196.296 93.7042 196.029 93.9712 195.699 93.9712ZM195.699 97.5647C195.369 97.5647 195.102 97.2978 195.102 96.9677V95.0763C195.102 94.7463 195.369 94.4793 195.699 94.4793C196.029 94.4793 196.296 94.7463 196.296 95.0763V96.9677C196.296 97.2978 196.029 97.5647 195.699 97.5647ZM195.699 101.158C195.369 101.158 195.102 100.891 195.102 100.561V98.67C195.102 98.3399 195.369 98.073 195.699 98.073C196.029 98.073 196.296 98.3399 196.296 98.67V100.561C196.296 100.891 196.029 101.158 195.699 101.158ZM195.699 104.752C195.369 104.752 195.102 104.485 195.102 104.155V102.263C195.102 101.934 195.369 101.666 195.699 101.666C196.029 101.666 196.296 101.934 196.296 102.263V104.155C196.296 104.485 196.029 104.752 195.699 104.752ZM195.699 108.345C195.369 108.345 195.102 108.078 195.102 107.748V105.857C195.102 105.527 195.369 105.26 195.699 105.26C196.029 105.26 196.296 105.527 196.296 105.857V107.748C196.296 108.078 196.029 108.345 195.699 108.345ZM195.699 111.938C195.369 111.938 195.102 111.671 195.102 111.341V109.45C195.102 109.12 195.369 108.853 195.699 108.853C196.029 108.853 196.296 109.12 196.296 109.45V111.341C196.296 111.671 196.029 111.938 195.699 111.938ZM195.699 115.532C195.369 115.532 195.102 115.265 195.102 114.935V113.043C195.102 112.714 195.369 112.446 195.699 112.446C196.029 112.446 196.296 112.714 196.296 113.043V114.935C196.296 115.265 196.029 115.532 195.699 115.532ZM195.699 119.125C195.369 119.125 195.102 118.858 195.102 118.528V116.637C195.102 116.307 195.369 116.04 195.699 116.04C196.029 116.04 196.296 116.307 196.296 116.637V118.528C196.296 118.858 196.029 119.125 195.699 119.125ZM195.699 122.719C195.369 122.719 195.102 122.452 195.102 122.122V120.231C195.102 119.901 195.369 119.634 195.699 119.634C196.029 119.634 196.296 119.901 196.296 120.231V122.122C196.296 122.452 196.029 122.719 195.699 122.719ZM195.699 125.416C195.369 125.416 195.102 125.149 195.102 124.819V123.824C195.102 123.494 195.369 123.227 195.699 123.227C196.029 123.227 196.296 123.494 196.296 123.824V124.819C196.296 125.149 196.029 125.416 195.699 125.416ZM86.071 92.9759H85.0755C84.7459 92.9759 84.4785 92.7089 84.4785 92.3789C84.4785 92.0488 84.7459 91.7819 85.0755 91.7819H86.071C86.4006 91.7819 86.668 92.0488 86.668 92.3789C86.668 92.7089 86.4006 92.9759 86.071 92.9759ZM65.7264 92.9759H63.8658C63.5362 92.9759 63.2688 92.7089 63.2688 92.3789C63.2688 92.0488 63.5362 91.7819 63.8658 91.7819H65.7264C66.0561 91.7819 66.3234 92.0488 66.3234 92.3789C66.3234 92.7089 66.0561 92.9759 65.7264 92.9759ZM69.2613 92.9759H67.4011C67.071 92.9759 66.8036 92.7089 66.8036 92.3789C66.8036 92.0488 67.071 91.7819 67.4011 91.7819H69.2613C69.5913 91.7819 69.8587 92.0488 69.8587 92.3789C69.8587 92.7089 69.5913 92.9759 69.2613 92.9759ZM72.7961 92.9759H70.9359C70.6062 92.9759 70.3389 92.7089 70.3389 92.3789C70.3389 92.0488 70.6062 91.7819 70.9359 91.7819H72.7961C73.1257 91.7819 73.3935 92.0488 73.3935 92.3789C73.3935 92.7089 73.1257 92.9759 72.7961 92.9759ZM76.3313 92.9759H74.4707C74.1411 92.9759 73.8737 92.7089 73.8737 92.3789C73.8737 92.0488 74.1411 91.7819 74.4707 91.7819H76.3313C76.661 91.7819 76.9283 92.0488 76.9283 92.3789C76.9283 92.7089 76.661 92.9759 76.3313 92.9759ZM79.8662 92.9759H78.0055C77.6759 92.9759 77.4085 92.7089 77.4085 92.3789C77.4085 92.0488 77.6759 91.7819 78.0055 91.7819H79.8662C80.1958 91.7819 80.4631 92.0488 80.4631 92.3789C80.4631 92.7089 80.1958 92.9759 79.8662 92.9759ZM83.401 92.9759H81.5408C81.2107 92.9759 80.9433 92.7089 80.9433 92.3789C80.9433 92.0488 81.2107 91.7819 81.5408 91.7819H83.401C83.731 91.7819 83.9984 92.0488 83.9984 92.3789C83.9984 92.7089 83.731 92.9759 83.401 92.9759ZM61.1963 93.9712C60.8667 93.9712 60.5993 93.7042 60.5993 93.3742V92.3787C60.5993 92.0491 60.8667 91.7817 61.1963 91.7817H62.1913C62.5214 91.7817 62.7888 92.0491 62.7888 92.3787C62.7888 92.7088 62.5214 92.9757 62.1913 92.9757H61.7933V93.3742C61.7933 93.7042 61.526 93.9712 61.1963 93.9712ZM61.1963 97.5647C60.8667 97.5647 60.5993 97.2978 60.5993 96.9677V95.0763C60.5993 94.7463 60.8667 94.4793 61.1963 94.4793C61.526 94.4793 61.7933 94.7463 61.7933 95.0763V96.9677C61.7933 97.2978 61.526 97.5647 61.1963 97.5647ZM61.1963 101.158C60.8667 101.158 60.5993 100.891 60.5993 100.561V98.67C60.5993 98.3399 60.8667 98.073 61.1963 98.073C61.526 98.073 61.7933 98.3399 61.7933 98.67V100.561C61.7933 100.891 61.526 101.158 61.1963 101.158ZM61.1963 104.752C60.8667 104.752 60.5993 104.485 60.5993 104.155V102.263C60.5993 101.934 60.8667 101.666 61.1963 101.666C61.526 101.666 61.7933 101.934 61.7933 102.263V104.155C61.7933 104.485 61.526 104.752 61.1963 104.752ZM61.1963 108.345C60.8667 108.345 60.5993 108.078 60.5993 107.748V105.857C60.5993 105.527 60.8667 105.26 61.1963 105.26C61.526 105.26 61.7933 105.527 61.7933 105.857V107.748C61.7933 108.078 61.526 108.345 61.1963 108.345ZM61.1963 111.938C60.8667 111.938 60.5993 111.671 60.5993 111.341V109.45C60.5993 109.12 60.8667 108.853 61.1963 108.853C61.526 108.853 61.7933 109.12 61.7933 109.45V111.341C61.7933 111.671 61.526 111.938 61.1963 111.938ZM61.1963 115.532C60.8667 115.532 60.5993 115.265 60.5993 114.935V113.043C60.5993 112.714 60.8667 112.446 61.1963 112.446C61.526 112.446 61.7933 112.714 61.7933 113.043V114.935C61.7933 115.265 61.526 115.532 61.1963 115.532ZM61.1963 119.125C60.8667 119.125 60.5993 118.858 60.5993 118.528V116.637C60.5993 116.307 60.8667 116.04 61.1963 116.04C61.526 116.04 61.7933 116.307 61.7933 116.637V118.528C61.7933 118.858 61.526 119.125 61.1963 119.125ZM61.1963 122.719C60.8667 122.719 60.5993 122.452 60.5993 122.122V120.231C60.5993 119.901 60.8667 119.634 61.1963 119.634C61.526 119.634 61.7933 119.901 61.7933 120.231V122.122C61.7933 122.452 61.526 122.719 61.1963 122.719ZM61.1963 125.416C60.8667 125.416 60.5993 125.149 60.5993 124.819V123.824C60.5993 123.494 60.8667 123.227 61.1963 123.227C61.526 123.227 61.7933 123.494 61.7933 123.824V124.819C61.7933 125.149 61.526 125.416 61.1963 125.416Z"
    fill="#1A1D30" />
  <path fill-rule="evenodd" clip-rule="evenodd"
    d="M174.031 101.826H84.9222C84.5061 101.826 84.1686 101.488 84.1686 101.072V41.7285C84.1686 41.3123 84.5061 40.9749 84.9222 40.9749H174.031C174.447 40.9749 174.785 41.3123 174.785 41.7285V101.072C174.785 101.488 174.447 101.826 174.031 101.826Z"
    fill="#1A1D30" />
  <path fill-rule="evenodd" clip-rule="evenodd" d="M86.3981 99.1255H172.555V43.3619H86.3981V99.1255Z" fill="#262A3B" />
  <path fill-rule="evenodd" clip-rule="evenodd"
    d="M124.499 84.1366H134.455L139.433 75.5139L134.455 66.892H124.499L119.521 75.5139L124.499 84.1366ZM134.915 85.7285H124.039C123.755 85.7285 123.492 85.5767 123.35 85.3305L117.912 75.9119C117.77 75.6657 117.77 75.3625 117.912 75.1159L123.35 65.6976C123.492 65.4515 123.755 65.2996 124.039 65.2996H134.915C135.199 65.2996 135.462 65.4515 135.604 65.6976L141.042 75.1159C141.184 75.3625 141.184 75.6657 141.042 75.9119L135.604 85.3305C135.462 85.5767 135.199 85.7285 134.915 85.7285Z"
    fill="#6DB8BB" />
  <path fill-rule="evenodd" clip-rule="evenodd"
    d="M131.74 74.3159C131.74 75.5661 130.727 76.5788 129.477 76.5788C128.227 76.5788 127.214 75.5661 127.214 74.3159C127.214 73.0657 128.227 72.0525 129.477 72.0525C130.727 72.0525 131.74 73.0657 131.74 74.3159Z"
    fill="#6DB8BB" />
  <path fill-rule="evenodd" clip-rule="evenodd" d="M129.434 75.7118L128.448 78.541H130.506L129.519 75.7118H129.434Z"
    fill="#6DB8BB" />
  <path fill-rule="evenodd" clip-rule="evenodd"
    d="M129.085 78.0886H129.869L129.477 76.9638L129.085 78.0886ZM130.505 78.994H128.448C128.301 78.994 128.164 78.9226 128.079 78.8028C127.994 78.6838 127.972 78.5303 128.021 78.3923L129.006 75.563C129.07 75.3813 129.241 75.2593 129.434 75.2593H129.52C129.712 75.2593 129.883 75.3813 129.947 75.563L130.933 78.3923C130.981 78.5303 130.959 78.6838 130.874 78.8028C130.789 78.9226 130.652 78.994 130.505 78.994ZM133.077 66.731C132.637 66.731 132.281 66.3745 132.281 65.935V61.4683C132.281 59.9222 131.023 58.6642 129.477 58.6642C127.931 58.6642 126.673 59.9222 126.673 61.4683V65.935C126.673 66.3745 126.316 66.731 125.876 66.731C125.437 66.731 125.08 66.3745 125.08 65.935V61.4683C125.08 59.044 127.052 57.0718 129.477 57.0718C131.901 57.0718 133.873 59.044 133.873 61.4683V65.935C133.873 66.3745 133.517 66.731 133.077 66.731Z"
    fill="#6DB8BB" />
  <path fill-rule="evenodd" clip-rule="evenodd"
    d="M50.0225 72.0861C50.0225 71.6894 49.7011 71.368 49.3044 71.368C49.0794 71.368 48.8792 71.4714 48.7476 71.6332L46.1585 74.812L45.0454 73.6058L45.0445 73.6063C44.913 73.4644 44.7261 73.3748 44.5176 73.3748C44.1209 73.3748 43.7995 73.6963 43.7995 74.093C43.7995 74.2807 43.8722 74.4516 43.9903 74.5796L43.9894 74.5801L45.6649 76.3944L45.6658 76.3936C45.7968 76.5355 45.9842 76.6254 46.1922 76.6254C46.4172 76.6254 46.6179 76.522 46.7494 76.3602H46.7499L49.8612 72.5395H49.8607C49.962 72.4158 50.0225 72.2579 50.0225 72.0861Z"
    fill="#262A3B" />
  <path fill-rule="evenodd" clip-rule="evenodd"
    d="M46.8973 65.6777C45.6108 65.6777 44.306 65.9767 43.0865 66.6074C39.0127 68.7163 37.4133 73.7467 39.5219 77.821C40.5432 79.7949 42.2724 81.2524 44.3904 81.926C46.508 82.5987 48.761 82.407 50.7354 81.3856C52.709 80.3642 54.1668 78.6351 54.84 76.5175C55.5135 74.3995 55.3215 72.146 54.3001 70.1725C52.8223 67.3173 49.91 65.6777 46.8973 65.6777ZM46.922 83.9138C45.9123 83.9138 44.8978 83.758 43.9076 83.4431C41.3847 82.641 39.325 80.9041 38.1081 78.5529C35.5955 73.6987 37.5012 67.7058 42.355 65.1936C47.2088 62.6815 53.2021 64.5871 55.7138 69.4405C56.9312 71.7917 57.1596 74.4765 56.3576 76.9999C55.5551 79.5233 53.8186 81.5829 51.467 82.7998C50.0381 83.5391 48.4859 83.9138 46.922 83.9138Z"
    fill="#6DB7BA" />
  <path fill-rule="evenodd" clip-rule="evenodd"
    d="M64.2586 133.685C64.2586 133.289 63.9372 132.967 63.5405 132.967C63.3155 132.967 63.1152 133.07 62.9837 133.232L60.3946 136.411L59.2815 135.205L59.2806 135.205C59.1491 135.063 58.9622 134.974 58.7537 134.974C58.357 134.974 58.0356 135.295 58.0356 135.692C58.0356 135.88 58.1083 136.051 58.2264 136.179L58.2255 136.179L59.901 137.993L59.9018 137.993C60.0329 138.134 60.2202 138.224 60.4283 138.224C60.6533 138.224 60.854 138.121 60.9855 137.959H60.986L64.0972 134.138H64.0968C64.198 134.015 64.2586 133.857 64.2586 133.685Z"
    fill="#262A3B" />
  <path fill-rule="evenodd" clip-rule="evenodd"
    d="M56.1312 141.886H66.1629L69.2625 132.346L61.1472 126.449L53.0316 132.346L56.1312 141.886ZM66.7413 143.478H55.5528C55.208 143.478 54.9021 143.256 54.7957 142.928L51.3383 132.288C51.2319 131.96 51.3487 131.6 51.6278 131.397L60.6792 124.821C60.9582 124.619 61.3363 124.619 61.6149 124.821L70.6663 131.397C70.9453 131.6 71.0621 131.96 70.9557 132.288L67.4983 142.928C67.3919 143.256 67.086 143.478 66.7413 143.478Z"
    fill="#EC5B33" />
  <path fill-rule="evenodd" clip-rule="evenodd"
    d="M198.827 10.5892C198.827 10.1925 198.505 9.87109 198.109 9.87109C197.884 9.87109 197.683 9.97449 197.552 10.1363L194.963 13.3146L193.849 12.1085L193.849 12.1094C193.717 11.9671 193.53 11.8779 193.321 11.8779C192.925 11.8779 192.604 12.1994 192.604 12.5961C192.604 12.7838 192.676 12.9547 192.794 13.0823L192.794 13.0832L194.469 14.8975L194.47 14.8967C194.601 15.0386 194.788 15.1285 194.996 15.1285C195.221 15.1285 195.422 15.0252 195.554 14.8634L198.665 11.0426H198.665C198.766 10.9189 198.827 10.761 198.827 10.5892Z"
    fill="#262A3B" />
  <path fill-rule="evenodd" clip-rule="evenodd"
    d="M189.158 19.0571H202.273V5.94221H189.158V19.0571ZM202.668 20.6495H188.763C188.103 20.6495 187.565 20.1126 187.565 19.4525V5.54724C187.565 4.88708 188.103 4.35022 188.763 4.35022H202.668C203.328 4.35022 203.865 4.88708 203.865 5.54724V19.4525C203.865 20.1126 203.328 20.6495 202.668 20.6495Z"
    fill="#FFD200" />
  <path fill-rule="evenodd" clip-rule="evenodd"
    d="M214.17 72.5566C214.17 72.1603 213.848 71.8384 213.452 71.8384C213.227 71.8384 213.026 71.9418 212.895 72.1036L210.306 75.282L209.192 74.0759L209.192 74.0767C209.06 73.9344 208.873 73.8453 208.665 73.8453C208.268 73.8453 207.947 74.1667 207.947 74.5634C207.947 74.7516 208.02 74.9221 208.138 75.0497L208.137 75.0505L209.812 76.8649L209.813 76.8644C209.944 77.0063 210.132 77.0959 210.34 77.0959C210.565 77.0959 210.765 76.9925 210.897 76.8307L214.009 73.0099H214.008C214.109 72.8862 214.17 72.7283 214.17 72.5566Z"
    fill="#262A3B" />
  <path fill-rule="evenodd" clip-rule="evenodd"
    d="M201.961 81.1741H220.156V67.7611H201.961V81.1741ZM220.952 82.7656H201.165C200.725 82.7656 200.369 82.4096 200.369 81.9696V66.9647C200.369 66.5252 200.725 66.1683 201.165 66.1683H220.952C221.392 66.1683 221.748 66.5252 221.748 66.9647V81.9696C221.748 82.4096 221.392 82.7656 220.952 82.7656Z"
    fill="#D2C1AD" />
  <path fill-rule="evenodd" clip-rule="evenodd"
    d="M64.352 8.93468C64.352 8.53798 64.0306 8.21655 63.6339 8.21655C63.4089 8.21655 63.2086 8.31995 63.0771 8.48174L60.4879 11.6601L59.3749 10.454L59.374 10.4549C59.2425 10.3125 59.0556 10.2234 58.8471 10.2234C58.4504 10.2234 58.129 10.5448 58.129 10.9415C58.129 11.1293 58.2016 11.3002 58.3197 11.4278L58.3189 11.4286L59.9943 13.243L59.9952 13.2426C60.1263 13.384 60.3136 13.474 60.5217 13.474C60.7466 13.474 60.9474 13.3706 61.0789 13.2088H61.0793L64.1906 9.38805H64.1902C64.2914 9.26432 64.352 9.10642 64.352 8.93468Z"
    fill="#262A3B" />
  <path fill-rule="evenodd" clip-rule="evenodd"
    d="M53.3172 10.8452L61.2403 18.7684L69.1635 10.8452L61.2403 2.92207L53.3172 10.8452ZM61.2403 20.6905C61.0292 20.6905 60.8268 20.6065 60.6775 20.4573L51.6283 11.4081C51.3172 11.0974 51.3172 10.593 51.6283 10.2824L60.6775 1.23317C60.8268 1.08393 61.0292 1 61.2403 1C61.4519 1 61.6539 1.08393 61.8036 1.23317L70.8524 10.2824C71.1634 10.593 71.1634 11.0974 70.8524 11.4081L61.8036 20.4573C61.6539 20.6065 61.4519 20.6905 61.2403 20.6905Z"
    fill="#B0B3B1" />
  <path fill-rule="evenodd" clip-rule="evenodd"
    d="M198.798 133.098C198.798 132.702 198.476 132.38 198.08 132.38C197.855 132.38 197.655 132.483 197.523 132.645L194.934 135.824L193.82 134.618L193.82 134.618C193.689 134.476 193.502 134.387 193.293 134.387C192.896 134.387 192.575 134.708 192.575 135.105C192.575 135.293 192.648 135.464 192.766 135.591L192.765 135.592L194.44 137.407L194.441 137.406C194.572 137.548 194.76 137.637 194.968 137.637C195.193 137.637 195.393 137.534 195.525 137.372H195.525L198.637 133.552H198.636C198.737 133.428 198.798 133.27 198.798 133.098Z"
    fill="#262A3B" />
  <path fill-rule="evenodd" clip-rule="evenodd"
    d="M187.59 139.62H203.782L195.686 125.597L187.59 139.62ZM205.161 141.212H186.211C185.927 141.212 185.664 141.06 185.522 140.814C185.38 140.568 185.38 140.264 185.522 140.018L194.997 123.607C195.139 123.361 195.402 123.209 195.686 123.209C195.971 123.209 196.233 123.361 196.376 123.607L205.851 140.018C205.993 140.264 205.993 140.568 205.851 140.814C205.708 141.06 205.445 141.212 205.161 141.212Z"
    fill="#5EB3E4" />
  <g style="mix-blend-mode:lighten" opacity="0.382">
    <path fill-rule="evenodd" clip-rule="evenodd" d="M86.3981 79.9093V43.3615H172.555" fill="#515461" />
  </g>
</svg>
