<svg width="259" height="144" viewBox="0 0 259 144" fill="none" xmlns="http://www.w3.org/2000/svg">
  <g clip-path="url(#clip0)">
    <path fill-rule="evenodd" clip-rule="evenodd"
      d="M129.118 128.327C90.4727 128.327 59.2727 124.303 59.2727 119.333C59.2727 114.363 90.4727 110.34 129.118 110.34C167.645 110.34 198.964 114.363 198.964 119.333C198.964 124.303 167.645 128.327 129.118 128.327Z"
      fill="#090C17" fill-opacity="0.2" />
    <path fill-rule="evenodd" clip-rule="evenodd"
      d="M71.1287 43.6296L185.529 41.4996L187.065 42.0913L186.711 118.771L70.0651 119.363L71.1287 43.6296Z"
      fill="#262A3A" />
    <path fill-rule="evenodd" clip-rule="evenodd" d="M70.3014 99.6013L186.12 42.8013H70.3014V99.6013Z" fill="white"
      fill-opacity="0.05" />
    <path fill-rule="evenodd" clip-rule="evenodd"
      d="M71.1287 117.943H185.41V43.393H71.1287V117.943ZM186.71 120.428H69.8287C69.1196 120.428 68.6469 119.836 68.6469 119.245V42.0913C68.6469 41.3813 69.2378 40.908 69.8287 40.908H186.592C187.301 40.908 187.774 41.4996 187.774 42.0913V119.126C187.892 119.836 187.301 120.428 186.71 120.428Z"
      fill="#090C17" />
    <path d="M144.047 93.3296L129.038 67.6513L113.911 93.3296H144.047Z" stroke="#EB6654" stroke-width="2" />
    <path fill-rule="evenodd" clip-rule="evenodd"
      d="M123.091 45.6117L122.854 43.8367L123.682 43.7184C124.745 43.6 125.809 43.4817 126.873 43.3634H127.7L127.818 45.1384H126.991C125.927 45.1384 124.982 45.2567 123.918 45.4934L123.091 45.6117ZM134.909 45.6117L134.082 45.4934C133.136 45.375 132.073 45.2567 131.009 45.1384H130.182L130.3 43.3634H131.127C132.191 43.4817 133.255 43.6 134.318 43.7184L135.145 43.8367L134.909 45.6117ZM116.236 47.505L115.645 45.8484L116.473 45.4934C117.418 45.1384 118.482 44.7834 119.545 44.5467L120.373 44.31L120.845 45.9667L120.018 46.2034C119.073 46.44 118.127 46.795 117.182 47.15L116.236 47.505ZM141.764 47.6234L140.936 47.2683C139.991 46.9133 139.045 46.5584 138.1 46.3217L137.273 46.085L137.745 44.4284L138.573 44.665C139.636 44.9017 140.582 45.2567 141.645 45.6117L142.473 45.9667L141.764 47.6234ZM110.091 50.8183L109.145 49.3984L109.854 48.925C110.8 48.3334 111.627 47.86 112.573 47.2683L113.4 46.9134L114.227 48.4517L113.4 48.8067C112.454 49.28 111.627 49.7534 110.8 50.345L110.091 50.8183ZM147.909 50.9367L147.2 50.4634C146.373 49.8717 145.427 49.3984 144.6 48.925L143.773 48.57L144.6 47.0317L145.427 47.3867C146.373 47.86 147.318 48.4517 148.145 49.0433L148.855 49.5167L147.909 50.9367ZM104.654 55.4334L103.473 54.25L104.064 53.6584C104.773 52.9484 105.6 52.2384 106.427 51.5284L107.136 50.9367L108.2 52.2384L107.491 52.83C106.664 53.4217 105.954 54.1317 105.245 54.8417L104.654 55.4334ZM153.345 55.5517L152.755 54.96C152.045 54.25 151.336 53.54 150.509 52.9484L149.8 52.3567L150.864 51.055L151.573 51.6467C152.4 52.3567 153.227 53.0667 153.936 53.7767L154.527 54.3683L153.345 55.5517ZM122.973 27.27L122.854 25.495L123.682 25.3767C124.745 25.2584 125.809 25.2584 126.873 25.14H127.7L127.818 26.915H126.991C125.927 26.915 124.982 27.0334 123.918 27.1517L122.973 27.27ZM134.909 27.27L134.082 27.1517C133.018 27.0334 132.073 27.0334 131.009 26.915H130.182L130.3 25.14H131.127C132.191 25.14 133.255 25.2584 134.318 25.3767L135.145 25.495L134.909 27.27ZM116 28.5717L115.645 26.915L116.473 26.6784C117.536 26.4417 118.482 26.205 119.545 26.0867L120.373 25.9684L120.727 27.7434L119.9 27.8617C118.954 27.98 117.891 28.2167 116.945 28.4534L116 28.5717ZM142 28.5717L141.173 28.335C140.227 28.0984 139.164 27.8617 138.218 27.7434L137.273 27.625L137.627 25.85L138.455 25.9684C139.518 26.205 140.582 26.3234 141.527 26.56L142.355 26.7967L142 28.5717ZM109.145 30.82L108.554 29.1634L109.382 28.8084C110.327 28.4534 111.391 28.0984 112.336 27.7434L113.164 27.5067L113.754 29.1634L112.927 29.4C111.982 29.755 111.036 30.11 110.091 30.465L109.145 30.82ZM148.736 30.82L147.909 30.465C146.964 30.11 146.018 29.755 145.073 29.4L144.245 29.1634L144.836 27.5067L145.664 27.7434C146.727 28.0984 147.673 28.4534 148.618 28.8084L149.445 29.1634L148.736 30.82ZM102.764 33.8967L101.936 32.3584L102.645 31.885C103.591 31.4117 104.536 30.9384 105.482 30.465L106.309 30.11L107.018 31.6484L106.191 32.0034C105.245 32.4767 104.3 32.95 103.473 33.4234L102.764 33.8967ZM155.118 34.015L154.409 33.5417C153.464 33.0684 152.636 32.595 151.691 32.1217L150.864 31.7667L151.573 30.2284L152.4 30.5834C153.345 31.0567 154.291 31.53 155.236 32.0034L155.945 32.4767L155.118 34.015ZM96.8545 37.92L95.7909 36.5L96.5 36.0267C97.3272 35.435 98.1545 34.725 99.1 34.1334L99.809 33.66L100.754 35.08L100.045 35.5534C99.2181 36.145 98.3909 36.7367 97.5636 37.3284L96.8545 37.92ZM161.027 38.0384L160.318 37.565C159.491 36.9734 158.664 36.3817 157.836 35.79L157.127 35.3167L158.073 33.8967L158.782 34.37C159.609 34.9617 160.555 35.5534 161.382 36.2634L162.091 36.7367L161.027 38.0384ZM91.5363 42.6534L90.3545 41.47L90.9454 40.8784C91.6545 40.1684 92.4818 39.4584 93.309 38.7484L94.0181 38.1567L95.1999 39.4584L94.3727 40.05C93.6636 40.76 92.8363 41.47 92.1272 42.18L91.5363 42.6534ZM166.345 42.7717L165.755 42.18C165.045 41.47 164.336 40.76 163.509 40.05L162.8 39.4584L163.982 38.1567L164.691 38.7484C165.518 39.4584 166.227 40.1684 166.936 40.8784L167.527 41.47L166.345 42.7717ZM123.091 8.92835L122.973 7.15335L123.8 7.03502C124.982 7.03502 125.927 6.91669 126.991 6.91669H127.818V8.69169H126.991C125.927 8.69169 124.982 8.81002 123.918 8.81002L123.091 8.92835ZM135.145 8.92835L134.318 8.81002C133.255 8.69169 132.309 8.69169 131.245 8.69169H130.418V6.91669H131.245C132.309 6.91669 133.373 7.03502 134.436 7.03502L135.264 7.15335L135.145 8.92835ZM116 9.87502L115.764 8.10002L116.591 7.98169C117.654 7.74502 118.718 7.62669 119.664 7.50835L120.491 7.39002L120.727 9.16502L119.9 9.28335C118.836 9.40169 117.891 9.52002 116.827 9.75669L116 9.87502ZM142.236 9.87502L141.409 9.75669C140.345 9.52002 139.4 9.40169 138.336 9.28335L137.509 9.16502L137.745 7.39002L138.573 7.50835C139.636 7.74502 140.7 7.86335 141.645 8.10002L142.473 8.21835L142.236 9.87502ZM109.027 11.5317L108.554 9.87502L109.382 9.63835C110.445 9.28335 111.391 9.04669 112.454 8.81002L113.282 8.57335L113.636 10.3484L112.809 10.4667C111.864 10.7034 110.8 10.94 109.854 11.1767L109.027 11.5317ZM149.209 11.65L148.382 11.4134C147.436 11.1767 146.373 10.8217 145.427 10.585L144.6 10.3484L144.955 8.69169L145.782 8.92835C146.845 9.16502 147.791 9.40169 148.855 9.75669L149.682 9.99335L149.209 11.65ZM102.291 13.8984L101.7 12.2417L102.527 11.8867C103.473 11.5317 104.536 11.1767 105.482 10.8217L106.309 10.585L106.9 12.2417L106.073 12.4784C105.009 12.8334 104.064 13.1884 103 13.5434L102.291 13.8984ZM155.945 14.0167L155.118 13.6617C154.173 13.3067 153.227 12.9517 152.282 12.5967L151.455 12.36L152.045 10.7034L152.873 10.94C153.818 11.295 154.882 11.65 155.827 12.1234L156.655 12.4784L155.945 14.0167ZM95.6727 16.8567L94.8454 15.3184L95.6727 14.9634C96.6181 14.49 97.5636 14.0167 98.509 13.5434L99.3363 13.1884L100.045 14.7267L99.2181 15.2C98.2727 15.6734 97.3272 16.0284 96.5 16.5017L95.6727 16.8567ZM162.445 17.0934L161.618 16.7384C160.673 16.265 159.727 15.7917 158.9 15.3184L158.073 14.9634L158.782 13.425L159.727 13.78C160.673 14.2534 161.618 14.7267 162.564 15.2L163.273 15.555L162.445 17.0934ZM89.5272 20.525L88.5818 19.105L89.2909 18.6317C90.1181 18.04 91.0636 17.4484 92.009 16.975L92.7181 16.5017L93.5454 18.04L92.8363 18.5134C92.009 18.9867 91.0636 19.5784 90.2363 20.17L89.5272 20.525ZM168.591 20.88L167.882 20.4067C167.055 19.815 166.109 19.3417 165.282 18.75L164.573 18.2767L165.518 16.7384L166.227 17.2117C167.173 17.8034 168 18.2767 168.945 18.8684L169.655 19.3417L168.591 20.88ZM83.8545 24.9034L82.6727 23.4834L83.3818 22.8917C84.209 22.1817 85.0363 21.59 85.8636 20.9984L86.5727 20.525L87.6363 21.945L86.9272 22.4184C86.0999 23.01 85.2727 23.6017 84.4454 24.3117L83.8545 24.9034ZM174.382 25.14L173.673 24.6667C172.845 23.9567 172.018 23.365 171.191 22.7734L170.482 22.3L171.545 20.88L172.255 21.3534C173.082 21.945 173.909 22.655 174.736 23.2467L175.445 23.8384L174.382 25.14ZM78.5363 29.755L77.3545 28.5717L77.9454 27.98C78.6545 27.27 79.4818 26.56 80.1909 25.85L80.7818 25.2584L81.9636 26.56L81.3727 27.0334C80.6636 27.7434 79.8363 28.4534 79.1272 29.1634L78.5363 29.755ZM179.582 30.11L178.991 29.5184C178.282 28.8084 177.573 28.0984 176.745 27.3884L176.155 26.7967L177.336 25.495L177.927 26.0867C178.755 26.7967 179.464 27.5067 180.173 28.2167L180.764 28.8084L179.582 30.11Z"
      fill="#EB6654" />
  </g>
  <defs>
    <clipPath id="clip0">
      <rect width="259" height="144" fill="white" />
    </clipPath>
  </defs>
</svg>
