<svg width="259" height="144" viewBox="0 0 259 144" fill="none" xmlns="http://www.w3.org/2000/svg">
  <g clip-path="url(#clip0)">
    <path fill-rule="evenodd" clip-rule="evenodd"
      d="M70.1951 16.6152H184.713L186.131 17.2069L185.777 93.2952L70.1951 93.8869V16.6152Z" fill="#262A3A" />
    <path fill-rule="evenodd" clip-rule="evenodd" d="M70.4315 74.2435L185.186 17.9169H70.4315V74.2435Z" fill="white"
      fill-opacity="0.05" />
    <path fill-rule="evenodd" clip-rule="evenodd"
      d="M71.2705 92.3379H184.607V18.4979H71.2705V92.3379ZM185.789 94.8229H69.9705C69.2615 94.8229 68.7887 94.2313 68.7887 93.6396V17.1963C68.7887 16.4863 69.3796 16.0129 69.9705 16.0129H185.789C186.498 16.0129 186.971 16.6046 186.971 17.1963V93.5213C186.971 94.2313 186.498 94.8229 185.789 94.8229Z"
      fill="#090C17" />
    <path fill-rule="evenodd" clip-rule="evenodd"
      d="M160.909 122.883C160.909 126.197 146.373 128.8 128.409 128.8C110.445 128.8 95.9091 126.197 95.9091 122.883C95.9091 119.57 110.445 116.967 128.409 116.967C146.373 116.967 160.909 119.57 160.909 122.883Z"
      fill="#090C17" fill-opacity="0.2" />
    <path fill-rule="evenodd" clip-rule="evenodd"
      d="M137.102 123.877L118.78 123.912C116.889 123.879 115.376 122.55 115.407 120.776L115.17 80.0592C115.199 78.4028 116.641 77.0078 118.534 76.9226L136.856 76.8882C138.747 76.9213 140.261 78.2496 140.23 80.0243L140.467 120.741C140.436 122.516 138.993 123.91 137.102 123.877Z"
      fill="#090C17" />
    <path fill-rule="evenodd" clip-rule="evenodd"
      d="M126.771 119.791C127.372 119.21 128.317 119.227 128.898 119.829C129.478 120.43 129.462 121.377 128.861 121.958C128.26 122.539 127.314 122.523 126.734 121.921C126.153 121.319 126.17 120.373 126.771 119.791Z"
      fill="#262A3A" />
    <path fill-rule="evenodd" clip-rule="evenodd"
      d="M138.885 117.874L116.897 117.96C116.66 117.956 116.426 117.834 116.43 117.597L116.357 80.9084C116.361 80.6718 116.599 80.5577 116.835 80.5618L138.824 80.475C139.061 80.4792 139.295 80.6017 139.291 80.8383L139.364 117.527C139.36 117.764 139.122 117.878 138.885 117.874Z"
      fill="#60AE51" />
    <mask id="mask0" mask-type="alpha" maskUnits="userSpaceOnUse" x="116" y="80" width="24" height="38">
      <path fill-rule="evenodd" clip-rule="evenodd"
        d="M138.887 117.874L116.897 117.959C116.66 117.955 116.426 117.832 116.43 117.596L116.354 80.9084C116.358 80.6718 116.597 80.5577 116.833 80.5618L138.824 80.4764C139.06 80.4806 139.295 80.6031 139.291 80.8397L139.366 117.527C139.362 117.764 139.124 117.878 138.887 117.874Z"
        fill="white" />
    </mask>
    <g mask="url(#mask0)">
      <path fill-rule="evenodd" clip-rule="evenodd"
        d="M114.465 101.349L152.119 84.0201C152.896 80.1284 149.974 78.1837 143.591 78.1902C137.208 78.1967 127.268 78.851 114.008 80.0388L114.465 101.349Z"
        fill="white" fill-opacity="0.1" />
    </g>
    <path
      d="M110.091 61.35C122.736 51.8833 134.555 51.8833 145.545 61.35M116 69.0417C124.627 61.9417 132.9 61.9417 140.818 69.0417"
      stroke="#60AE51" stroke-width="2" stroke-linecap="round" />
  </g>
  <defs>
    <clipPath id="clip0">
      <rect width="259" height="144" fill="white" />
    </clipPath>
  </defs>
</svg>
