<svg width="259" height="144" viewBox="0 0 259 144" fill="none" xmlns="http://www.w3.org/2000/svg">
  <path fill-rule="evenodd" clip-rule="evenodd"
    d="M132.063 95.8131C132.063 97.1664 133.206 98.2738 134.603 98.2738H216.46C217.857 98.2738 219.001 97.1664 219.001 95.8131V44.6065C219.001 43.2533 217.857 42.1464 216.46 42.1464H134.603C133.206 42.1464 132.063 43.2533 132.063 44.6065V95.8131Z"
    fill="black" fill-opacity="0.2" />
  <path fill-rule="evenodd" clip-rule="evenodd"
    d="M132.128 91.6348C132.128 92.988 133.271 94.0955 134.668 94.0955H216.525C217.922 94.0955 219.066 92.988 219.066 91.6348V40.4281C219.066 39.0749 217.922 37.968 216.525 37.968H134.668C133.271 37.968 132.128 39.0749 132.128 40.4281V91.6348Z"
    fill="#3A3D4C" stroke="black" stroke-width="4" />
  <path fill-rule="evenodd" clip-rule="evenodd"
    d="M211.086 39.4322H135.992C134.572 39.4322 133.41 40.561 133.41 41.9407V75.8092" fill="white"
    fill-opacity="0.05" />
  <path opacity="0.804" fill-rule="evenodd" clip-rule="evenodd"
    d="M84.8543 142.709L39.8386 116.657C38.667 115.979 37.5814 114.568 38.9382 113.289L69.9675 95.4328C71.7522 94.5055 73.2379 94.6973 74.4099 95.3754L118.344 120.582C119.515 121.26 123.605 122.995 120.703 125.413L89.9766 143.274C88.1867 144.198 86.0263 143.387 84.8543 142.709Z"
    fill="#FFD200" />
  <path opacity="0.803" fill-rule="evenodd" clip-rule="evenodd"
    d="M39.8386 92.8422C38.667 92.1637 37.5814 90.7523 38.9382 89.4736L69.9675 71.6176C71.7522 70.6903 73.2379 70.8821 74.4099 71.5602L118.344 96.7668C119.515 97.4449 123.605 99.1794 120.703 101.598L89.9766 119.459C88.1867 120.383 86.0263 119.572 84.8543 118.894L39.8386 92.8422Z"
    fill="#EC5B33" />
  <path opacity="0.806" fill-rule="evenodd" clip-rule="evenodd"
    d="M84.8543 95.5335L39.8386 69.4733C38.667 68.7945 37.5814 67.3826 38.9382 66.1035L69.9675 48.2417C71.7522 47.3141 73.2379 47.5059 74.4099 48.1842L118.344 73.3991C119.515 74.0774 123.605 75.8125 120.703 78.2321L89.9766 96.0987C88.1867 97.0232 86.0263 96.2118 84.8543 95.5335Z"
    fill="#4EBABC" />
  <path opacity="0.799" fill-rule="evenodd" clip-rule="evenodd"
    d="M84.8543 72.0294L39.8386 45.9777C38.667 45.2996 37.5814 43.8878 38.9382 42.6094L69.9675 24.7535C71.7522 23.8257 73.2379 24.0176 74.4099 24.6956L118.344 49.9022C119.515 50.5807 123.605 52.3149 120.703 54.7336L89.9766 72.5944C88.1867 73.5186 86.0263 72.7075 84.8543 72.0294Z"
    fill="#E6E6E6" />
  <path opacity="0.804" fill-rule="evenodd" clip-rule="evenodd"
    d="M84.8543 48.322L39.8386 22.2703C38.667 21.5923 37.5814 20.1804 38.9382 18.9021L69.9675 1.04615C71.7522 0.118409 73.2379 0.310221 74.4099 0.988306L118.344 26.1949C119.515 26.8734 123.605 28.6075 120.703 31.0263L89.9766 48.887C88.1867 49.8113 86.0263 49.0001 84.8543 48.322Z"
    fill="#60AE51" />
  <path fill-rule="evenodd" clip-rule="evenodd"
    d="M146.829 113.707C147.99 114.229 148.605 114.846 149.125 116.012C149.645 114.846 150.26 114.229 151.421 113.707C150.26 113.185 149.645 112.569 149.125 111.403C148.605 112.569 147.99 113.185 146.829 113.707ZM149.125 117.659C148.939 117.659 148.774 117.54 148.715 117.363C148.021 115.3 147.538 114.815 145.482 114.119C145.306 114.06 145.188 113.894 145.188 113.707C145.188 113.521 145.306 113.355 145.482 113.296C147.538 112.599 148.021 112.114 148.715 110.052C148.774 109.875 148.939 109.756 149.125 109.756C149.311 109.756 149.476 109.875 149.535 110.052C150.229 112.114 150.712 112.6 152.768 113.296C152.944 113.355 153.063 113.521 153.063 113.707C153.063 113.894 152.944 114.06 152.768 114.119C150.712 114.815 150.229 115.3 149.535 117.363C149.476 117.54 149.311 117.659 149.125 117.659ZM126.594 104.896C125.973 104.896 125.469 105.402 125.469 106.025C125.469 106.647 125.973 107.153 126.594 107.153C127.214 107.153 127.719 106.647 127.719 106.025C127.719 105.402 127.214 104.896 126.594 104.896ZM126.594 108C125.508 108 124.625 107.114 124.625 106.025C124.625 104.935 125.508 104.049 126.594 104.049C127.679 104.049 128.563 104.935 128.563 106.025C128.563 107.114 127.679 108 126.594 108ZM112.594 62.7492C111.974 62.7492 111.469 63.2555 111.469 63.8783C111.469 64.5006 111.974 65.007 112.594 65.007C113.214 65.007 113.719 64.5006 113.719 63.8783C113.719 63.2555 113.214 62.7492 112.594 62.7492ZM112.594 65.8537C111.508 65.8537 110.625 64.9676 110.625 63.8783C110.625 62.789 111.508 61.9025 112.594 61.9025C113.679 61.9025 114.563 62.789 114.563 63.8783C114.563 64.9676 113.679 65.8537 112.594 65.8537ZM130.531 25.8711C129.911 25.8711 129.406 26.3775 129.406 27.0002C129.406 27.6226 129.911 28.1289 130.531 28.1289C131.151 28.1289 131.656 27.6226 131.656 27.0002C131.656 26.3775 131.151 25.8711 130.531 25.8711ZM130.531 28.9756C129.446 28.9756 128.563 28.0895 128.563 27.0002C128.563 25.9105 129.446 25.0244 130.531 25.0244C131.617 25.0244 132.5 25.9105 132.5 27.0002C132.5 28.0895 131.617 28.9756 130.531 28.9756ZM140.556 120.357C140.42 120.253 140.242 120.278 140.139 120.414L139.882 120.753L139.543 120.496C139.408 120.392 139.23 120.417 139.126 120.553C139.023 120.689 139.047 120.868 139.184 120.97L139.522 121.228L139.265 121.567C139.162 121.703 139.187 121.882 139.323 121.985C139.389 122.036 139.484 122.055 139.542 122.047C139.602 122.039 139.687 121.997 139.738 121.928L139.995 121.589L140.333 121.846C140.4 121.898 140.495 121.916 140.553 121.908C140.613 121.9 140.698 121.858 140.749 121.789C140.852 121.653 140.828 121.474 140.692 121.371L140.353 121.114L140.61 120.775C140.716 120.638 140.691 120.458 140.556 120.357ZM142.679 99.7383C142.51 99.6091 142.286 99.6398 142.158 99.8098L141.837 100.234L141.413 99.912C141.244 99.7829 141.021 99.8136 140.892 99.9836C140.763 100.154 140.793 100.377 140.964 100.506L141.386 100.828L141.066 101.252C140.937 101.422 140.967 101.645 141.137 101.774C141.221 101.838 141.339 101.862 141.412 101.851C141.486 101.842 141.593 101.789 141.657 101.703L141.978 101.279L142.401 101.601C142.485 101.665 142.603 101.688 142.676 101.678C142.75 101.668 142.857 101.615 142.921 101.529C143.049 101.359 143.019 101.136 142.849 101.007L142.426 100.685L142.747 100.261C142.879 100.09 142.849 99.8649 142.679 99.7383ZM127.367 79.9821C127.198 79.853 126.974 79.8837 126.846 80.0537L126.524 80.4777L126.101 80.1563C125.931 80.0267 125.708 80.0574 125.58 80.2278C125.451 80.3974 125.481 80.6212 125.651 80.7499L126.074 81.0713L125.753 81.4954C125.624 81.6658 125.654 81.8888 125.825 82.0179C125.908 82.0819 126.026 82.1054 126.1 82.0953C126.174 82.0852 126.281 82.0327 126.344 81.9464L126.665 81.5228L127.089 81.8442C127.172 81.9085 127.29 81.9317 127.364 81.9216C127.438 81.9115 127.545 81.8585 127.608 81.7731C127.737 81.6031 127.706 81.3797 127.537 81.2506L127.114 80.9287L127.435 80.5047C127.567 80.3343 127.536 80.1088 127.367 79.9821ZM142.679 65.9334C142.51 65.8042 142.287 65.8349 142.158 66.0049L141.837 66.4289L141.414 66.1075C141.244 65.9779 141.021 66.0087 140.892 66.1786C140.763 66.3486 140.794 66.5724 140.964 66.7011L141.387 67.0226L141.066 67.4466C140.937 67.617 140.967 67.84 141.137 67.9691C141.221 68.0331 141.339 68.0566 141.412 68.0466C141.486 68.0365 141.593 67.9839 141.657 67.8976L141.978 67.474L142.401 67.7954C142.485 67.8598 142.603 67.8829 142.676 67.8728C142.75 67.8627 142.857 67.8097 142.921 67.7243C143.049 67.5543 143.019 67.3309 142.849 67.2018L142.426 66.8799L142.747 66.4559C142.88 66.2855 142.849 66.06 142.679 65.9334ZM142.679 47.4943C142.509 47.3654 142.286 47.3956 142.158 47.5659L141.837 47.9899L141.413 47.6682C141.244 47.5388 141.021 47.5696 140.892 47.7398C140.763 47.9091 140.794 48.1331 140.963 48.2616L141.387 48.5837L141.066 49.0077C140.937 49.178 140.968 49.401 141.137 49.5304C141.221 49.5942 141.339 49.6176 141.412 49.6075C141.486 49.5974 141.593 49.5447 141.657 49.4588L141.978 49.0348L142.401 49.357C142.485 49.4208 142.603 49.4442 142.676 49.4341C142.75 49.424 142.857 49.3712 142.921 49.2854C143.049 49.1156 143.019 48.8921 142.849 48.7632L142.426 48.441L142.747 48.017C142.879 47.8467 142.849 47.621 142.679 47.4943Z"
    fill="#B3D5D7" />
  <path
    d="M175.375 73.3171C179.241 73.3171 182.375 70.1722 182.375 66.2927C182.375 62.4132 179.241 59.2683 175.375 59.2683C171.509 59.2683 168.375 62.4132 168.375 66.2927C168.375 70.1722 171.509 73.3171 175.375 73.3171Z"
    stroke="white" stroke-width="2.5" stroke-linecap="round" stroke-linejoin="round" />
  <path d="M172.575 66.2927H178.175M175.375 63.483V69.1025V63.483Z" stroke="white" stroke-width="2.5"
    stroke-linecap="round" stroke-linejoin="round" />
  <path d="M118.938 29.8537C135.056 33.8588 149.242 42.504 161.496 55.7894" stroke="#60AE51" stroke-width="2"
    stroke-linecap="round" stroke-dasharray="6 6" />
  <path d="M116.312 54.3058C131.279 54.8505 145.837 57.3827 159.985 61.9024" stroke="#E6E6E6" stroke-width="2"
    stroke-linecap="round" stroke-dasharray="6 6" />
  <path d="M117.188 98.2871C132.74 96.0245 147.509 88.0736 161.496 74.4344" stroke="#EC5B33" stroke-width="2"
    stroke-linecap="round" stroke-dasharray="6 6" />
  <path d="M164.875 77.4269C152.844 103.15 136.365 118.858 115.438 124.551" stroke="#FFD100" stroke-width="3"
    stroke-linecap="round" stroke-dasharray="6 6" />
  <path d="M118.938 76.2483C136.509 71.4844 150.192 69.1025 159.985 69.1025" stroke="#4EBABC" stroke-width="2"
    stroke-linecap="round" stroke-dasharray="6 6" />
</svg>
