<svg width="268" height="432" viewBox="0 0 268 432" fill="none" xmlns="http://www.w3.org/2000/svg">
  <g clip-path="url(#clip0)">
    <path d="M118.085 332.704L163.343 358.834L163.613 405.869L118.355 379.739L118.085 332.704Z" fill="#1F6EA7" />
    <path d="M74.5342 358.834L119.792 384.965L120.062 432L74.8043 405.87L74.5342 358.834Z" fill="#D1C4E9" />
    <path fill-rule="evenodd" clip-rule="evenodd"
      d="M266.829 170.433C266.716 149.529 257.875 125.767 243.939 104.837C231.849 86.7019 215.953 70.7361 198.594 60.6933L111.091 10.1741C90.6307 -1.61945 72.3741 -2.82146 60.0144 4.81738L16.7509 30.765H44.3534C43.7869 34.3221 43.5189 37.9204 43.5521 41.5221L43.8221 90.125L89.1151 116.256L88.8451 67.6527C88.843 66.8061 88.8866 65.96 88.9758 65.118L200.466 130.993L214.193 122.745C218.723 129.643 221.588 137.447 221.623 144.302L221.928 199.177C221.989 208.827 216.449 213.888 208.48 212.904L160.077 201.328C149.451 198.541 140.096 199.455 132.884 203.654L132.605 203.819L132.413 203.941L88.9061 230.072V237.989H117.65L117.867 276.671L163.16 302.802L162.943 262.822C162.943 256.768 166.183 253.424 171.008 253.607L218.488 264.79C246.761 272.63 267.317 257.465 267.143 225.298L266.829 170.433Z"
      fill="#673AB7" />
    <path fill-rule="evenodd" clip-rule="evenodd" d="M119.505 328.871L163.056 302.741V274.406H118.085L119.505 328.871Z"
      fill="#512DA8" />
    <path
      d="M267.143 225.307L266.829 170.433C266.716 149.528 257.875 125.767 243.939 104.836L224.628 116.438L195.24 134.138L221.867 196.607V199.22C221.928 208.862 216.388 213.932 208.419 212.947L198.019 210.465V260.017L206.851 262.108V288.308L249.897 262.465C250.071 262.369 250.236 262.264 250.402 262.16L251.038 261.785C261.15 255.349 267.239 242.867 267.143 225.307Z"
      fill="#512DA8" />
    <path
      d="M215.892 73.0181C215.892 73.0181 233.818 88.287 243.939 104.836C254.06 121.386 261.107 134.103 264.913 153.065L221.362 179.195L172.358 99.1312L215.892 73.0181Z"
      fill="url(#paint0_linear)" />
    <path fill-rule="evenodd" clip-rule="evenodd" d="M45.5293 142.386L89.089 116.255V76.084H43.5521L45.5293 142.386Z"
      fill="#673AB7" />
    <path fill-rule="evenodd" clip-rule="evenodd"
      d="M67.4964 36.3047C29.9991 14.6512 -0.216585 28.692 0.00116961 67.6527L0.271186 116.256L45.5642 142.386L45.2942 93.7833C45.2245 80.7964 55.2935 76.119 67.7926 83.331L155.295 133.85C167.794 141.062 177.985 157.437 178.055 170.433L178.36 225.307C178.421 234.958 172.881 240.019 164.911 239.034L116.509 227.459C91.7543 220.97 73.8636 234.479 74.0378 262.761L74.2555 302.741L119.549 328.871L119.331 288.892C119.331 282.838 122.571 279.493 127.396 279.676L174.937 290.921C203.21 298.76 223.766 283.596 223.592 251.429L223.278 196.555C223.06 157.594 192.496 108.46 154.999 86.8064L67.4964 36.3047Z"
      fill="#D1C4E9" />
    <path fill-rule="evenodd" clip-rule="evenodd"
      d="M74.5342 358.834L118.085 332.704L163.343 358.834L119.792 384.965L74.5342 358.834Z" fill="#673AB7" />
    <path fill-rule="evenodd" clip-rule="evenodd"
      d="M120.062 432L163.613 405.87L163.343 358.834L119.792 384.965L120.062 432Z" fill="#512DA8" />
  </g>
  <defs>
    <linearGradient id="paint0_linear" x1="198.768" y1="86.0572" x2="243.86" y2="162.332"
      gradientUnits="userSpaceOnUse">
      <stop stop-color="#673AB7" />
      <stop offset="1" stop-color="#512DA8" />
    </linearGradient>
    <clipPath id="clip0">
      <rect width="268" height="432" fill="white" />
    </clipPath>
  </defs>
</svg>
